<svg width="24" height="17" viewBox="0 0 24 17" fill="none" xmlns="http://www.w3.org/2000/svg">
<g clip-path="url(#clip0_2230_19064)">
<path opacity="0.2" d="M15.9282 1.56735H1.46939C0.793469 1.56735 0 2.34613 0 3.03674V14.0571C0 14.7478 0.793469 15.5265 1.46939 15.5265H19.8367C20.5127 15.5265 21.3061 14.7478 21.3061 14.0571V8.5249C20.6872 9.08165 19.9228 9.4511 19.102 9.59021V9.64898C19.102 10.1339 18.8376 10.3837 18.3673 10.3837H2.20408C1.73388 10.3837 1.46939 10.1339 1.46939 9.64898V8.91429C1.46939 8.42939 1.73388 8.1796 2.20408 8.1796H15.0833C14.6592 7.7096 14.3416 7.1535 14.1524 6.54938C13.9632 5.94525 13.9068 5.30738 13.9871 4.67942C14.0673 4.05147 14.2823 3.44827 14.6173 2.91114C14.9523 2.374 15.3995 1.91561 15.9282 1.56735V1.56735Z" fill="#96B3CE"/>
<path d="M14.209 3.77142H0V5.9755H14.018C13.8945 5.23647 13.9602 4.47821 14.209 3.77142Z" fill="#697386"/>
</g>
<path d="M18.8143 10.2857C17.4535 10.2857 16.1485 9.74388 15.1863 8.77941C14.2241 7.81493 13.6836 6.50683 13.6836 5.14286C13.6836 3.77889 14.2241 2.47078 15.1863 1.50631C16.1485 0.541835 17.4535 0 18.8143 0C20.175 0 21.48 0.541835 22.4422 1.50631C23.4044 2.47078 23.9449 3.77889 23.9449 5.14286C23.9449 6.50683 23.4044 7.81493 22.4422 8.77941C21.48 9.74388 20.175 10.2857 18.8143 10.2857ZM16.7767 3.01224H16.1976L14.783 3.73224V4.46694L15.9044 3.87918V7.27347H16.784V3.01224H16.7767ZM18.4624 3.6C18.8802 3.6 19.1734 3.8351 19.1734 4.17306C19.1734 4.54041 18.8289 4.79755 18.3305 4.79755H18.1106V5.42204H18.3745C18.9022 5.42204 19.2614 5.68653 19.2614 6.06857C19.2614 6.43592 18.9095 6.68571 18.4111 6.68571C18.0447 6.68571 17.6782 6.56816 17.2971 6.34041V7.0751C17.7075 7.25143 18.118 7.34694 18.5211 7.34694C19.4813 7.34694 20.1409 6.85469 20.1409 6.14204C20.1409 5.64245 19.8331 5.23837 19.32 5.07673C19.7598 4.9298 20.0456 4.54041 20.0456 4.09959C20.0456 3.40898 19.4373 2.93878 18.5577 2.93878C18.1612 2.94318 17.7698 3.02816 17.407 3.18857V3.90857C17.7588 3.7102 18.118 3.6 18.4624 3.6ZM21.6288 5.20163C22.1639 5.20163 22.5377 5.51755 22.5377 5.92898C22.5377 6.36245 22.1639 6.66367 21.6288 6.66367C21.3063 6.66367 20.9691 6.56082 20.6247 6.34776V7.10449C20.9838 7.26612 21.3503 7.34694 21.7094 7.34694C21.9 7.34694 22.0759 7.31755 22.2445 7.27347C22.6256 6.64898 22.8455 5.92898 22.8455 5.15755L22.8308 4.84898C22.5583 4.68729 22.2459 4.60581 21.9293 4.61388C21.7974 4.61388 21.6581 4.62122 21.5115 4.64327V3.68816H22.567C22.4754 3.453 22.3626 3.22675 22.2298 3.01224H20.7493V5.32653C21.0424 5.25306 21.3356 5.20163 21.6288 5.20163Z" fill="#697386"/>
<defs>
<clipPath id="clip0_2230_19064">
<rect width="23.5102" height="15.4286" fill="white" transform="translate(0 1.56735)"/>
</clipPath>
</defs>
</svg>
