<svg width="37" height="48" viewBox="0 0 37 48" fill="none" xmlns="http://www.w3.org/2000/svg">
<path fill-rule="evenodd" clip-rule="evenodd" d="M3.80696 16.2331C3.80696 7.27015 11.0788 9.05969e-08 20.0392 9.05969e-08H20.7507C22.8826 -0.000225156 24.9937 0.419566 26.9633 1.2354C28.933 2.05122 30.7226 3.24711 32.23 4.75473C33.7374 6.26235 34.933 8.05218 35.7485 10.022C36.564 11.9918 36.9835 14.1029 36.9829 16.2348C36.9829 19.7885 36.1627 22.4439 34.3627 26.0429C34.2444 26.2812 33.6238 27.5001 33.4584 27.8361C33.1396 28.4789 32.9056 28.988 32.711 29.4697C32.2593 30.584 32.0416 31.5268 32.0416 32.4697C32.0416 34.4214 32.5276 36.4279 33.3427 38.3624C33.6092 38.9974 33.9105 39.6172 34.2453 40.219C34.4244 40.5404 34.5598 40.7607 34.6275 40.8627C34.7471 41.0417 34.8241 41.2458 34.8527 41.4592C34.8812 41.6726 34.8605 41.8897 34.7922 42.0939C34.7238 42.2981 34.6096 42.4839 34.4584 42.6372C34.3071 42.7904 34.1228 42.907 33.9196 42.9781L19.8018 47.9202C19.6252 47.9821 19.438 48.0082 19.2512 47.997C19.0644 47.9859 18.8816 47.9376 18.7136 47.8552C18.5457 47.7727 18.3957 47.6576 18.2727 47.5166C18.1496 47.3756 18.0558 47.2116 17.9967 47.034L15.817 40.4958C15.7231 40.2143 15.5431 39.9695 15.3023 39.7959C15.0616 39.6224 14.7724 39.529 14.4756 39.529H10.8654C9.93806 39.5294 9.01973 39.347 8.16293 38.9923C7.30613 38.6375 6.52768 38.1173 5.87211 37.4614C5.21654 36.8055 4.6967 36.0268 4.34234 35.1698C3.98799 34.3129 3.80606 33.3945 3.80696 32.4671V30.3543C3.80673 29.9795 3.65775 29.6201 3.39273 29.3551C3.12771 29.0901 2.76835 28.9411 2.39356 28.9409C0.615875 28.9409 -0.464964 27.3483 0.195881 25.6958L3.6441 17.0748C3.75153 16.8072 3.8068 16.5215 3.80696 16.2331Z" fill="#5C6E9F"/>
<path d="M20.0178 24C19.9531 23.9977 19.8897 23.9794 19.8327 23.9464C19.7544 23.9005 12 18.9582 12 13.9164C11.9963 12.9299 12.27 11.9651 12.7853 11.1486C13.3006 10.332 14.0334 9.70177 14.8878 9.34037C15.7421 8.97897 16.6782 8.9033 17.5732 9.12326C18.4683 9.34322 19.2807 9.84855 19.9039 10.5731L20.0036 10.6878L20.1246 10.5731C20.7483 9.85561 21.5585 9.35651 22.4498 9.14072C23.3411 8.92493 24.2722 9.00246 25.122 9.3632C25.9717 9.72394 26.7007 10.3512 27.214 11.1633C27.7273 11.9754 28.0012 12.9347 28 13.9164C28 18.9429 20.2813 23.8623 20.2101 23.9464C20.1501 23.9784 20.0847 23.9966 20.0178 24Z" fill="#3FA3FF"/>
</svg>
