<svg width="25" height="19" viewBox="0 0 25 19" fill="none" xmlns="http://www.w3.org/2000/svg">
<path d="M23.2767 14.5345L23.3938 15.2753L23.2767 14.5345C23.2614 14.5369 23.2456 14.5358 23.2305 14.5309C23.2301 14.5308 23.2298 14.5307 23.2294 14.5306L19.707 13.336V5.66229L23.2304 4.4691C23.2456 4.4642 23.2614 4.46303 23.2767 4.46546C23.2925 4.46795 23.3082 4.4743 23.3226 4.48485C23.337 4.49545 23.3498 4.51016 23.3591 4.5285L24.0288 4.19091L23.3591 4.5285C23.3683 4.5468 23.3734 4.56769 23.3735 4.58936V14.411C23.3734 14.4326 23.3682 14.4534 23.359 14.4716C23.3498 14.4899 23.337 14.5046 23.3225 14.5152C23.3082 14.5257 23.2924 14.532 23.2767 14.5345Z" stroke="#5C6E9F" stroke-width="1.5"/>
<path d="M18.2199 17.5002H1.84873C1.59423 17.5002 1.34778 17.3976 1.16426 17.2112C0.980343 17.0245 0.875 16.7688 0.875 16.4997V2.50029C0.875 2.23128 0.980344 1.97556 1.16426 1.7888C1.34779 1.60243 1.59423 1.49988 1.84873 1.49988H18.2199C18.4744 1.49988 18.7209 1.60243 18.9044 1.7888C19.0883 1.97556 19.1937 2.23128 19.1937 2.50029V16.4997C19.1937 16.7688 19.0883 17.0245 18.9044 17.2112C18.7209 17.3976 18.4744 17.5002 18.2199 17.5002Z" stroke="#5C6E9F" stroke-width="1.5"/>
<path d="M5.29404 7.75058C6.24603 7.75058 7.01778 6.96689 7.01778 6.00017C7.01778 5.03344 6.24603 4.24976 5.29404 4.24976C4.34205 4.24976 3.57031 5.03344 3.57031 6.00017C3.57031 6.96689 4.34205 7.75058 5.29404 7.75058Z" fill="#FF507D"/>
</svg>
