<svg width="24" height="24" viewBox="0 0 24 24" fill="none" xmlns="http://www.w3.org/2000/svg">
<g clip-path="url(#clip0_1993_19193)">
<path d="M12 4.34223e-05C15.1826 4.34223e-05 18.2349 1.26432 20.4853 3.51475C22.7357 5.76519 24 8.81745 24 12C24.0006 14.0053 23.4986 15.9787 22.54 17.74L23.25 22.31C23.2474 22.4312 23.1981 22.5468 23.1124 22.6325C23.0267 22.7182 22.9112 22.7675 22.79 22.77L18.95 21.77C16.9145 23.246 14.4644 24.0406 11.95 24.04C8.76741 24.04 5.71516 22.7758 3.46472 20.5253C1.21428 18.2749 -0.0499878 15.2226 -0.0499878 12.04C-0.0552807 10.4566 0.252871 8.88777 0.856689 7.42396C1.46051 5.96016 2.34807 4.63032 3.4682 3.51112C4.58833 2.39192 5.91887 1.50548 7.38318 0.902875C8.84748 0.300272 10.4166 -0.00656313 12 4.34223e-05Z" fill="#39A6F5"/>
<path d="M17.0592 13.89C17.5605 13.89 18.0412 13.6909 18.3956 13.3365C18.7501 12.982 18.9492 12.5013 18.9492 12C18.9492 11.4978 18.7504 11.0161 18.3962 10.66C18.0421 10.304 17.5614 10.1027 17.0592 10.1C16.5553 10.1 16.072 10.3002 15.7157 10.6565C15.3594 11.0128 15.1592 11.4961 15.1592 12C15.1618 12.5022 15.3632 12.9829 15.7192 13.3371C16.0753 13.6912 16.557 13.89 17.0592 13.89Z" fill="#F9F9F9"/>
<path d="M12.2484 13.89C12.7506 13.89 13.2323 13.6912 13.5884 13.3371C13.9444 12.9829 14.1458 12.5022 14.1484 12C14.1484 11.4961 13.9482 11.0128 13.5919 10.6565C13.2356 10.3002 12.7523 10.1 12.2484 10.1C11.7445 10.1 11.2612 10.3002 10.9049 10.6565C10.5486 11.0128 10.3484 11.4961 10.3484 12C10.351 12.5022 10.5524 12.9829 10.9084 13.3371C11.2645 13.6912 11.7462 13.89 12.2484 13.89Z" fill="#F9F9F9"/>
<path d="M7.38123 13.89C7.88341 13.89 8.36516 13.6912 8.72119 13.3371C9.07722 12.9829 9.27861 12.5022 9.28125 12C9.28125 11.4961 9.08105 11.0128 8.72473 10.6565C8.36841 10.3002 7.88514 10.1 7.38123 10.1C6.87731 10.1 6.39404 10.3002 6.03772 10.6565C5.6814 11.0128 5.4812 11.4961 5.4812 12C5.48384 12.5022 5.68523 12.9829 6.04126 13.3371C6.39729 13.6912 6.87904 13.89 7.38123 13.89Z" fill="#F9F9F9"/>
</g>
<defs>
<clipPath id="clip0_1993_19193">
<rect width="24" height="24" fill="white" transform="matrix(-1 0 0 1 24 0)"/>
</clipPath>
</defs>
</svg>


