<svg width="31" height="24" viewBox="0 0 31 24" fill="none" xmlns="http://www.w3.org/2000/svg">
<g clip-path="url(#clip0_2226_18925)">
<path d="M28.929 21.6453H2.06687C1.91215 21.6446 1.75881 21.6744 1.61566 21.7331C1.47251 21.7918 1.34237 21.8782 1.23271 21.9874C1.12305 22.0965 1.03603 22.2262 0.976657 22.3691C0.917282 22.512 0.886717 22.6652 0.886719 22.8199C0.886719 23.1329 1.01106 23.4331 1.23238 23.6544C1.4537 23.8757 1.75387 24.0001 2.06687 24.0001H28.9235C29.2218 23.9796 29.5013 23.8467 29.7054 23.6281C29.9095 23.4096 30.023 23.1217 30.023 22.8227C30.023 22.5236 29.9095 22.2357 29.7054 22.0172C29.5013 21.7986 29.2218 21.6657 28.9235 21.6453H28.929Z" fill="#C2C6D0"/>
<path d="M3.53311 18.8383C3.23478 18.8587 2.95532 18.9917 2.75122 19.2102C2.54712 19.4288 2.43359 19.7167 2.43359 20.0157C2.43359 20.3147 2.54712 20.6026 2.75122 20.8212C2.95532 21.0397 3.23478 21.1727 3.53311 21.1931H27.4504C27.6118 21.2041 27.7737 21.1819 27.9262 21.1277C28.0786 21.0736 28.2183 20.9886 28.3365 20.8782C28.4547 20.7678 28.549 20.6343 28.6135 20.4859C28.6779 20.3375 28.7112 20.1775 28.7112 20.0157C28.7112 19.8539 28.6779 19.6939 28.6135 19.5455C28.549 19.3971 28.4547 19.2636 28.3365 19.1532C28.2183 19.0428 28.0786 18.9578 27.9262 18.9037C27.7737 18.8495 27.6118 18.8273 27.4504 18.8383H25.5037V8.23353H27.4504C27.5276 8.23426 27.6042 8.21968 27.6758 8.19063C27.7473 8.16158 27.8124 8.11863 27.8673 8.06428C27.9222 8.00993 27.9657 7.94524 27.9954 7.87395C28.0252 7.80267 28.0405 7.7262 28.0405 7.64897C28.0405 7.49247 27.9783 7.34239 27.8676 7.23173C27.757 7.12107 27.6069 7.0589 27.4504 7.0589H3.53311C3.38717 7.07306 3.25172 7.14105 3.15317 7.24963C3.05461 7.3582 3.00002 7.49958 3.00002 7.64621C3.00002 7.79285 3.05461 7.93423 3.15317 8.0428C3.25172 8.15138 3.38717 8.21937 3.53311 8.23353H5.48532V18.8328H3.53311V18.8383ZM23.1489 8.23353V18.8328H19.6361V8.23353H23.1489ZM17.2592 8.23353V18.8328H13.7298V8.23353H17.2592ZM7.8401 8.23353H11.364V18.8328H7.8401V8.23353Z" fill="#C2C6D0"/>
<path d="M2.06935 6.5515H28.9425C29.2205 6.54937 29.4888 6.4492 29.7001 6.26864C29.9114 6.08808 30.0522 5.83871 30.0977 5.56449C30.1432 5.29027 30.0904 5.0088 29.9487 4.76967C29.807 4.53055 29.5854 4.34913 29.323 4.25738L15.983 0.104806C15.8312 0.0368023 15.6667 0.00164795 15.5004 0.00164795C15.3341 0.00164795 15.1697 0.0368023 15.0179 0.104806L1.58406 4.3015C1.33878 4.41164 1.13872 4.6026 1.01728 4.84247C0.895836 5.08235 0.86036 5.35663 0.916776 5.61951C0.972541 5.88365 1.11758 6.12051 1.3275 6.29025C1.53742 6.45999 1.79939 6.55225 2.06935 6.5515Z" fill="#C2C6D0"/>
</g>
<defs>
<clipPath id="clip0_2226_18925">
<rect width="29.2279" height="24" fill="white" transform="translate(0.886719)"/>
</clipPath>
</defs>
</svg>
