<svg width="25" height="17" viewBox="0 0 25 17" fill="none" xmlns="http://www.w3.org/2000/svg">
<path d="M13.7577 0H3.24227C1.45161 0 0 1.45161 0 3.24227V13.7577C0 15.5484 1.45161 17 3.24227 17H13.7577C15.5484 17 17 15.5484 17 13.7577V3.24227C17 1.45161 15.5484 0 13.7577 0Z" fill="white"/>
<path d="M22.4484 15.69L19.1484 15.01C18.8637 14.9443 18.6097 14.7839 18.428 14.555C18.2463 14.3261 18.1478 14.0422 18.1484 13.75V3.75001C18.1491 3.45697 18.2479 3.17262 18.4292 2.94239C18.6105 2.71216 18.8637 2.54936 19.1484 2.48002L22.4484 1.80002C22.6377 1.75984 22.8336 1.76239 23.0217 1.80753C23.2099 1.85267 23.3856 1.93926 23.536 2.06095C23.6865 2.18264 23.8078 2.33639 23.8913 2.51096C23.9748 2.68553 24.0182 2.87652 24.0184 3.07001V14.4C24.0251 14.5964 23.9865 14.7916 23.9056 14.9707C23.8247 15.1497 23.7036 15.3077 23.5518 15.4325C23.4 15.5572 23.2215 15.6453 23.0302 15.69C22.8388 15.7346 22.6398 15.7346 22.4484 15.69Z" fill="white"/>
</svg>
