<svg width="25" height="18" viewBox="0 0 25 18" fill="none" xmlns="http://www.w3.org/2000/svg">
<path d="M14.13 0H3.33C1.49089 0 0 1.49089 0 3.33V14.13C0 15.9691 1.49089 17.46 3.33 17.46H14.13C15.9691 17.46 17.46 15.9691 17.46 14.13V3.33C17.46 1.49089 15.9691 0 14.13 0Z" fill="#3365EF"/>
<path d="M22.45 15.6899L19.15 15.01C18.8653 14.9443 18.6112 14.7838 18.4296 14.5549C18.2479 14.326 18.1493 14.0422 18.15 13.7499V3.74994C18.1507 3.45691 18.2495 3.17256 18.4308 2.94233C18.6121 2.7121 18.8653 2.5493 19.15 2.47996L22.45 1.79996C22.6393 1.75978 22.8352 1.76233 23.0233 1.80747C23.2115 1.85261 23.3872 1.9392 23.5376 2.06089C23.688 2.18258 23.8094 2.33633 23.8929 2.5109C23.9763 2.68547 24.0198 2.87646 24.02 3.06995V14.4C24.0267 14.5963 23.9881 14.7916 23.9072 14.9706C23.8262 15.1497 23.7052 15.3077 23.5533 15.4324C23.4015 15.5571 23.2231 15.6452 23.0317 15.6899C22.8404 15.7346 22.6414 15.7346 22.45 15.6899Z" fill="#3365EF"/>
</svg>
