<svg width="24" height="25" viewBox="0 0 24 25" fill="none" xmlns="http://www.w3.org/2000/svg">
<path d="M11.9999 24.7815C9.62658 24.7815 7.30651 24.0777 5.33313 22.7591C3.35975 21.4405 1.82169 19.5664 0.913448 17.3737C0.00520101 15.181 -0.232439 12.7682 0.230579 10.4404C0.693596 8.11268 1.83648 5.97448 3.51469 4.29625C4.62792 3.17706 5.95102 2.2885 7.40821 1.68148C8.8654 1.07446 10.428 0.760913 12.0066 0.7588C13.5852 0.756687 15.1486 1.06605 16.6074 1.66916C18.0662 2.27228 19.3917 3.15729 20.5079 4.27351C21.6242 5.38972 22.5092 6.7152 23.1123 8.17401C23.7154 9.63282 24.0248 11.1963 24.0226 12.7749C24.0205 14.3534 23.707 15.9161 23.1 17.3732C22.493 18.8304 21.6044 20.1535 20.4852 21.2668C19.3735 22.3846 18.0511 23.2708 16.5946 23.8741C15.1381 24.4774 13.5764 24.7858 11.9999 24.7815V24.7815ZM11.9999 2.4717C6.315 2.4717 1.69014 7.09656 1.69014 12.7815C1.69014 18.4664 6.315 23.0913 11.9999 23.0913C17.6849 23.0913 22.3098 18.4664 22.3098 12.7815C22.3098 7.09656 17.6849 2.4717 11.9999 2.4717V2.4717Z" fill="white"/>
<path d="M8.93484 10.994C8.82382 10.9942 8.71385 10.9725 8.61127 10.93C8.50869 10.8875 8.41553 10.8252 8.33716 10.7465C8.07185 10.4816 7.71225 10.3328 7.33731 10.3328C6.96238 10.3328 6.60277 10.4816 6.33747 10.7465C6.17895 10.9051 5.96396 10.9941 5.73978 10.9941C5.51561 10.9941 5.30062 10.9051 5.1421 10.7465C4.98358 10.588 4.89453 10.373 4.89453 10.1489C4.89453 10.0379 4.91639 9.92795 4.95887 9.8254C5.00135 9.72285 5.06361 9.62967 5.1421 9.55118C5.72474 8.96996 6.51411 8.64355 7.33708 8.64355C8.16005 8.64355 8.94943 8.96996 9.53206 9.55118C9.65027 9.66934 9.73078 9.8199 9.76342 9.98382C9.79606 10.1477 9.77937 10.3177 9.71544 10.4721C9.65152 10.6265 9.54324 10.7585 9.40429 10.8514C9.26535 10.9443 9.10198 10.9939 8.93484 10.994V10.994Z" fill="white"/>
<path d="M18.2591 10.994C18.148 10.9942 18.0381 10.9725 17.9355 10.93C17.8329 10.8875 17.7398 10.8252 17.6614 10.7465C17.3961 10.4816 17.0365 10.3328 16.6615 10.3328C16.2866 10.3328 15.927 10.4816 15.6617 10.7465C15.5032 10.9051 15.2882 10.9941 15.064 10.9941C14.8398 10.9941 14.6248 10.9051 14.4663 10.7465C14.3078 10.588 14.2188 10.373 14.2188 10.1489C14.2187 9.92469 14.3078 9.7097 14.4663 9.55118C15.049 8.96996 15.8383 8.64355 16.6613 8.64355C17.4843 8.64355 18.2736 8.96996 18.8563 9.55118C18.9745 9.66934 19.055 9.8199 19.0876 9.98382C19.1203 10.1477 19.1036 10.3177 19.0397 10.4721C18.9757 10.6265 18.8675 10.7585 18.7285 10.8514C18.5896 10.9443 18.4262 10.9939 18.2591 10.994V10.994Z" fill="white"/>
<path d="M11.9996 21.1103C8.08171 21.1103 4.89453 17.9231 4.89453 14.0053C4.89478 13.7812 4.98389 13.5664 5.14233 13.4079C5.30076 13.2495 5.51557 13.1604 5.73963 13.1602H18.2595C18.4835 13.1604 18.6983 13.2495 18.8568 13.4079C19.0152 13.5664 19.1043 13.7812 19.1046 14.0053C19.1046 17.9245 15.9174 21.1103 11.9996 21.1103ZM6.65052 14.8503C6.85167 16.1244 7.50098 17.2849 8.48159 18.1228C9.4622 18.9607 10.7097 19.4211 11.9996 19.4211C13.2894 19.4211 14.5369 18.9607 15.5175 18.1228C16.4981 17.2849 17.1474 16.1244 17.3486 14.8503H6.65052Z" fill="white"/>
</svg>



