<svg width="61" height="48" viewBox="0 0 61 48" fill="none" xmlns="http://www.w3.org/2000/svg">
<g clip-path="url(#clip0_4070_55089)">
<path d="M1.81735 47.8996C1.53361 47.8992 1.2539 47.8324 1.00056 47.7046C0.747212 47.5769 0.527244 47.3917 0.358216 47.1638C0.189187 46.9359 0.0757794 46.6716 0.0270468 46.3921C-0.0216858 46.1126 -0.00439366 45.8255 0.0775427 45.5539L2.56737 37.3438C1.15725 34.6433 0.421724 31.6417 0.423614 28.5952C0.423614 18.1882 8.88996 9.7207 19.2981 9.7207C29.7062 9.7207 38.1738 18.193 38.1738 28.5952C38.1738 38.9974 29.7062 47.4756 19.2981 47.4756C16.2543 47.4754 13.2557 46.7396 10.5577 45.3306L2.34886 47.8205C2.17663 47.8732 1.99748 47.8999 1.81735 47.8996Z" fill="#96E8FF"/>
<path d="M60.2775 45.6543L57.0176 34.906C58.8523 31.4662 59.8117 27.6275 59.811 23.7289C59.811 10.642 49.1666 0 36.0832 0C22.9998 0 12.3555 10.642 12.3555 23.7277C12.3555 36.8135 22.9998 47.4555 36.0832 47.4555C39.9824 47.4553 43.8216 46.4947 47.2614 44.6586L58.0097 47.9185C58.181 47.97 58.3589 47.9962 58.5377 47.9965C58.8215 47.9963 59.1014 47.9297 59.3548 47.802C59.6083 47.6743 59.8284 47.4891 59.9975 47.2611C60.1666 47.0331 60.2799 46.7688 60.3286 46.4891C60.3772 46.2095 60.3597 45.9224 60.2775 45.6507V45.6543Z" fill="#D7ECFF"/>
<path opacity="0.4" d="M57.0164 34.9048C58.8511 31.465 59.8105 27.6263 59.8098 23.7277C59.8098 10.642 49.1654 0 36.082 0V47.4555C39.9813 47.4553 43.8204 46.4947 47.2603 44.6586L58.0086 47.9185C58.1794 47.9699 58.3569 47.9961 58.5353 47.9965C58.8193 47.9965 59.0992 47.93 59.3529 47.8024C59.6065 47.6748 59.8267 47.4896 59.9959 47.2616C60.1652 47.0336 60.2786 46.7691 60.3273 46.4894C60.376 46.2097 60.3586 45.9225 60.2763 45.6507L57.0164 34.9048Z" fill="#B8CEE3"/>
<path d="M38.812 32.2495H27.8038C27.3296 32.2374 26.8789 32.0405 26.5477 31.7008C26.2166 31.3612 26.0312 30.9055 26.0312 30.4311C26.0312 29.9568 26.2166 29.5011 26.5477 29.1615C26.8789 28.8218 27.3296 28.6249 27.8038 28.6128H38.812C39.2862 28.6249 39.737 28.8218 40.0681 29.1615C40.3993 29.5011 40.5846 29.9568 40.5846 30.4311C40.5846 30.9055 40.3993 31.3612 40.0681 31.7008C39.737 32.0405 39.2862 32.2374 38.812 32.2495Z" fill="#3389FF"/>
<path d="M44.3631 25.5454H27.806C27.3239 25.5454 26.8616 25.3539 26.5207 25.013C26.1798 24.6721 25.9883 24.2098 25.9883 23.7277C25.9883 23.2456 26.1798 22.7832 26.5207 22.4423C26.8616 22.1014 27.3239 21.9099 27.806 21.9099H44.3631C44.8452 21.9099 45.3076 22.1014 45.6485 22.4423C45.9894 22.7832 46.1809 23.2456 46.1809 23.7277C46.1809 24.2098 45.9894 24.6721 45.6485 25.013C45.3076 25.3539 44.8452 25.5454 44.3631 25.5454Z" fill="#3389FF"/>
<path d="M44.3609 18.8437H27.8038C27.3296 18.8316 26.8789 18.6348 26.5477 18.2951C26.2166 17.9554 26.0312 17.4998 26.0312 17.0254C26.0312 16.551 26.2166 16.0954 26.5477 15.7557C26.8789 15.416 27.3296 15.2191 27.8038 15.207H44.3609C44.8352 15.2191 45.2859 15.416 45.6171 15.7557C45.9482 16.0954 46.1335 16.551 46.1335 17.0254C46.1335 17.4998 45.9482 17.9554 45.6171 18.2951C45.2859 18.6348 44.8352 18.8316 44.3609 18.8437Z" fill="#3389FF"/>
<path d="M38.8116 28.6128H36.082V32.2495H38.8116C39.2859 32.2374 39.7366 32.0405 40.0677 31.7008C40.3989 31.3612 40.5842 30.9055 40.5842 30.4311C40.5842 29.9568 40.3989 29.5011 40.0677 29.1615C39.7366 28.8218 39.2859 28.6249 38.8116 28.6128Z" fill="#0053BF"/>
<path d="M44.3606 21.9099H36.082V25.5454H44.3606C44.8427 25.5454 45.305 25.3539 45.6459 25.013C45.9868 24.6721 46.1783 24.2098 46.1783 23.7277C46.1783 23.2456 45.9868 22.7832 45.6459 22.4423C45.305 22.1014 44.8427 21.9099 44.3606 21.9099Z" fill="#0053BF"/>
<path d="M44.3606 15.207H36.082V18.8437H44.3606C44.8348 18.8316 45.2856 18.6348 45.6167 18.2951C45.9478 17.9554 46.1332 17.4998 46.1332 17.0254C46.1332 16.551 45.9478 16.0954 45.6167 15.7557C45.2856 15.416 44.8348 15.2191 44.3606 15.207Z" fill="#0053BF"/>
</g>
<defs>
<clipPath id="clip0_4070_55089">
<rect width="60.3558" height="48" fill="white"/>
</clipPath>
</defs>
</svg>
