<svg width="81" height="64" viewBox="0 0 81 64" fill="none" xmlns="http://www.w3.org/2000/svg">
<g clip-path="url(#clip0_4275_51327)">
<path d="M2.42313 63.8661C2.04482 63.8656 1.67187 63.7766 1.33408 63.6062C0.996283 63.4359 0.702992 63.1889 0.477621 62.885C0.252249 62.5812 0.101039 62.2288 0.0360624 61.8561C-0.0289144 61.4834 -0.00585822 61.1007 0.10339 60.7385L3.42316 49.7918C1.543 46.1911 0.562299 42.1889 0.564819 38.1269C0.564819 24.251 11.8533 12.9609 25.7308 12.9609C39.6083 12.9609 50.8984 24.2573 50.8984 38.1269C50.8984 51.9966 39.6083 63.3008 25.7308 63.3008C21.6725 63.3006 17.6743 62.3194 14.077 60.4409L3.13181 63.7606C2.90217 63.831 2.6633 63.8665 2.42313 63.8661Z" fill="#96E8FF"/>
<path d="M80.3727 60.8724L76.0261 46.5413C78.4724 41.9549 79.7515 36.8366 79.7506 31.6386C79.7506 14.1893 65.5581 0 48.1136 0C30.669 0 16.4766 14.1893 16.4766 31.637C16.4766 49.0847 30.669 63.274 48.1136 63.274C53.3126 63.2738 58.4314 61.993 63.0179 59.5448L77.349 63.8914C77.5773 63.96 77.8145 63.995 78.0529 63.9953C78.4314 63.995 78.8045 63.9062 79.1424 63.736C79.4804 63.5657 79.7739 63.3188 79.9993 63.0148C80.2247 62.7109 80.3759 62.3584 80.4408 61.9855C80.5056 61.6127 80.4823 61.2299 80.3727 60.8677V60.8724Z" fill="#D7ECFF"/>
<path opacity="0.4" d="M76.0258 46.5397C78.4721 41.9533 79.7512 36.835 79.7503 31.637C79.7503 14.1893 65.5578 0 48.1133 0V63.274C53.3122 63.2738 58.4311 61.993 63.0176 59.5448L77.3487 63.8914C77.5765 63.9598 77.8131 63.9948 78.051 63.9953C78.4296 63.9953 78.8029 63.9067 79.1411 63.7365C79.4792 63.5664 79.7729 63.3194 79.9985 63.0154C80.2241 62.7115 80.3754 62.3589 80.4404 61.9859C80.5053 61.613 80.482 61.23 80.3723 60.8677L76.0258 46.5397Z" fill="#B8CEE3"/>
<path d="M51.7519 42.9993H37.0744C36.4421 42.9832 35.8411 42.7207 35.3996 42.2678C34.958 41.8149 34.7109 41.2074 34.7109 40.5749C34.7109 39.9423 34.958 39.3349 35.3996 38.8819C35.8411 38.429 36.4421 38.1665 37.0744 38.1504H51.7519C52.3842 38.1665 52.9852 38.429 53.4268 38.8819C53.8683 39.3349 54.1154 39.9423 54.1154 40.5749C54.1154 41.2074 53.8683 41.8149 53.4268 42.2678C52.9852 42.7207 52.3842 42.9832 51.7519 42.9993Z" fill="#3389FF"/>
<path d="M59.1483 34.0607H37.0721C36.4293 34.0607 35.8128 33.8054 35.3583 33.3509C34.9038 32.8963 34.6484 32.2799 34.6484 31.6371C34.6484 30.9943 34.9038 30.3778 35.3583 29.9233C35.8128 29.4687 36.4293 29.2134 37.0721 29.2134H59.1483C59.7911 29.2134 60.4075 29.4687 60.8621 29.9233C61.3166 30.3778 61.5719 30.9943 61.5719 31.6371C61.5719 32.2799 61.3166 32.8963 60.8621 33.3509C60.4075 33.8054 59.7911 34.0607 59.1483 34.0607Z" fill="#3389FF"/>
<path d="M59.1505 25.1248H37.0744C36.4421 25.1087 35.8411 24.8462 35.3996 24.3933C34.958 23.9404 34.7109 23.3329 34.7109 22.7003C34.7109 22.0678 34.958 21.4603 35.3996 21.0074C35.8411 20.5545 36.4421 20.292 37.0744 20.2759H59.1505C59.7828 20.292 60.3838 20.5545 60.8254 21.0074C61.2669 21.4603 61.514 22.0678 61.514 22.7003C61.514 23.3329 61.2669 23.9404 60.8254 24.3933C60.3838 24.8462 59.7828 25.1087 59.1505 25.1248Z" fill="#3389FF"/>
<path d="M51.7527 38.1504H48.1133V42.9993H51.7527C52.3851 42.9832 52.986 42.7207 53.4276 42.2678C53.8691 41.8149 54.1162 41.2074 54.1162 40.5749C54.1162 39.9423 53.8691 39.3349 53.4276 38.8819C52.986 38.429 52.3851 38.1665 51.7527 38.1504Z" fill="#0053BF"/>
<path d="M59.1514 29.2134H48.1133V34.0607H59.1514C59.7942 34.0607 60.4106 33.8054 60.8652 33.3509C61.3197 32.8963 61.575 32.2799 61.575 31.6371C61.575 30.9943 61.3197 30.3778 60.8652 29.9233C60.4106 29.4687 59.7942 29.2134 59.1514 29.2134Z" fill="#0053BF"/>
<path d="M59.1514 20.2759H48.1133V25.1248H59.1514C59.7837 25.1087 60.3847 24.8462 60.8262 24.3933C61.2677 23.9404 61.5148 23.3329 61.5148 22.7003C61.5148 22.0678 61.2677 21.4603 60.8262 21.0074C60.3847 20.5545 59.7837 20.292 59.1514 20.2759Z" fill="#0053BF"/>
</g>
<defs>
<clipPath id="clip0_4275_51327">
<rect width="80.4745" height="64" fill="white"/>
</clipPath>
</defs>
</svg>

