<svg width="1009" height="344" viewBox="0 0 1009 344" fill="none" xmlns="http://www.w3.org/2000/svg">
<path d="M512.12 53.4523H512.292V10.5483H405.375L420.649 19.8156V131.366H406.92V134.112H512.292V91.2077H512.12C495.988 121.069 478.655 131.023 458.404 131.366V70.6139C469.559 71.1287 481.058 80.0527 487.579 93.4387H487.751V45.558H487.579C481.229 58.6008 469.216 67.6964 458.404 68.2112V13.2942C478.655 13.4658 495.988 23.9344 512.12 53.4523Z" fill="#293F98"/>
<path d="M586.352 87.947L610.378 58.4291L621.876 50.02H588.24L601.454 58.4291L584.807 85.3728L567.817 58.4291L577.599 50.02H518.735L529.547 58.4291L553.058 95.8414L528.689 131.537H521.824V134.112H549.454V131.537H538.643L554.946 98.7588L575.54 131.537H566.959V134.112H621.533V131.537H613.81L586.352 87.947Z" fill="#293F98"/>
<path d="M695.553 46.5876C685.428 46.5876 674.787 52.5942 665.692 61.8615V44.8715L621.586 60.3169L631.369 68.7261V174.27H622.788V177.016H679.421V174.27H665.692V129.65C671.527 133.425 678.391 135.828 686.286 135.828C709.454 135.828 726.1 117.465 726.1 87.2606C726.1 60.6601 712.886 46.5876 695.553 46.5876ZM674.101 129.306C671.183 129.306 668.094 128.448 665.692 126.732V64.2641C668.094 63.2344 670.325 62.5479 672.9 62.5479C684.398 62.5479 689.375 74.0462 689.375 97.0427C689.375 117.637 683.025 129.306 674.101 129.306Z" fill="#293F98"/>
<path d="M814.769 118.495C813.225 118.838 811.509 119.009 809.793 119.009C798.294 119.009 785.938 112.66 776.156 103.049C796.75 95.3265 807.733 82.7986 807.733 68.5545C807.733 56.0265 796.578 46.5876 780.446 46.5876C752.988 46.5876 736.169 67.3532 736.169 92.4091C736.169 119.009 756.077 135.828 780.275 135.828C796.235 135.828 807.733 129.65 814.941 118.666L814.769 118.495ZM764.486 52.5942C771.865 52.5942 781.819 65.2938 781.819 80.2243C781.819 88.9767 779.931 95.8414 775.126 102.02C764.829 91.3794 757.45 76.9636 757.45 62.7195C757.45 56.3697 760.024 52.5942 764.486 52.5942Z" fill="#293F98"/>
<path d="M889.65 46.416C881.756 46.416 870.601 54.482 860.819 67.3532V45.9012L816.713 60.6601L826.495 69.0693V131.366H817.915V134.112H873.69V131.366H860.819V69.2409C866.825 68.2112 874.891 72.6732 892.739 92.4091H892.911V46.9309C891.881 46.5876 890.851 46.416 889.65 46.416Z" fill="#293F98"/>
<path d="M971.312 118.151C967.88 119.524 964.962 120.039 961.187 120.039C948.487 120.039 943.854 112.66 943.854 92.7523V52.7658H968.051V50.02H943.854V15.182L896.316 52.5942V52.7658H909.53V101.505C909.53 123.815 917.596 135.828 938.019 135.828C953.807 135.828 965.134 128.448 971.484 118.323L971.312 118.151Z" fill="#293F98"/>
<path d="M451.368 331.544C480.028 331.544 499.935 314.383 499.935 290.7C499.935 275.083 491.698 264.614 477.282 256.034L454.8 242.476C442.101 234.925 437.81 228.232 437.81 220.681C437.81 211.242 445.361 204.892 454.114 204.892C457.546 204.892 459.091 205.064 462.523 205.922L485.176 246.595H485.348L495.473 208.668C482.087 203.004 469.903 201.116 456.516 201.116C428.543 201.116 412.754 217.935 412.754 239.387C412.754 256.72 422.193 268.39 438.154 277.142L457.718 287.782C467.672 293.102 472.134 300.139 472.134 308.376C472.134 319.36 463.21 327.426 451.025 327.426C447.936 327.426 445.876 327.254 442.101 325.709L418.246 280.746H418.075L407.949 324.68C421.85 329.313 436.781 331.544 451.368 331.544Z" fill="#293F98"/>
<path d="M586.794 312.495C585.25 312.838 583.533 313.01 581.817 313.01C570.319 313.01 557.963 306.66 548.181 297.05C568.775 289.327 579.758 276.799 579.758 262.555C579.758 250.027 568.603 240.588 552.471 240.588C525.013 240.588 508.194 261.354 508.194 286.409C508.194 313.01 528.102 329.828 552.299 329.828C568.26 329.828 579.758 323.65 586.966 312.667L586.794 312.495ZM536.511 246.595C543.89 246.595 553.844 259.294 553.844 274.225C553.844 282.977 551.956 289.842 547.151 296.02C536.854 285.38 529.475 270.964 529.475 256.72C529.475 250.37 532.049 246.595 536.511 246.595Z" fill="#293F98"/>
<path d="M622.375 329.828C643.484 329.828 661.503 318.845 661.503 300.997C661.503 290.357 655.325 281.776 643.484 275.426L630.612 268.561C620.487 263.241 617.741 258.951 617.741 252.944C617.741 248.139 621.517 243.849 629.068 243.849C629.926 243.849 631.127 244.02 631.985 244.364L651.893 272.68H652.064L658.757 245.565C650.348 242.476 641.424 240.588 630.269 240.588C607.444 240.588 593.372 251.915 593.372 269.248C593.372 282.291 600.236 290.357 614.48 297.908L625.807 303.914C633.015 307.69 636.104 310.607 636.104 315.756C636.104 322.792 630.956 326.739 623.405 326.739C621.345 326.739 620.144 326.568 617.741 325.881L596.461 297.393H596.289L590.969 325.366C602.982 328.97 614.309 329.828 622.375 329.828Z" fill="#293F98"/>
<path d="M697.816 329.828C718.925 329.828 736.944 318.845 736.944 300.997C736.944 290.357 730.766 281.776 718.925 275.426L706.053 268.561C695.928 263.241 693.182 258.951 693.182 252.944C693.182 248.139 696.958 243.849 704.509 243.849C705.367 243.849 706.568 244.02 707.426 244.364L727.334 272.68H727.505L734.198 245.565C725.789 242.476 716.865 240.588 705.71 240.588C682.885 240.588 668.813 251.915 668.813 269.248C668.813 282.291 675.677 290.357 689.922 297.908L701.248 303.914C708.456 307.69 711.545 310.607 711.545 315.756C711.545 322.792 706.397 326.739 698.846 326.739C696.786 326.739 695.585 326.568 693.182 325.881L671.902 297.393H671.73L666.41 325.366C678.423 328.97 689.75 329.828 697.816 329.828Z" fill="#293F98"/>
<path d="M766.564 235.954C778.749 235.954 785.613 228.232 785.613 216.733C785.613 205.407 778.749 197.684 766.564 197.684C754.379 197.684 747.515 205.407 747.515 216.733C747.515 228.232 754.379 235.954 766.564 235.954ZM740.822 328.112H792.306V325.366H783.726V238.872L739.62 254.317L749.402 262.726V325.366H740.822V328.112Z" fill="#293F98"/>
<path d="M846.766 329.828C879.373 329.828 895.333 309.749 895.333 284.693C895.333 257.75 874.911 240.588 846.594 240.588C818.621 240.588 799.4 260.152 799.4 284.693C799.4 312.323 822.053 329.828 846.766 329.828ZM865.987 323.65C851.914 323.65 822.225 271.994 822.225 255.175C822.225 249.855 824.799 246.766 829.09 246.766C844.192 246.766 873.023 300.482 873.023 314.898C873.023 320.733 870.621 323.65 865.987 323.65Z" fill="#293F98"/>
<path d="M1000.42 325.366V266.33C1000.42 248.826 992.867 239.73 978.28 239.73C966.61 239.73 956.656 246.423 945.501 256.034V238.872L901.396 254.317L911.178 262.726V325.366H902.597V328.112H952.366V325.366H945.501V258.436C948.934 256.892 952.366 255.862 955.798 255.862C962.834 255.862 966.095 260.324 966.095 273.71V325.366H959.231V328.112H1009V325.366H1000.42Z" fill="#293F98"/>
<path d="M306.433 273.501C300.411 274.806 293.721 275.459 287.03 275.459C242.202 275.459 194.03 251.308 155.893 214.754C236.181 185.38 279.001 137.73 279.001 83.5516C279.001 35.9011 235.512 0 172.619 0C65.5686 0 0 78.9824 0 174.283C0 275.459 77.6118 339.428 171.95 339.428C234.174 339.428 279.001 315.93 307.102 274.154L306.433 273.501ZM110.396 22.8461C139.166 22.8461 177.972 71.1494 177.972 127.938C177.972 161.229 170.612 187.338 151.878 210.837C111.734 170.367 82.9644 115.536 82.9644 61.3582C82.9644 37.2066 93.0004 22.8461 110.396 22.8461Z" fill="#293F98"/>
</svg>
