<svg width="1009" height="344" viewBox="0 0 1009 344" fill="none" xmlns="http://www.w3.org/2000/svg">
<path d="M512.12 54.2208H512.292V11.3169H405.375L420.649 20.5842V132.134H406.92V134.88H512.292V91.9763H512.12C495.988 121.837 478.655 131.791 458.404 132.134V71.3824C469.559 71.8973 481.058 80.8213 487.579 94.2073H487.751V46.3265H487.579C481.229 59.3693 469.216 68.4649 458.404 68.9798V14.0627C478.655 14.2344 495.988 24.7029 512.12 54.2208Z" fill="black"/>
<path d="M586.352 88.7156L610.378 59.1977L621.876 50.7885H588.24L601.454 59.1977L584.807 86.1414L567.817 59.1977L577.599 50.7885H518.735L529.547 59.1977L553.058 96.6099L528.689 132.306H521.824V134.88H549.454V132.306H538.643L554.946 99.5274L575.54 132.306H566.959V134.88H621.533V132.306H613.81L586.352 88.7156Z" fill="black"/>
<path d="M695.553 47.3562C685.428 47.3562 674.787 53.3628 665.692 62.63V45.64L621.586 61.0855L631.369 69.4946V175.038H622.788V177.784H679.421V175.038H665.692V130.418C671.527 134.194 678.391 136.596 686.286 136.596C709.454 136.596 726.1 118.234 726.1 88.0291C726.1 61.4287 712.886 47.3562 695.553 47.3562ZM674.101 130.075C671.183 130.075 668.094 129.217 665.692 127.501V65.0326C668.094 64.0029 670.325 63.3165 672.9 63.3165C684.398 63.3165 689.375 74.8147 689.375 97.8112C689.375 118.405 683.025 130.075 674.101 130.075Z" fill="black"/>
<path d="M814.769 119.263C813.225 119.606 811.509 119.778 809.793 119.778C798.294 119.778 785.938 113.428 776.156 103.818C796.75 96.0951 807.733 83.5671 807.733 69.323C807.733 56.7951 796.578 47.3562 780.446 47.3562C752.988 47.3562 736.169 68.1217 736.169 93.1776C736.169 119.778 756.077 136.596 780.275 136.596C796.235 136.596 807.733 130.418 814.941 119.435L814.769 119.263ZM764.486 53.3628C771.865 53.3628 781.819 66.0623 781.819 80.9929C781.819 89.7453 779.931 96.6099 775.126 102.788C764.829 92.1479 757.45 77.7322 757.45 63.4881C757.45 57.1383 760.024 53.3628 764.486 53.3628Z" fill="black"/>
<path d="M889.65 47.1846C881.756 47.1846 870.601 55.2505 860.819 68.1217V46.6697L816.713 61.4287L826.495 69.8379V132.134H817.915V134.88H873.69V132.134H860.819V70.0095C866.825 68.9798 874.891 73.4418 892.739 93.1776H892.911V47.6994C891.881 47.3562 890.851 47.1846 889.65 47.1846Z" fill="black"/>
<path d="M971.312 118.92C967.88 120.293 964.962 120.808 961.187 120.808C948.487 120.808 943.854 113.428 943.854 93.5208V53.5344H968.051V50.7885H943.854V15.9505L896.316 53.3628V53.5344H909.53V102.273C909.53 124.583 917.596 136.596 938.019 136.596C953.807 136.596 965.134 129.217 971.484 119.092L971.312 118.92Z" fill="black"/>
<path d="M451.368 332.313C480.028 332.313 499.935 315.151 499.935 291.468C499.935 275.851 491.698 265.383 477.282 256.802L454.8 243.244C442.101 235.693 437.81 229 437.81 221.449C437.81 212.01 445.361 205.661 454.114 205.661C457.546 205.661 459.091 205.832 462.523 206.69L485.176 247.363H485.348L495.473 209.436C482.087 203.773 469.903 201.885 456.516 201.885C428.543 201.885 412.754 218.703 412.754 240.155C412.754 257.489 422.193 269.158 438.154 277.911L457.718 288.551C467.672 293.871 472.134 300.907 472.134 309.145C472.134 320.128 463.21 328.194 451.025 328.194C447.936 328.194 445.876 328.023 442.101 326.478L418.246 281.515H418.075L407.949 325.448C421.85 330.082 436.781 332.313 451.368 332.313Z" fill="black"/>
<path d="M586.794 313.264C585.25 313.607 583.533 313.779 581.817 313.779C570.319 313.779 557.963 307.429 548.181 297.818C568.775 290.096 579.758 277.568 579.758 263.323C579.758 250.796 568.603 241.357 552.471 241.357C525.013 241.357 508.194 262.122 508.194 287.178C508.194 313.778 528.102 330.597 552.299 330.597C568.26 330.597 579.758 324.419 586.966 313.435L586.794 313.264ZM536.511 247.363C543.89 247.363 553.844 260.063 553.844 274.993C553.844 283.746 551.956 290.61 547.151 296.789C536.854 286.148 529.475 271.733 529.475 257.488C529.475 251.139 532.049 247.363 536.511 247.363Z" fill="black"/>
<path d="M622.375 330.597C643.484 330.597 661.503 319.613 661.503 301.765C661.503 291.125 655.325 282.544 643.484 276.195L630.612 269.33C620.487 264.01 617.741 259.72 617.741 253.713C617.741 248.908 621.517 244.617 629.068 244.617C629.926 244.617 631.127 244.789 631.985 245.132L651.893 273.449H652.064L658.757 246.333C650.348 243.244 641.424 241.357 630.269 241.357C607.444 241.357 593.372 252.683 593.372 270.016C593.372 283.059 600.236 291.125 614.48 298.676L625.807 304.683C633.015 308.458 636.104 311.376 636.104 316.524C636.104 323.561 630.956 327.508 623.405 327.508C621.345 327.508 620.144 327.336 617.741 326.65L596.461 298.161H596.289L590.969 326.135C602.982 329.739 614.309 330.597 622.375 330.597Z" fill="black"/>
<path d="M697.816 330.597C718.925 330.597 736.944 319.613 736.944 301.765C736.944 291.125 730.766 282.544 718.925 276.195L706.053 269.33C695.928 264.01 693.182 259.72 693.182 253.713C693.182 248.908 696.958 244.617 704.509 244.617C705.367 244.617 706.568 244.789 707.426 245.132L727.334 273.449H727.505L734.198 246.333C725.789 243.244 716.865 241.357 705.71 241.357C682.885 241.357 668.813 252.683 668.813 270.016C668.813 283.059 675.677 291.125 689.922 298.676L701.248 304.683C708.456 308.458 711.545 311.376 711.545 316.524C711.545 323.561 706.397 327.508 698.846 327.508C696.786 327.508 695.585 327.336 693.182 326.65L671.902 298.161H671.73L666.41 326.135C678.423 329.739 689.75 330.597 697.816 330.597Z" fill="black"/>
<path d="M766.564 236.723C778.749 236.723 785.613 229 785.613 217.502C785.613 206.175 778.749 198.453 766.564 198.453C754.379 198.453 747.515 206.175 747.515 217.502C747.515 229 754.379 236.723 766.564 236.723ZM740.822 328.881H792.306V326.135H783.726V239.64L739.62 255.086L749.402 263.495V326.135H740.822V328.881Z" fill="black"/>
<path d="M846.766 330.597C879.373 330.597 895.333 310.518 895.333 285.462C895.333 258.518 874.911 241.357 846.594 241.357C818.621 241.357 799.4 260.921 799.4 285.462C799.4 313.092 822.053 330.597 846.766 330.597ZM865.987 324.419C851.914 324.419 822.225 272.762 822.225 255.944C822.225 250.624 824.799 247.535 829.09 247.535C844.192 247.535 873.023 301.251 873.023 315.666C873.023 321.501 870.621 324.419 865.987 324.419Z" fill="black"/>
<path d="M1000.42 326.135V267.099C1000.42 249.594 992.867 240.499 978.28 240.499C966.61 240.499 956.656 247.192 945.501 256.802V239.64L901.396 255.086L911.178 263.495V326.135H902.597V328.881H952.366V326.135H945.501V259.205C948.934 257.66 952.366 256.63 955.798 256.63C962.834 256.63 966.095 261.092 966.095 274.478V326.135H959.231V328.881H1009V326.135H1000.42Z" fill="black"/>
<path d="M306.433 274.27C300.411 275.575 293.721 276.228 287.03 276.228C242.202 276.228 194.03 252.076 155.893 215.522C236.181 186.149 279.001 138.498 279.001 84.3202C279.001 36.6696 235.512 0.768555 172.619 0.768555C65.5686 0.768555 0 79.7509 0 175.052C0 276.228 77.6118 340.197 171.95 340.197C234.174 340.197 279.001 316.698 307.102 274.922L306.433 274.27ZM110.396 23.6147C139.166 23.6147 177.972 71.918 177.972 128.707C177.972 161.997 170.612 188.107 151.878 211.606C111.734 171.136 82.9644 116.305 82.9644 62.1268C82.9644 37.9752 93.0004 23.6147 110.396 23.6147Z" fill="black"/>
</svg>
