<svg width="52" height="5" viewBox="0 0 52 5" fill="none" xmlns="http://www.w3.org/2000/svg">
<path d="M30.2151 0C29.7866 0 29.3593 4.06035e-07 28.9309 0.017723C25.1504 0.142889 18.6971 0.17612 14.9177 0.181659C9.53227 0.27581 6.80624 0.354453 1.42854 0.477403C1.16881 0.477403 0.518377 0.838503 0.24089 1.19849C-0.118733 1.6615 0.01113 1.5607 0.0832767 2.06026C0.194272 2.84338 0.784764 2.83562 1.67605 3.07931C2.897 3.41161 4.45648 2.86774 5.67187 2.77138C7.48886 2.6296 9.29696 3.2078 11.1106 3.04387C12.8621 2.88547 14.617 3.2654 16.374 3.14466C22.3011 2.7459 28.3115 2.59083 34.1898 2.43465C36.8159 2.36154 37.3199 2.21312 39.9482 2.14333C40.3012 2.13226 41.9628 2.13226 42.3191 2.12229C40.441 2.66504 37.7683 2.96965 35.9557 3.97319C35.9169 3.99202 35.6361 4.34759 35.8236 4.47608C37.3409 5.51396 39.9926 4.76407 41.4922 4.31768C44.842 3.34626 47.2761 3.15574 51.061 2.70049C51.5605 2.64178 52.1066 2.14666 51.9812 1.77005C51.8114 1.24834 51.4817 0.871732 50.8979 0.747674C50.243 0.60257 49.2429 0.840719 48.789 0.690077C47.7134 0.333408 44.2737 0.656845 43.1593 0.646876C41.6387 0.632476 40.754 0.685645 39.2312 0.571556C36.2343 0.341161 33.213 0.003323 30.214 0H30.2151Z" fill="#3365EF"/>
</svg>