<svg width="48" height="5" viewBox="0 0 48 5" fill="none" xmlns="http://www.w3.org/2000/svg">
<path d="M27.8908 0C27.4953 0 27.1009 4.06035e-07 26.7054 0.017723C23.2157 0.142889 17.2589 0.17612 13.7702 0.181659C8.79902 0.27581 6.28268 0.354453 1.31865 0.477403C1.0789 0.477403 0.478502 0.838503 0.22236 1.19849C-0.1096 1.6615 0.0102738 1.5607 0.0768708 2.06026C0.179328 2.84338 0.724398 2.83562 1.54713 3.07931C2.67415 3.41161 4.11367 2.86774 5.23557 2.77138C6.91279 2.6296 8.58181 3.2078 10.256 3.04386C11.8727 2.88547 13.4926 3.2654 15.1145 3.14466C20.5857 2.7459 26.1337 2.59083 31.5598 2.43465C33.9839 2.36154 34.4491 2.21312 36.8753 2.14333C37.2011 2.13226 38.7349 2.13226 39.0638 2.12229C37.3302 2.66504 34.863 2.96965 33.1899 3.97319C33.154 3.99202 32.8948 4.34759 33.068 4.47608C34.4686 5.51396 36.9163 4.76407 38.3004 4.31768C41.3926 3.34626 43.6395 3.15574 47.1333 2.70049C47.5943 2.64178 48.0984 2.14666 47.9826 1.77005C47.8259 1.24834 47.5216 0.871732 46.9826 0.747674C46.3781 0.60257 45.455 0.840719 45.036 0.690077C44.0432 0.333408 40.868 0.656845 39.8394 0.646876C38.4357 0.632476 37.6191 0.685645 36.2134 0.571556C33.4471 0.341161 30.6582 0.003323 27.8898 0H27.8908Z" fill="#3FA3FF"/>
</svg>
