<svg width="21" height="19" viewBox="0 0 21 19" fill="none" xmlns="http://www.w3.org/2000/svg">
<path d="M10.0357 18.4743C9.95469 18.4716 9.87537 18.4502 9.80397 18.4119C9.70593 18.3584 4.74412e-05 12.6008 4.74412e-05 6.72738C-0.00463877 5.57811 0.337952 4.45422 0.98292 3.50299C1.62789 2.55175 2.54516 1.81752 3.61454 1.39651C4.68393 0.975504 5.85554 0.887346 6.97588 1.14359C8.09623 1.39983 9.11305 1.98852 9.8931 2.83253L10.0179 2.96624L10.1694 2.83253C10.95 1.99674 11.9641 1.41531 13.0797 1.16393C14.1954 0.912552 15.3608 1.00287 16.4244 1.42311C17.488 1.84336 18.4005 2.57407 19.043 3.52012C19.6855 4.46618 20.0283 5.58377 20.0268 6.72738C20.0268 12.583 10.3655 18.3138 10.2763 18.4119C10.2013 18.4491 10.1194 18.4703 10.0357 18.4743Z" fill="white" fill-opacity="0.5"/>
<path d="M10.0357 18.4743C9.95469 18.4716 9.87537 18.4502 9.80397 18.4119C9.70593 18.3584 4.74412e-05 12.6008 4.74412e-05 6.72738C-0.00463877 5.57811 0.337952 4.45422 0.98292 3.50299C1.62789 2.55175 2.54516 1.81752 3.61454 1.39651C4.68393 0.975504 5.85554 0.887346 6.97588 1.14359C8.09623 1.39983 9.11305 1.98852 9.8931 2.83253L10.0179 2.96624L10.1694 2.83253C10.95 1.99674 11.9641 1.41531 13.0797 1.16393C14.1954 0.912552 15.3608 1.00287 16.4244 1.42311C17.488 1.84336 18.4005 2.57407 19.043 3.52012C19.6855 4.46618 20.0283 5.58377 20.0268 6.72738C20.0268 12.583 10.3655 18.3138 10.2763 18.4119C10.2013 18.4491 10.1194 18.4703 10.0357 18.4743V18.4743ZM5.73089 1.89671C4.45754 1.89906 3.23701 2.40594 2.33661 3.30634C1.43621 4.20674 0.929327 5.42729 0.926971 6.70064C0.926971 11.4243 8.42251 16.4422 9.92875 17.3958L10.0268 17.4582L10.1337 17.3958C11.6311 16.4333 19.1266 11.3976 19.1266 6.70064C19.1268 5.67961 18.8017 4.68505 18.1984 3.86131C17.5951 3.03757 16.745 2.42746 15.7715 2.11952C14.7981 1.81158 13.7518 1.82183 12.7845 2.14876C11.8172 2.4757 10.9793 3.10232 10.3922 3.93771C10.3662 3.98183 10.3294 4.01862 10.2853 4.04466C10.2101 4.09866 10.1194 4.12681 10.0268 4.12487C9.95546 4.12453 9.88523 4.10742 9.82174 4.07491C9.75826 4.04239 9.70333 3.99539 9.66138 3.93771C9.21699 3.3082 8.62819 2.79436 7.94433 2.43925C7.26047 2.08414 6.50146 1.89809 5.73089 1.89671V1.89671Z" fill="white"/>
</svg>

