<svg width="68" height="67" viewBox="0 0 68 67" fill="none" xmlns="http://www.w3.org/2000/svg">
<path d="M60.464 67H7.53599C5.53804 66.9973 3.62258 66.1008 2.20981 64.5071C0.797047 62.9133 0.00232998 60.7524 0 58.4985V14.5015C0.00232998 12.2475 0.797047 10.0867 2.20981 8.49292C3.62258 6.89916 5.53804 6.00263 7.53599 6H60.464C62.462 6.00263 64.3774 6.89916 65.7902 8.49292C67.2029 10.0867 67.9977 12.2475 68 14.5015V58.5184C68 59.6339 67.805 60.7384 67.426 61.7687C67.0471 62.7991 66.4917 63.735 65.7917 64.5228C65.0917 65.3107 64.2608 65.935 63.3466 66.3601C62.4324 66.7851 61.4528 67.0026 60.464 67Z" fill="url(#paint0_linear_698_1287)"/>
<rect x="14" width="6" height="13" rx="3" fill="url(#paint1_linear_698_1287)"/>
<rect x="49" width="6" height="13" rx="3" fill="url(#paint2_linear_698_1287)"/>
<rect x="8.5" y="18.5" width="10" height="10" stroke="#3365EF" stroke-linejoin="round" stroke-dasharray="2 2"/>
<rect x="22.5" y="18.5" width="10" height="10" stroke="#3365EF" stroke-linejoin="round" stroke-dasharray="2 2"/>
<rect x="36.5" y="18.5" width="10" height="10" stroke="#3365EF" stroke-linejoin="round" stroke-dasharray="2 2"/>
<rect x="50.5" y="18.5" width="10" height="10" stroke="#3365EF" stroke-linejoin="round" stroke-dasharray="2 2"/>
<rect x="8.5" y="32.5" width="10" height="10" stroke="#3365EF" stroke-linejoin="round" stroke-dasharray="2 2"/>
<rect x="22.5" y="32.5" width="10" height="10" stroke="#3365EF" stroke-linejoin="round" stroke-dasharray="2 2"/>
<rect x="36.5" y="32.5" width="10" height="10" stroke="#3365EF" stroke-linejoin="round" stroke-dasharray="2 2"/>
<rect x="50.5" y="32.5" width="10" height="10" stroke="#3365EF" stroke-linejoin="round" stroke-dasharray="2 2"/>
<rect x="8.5" y="46.5" width="10" height="10" stroke="#3365EF" stroke-linejoin="round" stroke-dasharray="2 2"/>
<rect x="22.5" y="46.5" width="10" height="10" stroke="#3365EF" stroke-linejoin="round" stroke-dasharray="2 2"/>
<defs>
<linearGradient id="paint0_linear_698_1287" x1="34.125" y1="6.25" x2="34.125" y2="61" gradientUnits="userSpaceOnUse">
<stop stop-color="#B5DCFF"/>
<stop offset="1" stop-color="#A4C5E4" stop-opacity="0.37"/>
</linearGradient>
<linearGradient id="paint1_linear_698_1287" x1="17" y1="0" x2="17" y2="13" gradientUnits="userSpaceOnUse">
<stop stop-color="#D0E0EF"/>
<stop offset="1" stop-color="#5B7C9A"/>
<stop offset="1" stop-color="#4796C2"/>
</linearGradient>
<linearGradient id="paint2_linear_698_1287" x1="52" y1="0" x2="52" y2="13" gradientUnits="userSpaceOnUse">
<stop stop-color="#D0E0EF"/>
<stop offset="1" stop-color="#5B7C9A"/>
<stop offset="1" stop-color="#4796C2"/>
</linearGradient>
</defs>
</svg>
