<svg width="320" height="232" viewBox="0 0 320 232" fill="none" xmlns="http://www.w3.org/2000/svg">
<g clip-path="url(#clip0_1112_10890)">
<path d="M294.015 231.081C288.905 227.669 286.335 221.17 286.23 215.03C286.195 212.972 286.73 210.584 288.565 209.67C289.093 209.407 289.684 209.295 290.272 209.346C290.859 209.397 291.422 209.61 291.896 209.96C292.371 210.311 292.739 210.786 292.96 211.332C293.182 211.879 293.247 212.476 293.15 213.057C293.836 211.056 294.724 209.129 295.8 207.307C296.715 205.764 297.995 204.16 299.8 204.01C301.875 203.841 303.61 205.854 303.9 207.912C304.19 209.97 303.445 212.018 302.71 213.961C302.918 213.081 303.344 212.267 303.949 211.593C304.554 210.92 305.318 210.408 306.171 210.106C307.025 209.804 307.941 209.721 308.835 209.863C309.729 210.006 310.573 210.371 311.29 210.924C313.32 212.488 313.985 215.365 313.475 217.873C312.965 220.381 311.475 222.579 309.81 224.532C307.865 226.82 305.615 228.913 302.925 230.242C300.235 231.57 297.045 232.08 294.18 231.176L294.015 231.081Z" fill="#B8CEE3"/>
<path d="M224.14 148.845C224.771 148.532 225.335 148.097 225.799 147.566C226.262 147.035 226.617 146.418 226.841 145.75C227.066 145.082 227.157 144.376 227.109 143.673C227.06 142.97 226.874 142.283 226.56 141.652C226.415 141.37 226.247 141.099 226.06 140.843L238.56 80.1278L226.88 79.9779L218.195 139.929C217.187 140.785 216.528 141.981 216.345 143.291C216.162 144.6 216.466 145.931 217.2 147.031C217.934 148.131 219.047 148.924 220.327 149.258C221.607 149.593 222.966 149.446 224.145 148.845H224.14Z" fill="#B8CEE3"/>
<path d="M281.035 145.703C281.606 145.166 282.053 144.511 282.345 143.783C282.637 143.055 282.765 142.273 282.723 141.49C282.68 140.707 282.466 139.943 282.097 139.252C281.728 138.56 281.211 137.957 280.585 137.486L275.195 75.7317L263.975 78.9088L272.795 138.854C272.074 139.962 271.784 141.295 271.982 142.601C272.179 143.907 272.849 145.096 273.865 145.941C274.881 146.787 276.172 147.231 277.493 147.189C278.815 147.147 280.075 146.622 281.035 145.713V145.703Z" fill="#B8CEE3"/>
<path d="M244.99 225.356H238.86L235.945 201.732H244.995L244.99 225.356Z" fill="#B8CEE3"/>
<path d="M234.479 223.603H246.304V231.041H227.039C227.039 229.069 227.823 227.178 229.218 225.783C230.613 224.388 232.505 223.604 234.479 223.603Z" fill="#54738F"/>
<path d="M272.495 225.356H266.36L263.445 201.732H272.495V225.356Z" fill="#B8CEE3"/>
<path d="M261.979 223.603H273.804V231.041H254.539C254.539 229.069 255.323 227.178 256.718 225.783C258.113 224.388 260.005 223.604 261.979 223.603Z" fill="#54738F"/>
<path d="M246.581 58.0728C253.363 58.0728 258.861 52.5798 258.861 45.8039C258.861 39.028 253.363 33.535 246.581 33.535C239.799 33.535 234.301 39.028 234.301 45.8039C234.301 52.5798 239.799 58.0728 246.581 58.0728Z" fill="#B8CEE3"/>
<path d="M263.844 210.45C263.344 210.447 262.86 210.272 262.474 209.954C262.088 209.637 261.823 209.196 261.724 208.706L253.424 165.79C253.349 165.397 253.134 165.043 252.82 164.794C252.505 164.546 252.112 164.418 251.711 164.434C251.31 164.45 250.929 164.61 250.636 164.883C250.343 165.157 250.158 165.527 250.114 165.925L245.469 207.727C245.413 208.237 245.176 208.71 244.801 209.06C244.426 209.41 243.937 209.614 243.424 209.635L236.454 209.955C236.171 209.968 235.888 209.924 235.621 209.827C235.354 209.731 235.109 209.582 234.9 209.39C234.691 209.199 234.522 208.968 234.403 208.71C234.283 208.453 234.216 208.175 234.204 207.892L231.529 143.32C231.515 142.995 231.576 142.67 231.707 142.371C231.838 142.073 232.035 141.808 232.284 141.597L233.829 140.278C234.223 139.952 234.718 139.775 235.229 139.779H271.364C271.936 139.779 272.484 140.005 272.888 140.409C273.292 140.813 273.519 141.361 273.519 141.932V207.972C273.52 208.526 273.306 209.059 272.922 209.46C272.538 209.86 272.014 210.097 271.459 210.12L263.959 210.45H263.844Z" fill="#54738F"/>
<path d="M245.334 149.16C239.489 149.16 234.334 147.602 231.739 143.066C231.522 142.692 231.421 142.263 231.449 141.832L234.694 91.937C234.719 91.5338 234.598 91.1352 234.354 90.813L225.194 78.8089C224.854 78.3564 224.705 77.7882 224.781 77.2272C224.857 76.6663 225.151 76.1577 225.599 75.8116L239.349 65.406C239.638 65.1863 239.848 64.8799 239.949 64.5318L240.349 63.1281C240.475 62.6904 240.736 62.3037 241.095 62.0237C241.455 61.7437 241.894 61.5846 242.349 61.5695L252.439 61.1849C252.775 61.1733 253.11 61.24 253.416 61.3795C253.723 61.5191 253.992 61.7278 254.204 61.9891L255.274 63.3279C255.413 63.4994 255.582 63.6434 255.774 63.7525L272.649 73.0691C272.982 73.253 273.26 73.5219 273.455 73.8484C273.65 74.1749 273.755 74.5472 273.759 74.9274V74.9874C269.824 91.3725 270.049 112.084 274.454 140.168C274.466 140.596 274.349 141.018 274.119 141.379C273.89 141.741 273.557 142.025 273.164 142.196C269.519 143.755 256.224 149.16 245.334 149.16Z" fill="#8CA4BA"/>
<path d="M235.06 97.6918H223.63C223.347 97.6931 223.067 97.6387 222.806 97.5316C222.544 97.4244 222.307 97.2668 222.106 97.0677C221.906 96.8685 221.747 96.6318 221.639 96.3712C221.53 96.1105 221.475 95.831 221.475 95.5487C221.472 95.5055 221.472 95.4621 221.475 95.4189C221.645 92.5115 221.975 86.9815 222.315 82.6155C222.815 76.3362 228.955 73.249 229.02 73.219L229.14 73.1591L233.295 75.7967L237.195 95.1191C237.306 95.6789 237.191 96.2601 236.874 96.735C236.557 97.21 236.065 97.5397 235.505 97.6518C235.366 97.6799 235.226 97.6933 235.085 97.6918H235.06Z" fill="#8CA4BA"/>
<path d="M266.374 96.6278C266.091 96.6264 265.811 96.5693 265.55 96.4595C265.289 96.3497 265.052 96.1895 264.854 95.988C264.655 95.7866 264.498 95.5478 264.391 95.2856C264.285 95.0233 264.232 94.7426 264.234 94.4597C264.234 94.3898 264.234 94.3148 264.234 94.2399L266.344 74.8525L270.419 71.8552H270.514C270.554 71.8552 274.899 72.3997 276.844 77.2553C278.229 80.7172 280.344 87.1114 281.479 90.6132C281.654 91.1558 281.607 91.7454 281.347 92.253C281.087 92.7605 280.637 93.1445 280.094 93.3208L279.939 93.3607L266.884 96.5328C266.719 96.5861 266.548 96.618 266.374 96.6278Z" fill="#8CA4BA"/>
<path d="M246.861 58.1576C249.486 54.0064 246.206 42.5818 239.061 42.282C237.411 42.2121 236.776 39.8143 236.216 38.2607C235.932 37.361 235.856 36.4084 235.996 35.4753C236.135 34.5422 236.486 33.6531 237.021 32.8756C238.115 31.3303 239.617 30.1195 241.361 29.3787C243.322 28.4802 245.454 28.0136 247.612 28.0104C249.769 28.0072 251.902 28.4677 253.866 29.3604C255.83 30.2532 257.579 31.5575 258.994 33.1848C260.41 34.8121 261.458 36.7244 262.069 38.7921C262.679 40.8598 262.838 43.0344 262.533 45.1686C262.229 47.3028 261.468 49.3466 260.304 51.1615C259.139 52.9763 257.598 54.5198 255.784 55.6873C253.97 56.8548 251.926 57.6189 249.791 57.9279L246.861 58.1576Z" fill="#54738F"/>
<path d="M319.5 232H195.5C195.367 232 195.24 231.947 195.146 231.854C195.053 231.76 195 231.633 195 231.5C195 231.368 195.053 231.241 195.146 231.147C195.24 231.053 195.367 231.001 195.5 231.001H319.5C319.633 231.001 319.76 231.053 319.854 231.147C319.947 231.241 320 231.368 320 231.5C320 231.633 319.947 231.76 319.854 231.854C319.76 231.947 319.633 232 319.5 232Z" fill="#3F3D56"/>
</g>
<circle opacity="0.1" cx="99.5" cy="99.5" r="99.5" fill="#54738F"/>
<circle opacity="0.1" cx="99.5" cy="99.5" r="77.5" fill="#54738F"/>
<circle opacity="0.1" cx="99.5" cy="99.5" r="55.5" fill="#54738F"/>
<circle opacity="0.1" cx="100" cy="99" r="35" fill="#54738F"/>
<defs>
<clipPath id="clip0_1112_10890">
<rect width="125" height="204" fill="white" transform="translate(195 28)"/>
</clipPath>
</defs>
</svg>
