<svg width="1131" height="173" viewBox="0 0 1131 173" fill="none" xmlns="http://www.w3.org/2000/svg">
<path d="M1131 5C1131 2.23858 1128.76 0 1126 0H5C2.23853 0 0 2.23858 0 5V168C0 170.761 2.23853 173 5 173H1126C1128.76 173 1131 170.761 1131 168V5Z" fill="#554A9B"/>
<mask id="mask0_535_5003" style="mask-type:alpha" maskUnits="userSpaceOnUse" x="0" y="0" width="1131" height="173">
<path d="M1131 5C1131 2.23858 1128.76 0 1126 0H5C2.23853 0 0 2.23858 0 5V168C0 170.761 2.23853 173 5 173H1126C1128.76 173 1131 170.761 1131 168V5Z" fill="#554A9B"/>
</mask>
<g mask="url(#mask0_535_5003)">
<path d="M1099.5 234C1138.99 234 1171 201.988 1171 162.5C1171 123.012 1138.99 91 1099.5 91C1060.01 91 1028 123.012 1028 162.5C1028 201.988 1060.01 234 1099.5 234Z" fill="#4232AA"/>
<g clip-path="url(#clip0_535_5003)">
<path d="M120.73 200.981C145.986 200.981 166.46 180.463 166.46 155.154C166.46 129.844 145.986 109.327 120.73 109.327C95.474 109.327 75 129.844 75 155.154C75 180.463 95.474 200.981 120.73 200.981Z" fill="#4232AA"/>
<path d="M110.693 161.129C108.988 156.8 108.003 152.013 104.965 148.493C103.38 146.661 101.299 145.248 100.055 143.171C97.62 139.102 99.0742 133.764 97.5082 129.287C96.3798 126.061 93.798 123.589 92.0348 120.663C85.697 110.135 90.6696 95.4578 84.1328 85.0514C91.2717 88.8304 98.9483 93.1881 101.955 100.698C102.868 102.979 103.316 105.495 104.745 107.49C106.346 109.73 108.999 111.05 110.554 113.322C112.695 116.449 112.349 120.731 114.252 124.011C115.798 126.68 118.6 128.312 120.895 130.369C128.064 136.8 130.068 147.294 129.697 156.929C129.578 160.072 129.21 163.335 127.546 166.002C122.047 174.82 113.411 168.028 110.693 161.129Z" fill="#99C242"/>
<path d="M110.526 181.933C109.854 180.592 109.451 179.071 108.421 177.98C106.085 175.51 101.85 176.425 98.9324 174.679C97.1947 173.639 96.1094 171.759 94.4431 170.611C90.8094 168.112 85.8914 169.802 81.8467 171.557C83.9637 164.823 91.5039 160.296 98.4271 161.603C99.2519 161.758 100.065 161.986 100.9 162.071C101.646 162.147 102.396 162.109 103.148 162.118C108.296 162.181 113.144 164.458 117.661 166.935C120.638 168.568 123.606 170.347 125.886 172.867C129.451 176.805 131.657 186.208 124.843 188.48C120.315 189.984 112.52 185.917 110.526 181.933Z" fill="#AFD168"/>
<path d="M122.267 159.595C121.694 157.313 120.864 155.105 119.791 153.012C117.634 148.763 114.373 145.241 111.998 141.13C111.551 140.342 111.145 139.532 110.78 138.704C111.19 137.835 111.596 136.966 111.991 136.088C112.294 135.41 112.619 134.734 112.893 134.043C113.033 133.69 113.098 133.318 113.208 132.951C113.312 132.603 113.431 132.284 113.431 131.917C113.431 131.499 112.928 131.318 112.638 131.587C112.367 131.835 112.222 132.14 112.031 132.452C111.825 132.79 111.591 133.094 111.426 133.452C111.11 134.127 110.825 134.817 110.529 135.502C110.343 135.933 110.165 136.367 109.985 136.8C108.802 133.771 107.893 130.625 106.51 127.675C105.108 124.682 103.31 121.917 101.581 119.109C101.927 117.963 102.383 116.853 102.943 115.795C103.281 115.165 103.662 114.564 104.043 113.961C104.249 113.634 104.425 113.291 104.638 112.966C104.866 112.621 105.049 112.398 105.07 111.975C105.091 111.551 104.669 111.312 104.304 111.39C103.652 111.53 103.024 112.4 102.626 112.908C102.136 113.555 101.704 114.243 101.333 114.965C100.969 115.651 100.645 116.358 100.365 117.082C100.023 116.497 99.6873 115.91 99.3652 115.318C98.0448 112.873 97.1284 110.296 96.4031 107.618C95.6928 104.992 95.4084 102.16 94.3424 99.6514C94.3213 99.6011 94.2491 99.6311 94.2474 99.6769C94.1594 102.037 94.7817 104.435 95.3125 106.722C95.881 109.148 96.6293 111.527 97.551 113.84C98.0606 115.132 98.6486 116.383 99.271 117.617C97.4603 116.382 95.4137 115.5 93.2157 115.368C92.7333 115.339 92.4983 116.108 92.9605 116.314C95.4058 117.4 97.8335 118.509 99.8458 120.317C99.9735 120.431 100.129 120.508 100.297 120.542C100.465 120.575 100.638 120.564 100.8 120.507C101.856 122.432 102.946 124.34 103.938 126.301C105.977 130.33 107.032 134.724 108.758 138.873C107.627 138.45 106.467 138.106 105.287 137.845C104.577 137.692 103.86 137.568 103.14 137.469C102.361 137.363 101.746 137.481 100.993 137.645C100.817 137.684 100.855 137.91 100.993 137.97C101.69 138.25 102.292 138.507 103.041 138.646C103.718 138.772 104.39 138.923 105.056 139.101C106.439 139.462 107.792 139.928 109.105 140.494C109.236 140.548 109.377 140.571 109.518 140.563C111.473 144.571 114.41 147.973 116.736 151.761C118.13 154.052 119.244 156.502 120.055 159.059C120.45 160.28 120.812 161.536 121.088 162.79C121.383 164.134 121.496 165.506 121.782 166.848C121.937 167.585 122.926 167.329 122.998 166.683C123.245 164.403 122.819 161.815 122.267 159.595Z" fill="#568725"/>
<path d="M130.564 183.031C130.139 181.818 129.004 180.729 128.112 179.829C127.106 178.817 125.988 177.914 124.855 177.054C122.593 175.343 120.171 173.861 117.725 172.426C114.339 170.439 110.831 168.301 107.124 166.793C107.121 166.671 107.093 166.551 107.041 166.44C106.748 165.812 106.454 165.184 106.161 164.555C106.025 164.267 105.886 163.977 105.721 163.701C105.545 163.396 105.273 163.184 104.972 162.996C104.782 162.877 104.438 162.979 104.405 163.227C104.359 163.564 104.325 163.923 104.438 164.243C104.555 164.577 104.702 164.906 104.85 165.228C104.983 165.518 105.117 165.808 105.252 166.099C103.955 165.654 102.625 165.315 101.274 165.084C97.9287 164.529 94.6638 164.718 91.4624 165.878C90.9932 166.048 91.1754 166.774 91.6719 166.638C95.4429 165.602 99.455 166.116 103.208 167.327C102.841 167.531 102.481 167.748 102.133 167.987C101.525 168.405 100.907 168.856 100.402 169.398C100.153 169.663 99.9101 169.941 99.6857 170.229C99.5807 170.366 99.4829 170.508 99.3925 170.654C99.2858 170.822 99.2186 171.012 99.1962 171.21C99.1602 171.401 99.323 171.633 99.5404 171.555C99.6901 171.5 99.8045 171.49 99.9401 171.395C100.076 171.301 100.216 171.185 100.351 171.079C100.615 170.873 100.864 170.652 101.134 170.452C101.701 170.031 102.253 169.595 102.852 169.217C103.591 168.754 104.37 168.358 105.179 168.033C106.295 168.474 107.38 168.958 108.415 169.476C110.738 170.636 112.976 171.965 115.209 173.291C115.086 173.345 114.96 173.399 114.843 173.452C114.215 173.731 113.622 174.08 113.073 174.493C112.507 174.922 111.944 175.389 111.489 175.936C111.255 176.228 111.047 176.541 110.867 176.87C110.679 177.193 110.504 177.515 110.674 177.883C110.704 177.936 110.748 177.981 110.801 178.012C110.854 178.043 110.914 178.059 110.976 178.06C111.322 178.076 111.55 177.795 111.773 177.573C111.997 177.35 112.245 177.148 112.477 176.931C112.939 176.503 113.386 176.088 113.911 175.737C114.441 175.38 115 175.069 115.583 174.806C116.003 174.618 116.494 174.497 116.954 174.327C118.895 175.487 120.821 176.677 122.658 177.997C123.89 178.877 125.072 179.826 126.197 180.839C126.741 181.331 127.297 181.815 127.815 182.334C128.354 182.873 128.814 183.48 129.467 183.882C129.992 184.211 130.78 183.658 130.564 183.031Z" fill="#568725"/>
<path d="M214.587 151.659C215.576 144.237 218.96 137.344 224.223 132.029C225.529 130.716 227.096 129.447 228.943 129.363C229.706 129.328 230.486 129.499 231.222 129.3C233.094 128.796 233.558 126.434 234.2 124.601C235.573 120.682 239.042 117.94 242.395 115.497C248.451 111.086 255.382 106.719 262.828 107.5C257.972 112.881 252.833 118.945 252.739 126.201C252.728 127.035 252.785 127.887 252.563 128.692C251.94 130.935 249.49 132.01 247.621 133.393C243.983 136.08 242.128 140.595 241.307 145.049C240.487 149.503 240.533 154.077 239.802 158.545C239.071 163.014 237.416 167.573 233.947 170.475C231.706 172.35 228.897 173.386 226.112 174.261C224.657 174.721 223.159 175.154 221.635 175.085C217.734 174.909 214.625 171.406 213.602 167.63C212.579 163.853 213.176 159.848 213.778 155.986L214.587 151.659Z" fill="#AFD168"/>
<path d="M246.84 128.588C246.622 128.412 246.381 128.368 246.143 128.236C245.936 128.121 245.824 128.032 245.569 127.997C245.437 127.98 245.305 127.961 245.173 127.946C244.568 127.876 243.958 127.833 243.351 127.778L241.607 127.619L241.251 127.587C242.611 125.773 244.016 123.99 245.184 122.042C245.531 121.464 244.772 120.97 244.304 121.36C242.757 122.645 241.399 124.163 240.14 125.771C240.101 125.492 240.057 125.214 240.004 124.937C239.812 123.95 239.547 122.977 238.98 122.138C238.636 121.629 237.923 121.962 238.02 122.543C238.207 123.661 238.575 124.737 238.705 125.866C238.767 126.433 238.797 127.004 238.793 127.574C237.902 128.818 237.054 130.086 236.219 131.326C233.866 134.819 231.697 138.437 229.676 142.133C228.917 143.523 228.185 144.928 227.467 146.339C227.224 144.718 226.885 143.113 226.45 141.533C225.989 139.857 225.518 138.054 224.638 136.548C224.361 136.074 223.685 136.401 223.786 136.909C224.163 138.817 224.886 140.659 225.311 142.562C225.742 144.488 226.036 146.425 226.28 148.384C226.29 148.468 226.306 148.552 226.325 148.634C223.626 154.132 221.195 159.76 218.885 165.436C217.084 169.861 215.467 174.357 213.93 178.88C213.754 179.39 214.584 179.752 214.81 179.251C218.287 171.52 221.421 163.638 224.976 155.94C225.958 153.815 226.969 151.702 228.009 149.602C228.915 149.508 229.821 149.394 230.726 149.291L233.884 148.93C234.918 148.813 235.831 148.706 236.769 148.225C237.093 148.057 237.012 147.536 236.669 147.45C234.914 147.014 232.981 147.522 231.212 147.738L228.798 148.032C231.293 143.106 233.987 138.283 237.011 133.659C238.034 132.094 239.104 130.56 240.201 129.046C240.568 129.092 240.947 129.107 241.298 129.149C241.931 129.223 242.565 129.297 243.2 129.371C243.781 129.438 244.361 129.51 244.943 129.574C245.323 129.616 245.621 129.636 245.986 129.518C246.25 129.43 246.501 129.441 246.755 129.307C246.988 129.177 247.061 128.771 246.84 128.588Z" fill="#568725"/>
<path d="M224.408 43.0439C237.646 43.0439 248.379 32.2889 248.379 19.0219C248.379 5.75498 237.646 -5 224.408 -5C211.169 -5 200.437 5.75498 200.437 19.0219C200.437 32.2889 211.169 43.0439 224.408 43.0439Z" fill="#4232AA"/>
<path d="M219.863 194.02V26.2527C219.863 19.0443 214.032 13.2008 206.839 13.2008L130.044 13.2008C122.851 13.2008 117.02 19.0443 117.02 26.2527L117.02 194.02C117.02 201.228 122.851 207.072 130.044 207.072H206.839C214.032 207.072 219.863 201.228 219.863 194.02Z" fill="#253858"/>
<path d="M215.344 194.02V26.2518C215.344 21.5447 211.536 17.7288 206.839 17.7288L130.043 17.7288C125.346 17.7288 121.538 21.5447 121.538 26.2518L121.538 194.02C121.538 198.727 125.346 202.543 130.043 202.543H206.839C211.536 202.543 215.344 198.727 215.344 194.02Z" fill="#C1C7D0"/>
<path d="M213.58 26.2464V194.013C213.583 195.144 213.3 196.258 212.757 197.251C212.029 198.575 210.886 199.621 209.505 200.228C209.298 200.316 209.091 200.396 208.877 200.469C208.216 200.677 207.528 200.783 206.836 200.784H130.049C129.487 200.785 128.927 200.713 128.384 200.569C128.201 200.525 128.02 200.472 127.842 200.409C126.511 199.952 125.356 199.09 124.538 197.943C123.72 196.796 123.28 195.422 123.279 194.013V26.2464C123.282 24.4533 123.994 22.7343 125.259 21.4663C126.524 20.1982 128.24 19.4845 130.029 19.4814H206.829C208.619 19.4842 210.334 20.1979 211.6 21.466C212.865 22.734 213.577 24.4531 213.58 26.2464Z" fill="#F4F5F7"/>
<path d="M136.881 24.5899H129.032C128.801 24.5899 128.579 24.4978 128.416 24.3339C128.252 24.1699 128.16 23.9476 128.16 23.7157C128.16 23.4839 128.252 23.2615 128.416 23.0976C128.579 22.9337 128.801 22.8416 129.032 22.8416H136.881C137.112 22.8416 137.334 22.9337 137.498 23.0976C137.661 23.2615 137.753 23.4839 137.753 23.7157C137.753 23.9476 137.661 24.1699 137.498 24.3339C137.334 24.4978 137.112 24.5899 136.881 24.5899Z" fill="#C1C7D0"/>
<path d="M206.648 22.8416H192.956C192.725 22.8416 192.503 22.9337 192.339 23.0976C192.176 23.2615 192.084 23.4839 192.084 23.7157C192.084 23.9476 192.176 24.1699 192.339 24.3339C192.503 24.4978 192.725 24.5899 192.956 24.5899H206.648C206.879 24.5899 207.101 24.4978 207.265 24.3339C207.428 24.1699 207.52 23.9476 207.52 23.7157C207.52 23.4839 207.428 23.2615 207.265 23.0976C207.101 22.9337 206.879 22.8416 206.648 22.8416Z" fill="#C1C7D0"/>
<path d="M199.523 200.787H172.396C172.724 185.101 172.884 172.648 172.884 172.648C172.884 172.648 170.389 185.574 167.492 200.787H139.214C142.07 185.999 145.162 170.384 147.175 160.275C148.024 155.985 148.687 152.689 149.048 150.856C149.256 149.823 149.369 149.253 149.369 149.253C175.239 151.734 195.905 149.253 195.905 149.253C195.998 149.743 196.081 150.232 196.178 150.722C196.339 151.613 196.5 152.519 196.653 153.43C198.847 166.55 199.724 181.259 199.523 200.787Z" fill="#3FA3FF"/>
<path d="M196.655 153.435C188 156.385 169.813 157.555 158.857 157.161C153.545 156.973 149.764 158.484 147.174 160.277C148.028 155.985 148.688 152.691 149.052 150.862C149.257 149.823 149.366 149.258 149.366 149.258C175.245 151.741 195.903 149.258 195.903 149.258C196.001 149.749 196.085 150.234 196.177 150.724C196.341 151.616 196.501 152.518 196.655 153.435Z" fill="#2067A3"/>
<path d="M227.499 77.6884C225.93 85.9256 223.08 110.742 220.185 114.555C219.446 115.525 218.756 115.559 217.633 116.017C211.416 118.563 210.023 111.464 210.738 106.893C211.226 103.772 219.85 76.6677 220.583 75.4989C221.597 73.8899 227.78 76.2011 227.499 77.6884Z" fill="#FFB69E"/>
<path d="M183.035 94.6929C186.083 104.97 192.463 111.47 201.297 117.893C210.576 124.645 217.803 120.532 220.574 114.832C221.755 112.409 222.237 110.96 222.237 110.96C221.174 110.675 215.489 110.774 211.509 104.071C210.98 103.189 195.374 81.634 192.987 81.2688C190.375 80.8648 182.201 91.8675 183.035 94.6929Z" fill="#13297E"/>
<path d="M186.306 55.3945C186.643 53.7136 186.822 52.0048 186.842 50.2905C186.86 47.0602 185.728 44.5453 183.695 42.0868C183.51 41.8633 183.32 41.6451 183.124 41.4323C180.354 38.4233 176.444 36.7217 172.366 36.4544C170.172 36.3107 167.469 36.2427 167.458 36.8717C167.483 34.5782 167.49 32.2273 166.717 30.0688C165.211 25.8681 160.542 23.0621 156.134 23.7087C151.727 24.3553 148.057 28.3839 147.816 32.8413C147.759 33.6821 147.846 34.5265 148.074 35.3377C148.368 36.3292 148.915 37.2254 149.512 38.0723C151.584 41.0053 154.901 43.6473 158.426 42.9848C155.536 48.5422 153.822 52.2391 156.131 60.1306C156.729 62.1771 160.444 68.9112 171.695 69.8427C173.297 69.9644 174.906 69.7672 176.431 69.2624C177.956 68.7576 179.367 67.9553 180.581 66.9017C183.562 64.2721 185.45 59.7433 186.306 55.3945Z" fill="#172B4D"/>
<path d="M189.589 108.384C189.618 111.445 189.295 114.501 188.473 117.443C187.234 121.872 184.811 126.037 181.236 128.922C179.44 130.37 177.285 131.508 174.98 131.58C173.679 131.62 172.386 131.315 171.164 130.868C167.859 129.648 164.955 127.258 163.32 124.131C161.467 120.588 161.326 116.403 161.582 112.41C161.779 109.317 162.179 106.122 161.195 103.183C160.301 100.514 158.362 98.3512 156.865 95.9695C154.836 92.737 153.606 89.067 153.274 85.2632C152.984 81.8864 154.902 80.7282 157.608 79.5188L165.09 76.1747C165.417 75.9781 165.693 75.7072 165.896 75.3839C166.1 75.0606 166.224 74.6939 166.26 74.3134L166.502 71.3733L166.812 67.7055L176.354 66.6531L176.882 73.127L176.936 73.8415C176.973 74.2455 177.111 74.6337 177.337 74.9706C177.563 75.3074 177.869 75.5822 178.228 75.7698C182.152 77.7722 185.793 78.8969 187.851 83.2105C188.422 84.4084 188.537 85.7686 188.555 87.0989C188.584 89.7823 188.238 92.4613 188.315 95.1438C188.403 98.0337 188.971 100.885 189.299 103.757C189.476 105.293 189.573 106.838 189.589 108.384Z" fill="#FFB69E"/>
<path d="M166.514 71.369C168.404 73.045 170.938 74.0797 174.32 73.7004C175.195 73.61 176.057 73.4173 176.887 73.1262L176.359 66.647L166.822 67.7055L166.514 71.369Z" fill="#F68A73"/>
<path d="M161.175 56.6947C161.175 56.9729 161.19 57.2669 161.221 57.5768C161.332 58.8133 161.574 60.0343 161.944 61.2191C162.668 63.6114 163.839 66.3275 165.729 68.3643C167.701 70.4946 170.473 71.8831 174.323 71.4667C181.884 70.6331 183.809 63.8276 184.194 58.7809C184.21 58.6107 184.21 58.4563 184.225 58.287C184.472 53.3947 182.839 48.7336 182.839 48.7336C180.668 44.1192 172.691 44.181 172.691 44.181C172.691 44.181 169.515 46.5203 161.512 53.5023C161.514 53.4997 161.097 54.642 161.175 56.6947Z" fill="#FFB69E"/>
<path d="M172.152 60.0734C172.14 60.0734 172.142 60.0955 172.152 60.0936C172.163 60.0917 172.166 60.0714 172.152 60.0734Z" fill="#594E8A"/>
<path d="M175.047 56.9522C174.771 56.2995 174.787 55.4385 174.368 54.8898C174.364 54.883 174.359 54.8773 174.352 54.8729C174.345 54.8686 174.338 54.8658 174.33 54.8648C174.322 54.8638 174.314 54.8646 174.306 54.8671C174.299 54.8696 174.292 54.8737 174.286 54.8793C173.738 55.4147 174.08 56.4053 174.312 57.0352C174.474 57.4762 174.675 57.9058 174.875 58.331C174.943 58.4721 175.266 58.9158 175.227 59.0781C175.132 59.5245 174.313 59.5122 174.005 59.4778C173.492 59.4213 173.489 60.2373 174.005 60.2858C174.736 60.3546 176.224 59.985 176.049 59.0314C175.924 58.3372 175.322 57.6068 175.047 56.9522Z" fill="#F68A73"/>
<path d="M161.901 58.1141C161.901 58.1141 159.564 55.2913 158.463 56.663C157.361 58.0347 159.079 64.4327 163.312 63.8082L161.901 58.1141Z" fill="#FFB69E"/>
<path d="M160.431 58.302C160.246 58.2314 160.072 58.519 160.232 58.6443C160.643 58.968 161.056 59.2873 161.405 59.679C161.041 59.6773 160.68 59.7415 160.339 59.8687C160.092 59.9569 160.109 60.367 160.405 60.3556C160.862 60.3379 161.413 60.4235 161.859 60.3185C162.023 60.6026 162.166 60.8963 162.331 61.1918C162.495 61.4873 162.907 61.28 162.841 60.9766C162.588 59.8369 161.503 58.7069 160.431 58.302Z" fill="#F68A73"/>
<path d="M194.44 134.486C192.503 126.711 191.738 118.608 193.514 110.852C194.324 107.312 196.047 104.677 195.45 100.045C194.916 95.8742 193.668 91.82 193.522 88.8904C193.407 86.4531 192.973 81.3377 192.984 81.2645C192.817 80.9928 186.023 79.2983 181.826 77.4043C181.034 77.0383 180.329 76.7242 179.801 76.4843C181.378 77.1962 178.792 98.1845 175.752 103.587C172.602 98.9308 165.314 76.2161 164.397 76.4843C163.77 76.6722 163.155 76.8707 162.57 77.07C150.429 81.0766 146.638 85.4502 146.638 85.4502C149.023 90.1475 150.572 96.8551 150.964 110.679C151.189 118.595 150.856 126.538 149.866 134.396C149.548 136.933 149.162 139.46 148.687 141.972C148.247 144.299 147.631 146.623 147.077 148.929C147.005 149.228 146.936 149.557 147.077 149.828C147.208 150.08 147.487 150.213 147.748 150.326C158.575 155.014 170.847 154.864 182.563 153.537C187.943 152.926 193.372 152.064 198.313 149.846C198.626 149.705 198.967 149.528 199.082 149.204C199.179 148.93 199.082 148.629 198.994 148.354C198.403 146.597 197.873 144.835 197.306 143.072C196.396 140.215 195.165 137.405 194.44 134.486Z" fill="#293F98"/>
<path d="M171.335 52.9819C171.185 52.6 170.444 52.6291 170.103 52.6141C169.624 52.5926 169.143 52.6222 168.671 52.7023C168.204 52.7878 167.746 52.9141 167.301 53.0798C166.888 53.2271 166.451 53.4247 166.11 53.7061C166.101 53.7143 166.094 53.7248 166.091 53.7365C166.088 53.7483 166.088 53.7607 166.092 53.7723C166.095 53.7839 166.102 53.7943 166.112 53.8021C166.121 53.8099 166.132 53.8149 166.144 53.8164C166.557 53.8905 166.994 53.7767 167.39 53.6603C167.816 53.5222 168.25 53.4135 168.691 53.3348C169.138 53.2637 169.591 53.2382 170.043 53.2589C170.253 53.2695 170.461 53.2977 170.67 53.3198C170.878 53.3418 171.119 53.3921 171.276 53.2316C171.311 53.2015 171.335 53.1611 171.346 53.1163C171.357 53.0715 171.353 53.0244 171.335 52.9819Z" fill="#172B4D"/>
<path d="M170.49 109.625C169.443 109.618 168.358 109.998 167.321 110.154C166.21 110.314 165.087 110.364 163.967 110.302C162.878 110.243 161.797 110.083 160.737 109.824C159.633 109.559 158.586 109.127 157.502 108.799C157.088 108.674 156.885 109.24 157.219 109.469C159.101 110.742 161.643 111.21 163.869 111.352C165.028 111.424 166.191 111.383 167.342 111.229C168.427 111.085 169.751 110.9 170.648 110.218C170.885 110.035 170.83 109.627 170.49 109.625Z" fill="#13297E"/>
<path d="M176.101 52.8223C176.313 52.4994 176.868 52.4535 177.217 52.3909C177.609 52.3225 178.004 52.281 178.401 52.2665C178.799 52.2505 179.198 52.2641 179.594 52.3071C179.981 52.3486 180.445 52.383 180.788 52.5806C180.929 52.6626 180.876 52.9334 180.71 52.9414C180.33 52.9669 179.931 52.8531 179.551 52.8214C179.178 52.7912 178.803 52.788 178.429 52.8117C178.058 52.8369 177.689 52.8879 177.326 52.9643C177.143 53.0022 176.962 53.0454 176.783 53.094C176.585 53.1478 176.399 53.2077 176.199 53.1337C176.17 53.1224 176.143 53.1047 176.122 53.0819C176.1 53.059 176.084 53.0316 176.075 53.0016C176.066 52.9717 176.063 52.94 176.068 52.9089C176.072 52.8779 176.084 52.8482 176.101 52.8223Z" fill="#172B4D"/>
<path d="M180.158 115.998L185.235 116.705C186.487 116.879 187.643 116.003 187.817 114.749L189.659 101.461C189.833 100.206 188.959 99.0479 187.707 98.8736L182.63 98.1667C181.378 97.9924 180.222 98.8682 180.048 100.123L178.206 113.41C178.032 114.665 178.906 115.823 180.158 115.998Z" fill="#262D4F"/>
<path d="M169.654 122.678C170.852 123.499 178.579 125.524 189.469 113.745C189.75 113.419 189.928 113.016 189.981 112.588C190.005 112.243 189.956 111.897 189.837 111.572C189.807 111.458 189.77 111.346 189.727 111.236C189.678 111.101 189.616 110.953 189.551 110.818C189.39 110.453 189.209 110.097 189.011 109.751C188.923 109.589 188.835 109.439 188.747 109.29C188.594 109.046 188.429 108.802 188.263 108.571C188.184 108.46 188.099 108.355 188.006 108.257C187.922 108.147 187.827 108.046 187.722 107.956C187.647 107.9 187.569 107.848 187.488 107.802C186.742 107.408 185.842 107.741 185.088 108.106C182.556 109.322 180.136 110.758 177.855 112.397C178.27 111.37 178.698 110.358 179.126 109.345C179.311 108.911 179.498 108.436 179.445 107.956C179.392 107.488 179.005 107.011 178.528 107.037C177.2 108.41 176.327 109.956 175.183 111.481C173.553 113.657 171.688 115.667 169.772 117.596C169.197 118.178 168.196 118.788 167.988 119.581C167.704 120.709 168.806 122.108 169.654 122.678Z" fill="#FFB69E"/>
<path d="M182.394 117.668C183.979 117.074 185.426 115.745 186.693 114.65C187.742 113.735 188.954 112.732 189.838 111.572C189.807 111.459 189.77 111.346 189.728 111.236C189.678 111.101 189.616 110.953 189.552 110.818C188.516 111.721 187.607 112.826 186.584 113.742C185.193 114.977 183.478 115.955 182.191 117.289C182.059 117.432 182.179 117.755 182.394 117.668Z" fill="#F68A73"/>
<path d="M181.262 115.492C182.886 114.899 184.27 113.928 185.629 112.875C186.797 111.963 188.094 110.949 189.014 109.751C188.926 109.588 188.838 109.439 188.75 109.29C187.624 110.097 186.612 111.119 185.524 111.967C184.083 113.097 182.515 114.036 181.122 115.23C181.014 115.328 181.128 115.554 181.262 115.492Z" fill="#F68A73"/>
<path d="M179.888 113.375C181.584 112.612 183.145 111.538 184.7 110.531C185.81 109.831 186.988 109.106 188.008 108.256C187.923 108.147 187.828 108.046 187.723 107.956C186.388 108.649 185.113 109.544 183.855 110.347C182.446 111.229 180.989 112.048 179.671 113.076C179.494 113.217 179.713 113.45 179.888 113.375Z" fill="#F68A73"/>
<path d="M177.225 62.9101L171.313 62.5334C171.313 62.5334 171.699 64.7943 174.269 64.7943C177.225 64.7943 177.225 62.9101 177.225 62.9101Z" fill="white"/>
<path d="M144.649 137.923C144.649 137.923 137.695 133.139 138.982 116.267C140.177 100.653 141.623 90.2603 146.641 85.4501C146.641 85.4501 152.18 87.3025 152.802 106.161C153.425 125.019 152.802 124.509 152.802 124.509L144.649 137.923Z" fill="#13297E"/>
<path d="M175.232 123.09C175.232 123.09 171.258 121.307 171.069 116.265C171.069 116.265 146.944 125.76 143.809 130.799C141.638 134.289 144.112 140.705 150.053 139.388C155.993 138.071 175.232 123.09 175.232 123.09Z" fill="#FFB69E"/>
<path d="M169.897 56.124C169.897 56.0773 169.897 56.0358 169.889 55.9899C169.883 55.8649 169.851 55.7426 169.794 55.6311C169.737 55.5197 169.657 55.4216 169.56 55.3433C169.456 55.2715 169.335 55.2305 169.209 55.2252C169.083 55.2199 168.958 55.2505 168.849 55.3134C168.741 55.3854 168.652 55.4818 168.588 55.5947C168.524 55.7076 168.487 55.8339 168.481 55.9635C168.471 56.2231 168.522 56.4814 168.63 56.7177C168.671 56.8396 168.741 56.9496 168.835 57.0379C169.079 57.2399 169.513 57.1579 169.702 56.9276C169.861 56.7362 169.904 56.4019 169.897 56.124Z" fill="#1C2139"/>
<path d="M179.177 55.7606C179.177 55.7139 179.177 55.6724 179.169 55.6265C179.163 55.5021 179.13 55.3804 179.074 55.2694C179.017 55.1584 178.938 55.0607 178.841 54.9826C178.738 54.9106 178.615 54.8696 178.489 54.8644C178.363 54.8593 178.238 54.8902 178.129 54.9535C178.022 55.0256 177.932 55.122 177.869 55.2349C177.805 55.3478 177.768 55.474 177.762 55.6036C177.752 55.8631 177.802 56.1215 177.91 56.3578C177.952 56.4797 178.022 56.5896 178.116 56.678C178.361 56.88 178.794 56.798 178.982 56.5669C179.141 56.3719 179.185 56.0367 179.177 55.7606Z" fill="#1C2139"/>
<path d="M230.528 77.1211C230.528 77.1211 229.957 81.4215 224.309 83.4221C220.534 84.7709 215.691 74.503 212.897 67.5766C211.515 64.1513 210.64 61.5349 210.64 61.5349L222.814 59.9559C222.995 61.3131 223.255 62.6583 223.594 63.9846C224.475 67.5228 226.242 72.6435 229.57 76.2584L230.528 77.1211Z" fill="#97A0AF"/>
<path d="M223.594 63.9881C218.225 64.5042 214.616 66.4404 212.897 67.5801C211.515 64.1548 210.64 61.5385 210.64 61.5385L222.814 59.9595C222.995 61.3166 223.255 62.6619 223.594 63.9881Z" fill="#7A869A"/>
<path d="M245.628 68.9474L245.685 69.3161C245.627 69.2488 245.565 69.1854 245.499 69.1264C245.484 69.1388 245.473 69.1542 245.465 69.1714C245.074 68.8943 244.726 68.5625 244.43 68.1861C244.066 67.8676 243.626 67.5069 243.11 67.0967C240.648 65.1627 237.827 63.738 234.812 62.9051C231.796 62.0723 228.646 61.8479 225.543 62.245L220.337 62.9234L220.257 62.9331L210.819 64.1557L208.49 64.46C203.433 65.119 198.529 62.1665 196.938 57.3219C196.841 57.0396 196.762 56.7556 196.689 56.4706C195.096 50.3143 199.485 44.1933 205.786 43.3676L208.027 43.0818L222.89 41.1411C224.273 40.9671 225.637 40.6623 226.963 40.2308C231.637 38.7587 235.728 35.8469 238.655 31.9097C238.943 31.5392 239.2 31.1723 239.423 30.86C239.687 30.2284 239.975 29.6947 240.292 29.3207C240.329 29.3472 240.363 29.3767 240.394 29.4089C240.427 29.3561 240.456 29.3017 240.482 29.2457L240.515 29.5051C243.161 31.6345 245.876 39.3116 247.097 48.6886C248.319 58.0832 247.639 66.2093 245.628 68.9474Z" fill="#B3BAC5"/>
<path d="M238.65 49.7746C239.912 59.447 242.766 67.2944 245.477 69.1618C245.945 69.4864 246.391 69.6329 246.856 69.5738C247.366 69.5094 247.819 69.1821 248.226 68.6573C250.25 65.988 250.954 57.8072 249.722 48.3314C248.49 38.9033 245.742 31.1786 243.096 29.1012C242.547 28.6751 242.029 28.4925 241.519 28.5569C241.079 28.6125 240.658 28.8683 240.287 29.3208C238.144 31.7996 237.394 40.1471 238.65 49.7746Z" fill="#DFE1E5"/>
<path d="M228.704 62.0616C227.646 62.0528 226.589 62.115 225.54 62.2477L220.334 62.926C220.314 62.8475 220.283 62.7602 220.263 62.6817C220.263 62.7628 220.254 62.8581 220.254 62.9357L210.816 64.1584C209.898 61.1212 209.119 57.4983 208.604 53.5729C208.107 49.7798 207.929 46.1957 208.023 43.0809L222.885 41.1403C223.892 41.013 224.888 40.8161 225.867 40.551C225.76 43.7267 225.931 47.4166 226.442 51.3129C226.964 55.3054 227.76 58.9865 228.704 62.0616Z" fill="#97A0AF"/>
<path d="M241.574 49.4057C241.822 51.3808 242.154 53.3012 242.534 55.0795C243.948 61.8463 246.105 67.0076 248.225 68.6572C250.25 65.9879 250.954 57.8071 249.722 48.3313C248.489 38.9032 245.742 31.1785 243.095 29.1011C241.469 31.2014 240.686 36.7755 241.058 43.6772C241.151 45.5129 241.325 47.4298 241.574 49.4057Z" fill="#A5ADBA"/>
<path d="M241.573 49.4058C241.821 51.3809 242.153 53.3012 242.534 55.0796C243.607 54.474 244.476 53.5622 245.031 52.4602C245.586 51.3581 245.801 50.1156 245.649 48.8906C245.498 47.6582 244.978 46.5005 244.158 45.5696C243.338 44.6388 242.256 43.9785 241.055 43.6755C241.151 45.513 241.324 47.4298 241.573 49.4058Z" fill="#7A869A"/>
<path d="M224.986 77.5445C224.625 77.6619 224.234 77.7457 223.869 77.6407C223.534 77.5437 223.264 77.2984 223.017 77.0505C221.417 75.4346 220.293 73.4066 219.77 71.1906C219.567 70.3235 219.459 69.4096 219.675 68.5443C219.884 67.7098 220.379 66.975 220.954 66.3389C221.394 65.8503 221.907 65.3933 222.538 65.1992C223.449 64.9187 224.46 65.2486 225.217 65.8273C225.974 66.406 226.528 67.2078 227.066 67.9973C228.051 69.444 229.666 71.5911 229.171 73.4665C228.677 75.3242 226.744 76.9773 224.986 77.5445Z" fill="#FFB69E"/>
<path d="M278.487 19.7684C278.443 19.6691 278.386 19.5767 278.316 19.494C277.942 19.1359 277.325 18.8448 276.814 19.15C275.186 20.1203 273.692 21.3773 272.163 22.5021C270.586 23.6606 269.011 24.8211 267.437 25.9838L262.85 29.3905C261.297 30.5444 259.614 31.6549 258.277 33.0593C257.572 33.7941 258.226 35.1967 259.292 34.6789C260.981 33.8576 262.505 32.65 264.027 31.5526L268.791 28.1185C270.338 27.0012 271.88 25.8815 273.418 24.7594C274.981 23.6197 276.697 22.5594 278.144 21.2768C278.544 20.9178 278.755 20.2712 278.487 19.7684Z" fill="#97A0AF"/>
<path d="M272.824 44.6536C272.736 44.0503 272.166 43.386 271.486 43.469C269.819 43.6727 268.158 43.91 266.496 44.1376C265.725 44.2435 264.952 44.3396 264.184 44.4552C263.35 44.5813 262.399 44.6581 261.647 45.0506C260.796 45.4917 260.982 46.9101 261.917 47.1245C262.72 47.3079 263.625 47.1483 264.438 47.0654C265.252 46.9825 266.048 46.8731 266.852 46.776C268.518 46.5749 270.185 46.3782 271.847 46.1524C272.509 46.0624 272.913 45.2464 272.824 44.6536Z" fill="#97A0AF"/>
<path d="M279.046 64.0648C276.099 63.2788 273.115 62.6851 270.186 61.8154C268.777 61.3955 267.369 60.9332 265.968 60.4851C265.221 60.2452 264.477 59.9982 263.725 59.7715C263.034 59.5633 262.297 59.2995 261.591 59.5783C261.163 59.7477 260.981 60.1499 261.186 60.576C261.513 61.2578 262.196 61.5525 262.852 61.8471C263.573 62.1717 264.302 62.4646 265.04 62.7486C266.466 63.292 267.914 63.7737 269.368 64.2324C272.292 65.1533 275.314 66.1157 278.341 66.6291C279.991 66.9078 280.729 64.5173 279.046 64.0648Z" fill="#97A0AF"/>
<path d="M127.99 65.5081L139.743 76.427L134.331 65.5081H127.99Z" fill="#B2D4FF"/>
<path d="M142.153 48.6401H85.0013C82.9176 48.6401 81.2285 50.3328 81.2285 52.4209V63.5383C81.2285 65.6263 82.9176 67.319 85.0013 67.319H142.153C144.237 67.319 145.926 65.6263 145.926 63.5383V52.4209C145.926 50.3328 144.237 48.6401 142.153 48.6401Z" fill="#B2D4FF"/>
<path d="M96.2666 57.9137C96.266 59.1386 95.9031 60.3358 95.2237 61.3541C94.5444 62.3723 93.579 63.1658 92.4496 63.6343C91.3203 64.1028 90.0777 64.2252 88.8789 63.9862C87.6801 63.7471 86.579 63.1572 85.7147 62.2911C84.8504 61.4249 84.2618 60.3215 84.0232 59.1201C83.7846 57.9188 83.9068 56.6736 84.3743 55.5418C84.8418 54.4101 85.6337 53.4427 86.6497 52.7618C87.6658 52.081 88.8605 51.7173 90.0828 51.7168C90.8951 51.7158 91.6997 51.8753 92.4504 52.1864C93.2012 52.4974 93.8833 52.9539 94.4577 53.5295C95.0321 54.1051 95.4876 54.7887 95.798 55.541C96.1084 56.2933 96.2676 57.0996 96.2666 57.9137Z" fill="white"/>
<path d="M140.398 60.3874C141.758 60.0219 142.564 58.6213 142.199 57.2591C141.834 55.8969 140.437 55.0889 139.077 55.4544C137.718 55.8199 136.912 57.2205 137.277 58.5827C137.641 59.9449 139.039 60.7529 140.398 60.3874Z" fill="#36B37E"/>
<path d="M116.696 54.2849H99.8555C99.6781 54.2849 99.5079 54.2143 99.3825 54.0885C99.257 53.9628 99.1865 53.7923 99.1865 53.6145C99.1865 53.4367 99.257 53.2662 99.3825 53.1404C99.5079 53.0147 99.6781 52.9441 99.8555 52.9441H116.696C116.873 52.9441 117.043 53.0147 117.169 53.1404C117.294 53.2662 117.365 53.4367 117.365 53.6145C117.365 53.7923 117.294 53.9628 117.169 54.0885C117.043 54.2143 116.873 54.2849 116.696 54.2849Z" fill="#F4F5F7"/>
<path d="M132.668 58.5844H99.8555C99.6781 58.5844 99.5079 58.5137 99.3825 58.388C99.257 58.2623 99.1865 58.0917 99.1865 57.9139C99.1865 57.7361 99.257 57.5656 99.3825 57.4399C99.5079 57.3142 99.6781 57.2435 99.8555 57.2435H132.668C132.845 57.2435 133.015 57.3142 133.141 57.4399C133.266 57.5656 133.337 57.7361 133.337 57.9139C133.337 58.0917 133.266 58.2623 133.141 58.388C133.015 58.5137 132.845 58.5844 132.668 58.5844Z" fill="#F4F5F7"/>
<path d="M132.668 62.8818H99.8555C99.6781 62.8818 99.5079 62.8112 99.3825 62.6855C99.257 62.5597 99.1865 62.3892 99.1865 62.2114C99.1865 62.0336 99.257 61.8631 99.3825 61.7374C99.5079 61.6116 99.6781 61.541 99.8555 61.541H132.668C132.845 61.541 133.015 61.6116 133.141 61.7374C133.266 61.8631 133.337 62.0336 133.337 62.2114C133.337 62.3892 133.266 62.5597 133.141 62.6855C133.015 62.8112 132.845 62.8818 132.668 62.8818Z" fill="#F4F5F7"/>
<path d="M139.6 59.2908C139.545 59.291 139.493 59.2719 139.451 59.237L138.153 58.159C138.128 58.1398 138.108 58.1158 138.093 58.0885C138.078 58.0611 138.068 58.0311 138.065 58.0001C138.061 57.969 138.064 57.9376 138.073 57.9078C138.082 57.8779 138.097 57.8501 138.117 57.8261C138.137 57.802 138.161 57.7822 138.189 57.7678C138.217 57.7534 138.247 57.7447 138.278 57.7422C138.309 57.7397 138.34 57.7434 138.37 57.7532C138.399 57.763 138.427 57.7786 138.45 57.7991L139.579 58.7359L141.109 57.0776C141.151 57.0321 141.209 57.0051 141.271 57.0027C141.333 57.0003 141.393 57.0227 141.438 57.0648C141.484 57.1069 141.51 57.1653 141.513 57.2273C141.515 57.2892 141.493 57.3496 141.451 57.3951L139.771 59.2158C139.75 59.2394 139.723 59.2583 139.693 59.2712C139.664 59.2841 139.632 59.2908 139.6 59.2908Z" fill="#F4F5F7"/>
<path d="M93.9788 62.7258C92.8912 63.6107 91.5357 64.0987 90.1348 64.1098C88.7339 64.1209 87.3709 63.6543 86.2695 62.7867C86.5723 61.4635 87.2633 59.7372 88.8223 59.1197C88.3945 58.8434 88.0673 58.436 87.8891 57.9583C87.7109 57.4806 87.6914 56.958 87.8334 56.4683C87.9754 55.9785 88.2713 55.5478 88.6772 55.2401C89.0831 54.9325 89.5772 54.7643 90.0861 54.7607C90.595 54.757 91.0915 54.9181 91.5017 55.2199C91.912 55.5217 92.214 55.9482 92.363 56.4359C92.5119 56.9235 92.4998 57.4463 92.3285 57.9266C92.1571 58.4068 91.8357 58.8187 91.412 59.1012C93.0783 59.6949 93.7261 61.4018 93.9788 62.7258Z" fill="#B2D4FF"/>
</g>
</g>
<defs>
<clipPath id="clip0_535_5003">
<rect width="205" height="214" fill="white" transform="translate(75 -5)"/>
</clipPath>
</defs>
</svg>
