<svg width="31" height="24" viewBox="0 0 31 24" fill="none" xmlns="http://www.w3.org/2000/svg">
<path d="M28.929 21.6454H2.06687C1.91215 21.6447 1.75881 21.6745 1.61566 21.7332C1.47251 21.7919 1.34237 21.8783 1.23271 21.9875C1.12305 22.0966 1.03603 22.2264 0.976657 22.3692C0.917282 22.5121 0.886717 22.6653 0.886719 22.82C0.886719 23.133 1.01106 23.4332 1.23238 23.6545C1.4537 23.8758 1.75387 24.0002 2.06687 24.0002H28.9235C29.2218 23.9797 29.5013 23.8468 29.7054 23.6283C29.9095 23.4097 30.023 23.1218 30.023 22.8228C30.023 22.5238 29.9095 22.2359 29.7054 22.0173C29.5013 21.7988 29.2218 21.6658 28.9235 21.6454H28.929Z" fill="white"/>
<path d="M3.53311 18.8384C3.23478 18.8588 2.95532 18.9917 2.75122 19.2103C2.54712 19.4288 2.43359 19.7167 2.43359 20.0158C2.43359 20.3148 2.54712 20.6027 2.75122 20.8212C2.95532 21.0398 3.23478 21.1727 3.53311 21.1931H27.4504C27.6118 21.2042 27.7737 21.182 27.9262 21.1278C28.0786 21.0736 28.2183 20.9887 28.3365 20.8783C28.4547 20.7679 28.549 20.6343 28.6135 20.486C28.6779 20.3376 28.7112 20.1775 28.7112 20.0158C28.7112 19.854 28.6779 19.6939 28.6135 19.5456C28.549 19.3972 28.4547 19.2636 28.3365 19.1532C28.2183 19.0428 28.0786 18.9579 27.9262 18.9037C27.7737 18.8496 27.6118 18.8273 27.4504 18.8384H25.5037V8.23359H27.4504C27.5276 8.23432 27.6042 8.21974 27.6758 8.19069C27.7473 8.16164 27.8124 8.11869 27.8673 8.06434C27.9222 8.00999 27.9657 7.9453 27.9954 7.87402C28.0252 7.80273 28.0405 7.72626 28.0405 7.64903C28.0405 7.49254 27.9783 7.34245 27.8676 7.23179C27.757 7.12113 27.6069 7.05896 27.4504 7.05896H3.53311C3.38717 7.07312 3.25172 7.14111 3.15317 7.24969C3.05461 7.35826 3.00002 7.49964 3.00002 7.64628C3.00002 7.79291 3.05461 7.93429 3.15317 8.04287C3.25172 8.15144 3.38717 8.21943 3.53311 8.23359H5.48532V18.8329H3.53311V18.8384ZM23.1489 8.23359V18.8329H19.6361V8.23359H23.1489ZM17.2592 8.23359V18.8329H13.7298V8.23359H17.2592ZM7.8401 8.23359H11.364V18.8329H7.8401V8.23359Z" fill="white"/>
<path d="M2.06935 6.55156H28.9425C29.2205 6.54943 29.4888 6.44926 29.7001 6.2687C29.9114 6.08814 30.0522 5.83877 30.0977 5.56455C30.1432 5.29033 30.0904 5.00886 29.9487 4.76974C29.807 4.53061 29.5854 4.34919 29.323 4.25744L15.983 0.104867C15.8312 0.0368633 15.6667 0.00170898 15.5004 0.00170898C15.3341 0.00170898 15.1697 0.0368633 15.0179 0.104867L1.58406 4.30156C1.33878 4.4117 1.13872 4.60266 1.01728 4.84253C0.895836 5.08241 0.86036 5.35669 0.916776 5.61957C0.972541 5.88371 1.11758 6.12057 1.3275 6.29031C1.53742 6.46005 1.79939 6.55231 2.06935 6.55156Z" fill="white"/>
</svg>
