<svg width="52" height="65" viewBox="0 0 52 65" fill="none" xmlns="http://www.w3.org/2000/svg">
<g clip-path="url(#clip0_7779_67224)">
<path d="M50.1296 0H1.86454C1.37146 0.00791028 0.901219 0.212209 0.555307 0.5688C0.209395 0.925391 0.0155634 1.40568 0.015625 1.906V63.094C0.0160832 63.4186 0.0982075 63.7376 0.25424 64.0209C0.410272 64.3043 0.63504 64.5425 0.907225 64.713C1.17941 64.8835 1.49 64.9807 1.80957 64.9953C2.12913 65.01 2.44708 64.9416 2.7333 64.7966L26.0045 52.9839L49.2905 64.7966C49.5507 64.93 49.8381 64.9997 50.1296 65C50.6246 64.9941 51.0975 64.7909 51.4462 64.4343C51.7949 64.0777 51.9914 63.5963 51.9934 63.094V1.906C51.9934 1.4031 51.7975 0.92057 51.4484 0.563555C51.0993 0.20654 50.6252 0.00397552 50.1296 0Z" fill="url(#paint0_linear_7779_67224)"/>
<path d="M33.5104 12.4136C30.2136 12.4136 27.6889 14.297 26.0034 17.092C24.3178 14.297 21.7932 12.4136 18.4963 12.4136C17.2441 12.4112 16.0068 12.6888 14.8723 13.2265C13.7378 13.7643 12.734 14.549 11.9323 15.525C10.3202 17.4987 9.45409 19.9907 9.48931 22.5538C9.48931 25.4543 10.5586 28.1287 12.8604 30.9839C14.8727 33.4851 17.7686 36.0616 21.1175 39.0374C22.3575 40.1373 23.6347 41.2975 25.001 42.5254C25.2747 42.7795 25.6323 42.9205 26.0034 42.9205C26.3744 42.9205 26.732 42.7795 27.0058 42.5254C28.3721 41.2824 29.6493 40.1373 30.8893 39.0374C34.2381 36.0239 37.134 33.4851 39.1463 30.9839C41.4482 28.1287 42.5174 25.4543 42.5174 22.5538C42.5174 17.107 38.8047 12.4437 33.5104 12.4437V12.4136Z" fill="url(#paint1_linear_7779_67224)"/>
</g>
<defs>
<linearGradient id="paint0_linear_7779_67224" x1="25.9005" y1="67.9456" x2="26.0305" y2="24.311" gradientUnits="userSpaceOnUse">
<stop stop-color="#FD3A84"/>
<stop offset="1" stop-color="#FFA68D"/>
</linearGradient>
<linearGradient id="paint1_linear_7779_67224" x1="26.0034" y1="42.8795" x2="26.0034" y2="12.4136" gradientUnits="userSpaceOnUse">
<stop stop-color="#FFC2CC"/>
<stop offset="1" stop-color="#FFF2F4"/>
</linearGradient>
<clipPath id="clip0_7779_67224">
<rect width="52" height="65" fill="white"/>
</clipPath>
</defs>
</svg>
