<svg width="16" height="16" viewBox="0 0 16 16" fill="none" xmlns="http://www.w3.org/2000/svg">
<path opacity="0.7" fill-rule="evenodd" clip-rule="evenodd" d="M6.73523 0.842041C9.99609 0.842041 12.6304 3.47531 12.6304 6.7349C12.6304 9.99449 9.99609 12.6278 6.73523 12.6278C3.47438 12.6278 0.839844 9.99449 0.839844 6.7349C0.839844 3.47531 3.47438 0.842041 6.73523 0.842041ZM6.7375 0C3.02148 0 0 3.02022 0 6.73476C0 10.4493 3.02148 13.4695 6.7375 13.4695C8.44571 13.4695 10.0032 12.8297 11.192 11.7794L15.2845 15.8767C15.4489 16.0411 15.7121 16.0411 15.8767 15.8767C16.0411 15.7125 16.0411 15.4428 15.8767 15.2782L11.7906 11.1939C12.8405 10.0061 13.475 8.44129 13.475 6.73476C13.475 3.02022 10.4535 0 6.7375 0Z" fill="#5C6E9F"/>
</svg>

