<svg width="17" height="17" viewBox="0 0 17 17" fill="none" xmlns="http://www.w3.org/2000/svg">
<path id="search-icon" fill-rule="evenodd" clip-rule="evenodd" d="M7.15859 0.894516C10.6233 0.894516 13.4222 3.69237 13.4222 7.15568C13.4222 10.619 10.6233 13.4168 7.15859 13.4168C3.69394 13.4168 0.894745 10.619 0.894745 7.15568C0.894745 3.69237 3.69394 0.894516 7.15859 0.894516ZM7.15859 0C3.21033 0 0 3.20898 0 7.15568C0 11.1024 3.21033 14.3114 7.15859 14.3114C8.97357 14.3114 10.6284 13.6316 11.8915 12.5156L16.2397 16.869C16.4144 17.0437 16.6941 17.0437 16.869 16.869C17.0437 16.6945 17.0437 16.408 16.869 16.233L12.5275 11.8936C13.643 10.6315 14.3172 8.96887 14.3172 7.15568C14.3172 3.20898 11.1069 0 7.15859 0Z" fill="#1A1A1A"/>
</svg>
