<svg width="24" height="24" viewBox="0 0 24 24" fill="none" xmlns="http://www.w3.org/2000/svg">
<g clip-path="url(#clip0_2428_20690)">
<path d="M0.631782 13.8951C0.464469 13.8955 0.304134 13.9621 0.18577 14.0804C0.0674067 14.1987 0.000624815 14.3589 0 14.5262C0.000468733 14.6937 0.0671817 14.8541 0.185562 14.9725C0.303943 15.0908 0.464367 15.1576 0.631782 15.158C0.799094 15.1574 0.959366 15.0906 1.07762 14.9723C1.19587 14.8539 1.2625 14.6936 1.26297 14.5262C1.26235 14.359 1.19565 14.1988 1.07741 14.0806C0.959175 13.9624 0.798991 13.8957 0.631782 13.8951V13.8951Z" fill="#3FA3FF"/>
<path d="M0.631782 8.84198C0.464367 8.84245 0.303943 8.90916 0.185562 9.02754C0.0671817 9.14592 0.000468733 9.30635 0 9.47376C0.000468733 9.64118 0.0671817 9.8016 0.185562 9.91998C0.303943 10.0384 0.464367 10.1051 0.631782 10.1055C0.799094 10.1049 0.959366 10.0381 1.07762 9.91977C1.19587 9.80141 1.2625 9.64107 1.26297 9.47376C1.2625 9.30645 1.19587 9.14611 1.07762 9.02775C0.959366 8.90939 0.799094 8.8426 0.631782 8.84198V8.84198Z" fill="#3FA3FF"/>
<path d="M9.47553 22.737C9.35057 22.737 9.22843 22.7741 9.12453 22.8435C9.02064 22.9129 8.93966 23.0116 8.89184 23.127C8.84402 23.2425 8.83151 23.3695 8.85589 23.4921C8.88027 23.6146 8.94044 23.7272 9.02879 23.8156C9.11715 23.9039 9.22972 23.9641 9.35227 23.9885C9.47483 24.0128 9.60186 24.0003 9.7173 23.9525C9.83274 23.9047 9.93141 23.8237 10.0008 23.7198C10.0703 23.6159 10.1073 23.4938 10.1073 23.3688C10.1068 23.2014 10.0401 23.041 9.92174 22.9226C9.80336 22.8042 9.64294 22.7375 9.47553 22.737V22.737Z" fill="#3FA3FF"/>
<path d="M4.41981 3.15772C4.08498 3.15866 3.76414 3.29209 3.52737 3.52885C3.29061 3.76561 3.15719 4.08646 3.15625 4.42129C3.15734 4.75601 3.29084 5.07671 3.52758 5.31334C3.76433 5.54998 4.08509 5.68332 4.41981 5.68426C4.75449 5.68332 5.07518 5.54996 5.31183 5.31331C5.54848 5.07666 5.68185 4.75596 5.68278 4.42129C5.68185 4.08656 5.5485 3.7658 5.31187 3.52906C5.07524 3.29231 4.75454 3.15882 4.41981 3.15772V3.15772Z" fill="#3FA3FF"/>
<path d="M4.42313 8.21079C4.17333 8.21079 3.92915 8.28486 3.72146 8.42364C3.51376 8.56242 3.35189 8.75967 3.25629 8.99045C3.1607 9.22123 3.13569 9.47517 3.18442 9.72016C3.23316 9.96516 3.35344 10.1902 3.53007 10.3668C3.7067 10.5435 3.93174 10.6637 4.17673 10.7125C4.42172 10.7612 4.67567 10.7362 4.90644 10.6406C5.13722 10.545 5.33447 10.3831 5.47325 10.1754C5.61202 9.96774 5.6861 9.72356 5.6861 9.47377C5.685 9.13914 5.55159 8.81853 5.31497 8.58192C5.07836 8.3453 4.75775 8.21189 4.42313 8.21079Z" fill="#3FA3FF"/>
<path d="M4.42041 13.2633C4.17045 13.2632 3.92607 13.3372 3.71818 13.476C3.5103 13.6148 3.34826 13.8121 3.25255 14.043C3.15684 14.2739 3.13176 14.528 3.1805 14.7732C3.22924 15.0184 3.34959 15.2436 3.52634 15.4203C3.70309 15.597 3.92829 15.7174 4.17345 15.7661C4.41861 15.8149 4.67272 15.7898 4.90363 15.6941C5.13454 15.5984 5.33188 15.4363 5.47067 15.2285C5.60947 15.0206 5.68349 14.7762 5.68338 14.5262C5.68228 14.1916 5.54887 13.871 5.31225 13.6344C5.07564 13.3978 4.75503 13.2644 4.42041 13.2633Z" fill="#3FA3FF"/>
<path d="M23.3701 10.1055C23.495 10.1055 23.6172 10.0685 23.7211 9.99906C23.825 9.92964 23.9059 9.83097 23.9538 9.71553C24.0016 9.60009 24.0141 9.47306 23.9897 9.3505C23.9653 9.22795 23.9052 9.11538 23.8168 9.02702C23.7285 8.93867 23.6159 8.8785 23.4933 8.85412C23.3708 8.82974 23.2437 8.84225 23.1283 8.89007C23.0128 8.93789 22.9142 9.01887 22.8448 9.12276C22.7753 9.22666 22.7383 9.3488 22.7383 9.47376C22.7387 9.64117 22.8055 9.80159 22.9238 9.91997C23.0422 10.0384 23.2027 10.1051 23.3701 10.1055V10.1055Z" fill="#3FA3FF"/>
<path d="M14.5257 1.26297C14.693 1.2625 14.8534 1.19587 14.9717 1.07762C15.0901 0.959366 15.1569 0.799093 15.1575 0.631781C15.157 0.464367 15.0903 0.303943 14.9719 0.185563C14.8536 0.067182 14.6931 0.000468733 14.5257 0C14.3584 0.000624815 14.1981 0.0674066 14.0799 0.18577C13.9616 0.304134 13.895 0.464469 13.8945 0.631781C13.8952 0.798991 13.9619 0.959174 14.0801 1.07741C14.1983 1.19565 14.3585 1.26235 14.5257 1.26297V1.26297Z" fill="#3FA3FF"/>
<path d="M9.47391 5.68426C9.80858 5.68332 10.1293 5.54996 10.3659 5.31331C10.6026 5.07666 10.7359 4.75596 10.7369 4.42129C10.7359 4.08656 10.6026 3.7658 10.366 3.52906C10.1293 3.29231 9.80864 3.15882 9.47391 3.15772C9.13918 3.15882 8.81849 3.29231 8.58185 3.52906C8.34522 3.7658 8.21187 4.08656 8.21094 4.42129C8.21187 4.75596 8.34524 5.07666 8.58189 5.31331C8.81854 5.54996 9.13924 5.68332 9.47391 5.68426V5.68426Z" fill="#3FA3FF"/>
<path d="M9.47553 1.26297C9.64284 1.2625 9.80318 1.19587 9.92154 1.07762C10.0399 0.959366 10.1067 0.799093 10.1073 0.631781C10.1068 0.464367 10.0401 0.303943 9.92175 0.185563C9.80337 0.067182 9.64295 0.000468733 9.47553 0C9.30812 0.000468733 9.14769 0.067182 9.02931 0.185563C8.91093 0.303943 8.84422 0.464367 8.84375 0.631781C8.84437 0.799093 8.91116 0.959366 9.02952 1.07762C9.14788 1.19587 9.30822 1.2625 9.47553 1.26297V1.26297Z" fill="#3FA3FF"/>
<path d="M14.5247 5.68426C14.8594 5.68332 15.1802 5.54998 15.4169 5.31334C15.6537 5.07671 15.7872 4.75601 15.7883 4.42129C15.7873 4.08646 15.6539 3.76561 15.4171 3.52885C15.1804 3.29209 14.8595 3.15866 14.5247 3.15772C14.19 3.15882 13.8693 3.29231 13.6326 3.52906C13.396 3.7658 13.2627 4.08656 13.2617 4.42129C13.2627 4.75596 13.396 5.07666 13.6327 5.31331C13.8693 5.54996 14.19 5.68332 14.5247 5.68426V5.68426Z" fill="#3FA3FF"/>
<path d="M4.42041 18.3157C4.17047 18.3156 3.92612 18.3896 3.71825 18.5284C3.51038 18.6672 3.34833 18.8645 3.2526 19.0954C3.15688 19.3262 3.13177 19.5803 3.18046 19.8255C3.22915 20.0706 3.34944 20.2958 3.52613 20.4726C3.70282 20.6493 3.92796 20.7697 4.17309 20.8185C4.41821 20.8674 4.6723 20.8424 4.90322 20.7467C5.13414 20.6511 5.33152 20.4892 5.47039 20.2814C5.60926 20.0736 5.68338 19.8292 5.68338 19.5793C5.68244 19.2446 5.5491 18.9238 5.31247 18.6871C5.07583 18.4503 4.75513 18.3168 4.42041 18.3157V18.3157Z" fill="#3FA3FF"/>
<path d="M14.5276 7.57901C14.1528 7.57901 13.7865 7.69014 13.4749 7.89833C13.1633 8.10653 12.9205 8.40245 12.777 8.74867C12.6336 9.09489 12.5961 9.47586 12.6692 9.84341C12.7423 10.211 12.9228 10.5486 13.1878 10.8136C13.4528 11.0785 13.7904 11.259 14.1579 11.3321C14.5255 11.4052 14.9064 11.3677 15.2526 11.2243C15.5989 11.0809 15.8948 10.838 16.103 10.5264C16.3112 10.2148 16.4223 9.84851 16.4223 9.47376C16.4223 8.97124 16.2227 8.48931 15.8673 8.13397C15.512 7.77864 15.0301 7.57901 14.5276 7.57901Z" fill="#3FA3FF"/>
<path d="M19.5806 13.2633C19.3306 13.2632 19.0862 13.3372 18.8783 13.476C18.6705 13.6148 18.5084 13.8121 18.4127 14.043C18.317 14.2739 18.2919 14.528 18.3407 14.7732C18.3894 15.0184 18.5097 15.2436 18.6865 15.4203C18.8632 15.597 19.0884 15.7174 19.3336 15.7661C19.5788 15.8149 19.8329 15.7898 20.0638 15.6941C20.2947 15.5984 20.492 15.4363 20.6308 15.2285C20.7696 15.0206 20.8436 14.7762 20.8435 14.5262C20.8424 14.1916 20.709 13.871 20.4724 13.6344C20.2358 13.3978 19.9152 13.2644 19.5806 13.2633V13.2633Z" fill="#3FA3FF"/>
<path d="M19.5806 18.3157C19.3306 18.3156 19.0863 18.3896 18.8784 18.5284C18.6705 18.6672 18.5085 18.8645 18.4128 19.0954C18.317 19.3262 18.2919 19.5803 18.3406 19.8255C18.3893 20.0706 18.5096 20.2958 18.6863 20.4726C18.863 20.6493 19.0881 20.7697 19.3332 20.8185C19.5784 20.8674 19.8325 20.8424 20.0634 20.7467C20.2943 20.6511 20.4917 20.4892 20.6306 20.2814C20.7694 20.0736 20.8435 19.8292 20.8435 19.5793C20.8426 19.2446 20.7093 18.9238 20.4726 18.6871C20.236 18.4503 19.9153 18.3168 19.5806 18.3157V18.3157Z" fill="#3FA3FF"/>
<path d="M19.5794 8.21079C19.3296 8.21079 19.0854 8.28486 18.8777 8.42364C18.67 8.56242 18.5081 8.75967 18.4125 8.99045C18.317 9.22123 18.2919 9.47517 18.3407 9.72016C18.3894 9.96516 18.5097 10.1902 18.6863 10.3668C18.863 10.5435 19.088 10.6637 19.333 10.7125C19.578 10.7612 19.8319 10.7362 20.0627 10.6406C20.2935 10.545 20.4907 10.3831 20.6295 10.1754C20.7683 9.96774 20.8424 9.72356 20.8424 9.47377C20.8413 9.13914 20.7079 8.81853 20.4712 8.58192C20.2346 8.3453 19.914 8.21189 19.5794 8.21079V8.21079Z" fill="#3FA3FF"/>
<path d="M23.3707 13.8951C23.2457 13.8949 23.1234 13.9319 23.0194 14.0013C22.9154 14.0707 22.8344 14.1693 22.7865 14.2848C22.7386 14.4003 22.726 14.5273 22.7504 14.6499C22.7748 14.7725 22.8349 14.8852 22.9233 14.9736C23.0117 15.062 23.1243 15.1221 23.247 15.1465C23.3696 15.1709 23.4966 15.1583 23.6121 15.1104C23.7276 15.0625 23.8263 14.9814 23.8956 14.8775C23.965 14.7735 24.002 14.6512 24.0019 14.5262C24.0012 14.359 23.9345 14.1988 23.8163 14.0806C23.6981 13.9624 23.5379 13.8957 23.3707 13.8951V13.8951Z" fill="#3FA3FF"/>
<path d="M19.58 3.15772C19.2451 3.15866 18.9243 3.29209 18.6875 3.52885C18.4508 3.76561 18.3173 4.08646 18.3164 4.42129C18.3175 4.75601 18.451 5.07671 18.6877 5.31334C18.9245 5.54998 19.2452 5.68332 19.58 5.68426C19.9146 5.68332 20.2353 5.54996 20.472 5.31331C20.7086 5.07666 20.842 4.75596 20.8429 4.42129C20.842 4.08656 20.7087 3.7658 20.472 3.52906C20.2354 3.29231 19.9147 3.15882 19.58 3.15772Z" fill="#3FA3FF"/>
<path d="M9.47288 12.6315C9.09814 12.6315 8.7318 12.7426 8.42021 12.9508C8.10862 13.159 7.86577 13.4549 7.72236 13.8011C7.57895 14.1474 7.54142 14.5283 7.61453 14.8959C7.68764 15.2634 7.8681 15.601 8.13309 15.866C8.39807 16.131 8.73569 16.3115 9.10323 16.3846C9.47078 16.4577 9.85175 16.4202 10.198 16.2768C10.5442 16.1334 10.8401 15.8905 11.0483 15.5789C11.2565 15.2673 11.3676 14.901 11.3676 14.5262C11.3676 14.0237 11.168 13.5418 10.8127 13.1864C10.4573 12.8311 9.9754 12.6315 9.47288 12.6315Z" fill="#3FA3FF"/>
<path d="M9.4751 18.3157C9.22516 18.3156 8.98081 18.3896 8.77294 18.5284C8.56507 18.6672 8.40302 18.8645 8.30729 19.0954C8.21156 19.3262 8.18646 19.5803 8.23514 19.8255C8.28383 20.0706 8.40413 20.2958 8.58082 20.4726C8.75751 20.6493 8.98265 20.7697 9.22778 20.8185C9.4729 20.8674 9.72699 20.8424 9.95791 20.7467C10.1888 20.6511 10.3862 20.4892 10.5251 20.2814C10.6639 20.0736 10.7381 19.8292 10.7381 19.5793C10.7371 19.2446 10.6038 18.9238 10.3672 18.6871C10.1305 18.4503 9.80982 18.3168 9.4751 18.3157Z" fill="#3FA3FF"/>
<path d="M9.47288 7.57901C9.09814 7.57901 8.7318 7.69014 8.42021 7.89833C8.10862 8.10653 7.86577 8.40245 7.72236 8.74867C7.57895 9.09489 7.54142 9.47586 7.61453 9.84341C7.68764 10.211 7.8681 10.5486 8.13309 10.8136C8.39807 11.0785 8.73569 11.259 9.10323 11.3321C9.47078 11.4052 9.85175 11.3677 10.198 11.2243C10.5442 11.0809 10.8401 10.838 11.0483 10.5264C11.2565 10.2148 11.3676 9.84851 11.3676 9.47376C11.3676 8.97124 11.168 8.48931 10.8127 8.13397C10.4573 7.77864 9.9754 7.57901 9.47288 7.57901Z" fill="#3FA3FF"/>
<path d="M14.5253 18.3157C14.2754 18.3157 14.0311 18.3898 13.8233 18.5287C13.6155 18.6675 13.4535 18.8649 13.3579 19.0958C13.2623 19.3266 13.2372 19.5807 13.286 19.8258C13.3348 20.0709 13.4551 20.2961 13.6318 20.4728C13.8085 20.6495 14.0337 20.7698 14.2788 20.8186C14.5239 20.8673 14.778 20.8423 15.0088 20.7467C15.2397 20.6511 15.4371 20.4891 15.5759 20.2813C15.7148 20.0735 15.7889 19.8292 15.7889 19.5793C15.7879 19.2445 15.6545 18.9236 15.4177 18.6869C15.181 18.4501 14.8601 18.3167 14.5253 18.3157Z" fill="#3FA3FF"/>
<path d="M14.5263 22.737C14.4014 22.737 14.2792 22.7741 14.1753 22.8435C14.0714 22.9129 13.9904 23.0116 13.9426 23.127C13.8948 23.2425 13.8823 23.3695 13.9067 23.4921C13.931 23.6146 13.9912 23.7272 14.0796 23.8156C14.1679 23.9039 14.2805 23.9641 14.4031 23.9885C14.5256 24.0128 14.6526 24.0003 14.7681 23.9525C14.8835 23.9047 14.9822 23.8237 15.0516 23.7198C15.121 23.6159 15.1581 23.4938 15.1581 23.3688C15.1576 23.2014 15.0909 23.041 14.9725 22.9226C14.8541 22.8042 14.6937 22.7375 14.5263 22.737V22.737Z" fill="#3FA3FF"/>
<path d="M14.5276 12.6315C14.1528 12.6315 13.7865 12.7426 13.4749 12.9508C13.1633 13.159 12.9205 13.4549 12.777 13.8011C12.6336 14.1474 12.5961 14.5283 12.6692 14.8959C12.7423 15.2634 12.9228 15.601 13.1878 15.866C13.4528 16.131 13.7904 16.3115 14.1579 16.3846C14.5255 16.4577 14.9064 16.4202 15.2526 16.2768C15.5989 16.1334 15.8948 15.8905 16.103 15.5789C16.3112 15.2673 16.4223 14.901 16.4223 14.5262C16.4223 14.0237 16.2227 13.5418 15.8673 13.1864C15.512 12.8311 15.0301 12.6315 14.5276 12.6315Z" fill="#3FA3FF"/>
</g>
<defs>
<clipPath id="clip0_2428_20690">
<rect width="24" height="24" fill="white"/>
</clipPath>
</defs>
</svg>
