<svg width="73" height="73" viewBox="0 0 73 73" fill="none" xmlns="http://www.w3.org/2000/svg">
<path fill-rule="evenodd" clip-rule="evenodd" d="M36.5 15.743C32.3945 15.743 28.3812 16.9605 24.9676 19.2414C21.554 21.5223 18.8934 24.7642 17.3223 28.5572C15.7512 32.3502 15.3401 36.5239 16.1411 40.5505C16.942 44.5771 18.919 48.2758 21.822 51.1788C24.7251 54.0819 28.4237 56.0589 32.4504 56.8598C36.477 57.6607 40.6507 57.2497 44.4437 55.6786C48.2367 54.1075 51.4786 51.4469 53.7595 48.0333C56.0404 44.6197 57.2578 40.6064 57.2578 36.5008C57.258 33.7748 56.7212 31.0755 55.6781 28.5569C54.635 26.0384 53.106 23.75 51.1785 21.8224C49.2509 19.8948 46.9625 18.3658 44.4439 17.3227C41.9254 16.2796 39.226 15.7428 36.5 15.743ZM36.5 42.8807C36.0015 43.3504 35.3424 43.612 34.6575 43.612C33.9726 43.612 33.3135 43.3504 32.815 42.8807L25.5459 35.6116L29.2598 31.9443L34.6831 37.366L43.7979 28.2528L47.4204 31.9378L36.5 42.8807Z" fill="#7CE9AD"/>
<path fill-rule="evenodd" clip-rule="evenodd" d="M71.2493 30.781C68.971 27.4549 66.6911 23.9462 66.6911 23.9462C66.6911 23.9462 65.89 19.867 65.097 15.9929C64.6966 13.9971 63.715 12.1643 62.2756 10.7249C60.8362 9.28557 59.0034 8.30396 57.0076 7.90356L49.0319 6.26293L42.197 1.70634C40.5051 0.593967 38.5246 0.0012207 36.4997 0.0012207C34.4749 0.0012207 32.4943 0.593967 30.8024 1.70634L23.9675 6.26293L15.9918 7.90356C13.996 8.30396 12.1632 9.28557 10.7238 10.7249C9.28445 12.1643 8.30284 13.9971 7.90244 15.9929C7.10135 19.8894 6.26181 23.991 6.26181 23.991C6.26181 23.991 3.98351 27.4998 1.70522 30.8275C0.592792 32.5191 0 34.4994 0 36.524C0 38.5487 0.592792 40.529 1.70522 42.2206C3.98351 45.5467 6.26181 49.0555 6.26181 49.0555C6.26181 49.0555 7.08213 53.157 7.90244 57.0535C8.31095 59.041 9.29613 60.8641 10.7349 62.2948C12.1736 63.7256 14.0021 64.7006 15.9918 65.0981L23.9899 66.7387L30.8264 71.2953C32.518 72.4077 34.4983 73.0005 36.5229 73.0005C38.5475 73.0005 40.5279 72.4077 42.2195 71.2953L49.0544 66.7387L57.0076 65.0981C59.0034 64.6977 60.8362 63.7161 62.2756 62.2767C63.715 60.8373 64.6966 59.0045 65.097 57.0087C65.898 53.1122 66.7376 49.0106 66.7376 49.0106C66.7376 49.0106 69.0159 45.5018 71.2942 42.1741C72.4004 40.4783 72.9856 38.4956 72.9776 36.4709C72.9697 34.4462 72.3688 32.4681 71.2493 30.781ZM36.4997 62.4561C31.3662 62.4561 26.348 60.9338 22.0797 58.0818C17.8114 55.2298 14.4846 51.1762 12.5202 46.4335C10.5557 41.6908 10.0417 36.472 11.0432 31.4372C12.0446 26.4024 14.5166 21.7776 18.1466 18.1477C21.7765 14.5178 26.4012 12.0458 31.4361 11.0443C36.4709 10.0428 41.6896 10.5568 46.4324 12.5213C51.1751 14.4858 55.2287 17.8125 58.0807 22.0808C60.9327 26.3492 62.455 31.3673 62.455 36.5008C62.4431 43.3809 59.7047 49.9759 54.8398 54.8409C49.9748 59.7059 43.3798 62.4442 36.4997 62.4561Z" fill="#43D685"/>
</svg>


