<svg width="77" height="70" viewBox="0 0 77 70" fill="none" xmlns="http://www.w3.org/2000/svg">
<g clip-path="url(#clip0_7779_66275)">
<path d="M77 35.0721C77 30.9168 75.1201 27.0217 71.8341 23.668C69.5487 21.3358 67.645 18.6581 66.1929 15.7334C61.5474 6.37761 53.6278 0.2146 44.6359 0.2146C38.2473 0.2146 32.4002 3.32769 27.8824 8.48608C24.8825 11.89 21.1208 14.5371 16.9039 16.2117C6.70441 20.3083 0 27.2278 0 35.0721C0 42.9165 6.70441 49.836 16.9054 53.9326C21.1218 55.6082 24.8832 58.2551 27.8839 61.6582C32.3956 66.8181 38.2488 69.9297 44.6374 69.9297C53.6293 69.9297 61.5489 63.7637 66.1944 54.4094C67.6469 51.4854 69.5506 48.8083 71.8356 46.4763C75.1201 43.1241 77 39.2274 77 35.0721Z" fill="url(#paint0_linear_7779_66275)"/>
<path d="M58.9948 23.1619H13.0685C11.7211 23.1619 10.429 22.6266 9.47624 21.6739C8.52351 20.7212 7.98828 19.429 7.98828 18.0817C7.98828 16.7343 8.52351 15.4421 9.47624 14.4894C10.429 13.5367 11.7211 13.0015 13.0685 13.0015H60.4987V21.6579C60.4987 22.0568 60.3402 22.4393 60.0582 22.7214C59.7762 23.0034 59.3936 23.1619 58.9948 23.1619Z" fill="#0C1C5E"/>
<path d="M67.5095 36.1688H15.1465C14.7476 36.1688 14.3651 36.0104 14.0831 35.7283C13.801 35.4463 13.6426 35.0638 13.6426 34.6649V7.34644C13.6426 6.94757 13.801 6.56505 14.0831 6.28301C14.3651 6.00098 14.7476 5.84253 15.1465 5.84253H67.5095C67.9084 5.84253 68.2909 6.00098 68.5729 6.28301C68.8549 6.56505 69.0134 6.94757 69.0134 7.34644V34.6649C69.0134 35.0638 68.8549 35.4463 68.5729 35.7283C68.2909 36.0104 67.9084 36.1688 67.5095 36.1688Z" fill="#0DC181"/>
<path d="M62.6466 11.3015L63.0151 9.78252C63.0425 9.67167 63.0443 9.55604 63.0203 9.44439C62.9964 9.33275 62.9473 9.22802 62.8769 9.13815C62.8064 9.04829 62.7165 8.97564 62.6138 8.92573C62.5111 8.87582 62.3983 8.84996 62.2842 8.8501H20.3703C20.2561 8.84996 20.1434 8.87582 20.0407 8.92573C19.938 8.97564 19.848 9.04829 19.7776 9.13815C19.7071 9.22802 19.6581 9.33275 19.6341 9.44439C19.6102 9.55604 19.612 9.67167 19.6394 9.78252L20.0139 11.3015C20.0427 11.4258 20.0394 11.5555 20.0043 11.6782C19.9691 11.801 19.9033 11.9127 19.8131 12.003C19.7228 12.0933 19.611 12.1591 19.4883 12.1942C19.3655 12.2293 19.2359 12.2326 19.1115 12.2038L17.5926 11.8293C17.4817 11.8019 17.3661 11.8001 17.2545 11.8241C17.1428 11.848 17.0381 11.8971 16.9482 11.9675C16.8583 12.038 16.7857 12.1279 16.7358 12.2306C16.6859 12.3333 16.66 12.4461 16.6602 12.5602V29.4401C16.6602 29.5541 16.6863 29.6667 16.7363 29.7692C16.7863 29.8717 16.859 29.9615 16.9488 30.0318C17.0386 30.102 17.1433 30.151 17.2548 30.1748C17.3664 30.1987 17.4819 30.1968 17.5926 30.1695L19.1115 29.795C19.2359 29.7662 19.3655 29.7695 19.4883 29.8046C19.611 29.8397 19.7228 29.9055 19.8131 29.9958C19.9033 30.0861 19.9691 30.1979 20.0043 30.3206C20.0394 30.4433 20.0427 30.573 20.0139 30.6973L19.6394 32.2178C19.6123 32.3285 19.6107 32.444 19.6347 32.5555C19.6588 32.6669 19.7079 32.7714 19.7783 32.8611C19.8487 32.9508 19.9386 33.0233 20.0412 33.0731C20.1437 33.1229 20.2563 33.1488 20.3703 33.1487H62.2917C62.4056 33.1486 62.5179 33.1226 62.6203 33.0726C62.7227 33.0227 62.8124 32.9502 62.8826 32.8605C62.9529 32.7709 63.0018 32.6664 63.0258 32.5551C63.0498 32.4438 63.0482 32.3284 63.0211 32.2178L62.6466 30.6973C62.6173 30.5722 62.6205 30.4417 62.6559 30.3181C62.6914 30.1946 62.7579 30.0822 62.8492 29.9917C62.9404 29.9012 63.0534 29.8356 63.1772 29.8012C63.301 29.7667 63.4316 29.7646 63.5565 29.795L65.0769 30.1695C65.1875 30.1966 65.3029 30.1982 65.4142 30.1742C65.5256 30.1502 65.63 30.1013 65.7197 30.031C65.8093 29.9608 65.8818 29.8711 65.9318 29.7687C65.9817 29.6663 66.0077 29.554 66.0078 29.4401V12.5678C66.0079 12.4537 65.9821 12.3412 65.9322 12.2386C65.8824 12.1361 65.8099 12.0462 65.7202 11.9758C65.6306 11.9053 65.526 11.8563 65.4146 11.8322C65.3031 11.8081 65.1877 11.8097 65.0769 11.8369L63.5565 12.2113C63.4308 12.2422 63.2993 12.2402 63.1747 12.2055C63.0501 12.1707 62.9365 12.1044 62.8451 12.0129C62.7536 11.9214 62.6872 11.8078 62.6525 11.6832C62.6177 11.5586 62.6157 11.4271 62.6466 11.3015Z" fill="white"/>
<path d="M41.3283 29.6208C46.0876 29.6208 49.9457 25.7626 49.9457 21.0034C49.9457 16.2441 46.0876 12.386 41.3283 12.386C36.5691 12.386 32.7109 16.2441 32.7109 21.0034C32.7109 25.7626 36.5691 29.6208 41.3283 29.6208Z" fill="#B4FFE4"/>
<path d="M35.7887 17.0139C37.2297 16.4256 37.921 14.7804 37.3326 13.3394C36.7442 11.8984 35.0991 11.2071 33.658 11.7955C32.217 12.3839 31.5258 14.029 32.1142 15.4701C32.7025 16.9111 34.3477 17.6023 35.7887 17.0139Z" fill="#FF6C6C"/>
<path d="M47.9433 30.4328C49.4998 30.4328 50.7616 29.171 50.7616 27.6145C50.7616 26.0579 49.4998 24.7961 47.9433 24.7961C46.3868 24.7961 45.125 26.0579 45.125 27.6145C45.125 29.171 46.3868 30.4328 47.9433 30.4328Z" fill="#FFAB66"/>
<path d="M42.3101 24.7918H39.1519C38.9525 24.7918 38.7612 24.7125 38.6202 24.5715C38.4792 24.4305 38.4 24.2392 38.4 24.0398C38.4 23.8404 38.4792 23.6491 38.6202 23.5081C38.7612 23.3671 38.9525 23.2879 39.1519 23.2879H42.3101C42.4136 23.2924 42.5169 23.276 42.6139 23.2396C42.7109 23.2031 42.7994 23.1474 42.8743 23.0758C42.9491 23.0042 43.0087 22.9182 43.0494 22.823C43.0901 22.7277 43.1111 22.6252 43.1111 22.5216C43.1111 22.418 43.0901 22.3155 43.0494 22.2203C43.0087 22.125 42.9491 22.039 42.8743 21.9674C42.7994 21.8958 42.7109 21.8401 42.6139 21.8037C42.5169 21.7672 42.4136 21.7508 42.3101 21.7554H40.355C39.7631 21.7401 39.2005 21.4943 38.7872 21.0702C38.3739 20.6461 38.1426 20.0774 38.1426 19.4852C38.1426 18.8931 38.3739 18.3243 38.7872 17.9003C39.2005 17.4762 39.7631 17.2303 40.355 17.2151H43.5132C43.7127 17.2151 43.9039 17.2943 44.045 17.4353C44.186 17.5763 44.2652 17.7676 44.2652 17.967C44.2652 18.1665 44.186 18.3577 44.045 18.4988C43.9039 18.6398 43.7127 18.719 43.5132 18.719H40.355C40.1577 18.7277 39.9713 18.8123 39.8348 18.955C39.6982 19.0978 39.622 19.2877 39.622 19.4852C39.622 19.6828 39.6982 19.8727 39.8348 20.0154C39.9713 20.1582 40.1577 20.2427 40.355 20.2515H42.3101C42.6132 20.2437 42.9147 20.2966 43.1969 20.4072C43.4792 20.5178 43.7364 20.6838 43.9535 20.8953C44.1706 21.1069 44.3432 21.3598 44.461 21.6391C44.5788 21.9184 44.6395 22.2185 44.6395 22.5216C44.6395 22.8248 44.5788 23.1248 44.461 23.4041C44.3432 23.6834 44.1706 23.9363 43.9535 24.1479C43.7364 24.3595 43.4792 24.5255 43.1969 24.636C42.9147 24.7466 42.6132 24.7996 42.3101 24.7918Z" fill="#0DC181"/>
<path d="M41.3301 25.9228C41.2313 25.9228 41.1335 25.9033 41.0423 25.8655C40.9511 25.8278 40.8682 25.7724 40.7984 25.7025C40.7285 25.6327 40.6732 25.5498 40.6354 25.4586C40.5976 25.3674 40.5781 25.2696 40.5781 25.1708V16.8362C40.5781 16.6368 40.6574 16.4455 40.7984 16.3045C40.9394 16.1635 41.1306 16.0842 41.3301 16.0842C41.5295 16.0842 41.7208 16.1635 41.8618 16.3045C42.0028 16.4455 42.082 16.6368 42.082 16.8362V25.1708C42.082 25.2696 42.0626 25.3674 42.0248 25.4586C41.987 25.5498 41.9316 25.6327 41.8618 25.7025C41.792 25.7724 41.7091 25.8278 41.6178 25.8655C41.5266 25.9033 41.4288 25.9228 41.3301 25.9228Z" fill="#0DC181"/>
<path d="M55.4177 26.0492C55.4177 26.2155 55.3684 26.378 55.276 26.5162C55.1836 26.6545 55.0523 26.7622 54.8987 26.8259C54.7451 26.8895 54.5761 26.9061 54.413 26.8737C54.2499 26.8413 54.1001 26.7612 53.9826 26.6436C53.865 26.5261 53.7849 26.3763 53.7525 26.2132C53.72 26.0501 53.7367 25.8811 53.8003 25.7275C53.8639 25.5739 53.9717 25.4426 54.11 25.3502C54.2482 25.2578 54.4107 25.2085 54.577 25.2085C54.8 25.2085 55.0138 25.2971 55.1715 25.4547C55.3291 25.6124 55.4177 25.8262 55.4177 26.0492Z" fill="#3365EF"/>
<path d="M57.9607 26.0492C57.9607 26.2155 57.9114 26.378 57.819 26.5162C57.7266 26.6545 57.5953 26.7622 57.4417 26.8259C57.2881 26.8895 57.119 26.9061 56.956 26.8737C56.7929 26.8413 56.6431 26.7612 56.5255 26.6436C56.408 26.5261 56.3279 26.3763 56.2955 26.2132C56.263 26.0501 56.2797 25.8811 56.3433 25.7275C56.4069 25.5739 56.5147 25.4426 56.6529 25.3502C56.7912 25.2578 56.9537 25.2085 57.12 25.2085C57.3429 25.2085 57.5568 25.2971 57.7144 25.4547C57.8721 25.6124 57.9607 25.8262 57.9607 26.0492Z" fill="#3365EF"/>
<path d="M59.6629 25.2085C59.8292 25.2085 59.9918 25.2578 60.13 25.3502C60.2683 25.4426 60.376 25.5739 60.4396 25.7275C60.5033 25.8811 60.5199 26.0501 60.4875 26.2132C60.455 26.3763 60.375 26.5261 60.2574 26.6436C60.1398 26.7612 59.99 26.8413 59.827 26.8737C59.6639 26.9061 59.4948 26.8895 59.3412 26.8259C59.1876 26.7622 59.0563 26.6545 58.9639 26.5162C58.8716 26.378 58.8223 26.2155 58.8223 26.0492C58.8223 25.8262 58.9108 25.6124 59.0685 25.4547C59.2262 25.2971 59.44 25.2085 59.6629 25.2085Z" fill="#3365EF"/>
<path d="M55.4177 15.9575C55.4171 16.1236 55.3673 16.2858 55.2746 16.4237C55.1818 16.5616 55.0503 16.6688 54.8966 16.732C54.743 16.7952 54.574 16.8114 54.4112 16.7786C54.2483 16.7458 54.0988 16.6655 53.9815 16.5478C53.8642 16.4302 53.7845 16.2804 53.7523 16.1174C53.7201 15.9544 53.7369 15.7855 53.8006 15.632C53.8643 15.4786 53.9721 15.3475 54.1103 15.2552C54.2484 15.163 54.4109 15.1138 54.577 15.1138C54.6877 15.1138 54.7972 15.1356 54.8994 15.178C55.0016 15.2205 55.0944 15.2827 55.1725 15.3611C55.2506 15.4394 55.3125 15.5325 55.3546 15.6348C55.3966 15.7372 55.4181 15.8468 55.4177 15.9575Z" fill="#3365EF"/>
<path d="M57.9607 15.9579C57.9607 16.1241 57.9114 16.2867 57.819 16.4249C57.7266 16.5632 57.5953 16.6709 57.4417 16.7346C57.2881 16.7982 57.119 16.8148 56.956 16.7824C56.7929 16.75 56.6431 16.6699 56.5255 16.5523C56.408 16.4348 56.3279 16.285 56.2955 16.1219C56.263 15.9588 56.2797 15.7898 56.3433 15.6362C56.4069 15.4825 56.5147 15.3512 56.6529 15.2589C56.7912 15.1665 56.9537 15.1172 57.12 15.1172C57.3429 15.1172 57.5568 15.2058 57.7144 15.3634C57.8721 15.5211 57.9607 15.7349 57.9607 15.9579Z" fill="#3365EF"/>
<path d="M59.6629 15.1138C59.8292 15.1138 59.9918 15.1631 60.13 15.2555C60.2683 15.3478 60.376 15.4791 60.4396 15.6327C60.5033 15.7864 60.5199 15.9554 60.4875 16.1185C60.455 16.2815 60.375 16.4313 60.2574 16.5489C60.1398 16.6665 59.99 16.7465 59.827 16.779C59.6639 16.8114 59.4948 16.7948 59.3412 16.7311C59.1876 16.6675 59.0563 16.5598 58.9639 16.4215C58.8716 16.2833 58.8223 16.1207 58.8223 15.9545C58.8223 15.7315 58.9108 15.5177 59.0685 15.36C59.2262 15.2023 59.44 15.1138 59.6629 15.1138Z" fill="#3365EF"/>
<path d="M23.8357 26.0492C23.8357 26.2155 23.7864 26.378 23.694 26.5162C23.6016 26.6545 23.4703 26.7622 23.3167 26.8259C23.1631 26.8895 22.994 26.9061 22.831 26.8737C22.6679 26.8413 22.5181 26.7612 22.4005 26.6436C22.283 26.5261 22.2029 26.3763 22.1705 26.2132C22.138 26.0501 22.1547 25.8811 22.2183 25.7275C22.2819 25.5739 22.3897 25.4426 22.5279 25.3502C22.6662 25.2578 22.8287 25.2085 22.995 25.2085C23.2179 25.2085 23.4318 25.2971 23.5894 25.4547C23.7471 25.6124 23.8357 25.8262 23.8357 26.0492Z" fill="#3365EF"/>
<path d="M26.3786 26.0492C26.3786 26.2155 26.3293 26.378 26.237 26.5162C26.1446 26.6545 26.0133 26.7622 25.8597 26.8259C25.7061 26.8895 25.537 26.9061 25.3739 26.8737C25.2109 26.8413 25.0611 26.7612 24.9435 26.6436C24.8259 26.5261 24.7459 26.3763 24.7134 26.2132C24.681 26.0501 24.6976 25.8811 24.7613 25.7275C24.8249 25.5739 24.9326 25.4426 25.0709 25.3502C25.2091 25.2578 25.3717 25.2085 25.5379 25.2085C25.7609 25.2085 25.9747 25.2971 26.1324 25.4547C26.2901 25.6124 26.3786 25.8262 26.3786 26.0492Z" fill="#3365EF"/>
<path d="M28.0809 25.2085C28.2472 25.2085 28.4097 25.2578 28.548 25.3502C28.6862 25.4426 28.794 25.5739 28.8576 25.7275C28.9212 25.8811 28.9379 26.0501 28.9054 26.2132C28.873 26.3763 28.7929 26.5261 28.6754 26.6436C28.5578 26.7612 28.408 26.8413 28.2449 26.8737C28.0819 26.9061 27.9128 26.8895 27.7592 26.8259C27.6056 26.7622 27.4743 26.6545 27.3819 26.5162C27.2895 26.378 27.2402 26.2155 27.2402 26.0492C27.2402 25.8262 27.3288 25.6124 27.4865 25.4547C27.6441 25.2971 27.858 25.2085 28.0809 25.2085Z" fill="#3365EF"/>
<path d="M23.8357 15.9575C23.8351 16.1236 23.7853 16.2858 23.6925 16.4237C23.5998 16.5616 23.4683 16.6688 23.3146 16.732C23.1609 16.7952 22.992 16.8114 22.8291 16.7786C22.6663 16.7458 22.5167 16.6655 22.3995 16.5478C22.2822 16.4302 22.2024 16.2804 22.1702 16.1174C22.138 15.9544 22.1549 15.7855 22.2186 15.632C22.2823 15.4786 22.39 15.3475 22.5282 15.2552C22.6664 15.163 22.8288 15.1138 22.995 15.1138C23.1056 15.1138 23.2152 15.1356 23.3174 15.178C23.4196 15.2205 23.5124 15.2827 23.5905 15.3611C23.6686 15.4394 23.7305 15.5325 23.7725 15.6348C23.8146 15.7372 23.8361 15.8468 23.8357 15.9575Z" fill="#3365EF"/>
<path d="M26.3786 15.9579C26.3786 16.1241 26.3293 16.2867 26.237 16.4249C26.1446 16.5632 26.0133 16.6709 25.8597 16.7346C25.7061 16.7982 25.537 16.8148 25.3739 16.7824C25.2109 16.75 25.0611 16.6699 24.9435 16.5523C24.8259 16.4348 24.7459 16.285 24.7134 16.1219C24.681 15.9588 24.6976 15.7898 24.7613 15.6362C24.8249 15.4825 24.9326 15.3512 25.0709 15.2589C25.2091 15.1665 25.3717 15.1172 25.5379 15.1172C25.7609 15.1172 25.9747 15.2058 26.1324 15.3634C26.2901 15.5211 26.3786 15.7349 26.3786 15.9579Z" fill="#3365EF"/>
<path d="M28.0809 15.1138C28.2472 15.1138 28.4097 15.1631 28.548 15.2555C28.6862 15.3478 28.794 15.4791 28.8576 15.6327C28.9212 15.7864 28.9379 15.9554 28.9054 16.1185C28.873 16.2815 28.7929 16.4313 28.6754 16.5489C28.5578 16.6665 28.408 16.7465 28.2449 16.779C28.0819 16.8114 27.9128 16.7948 27.7592 16.7311C27.6056 16.6675 27.4743 16.5598 27.3819 16.4215C27.2895 16.2833 27.2402 16.1207 27.2402 15.9545C27.2402 15.7315 27.3288 15.5177 27.4865 15.36C27.6441 15.2023 27.858 15.1138 28.0809 15.1138Z" fill="#3365EF"/>
<path d="M67.5095 36.1688H15.1465C14.7476 36.1688 14.3651 36.0104 14.0831 35.7283C13.801 35.4463 13.6426 35.0638 13.6426 34.6649V7.34644C13.6426 6.94757 13.801 6.56505 14.0831 6.28301C14.3651 6.00098 14.7476 5.84253 15.1465 5.84253H67.5095C67.9084 5.84253 68.2909 6.00098 68.5729 6.28301C68.8549 6.56505 69.0134 6.94757 69.0134 7.34644V34.6649C69.0134 35.0638 68.8549 35.4463 68.5729 35.7283C68.2909 36.0104 67.9084 36.1688 67.5095 36.1688Z" fill="url(#paint1_linear_7779_66275)"/>
<path d="M60.5002 24.6667V54.7448C60.5002 55.1436 60.3417 55.5262 60.0597 55.8082C59.7777 56.0902 59.3951 56.2487 58.9963 56.2487H13.0685C12.4012 56.2487 11.7405 56.1172 11.124 55.8618C10.5076 55.6064 9.94746 55.2321 9.4757 54.7602C9.00395 54.2883 8.62977 53.7281 8.37456 53.1116C8.11934 52.495 7.98808 51.8343 7.98828 51.167V18.0811C7.98828 19.4288 8.52367 20.7214 9.47668 21.6744C10.4297 22.6274 11.7222 23.1628 13.07 23.1628H58.9963C59.3951 23.1628 59.7777 23.3212 60.0597 23.6032C60.3417 23.8853 60.5002 24.2678 60.5002 24.6667Z" fill="#3365EF"/>
<path d="M55.7949 29.1924H53.9902C53.7908 29.1924 53.5995 29.1132 53.4585 28.9721C53.3175 28.8311 53.2383 28.6399 53.2383 28.4404C53.2383 28.241 53.3175 28.0497 53.4585 27.9087C53.5995 27.7677 53.7908 27.6885 53.9902 27.6885H55.7949C55.9944 27.6885 56.1856 27.7677 56.3266 27.9087C56.4676 28.0497 56.5469 28.241 56.5469 28.4404C56.5469 28.6399 56.4676 28.8311 56.3266 28.9721C56.1856 29.1132 55.9944 29.1924 55.7949 29.1924Z" fill="#3FA3FF"/>
<path d="M49.8066 29.1924H48.002C47.8025 29.1924 47.6113 29.1132 47.4702 28.9721C47.3292 28.8311 47.25 28.6399 47.25 28.4404C47.25 28.241 47.3292 28.0497 47.4702 27.9087C47.6113 27.7677 47.8025 27.6885 48.002 27.6885H49.8066C50.0061 27.6885 50.1973 27.7677 50.3384 27.9087C50.4794 28.0497 50.5586 28.241 50.5586 28.4404C50.5586 28.6399 50.4794 28.8311 50.3384 28.9721C50.1973 29.1132 50.0061 29.1924 49.8066 29.1924Z" fill="#3FA3FF"/>
<path d="M43.8105 29.1924H42.0059C41.8064 29.1924 41.6152 29.1132 41.4741 28.9721C41.3331 28.8311 41.2539 28.6399 41.2539 28.4404C41.2539 28.241 41.3331 28.0497 41.4741 27.9087C41.6152 27.7677 41.8064 27.6885 42.0059 27.6885H43.8105C44.01 27.6885 44.2012 27.7677 44.3423 27.9087C44.4833 28.0497 44.5625 28.241 44.5625 28.4404C44.5625 28.6399 44.4833 28.8311 44.3423 28.9721C44.2012 29.1132 44.01 29.1924 43.8105 29.1924Z" fill="#3FA3FF"/>
<path d="M37.8164 29.1924H36.0117C35.8123 29.1924 35.621 29.1132 35.48 28.9721C35.339 28.8311 35.2598 28.6399 35.2598 28.4404C35.2598 28.241 35.339 28.0497 35.48 27.9087C35.621 27.7677 35.8123 27.6885 36.0117 27.6885H37.8164C38.0158 27.6885 38.2071 27.7677 38.3481 27.9087C38.4891 28.0497 38.5684 28.241 38.5684 28.4404C38.5684 28.6399 38.4891 28.8311 38.3481 28.9721C38.2071 29.1132 38.0158 29.1924 37.8164 29.1924Z" fill="#3FA3FF"/>
<path d="M31.8203 29.1924H30.0156C29.8162 29.1924 29.6249 29.1132 29.4839 28.9721C29.3429 28.8311 29.2637 28.6399 29.2637 28.4404C29.2637 28.241 29.3429 28.0497 29.4839 27.9087C29.6249 27.7677 29.8162 27.6885 30.0156 27.6885H31.8203C32.0197 27.6885 32.211 27.7677 32.352 27.9087C32.493 28.0497 32.5723 28.241 32.5723 28.4404C32.5723 28.6399 32.493 28.8311 32.352 28.9721C32.211 29.1132 32.0197 29.1924 31.8203 29.1924Z" fill="#3FA3FF"/>
<path d="M25.8223 29.1924H24.0176C23.8181 29.1924 23.6269 29.1132 23.4859 28.9721C23.3448 28.8311 23.2656 28.6399 23.2656 28.4404C23.2656 28.241 23.3448 28.0497 23.4859 27.9087C23.6269 27.7677 23.8181 27.6885 24.0176 27.6885H25.8223C26.0217 27.6885 26.213 27.7677 26.354 27.9087C26.495 28.0497 26.5742 28.241 26.5742 28.4404C26.5742 28.6399 26.495 28.8311 26.354 28.9721C26.213 29.1132 26.0217 29.1924 25.8223 29.1924Z" fill="#3FA3FF"/>
<path d="M19.8262 29.1924H18.0215C17.8221 29.1924 17.6308 29.1132 17.4898 28.9721C17.3488 28.8311 17.2695 28.6399 17.2695 28.4404C17.2695 28.241 17.3488 28.0497 17.4898 27.9087C17.6308 27.7677 17.8221 27.6885 18.0215 27.6885H19.8262C20.0256 27.6885 20.2169 27.7677 20.3579 27.9087C20.4989 28.0497 20.5781 28.241 20.5781 28.4404C20.5781 28.6399 20.4989 28.8311 20.3579 28.9721C20.2169 29.1132 20.0256 29.1924 19.8262 29.1924Z" fill="#3FA3FF"/>
<path d="M55.9258 48.0825C55.7264 48.0825 55.5351 48.0033 55.3941 47.8623C55.2531 47.7213 55.1738 47.53 55.1738 47.3306V45.5259C55.1738 45.3264 55.2531 45.1352 55.3941 44.9942C55.5351 44.8532 55.7264 44.7739 55.9258 44.7739C56.1252 44.7739 56.3165 44.8532 56.4575 44.9942C56.5985 45.1352 56.6777 45.3264 56.6777 45.5259V47.3306C56.6777 47.53 56.5985 47.7213 56.4575 47.8623C56.3165 48.0033 56.1252 48.0825 55.9258 48.0825Z" fill="#3FA3FF"/>
<path d="M55.9258 42.0867C55.7264 42.0867 55.5351 42.0074 55.3941 41.8664C55.2531 41.7254 55.1738 41.5341 55.1738 41.3347V39.53C55.1738 39.3306 55.2531 39.1393 55.3941 38.9983C55.5351 38.8573 55.7264 38.7781 55.9258 38.7781C56.1252 38.7781 56.3165 38.8573 56.4575 38.9983C56.5985 39.1393 56.6777 39.3306 56.6777 39.53V41.3347C56.6777 41.5341 56.5985 41.7254 56.4575 41.8664C56.3165 42.0074 56.1252 42.0867 55.9258 42.0867Z" fill="#3FA3FF"/>
<path d="M55.9258 36.0908C55.7264 36.0908 55.5351 36.0116 55.3941 35.8706C55.2531 35.7296 55.1738 35.5383 55.1738 35.3389V33.5342C55.1738 33.3347 55.2531 33.1435 55.3941 33.0025C55.5351 32.8615 55.7264 32.7822 55.9258 32.7822C56.1252 32.7822 56.3165 32.8615 56.4575 33.0025C56.5985 33.1435 56.6777 33.3347 56.6777 33.5342V35.3389C56.6777 35.5383 56.5985 35.7296 56.4575 35.8706C56.3165 36.0116 56.1252 36.0908 55.9258 36.0908Z" fill="#3FA3FF"/>
<path d="M55.7949 52.1521H53.9902C53.7908 52.1521 53.5995 52.0729 53.4585 51.9319C53.3175 51.7908 53.2383 51.5996 53.2383 51.4001C53.2383 51.2007 53.3175 51.0095 53.4585 50.8684C53.5995 50.7274 53.7908 50.6482 53.9902 50.6482H55.7949C55.9944 50.6482 56.1856 50.7274 56.3266 50.8684C56.4676 51.0095 56.5469 51.2007 56.5469 51.4001C56.5469 51.5996 56.4676 51.7908 56.3266 51.9319C56.1856 52.0729 55.9944 52.1521 55.7949 52.1521Z" fill="#3FA3FF"/>
<path d="M49.8066 52.1521H48.002C47.8025 52.1521 47.6113 52.0729 47.4702 51.9319C47.3292 51.7908 47.25 51.5996 47.25 51.4001C47.25 51.2007 47.3292 51.0095 47.4702 50.8684C47.6113 50.7274 47.8025 50.6482 48.002 50.6482H49.8066C50.0061 50.6482 50.1973 50.7274 50.3384 50.8684C50.4794 51.0095 50.5586 51.2007 50.5586 51.4001C50.5586 51.5996 50.4794 51.7908 50.3384 51.9319C50.1973 52.0729 50.0061 52.1521 49.8066 52.1521Z" fill="#3FA3FF"/>
<path d="M43.8105 52.1521H42.0059C41.8064 52.1521 41.6152 52.0729 41.4741 51.9319C41.3331 51.7908 41.2539 51.5996 41.2539 51.4001C41.2539 51.2007 41.3331 51.0095 41.4741 50.8684C41.6152 50.7274 41.8064 50.6482 42.0059 50.6482H43.8105C44.01 50.6482 44.2012 50.7274 44.3423 50.8684C44.4833 51.0095 44.5625 51.2007 44.5625 51.4001C44.5625 51.5996 44.4833 51.7908 44.3423 51.9319C44.2012 52.0729 44.01 52.1521 43.8105 52.1521Z" fill="#3FA3FF"/>
<path d="M37.8164 52.1521H36.0117C35.8123 52.1521 35.621 52.0729 35.48 51.9319C35.339 51.7908 35.2598 51.5996 35.2598 51.4001C35.2598 51.2007 35.339 51.0095 35.48 50.8684C35.621 50.7274 35.8123 50.6482 36.0117 50.6482H37.8164C38.0158 50.6482 38.2071 50.7274 38.3481 50.8684C38.4891 51.0095 38.5684 51.2007 38.5684 51.4001C38.5684 51.5996 38.4891 51.7908 38.3481 51.9319C38.2071 52.0729 38.0158 52.1521 37.8164 52.1521Z" fill="#3FA3FF"/>
<path d="M31.8203 52.1521H30.0156C29.8162 52.1521 29.6249 52.0729 29.4839 51.9319C29.3429 51.7908 29.2637 51.5996 29.2637 51.4001C29.2637 51.2007 29.3429 51.0095 29.4839 50.8684C29.6249 50.7274 29.8162 50.6482 30.0156 50.6482H31.8203C32.0197 50.6482 32.211 50.7274 32.352 50.8684C32.493 51.0095 32.5723 51.2007 32.5723 51.4001C32.5723 51.5996 32.493 51.7908 32.352 51.9319C32.211 52.0729 32.0197 52.1521 31.8203 52.1521Z" fill="#3FA3FF"/>
<path d="M25.8223 52.1521H24.0176C23.8181 52.1521 23.6269 52.0729 23.4859 51.9319C23.3448 51.7908 23.2656 51.5996 23.2656 51.4001C23.2656 51.2007 23.3448 51.0095 23.4859 50.8684C23.6269 50.7274 23.8181 50.6482 24.0176 50.6482H25.8223C26.0217 50.6482 26.213 50.7274 26.354 50.8684C26.495 51.0095 26.5742 51.2007 26.5742 51.4001C26.5742 51.5996 26.495 51.7908 26.354 51.9319C26.213 52.0729 26.0217 52.1521 25.8223 52.1521Z" fill="#3FA3FF"/>
<path d="M19.8262 52.1521H18.0215C17.8221 52.1521 17.6308 52.0729 17.4898 51.9319C17.3488 51.7908 17.2695 51.5996 17.2695 51.4001C17.2695 51.2007 17.3488 51.0095 17.4898 50.8684C17.6308 50.7274 17.8221 50.6482 18.0215 50.6482H19.8262C20.0256 50.6482 20.2169 50.7274 20.3579 50.8684C20.4989 51.0095 20.5781 51.2007 20.5781 51.4001C20.5781 51.5996 20.4989 51.7908 20.3579 51.9319C20.2169 52.0729 20.0256 52.1521 19.8262 52.1521Z" fill="#3FA3FF"/>
<path d="M57.6153 66.2349C63.6893 66.2349 68.6133 61.3109 68.6133 55.2368C68.6133 49.1628 63.6893 44.2388 57.6153 44.2388C51.5412 44.2388 46.6172 49.1628 46.6172 55.2368C46.6172 61.3109 51.5412 66.2349 57.6153 66.2349Z" fill="#0DC181"/>
<path d="M26.699 23.1616V18.7432C26.699 18.5437 26.6198 18.3525 26.4787 18.2115C26.3377 18.0704 26.1465 17.9912 25.947 17.9912H25.1289C24.9295 17.9912 24.7382 18.0704 24.5972 18.2115C24.4562 18.3525 24.377 18.5437 24.377 18.7432C24.377 18.9426 24.4562 19.1339 24.5972 19.2749C24.7382 19.4159 24.9295 19.4951 25.1289 19.4951H25.1951V23.1616H26.699Z" fill="#0C1C5E"/>
<path d="M58.281 23.1616V18.7432C58.281 18.5437 58.2018 18.3525 58.0608 18.2115C57.9198 18.0704 57.7285 17.9912 57.5291 17.9912H56.7109C56.5115 17.9912 56.3202 18.0704 56.1792 18.2115C56.0382 18.3525 55.959 18.5437 55.959 18.7432C55.959 18.9426 56.0382 19.1339 56.1792 19.2749C56.3202 19.4159 56.5115 19.4951 56.7109 19.4951H56.7771V23.1616H58.281Z" fill="#0C1C5E"/>
<path d="M57.6068 63.3125C62.0895 63.3125 65.7234 59.6786 65.7234 55.1959C65.7234 50.7133 62.0895 47.0793 57.6068 47.0793C53.1242 47.0793 49.4902 50.7133 49.4902 55.1959C49.4902 59.6786 53.1242 63.3125 57.6068 63.3125Z" fill="white"/>
<path d="M58.6532 59.1995H55.7958C55.5964 59.1995 55.4051 59.1203 55.2641 58.9793C55.1231 58.8383 55.0438 58.647 55.0438 58.4476C55.0438 58.2481 55.1231 58.0569 55.2641 57.9159C55.4051 57.7748 55.5964 57.6956 55.7958 57.6956H58.6532C58.7683 57.7005 58.8832 57.682 58.991 57.6413C59.0987 57.6005 59.1971 57.5385 59.2803 57.4587C59.3634 57.379 59.4296 57.2833 59.4748 57.1773C59.52 57.0714 59.5433 56.9574 59.5433 56.8422C59.5433 56.727 59.52 56.613 59.4748 56.507C59.4296 56.401 59.3634 56.3053 59.2803 56.2256C59.1971 56.1459 59.0987 56.0838 58.991 56.0431C58.8832 56.0024 58.7683 55.9839 58.6532 55.9887H56.5778C56.2632 55.9966 55.9502 55.9415 55.6573 55.8266C55.3643 55.7117 55.0973 55.5394 54.872 55.3197C54.6467 55.1 54.4677 54.8374 54.3454 54.5475C54.2231 54.2575 54.1602 53.946 54.1602 53.6313C54.1602 53.3166 54.2231 53.0051 54.3454 52.7152C54.4677 52.4252 54.6467 52.1626 54.872 51.943C55.0973 51.7233 55.3643 51.5509 55.6573 51.436C55.9502 51.3211 56.2632 51.266 56.5778 51.2739H59.4353C59.6347 51.2739 59.8259 51.3532 59.967 51.4942C60.108 51.6352 60.1872 51.8265 60.1872 52.0259C60.1872 52.2253 60.108 52.4166 59.967 52.5576C59.8259 52.6986 59.6347 52.7779 59.4353 52.7779H56.5778C56.4627 52.773 56.3479 52.7915 56.2401 52.8322C56.1323 52.8729 56.0339 52.935 55.9508 53.0148C55.8676 53.0945 55.8015 53.1902 55.7563 53.2962C55.7111 53.4021 55.6878 53.5161 55.6878 53.6313C55.6878 53.7465 55.7111 53.8605 55.7563 53.9665C55.8015 54.0724 55.8676 54.1682 55.9508 54.2479C56.0339 54.3276 56.1323 54.3897 56.2401 54.4304C56.3479 54.4711 56.4627 54.4896 56.5778 54.4848H58.6532C58.9678 54.4768 59.2808 54.5319 59.5738 54.6468C59.8667 54.7617 60.1337 54.9341 60.359 55.1538C60.5843 55.3735 60.7634 55.636 60.8856 55.926C61.0079 56.216 61.0709 56.5275 61.0709 56.8422C61.0709 57.1568 61.0079 57.4683 60.8856 57.7583C60.7634 58.0483 60.5843 58.3108 60.359 58.5305C60.1337 58.7502 59.8667 58.9226 59.5738 59.0375C59.2808 59.1524 58.9678 59.2075 58.6532 59.1995Z" fill="#0DC181"/>
<path d="M57.6152 60.3949C57.4158 60.3949 57.2245 60.3157 57.0835 60.1747C56.9425 60.0337 56.8633 59.8424 56.8633 59.643V50.8301C56.8633 50.6306 56.9425 50.4394 57.0835 50.2984C57.2245 50.1574 57.4158 50.0781 57.6152 50.0781C57.8147 50.0781 58.0059 50.1574 58.1469 50.2984C58.288 50.4394 58.3672 50.6306 58.3672 50.8301V59.643C58.3672 59.8424 58.288 60.0337 58.1469 60.1747C58.0059 60.3157 57.8147 60.3949 57.6152 60.3949Z" fill="#0DC181"/>
<path d="M23.2654 3.00769C23.1178 3.00649 22.9739 2.9619 22.8515 2.87948C22.7291 2.79706 22.6336 2.68044 22.577 2.54416C22.5204 2.40788 22.5052 2.25796 22.5332 2.11307C22.5612 1.96819 22.6312 1.83475 22.7345 1.72937L24.2384 0.225461C24.3822 0.106944 24.5648 0.0460174 24.7509 0.0544893C24.9371 0.0629612 25.1134 0.140228 25.2458 0.271315C25.3782 0.402402 25.4572 0.577973 25.4675 0.764C25.4779 0.950028 25.4188 1.13326 25.3017 1.2782L23.7978 2.7821C23.7283 2.85297 23.6455 2.90939 23.5541 2.94811C23.4628 2.98683 23.3646 3.00708 23.2654 3.00769Z" fill="#FF6C6C"/>
<path d="M67.1077 42.8382C66.9592 42.8378 66.8142 42.7935 66.6908 42.7109C66.5675 42.6283 66.4713 42.5109 66.4146 42.3737C66.3578 42.2365 66.3429 42.0856 66.3718 41.94C66.4007 41.7943 66.472 41.6605 66.5768 41.5553L68.0807 40.0514C68.2226 39.9144 68.4125 39.8386 68.6097 39.8404C68.8068 39.8421 68.9954 39.9212 69.1348 40.0606C69.2743 40.2 69.3533 40.3886 69.3551 40.5858C69.3568 40.7829 69.281 40.9729 69.144 41.1147L67.6401 42.6186C67.5701 42.6884 67.4871 42.7437 67.3958 42.7814C67.3044 42.819 67.2065 42.8383 67.1077 42.8382Z" fill="#FF6C6C"/>
<path d="M23.4144 64.1201C23.2659 64.1198 23.1208 64.0755 22.9975 63.9929C22.8741 63.9102 22.778 63.7929 22.7212 63.6557C22.6644 63.5185 22.6495 63.3676 22.6784 63.2219C22.7073 63.0763 22.7786 62.9425 22.8835 62.8373L24.3874 61.3334C24.5292 61.1964 24.7191 61.1206 24.9163 61.1223C25.1135 61.1241 25.3021 61.2031 25.4415 61.3426C25.5809 61.482 25.66 61.6706 25.6617 61.8677C25.6634 62.0649 25.5876 62.2548 25.4506 62.3967L23.9467 63.9006C23.8768 63.9703 23.7937 64.0257 23.7024 64.0633C23.611 64.101 23.5132 64.1203 23.4144 64.1201Z" fill="#0DC181"/>
<path d="M44.0189 63.2664C43.92 63.2666 43.8222 63.2473 43.7308 63.2096C43.6395 63.1719 43.5564 63.1166 43.4865 63.0469L42.515 62.0753L41.5419 63.0469C41.4001 63.1838 41.2102 63.2596 41.013 63.2579C40.8158 63.2562 40.6272 63.1771 40.4878 63.0377C40.3484 62.8983 40.2693 62.7097 40.2676 62.5125C40.2659 62.3154 40.3417 62.1254 40.4787 61.9836L41.9826 60.4797C42.1236 60.3387 42.3148 60.2595 42.5142 60.2595C42.7136 60.2595 42.9048 60.3387 43.0458 60.4797L44.5497 61.9836C44.6907 62.1246 44.7699 62.3158 44.7699 62.5152C44.7699 62.7146 44.6907 62.9058 44.5497 63.0469C44.4803 63.1169 44.3975 63.1723 44.3064 63.21C44.2152 63.2477 44.1175 63.2669 44.0189 63.2664Z" fill="#6C6CFF"/>
<path d="M60.326 3.00752C60.227 3.00671 60.1292 2.98636 60.0381 2.94765C59.947 2.90894 59.8644 2.85262 59.7951 2.78193L58.8221 1.8089L57.8506 2.78193C57.7845 2.86371 57.702 2.93074 57.6084 2.97867C57.5149 3.0266 57.4123 3.05437 57.3073 3.0602C57.2023 3.06602 57.0973 3.04977 56.999 3.01249C56.9007 2.9752 56.8113 2.91772 56.7366 2.84375C56.6619 2.76978 56.6035 2.68096 56.5652 2.58303C56.527 2.4851 56.5097 2.38024 56.5144 2.27521C56.5192 2.17018 56.546 2.06732 56.593 1.97327C56.64 1.87922 56.7062 1.79607 56.7873 1.72919L58.2912 0.225289C58.4322 0.0843192 58.6234 0.00512695 58.8228 0.00512695C59.0222 0.00512695 59.2135 0.0843192 59.3545 0.225289L60.8584 1.72919C60.9633 1.83444 61.0347 1.96842 61.0635 2.1142C61.0923 2.25999 61.0773 2.41105 61.0203 2.5483C60.9634 2.68556 60.867 2.80286 60.7434 2.8854C60.6199 2.96793 60.4746 3.012 60.326 3.01203V3.00752Z" fill="#0DC181"/>
</g>
<defs>
<linearGradient id="paint0_linear_7779_66275" x1="-16.0918" y1="35.0721" x2="108.884" y2="35.0721" gradientUnits="userSpaceOnUse">
<stop offset="0.01" stop-color="#9494FF"/>
<stop offset="0.99" stop-color="#FFE8DC" stop-opacity="0"/>
</linearGradient>
<linearGradient id="paint1_linear_7779_66275" x1="41.328" y1="36.1643" x2="41.328" y2="5.84253" gradientUnits="userSpaceOnUse">
<stop stop-color="#0DC181" stop-opacity="0.38"/>
<stop offset="1" stop-color="#0DC181" stop-opacity="0"/>
</linearGradient>
<clipPath id="clip0_7779_66275">
<rect width="77" height="69.9301" fill="white"/>
</clipPath>
</defs>
</svg>
