<svg width="77" height="70" viewBox="0 0 77 70" fill="none" xmlns="http://www.w3.org/2000/svg">
<g clip-path="url(#clip0_7779_65969)">
<path d="M77 35.072C77 30.9167 75.1201 27.0216 71.8341 23.6679C69.5487 21.3356 67.645 18.658 66.1929 15.7333C61.5474 6.37748 53.6278 0.214478 44.6359 0.214478C38.2473 0.214478 32.4002 3.32756 27.8824 8.48596C24.8825 11.8899 21.1208 14.537 16.9039 16.2115C6.70441 20.3082 0 27.2276 0 35.072C0 42.9164 6.70441 49.8359 16.9054 53.9325C21.1218 55.6081 24.8832 58.255 27.8839 61.6581C32.3956 66.818 38.2488 69.9296 44.6374 69.9296C53.6293 69.9296 61.5489 63.7635 66.1944 54.4092C67.6469 51.4853 69.5506 48.8081 71.8356 46.4761C75.1201 43.1239 77 39.2273 77 35.072Z" fill="url(#paint0_linear_7779_65969)"/>
<path d="M58.9948 23.1617H13.0685C11.7211 23.1617 10.429 22.6265 9.47624 21.6738C8.52351 20.7211 7.98828 19.4289 7.98828 18.0815C7.98828 16.7342 8.52351 15.442 9.47624 14.4893C10.429 13.5366 11.7211 13.0013 13.0685 13.0013H60.4987V21.6578C60.4987 22.0567 60.3402 22.4392 60.0582 22.7213C59.7762 23.0033 59.3936 23.1617 58.9948 23.1617Z" fill="#0C1C5E"/>
<path d="M67.5095 36.1689H15.1465C14.7476 36.1689 14.3651 36.0105 14.0831 35.7284C13.801 35.4464 13.6426 35.0639 13.6426 34.665V7.34656C13.6426 6.9477 13.801 6.56517 14.0831 6.28314C14.3651 6.0011 14.7476 5.84265 15.1465 5.84265H67.5095C67.9084 5.84265 68.2909 6.0011 68.5729 6.28314C68.8549 6.56517 69.0134 6.9477 69.0134 7.34656V34.665C69.0134 35.0639 68.8549 35.4464 68.5729 35.7284C68.2909 36.0105 67.9084 36.1689 67.5095 36.1689Z" fill="#0DC181"/>
<path d="M62.6466 11.3015L63.0151 9.78252C63.0425 9.67167 63.0443 9.55604 63.0203 9.44439C62.9964 9.33275 62.9473 9.22802 62.8769 9.13815C62.8064 9.04829 62.7165 8.97564 62.6138 8.92573C62.5111 8.87582 62.3983 8.84996 62.2842 8.8501H20.3703C20.2561 8.84996 20.1434 8.87582 20.0407 8.92573C19.938 8.97564 19.848 9.04829 19.7776 9.13815C19.7071 9.22802 19.6581 9.33275 19.6341 9.44439C19.6102 9.55604 19.612 9.67167 19.6394 9.78252L20.0139 11.3015C20.0427 11.4258 20.0394 11.5555 20.0043 11.6782C19.9691 11.801 19.9033 11.9127 19.8131 12.003C19.7228 12.0933 19.611 12.1591 19.4883 12.1942C19.3655 12.2293 19.2359 12.2326 19.1115 12.2038L17.5926 11.8293C17.4817 11.8019 17.3661 11.8001 17.2545 11.8241C17.1428 11.848 17.0381 11.8971 16.9482 11.9675C16.8583 12.038 16.7857 12.1279 16.7358 12.2306C16.6859 12.3333 16.66 12.4461 16.6602 12.5602V29.4401C16.6602 29.5541 16.6863 29.6667 16.7363 29.7692C16.7863 29.8717 16.859 29.9615 16.9488 30.0318C17.0386 30.102 17.1433 30.151 17.2548 30.1748C17.3664 30.1987 17.4819 30.1968 17.5926 30.1695L19.1115 29.795C19.2359 29.7662 19.3655 29.7695 19.4883 29.8046C19.611 29.8397 19.7228 29.9055 19.8131 29.9958C19.9033 30.0861 19.9691 30.1979 20.0043 30.3206C20.0394 30.4433 20.0427 30.573 20.0139 30.6973L19.6394 32.2178C19.6123 32.3285 19.6107 32.444 19.6347 32.5555C19.6588 32.6669 19.7079 32.7714 19.7783 32.8611C19.8487 32.9508 19.9386 33.0233 20.0412 33.0731C20.1437 33.1229 20.2563 33.1488 20.3703 33.1487H62.2917C62.4056 33.1486 62.5179 33.1226 62.6203 33.0726C62.7227 33.0227 62.8124 32.9502 62.8826 32.8605C62.9529 32.7709 63.0018 32.6664 63.0258 32.5551C63.0498 32.4438 63.0482 32.3284 63.0211 32.2178L62.6466 30.6973C62.6173 30.5722 62.6205 30.4417 62.6559 30.3181C62.6914 30.1946 62.7579 30.0822 62.8492 29.9917C62.9404 29.9012 63.0534 29.8356 63.1772 29.8012C63.301 29.7667 63.4316 29.7646 63.5565 29.795L65.0769 30.1695C65.1875 30.1966 65.3029 30.1982 65.4142 30.1742C65.5256 30.1502 65.63 30.1013 65.7197 30.031C65.8093 29.9608 65.8818 29.8711 65.9318 29.7687C65.9817 29.6663 66.0077 29.554 66.0078 29.4401V12.5678C66.0079 12.4537 65.9821 12.3412 65.9322 12.2386C65.8824 12.1361 65.8099 12.0462 65.7202 11.9758C65.6306 11.9053 65.526 11.8563 65.4146 11.8322C65.3031 11.8081 65.1877 11.8097 65.0769 11.8369L63.5565 12.2113C63.4308 12.2422 63.2993 12.2402 63.1747 12.2055C63.0501 12.1707 62.9365 12.1044 62.8451 12.0129C62.7536 11.9214 62.6872 11.8078 62.6525 11.6832C62.6177 11.5586 62.6157 11.4271 62.6466 11.3015Z" fill="white"/>
<path d="M41.3283 29.6209C46.0876 29.6209 49.9457 25.7627 49.9457 21.0035C49.9457 16.2442 46.0876 12.3861 41.3283 12.3861C36.5691 12.3861 32.7109 16.2442 32.7109 21.0035C32.7109 25.7627 36.5691 29.6209 41.3283 29.6209Z" fill="#B4FFE4"/>
<path d="M35.7887 17.0139C37.2297 16.4256 37.921 14.7804 37.3326 13.3394C36.7442 11.8984 35.0991 11.2071 33.658 11.7955C32.217 12.3839 31.5258 14.029 32.1142 15.4701C32.7025 16.9111 34.3477 17.6023 35.7887 17.0139Z" fill="#FF6C6C"/>
<path d="M47.9433 30.4327C49.4998 30.4327 50.7616 29.1709 50.7616 27.6143C50.7616 26.0578 49.4998 24.796 47.9433 24.796C46.3868 24.796 45.125 26.0578 45.125 27.6143C45.125 29.1709 46.3868 30.4327 47.9433 30.4327Z" fill="#FFAB66"/>
<path d="M42.3101 24.7918H39.1519C38.9525 24.7918 38.7612 24.7125 38.6202 24.5715C38.4792 24.4305 38.4 24.2392 38.4 24.0398C38.4 23.8404 38.4792 23.6491 38.6202 23.5081C38.7612 23.3671 38.9525 23.2879 39.1519 23.2879H42.3101C42.4136 23.2924 42.5169 23.276 42.6139 23.2396C42.7109 23.2031 42.7994 23.1474 42.8743 23.0758C42.9491 23.0042 43.0087 22.9182 43.0494 22.823C43.0901 22.7277 43.1111 22.6252 43.1111 22.5216C43.1111 22.418 43.0901 22.3155 43.0494 22.2203C43.0087 22.125 42.9491 22.039 42.8743 21.9674C42.7994 21.8958 42.7109 21.8401 42.6139 21.8037C42.5169 21.7672 42.4136 21.7508 42.3101 21.7554H40.355C39.7631 21.7401 39.2005 21.4943 38.7872 21.0702C38.3739 20.6461 38.1426 20.0774 38.1426 19.4852C38.1426 18.8931 38.3739 18.3243 38.7872 17.9003C39.2005 17.4762 39.7631 17.2303 40.355 17.2151H43.5132C43.7127 17.2151 43.9039 17.2943 44.045 17.4353C44.186 17.5763 44.2652 17.7676 44.2652 17.967C44.2652 18.1665 44.186 18.3577 44.045 18.4988C43.9039 18.6398 43.7127 18.719 43.5132 18.719H40.355C40.1577 18.7277 39.9713 18.8123 39.8348 18.955C39.6982 19.0978 39.622 19.2877 39.622 19.4852C39.622 19.6828 39.6982 19.8727 39.8348 20.0154C39.9713 20.1582 40.1577 20.2427 40.355 20.2515H42.3101C42.6132 20.2437 42.9147 20.2966 43.1969 20.4072C43.4792 20.5178 43.7364 20.6838 43.9535 20.8953C44.1706 21.1069 44.3432 21.3598 44.461 21.6391C44.5788 21.9184 44.6395 22.2185 44.6395 22.5216C44.6395 22.8248 44.5788 23.1248 44.461 23.4041C44.3432 23.6834 44.1706 23.9363 43.9535 24.1479C43.7364 24.3595 43.4792 24.5255 43.1969 24.636C42.9147 24.7466 42.6132 24.7996 42.3101 24.7918Z" fill="#0DC181"/>
<path d="M41.3301 25.9229C41.2313 25.9229 41.1335 25.9035 41.0423 25.8657C40.9511 25.8279 40.8682 25.7725 40.7984 25.7027C40.7285 25.6328 40.6732 25.5499 40.6354 25.4587C40.5976 25.3675 40.5781 25.2697 40.5781 25.171V16.8363C40.5781 16.6369 40.6574 16.4456 40.7984 16.3046C40.9394 16.1636 41.1306 16.0844 41.3301 16.0844C41.5295 16.0844 41.7208 16.1636 41.8618 16.3046C42.0028 16.4456 42.082 16.6369 42.082 16.8363V25.171C42.082 25.2697 42.0626 25.3675 42.0248 25.4587C41.987 25.5499 41.9316 25.6328 41.8618 25.7027C41.792 25.7725 41.7091 25.8279 41.6178 25.8657C41.5266 25.9035 41.4288 25.9229 41.3301 25.9229Z" fill="#0DC181"/>
<path d="M55.4177 26.0491C55.4177 26.2153 55.3684 26.3779 55.276 26.5161C55.1836 26.6544 55.0523 26.7621 54.8987 26.8257C54.7451 26.8894 54.5761 26.906 54.413 26.8736C54.2499 26.8412 54.1001 26.7611 53.9826 26.6435C53.865 26.5259 53.7849 26.3761 53.7525 26.2131C53.72 26.05 53.7367 25.881 53.8003 25.7273C53.8639 25.5737 53.9717 25.4424 54.11 25.3501C54.2482 25.2577 54.4107 25.2084 54.577 25.2084C54.8 25.2084 55.0138 25.2969 55.1715 25.4546C55.3291 25.6123 55.4177 25.8261 55.4177 26.0491Z" fill="#3365EF"/>
<path d="M57.9607 26.0491C57.9607 26.2153 57.9114 26.3779 57.819 26.5161C57.7266 26.6544 57.5953 26.7621 57.4417 26.8257C57.2881 26.8894 57.119 26.906 56.956 26.8736C56.7929 26.8412 56.6431 26.7611 56.5255 26.6435C56.408 26.5259 56.3279 26.3761 56.2955 26.2131C56.263 26.05 56.2797 25.881 56.3433 25.7273C56.4069 25.5737 56.5147 25.4424 56.6529 25.3501C56.7912 25.2577 56.9537 25.2084 57.12 25.2084C57.3429 25.2084 57.5568 25.2969 57.7144 25.4546C57.8721 25.6123 57.9607 25.8261 57.9607 26.0491Z" fill="#3365EF"/>
<path d="M59.6629 25.2084C59.8292 25.2084 59.9918 25.2577 60.13 25.3501C60.2683 25.4424 60.376 25.5737 60.4396 25.7273C60.5033 25.881 60.5199 26.05 60.4875 26.2131C60.455 26.3761 60.375 26.5259 60.2574 26.6435C60.1398 26.7611 59.99 26.8412 59.827 26.8736C59.6639 26.906 59.4948 26.8894 59.3412 26.8257C59.1876 26.7621 59.0563 26.6544 58.9639 26.5161C58.8716 26.3779 58.8223 26.2153 58.8223 26.0491C58.8223 25.8261 58.9108 25.6123 59.0685 25.4546C59.2262 25.2969 59.44 25.2084 59.6629 25.2084Z" fill="#3365EF"/>
<path d="M55.4177 15.9575C55.4171 16.1236 55.3673 16.2858 55.2746 16.4237C55.1818 16.5616 55.0503 16.6688 54.8966 16.732C54.743 16.7952 54.574 16.8114 54.4112 16.7786C54.2483 16.7458 54.0988 16.6655 53.9815 16.5478C53.8642 16.4302 53.7845 16.2804 53.7523 16.1174C53.7201 15.9544 53.7369 15.7855 53.8006 15.632C53.8643 15.4786 53.9721 15.3475 54.1103 15.2552C54.2484 15.163 54.4109 15.1138 54.577 15.1138C54.6877 15.1138 54.7972 15.1356 54.8994 15.178C55.0016 15.2205 55.0944 15.2827 55.1725 15.3611C55.2506 15.4394 55.3125 15.5325 55.3546 15.6348C55.3966 15.7372 55.4181 15.8468 55.4177 15.9575Z" fill="#3365EF"/>
<path d="M57.9607 15.9577C57.9607 16.124 57.9114 16.2866 57.819 16.4248C57.7266 16.5631 57.5953 16.6708 57.4417 16.7344C57.2881 16.7981 57.119 16.8147 56.956 16.7823C56.7929 16.7498 56.6431 16.6698 56.5255 16.5522C56.408 16.4346 56.3279 16.2848 56.2955 16.1218C56.263 15.9587 56.2797 15.7896 56.3433 15.636C56.4069 15.4824 56.5147 15.3511 56.6529 15.2587C56.7912 15.1664 56.9537 15.1171 57.12 15.1171C57.3429 15.1171 57.5568 15.2056 57.7144 15.3633C57.8721 15.521 57.9607 15.7348 57.9607 15.9577Z" fill="#3365EF"/>
<path d="M59.6629 15.1138C59.8292 15.1138 59.9918 15.1631 60.13 15.2555C60.2683 15.3478 60.376 15.4791 60.4396 15.6327C60.5033 15.7864 60.5199 15.9554 60.4875 16.1185C60.455 16.2815 60.375 16.4313 60.2574 16.5489C60.1398 16.6665 59.99 16.7465 59.827 16.779C59.6639 16.8114 59.4948 16.7948 59.3412 16.7311C59.1876 16.6675 59.0563 16.5598 58.9639 16.4215C58.8716 16.2833 58.8223 16.1207 58.8223 15.9545C58.8223 15.7315 58.9108 15.5177 59.0685 15.36C59.2262 15.2023 59.44 15.1138 59.6629 15.1138Z" fill="#3365EF"/>
<path d="M23.8357 26.0491C23.8357 26.2153 23.7864 26.3779 23.694 26.5161C23.6016 26.6544 23.4703 26.7621 23.3167 26.8257C23.1631 26.8894 22.994 26.906 22.831 26.8736C22.6679 26.8412 22.5181 26.7611 22.4005 26.6435C22.283 26.5259 22.2029 26.3761 22.1705 26.2131C22.138 26.05 22.1547 25.881 22.2183 25.7273C22.2819 25.5737 22.3897 25.4424 22.5279 25.3501C22.6662 25.2577 22.8287 25.2084 22.995 25.2084C23.2179 25.2084 23.4318 25.2969 23.5894 25.4546C23.7471 25.6123 23.8357 25.8261 23.8357 26.0491Z" fill="#3365EF"/>
<path d="M26.3786 26.0491C26.3786 26.2153 26.3293 26.3779 26.237 26.5161C26.1446 26.6544 26.0133 26.7621 25.8597 26.8257C25.7061 26.8894 25.537 26.906 25.3739 26.8736C25.2109 26.8412 25.0611 26.7611 24.9435 26.6435C24.8259 26.5259 24.7459 26.3761 24.7134 26.2131C24.681 26.05 24.6976 25.881 24.7613 25.7273C24.8249 25.5737 24.9326 25.4424 25.0709 25.3501C25.2091 25.2577 25.3717 25.2084 25.5379 25.2084C25.7609 25.2084 25.9747 25.2969 26.1324 25.4546C26.2901 25.6123 26.3786 25.8261 26.3786 26.0491Z" fill="#3365EF"/>
<path d="M28.0809 25.2084C28.2472 25.2084 28.4097 25.2577 28.548 25.3501C28.6862 25.4424 28.794 25.5737 28.8576 25.7273C28.9212 25.881 28.9379 26.05 28.9054 26.2131C28.873 26.3761 28.7929 26.5259 28.6754 26.6435C28.5578 26.7611 28.408 26.8412 28.2449 26.8736C28.0819 26.906 27.9128 26.8894 27.7592 26.8257C27.6056 26.7621 27.4743 26.6544 27.3819 26.5161C27.2895 26.3779 27.2402 26.2153 27.2402 26.0491C27.2402 25.8261 27.3288 25.6123 27.4865 25.4546C27.6441 25.2969 27.858 25.2084 28.0809 25.2084Z" fill="#3365EF"/>
<path d="M23.8357 15.9575C23.8351 16.1236 23.7853 16.2858 23.6925 16.4237C23.5998 16.5616 23.4683 16.6688 23.3146 16.732C23.1609 16.7952 22.992 16.8114 22.8291 16.7786C22.6663 16.7458 22.5167 16.6655 22.3995 16.5478C22.2822 16.4302 22.2024 16.2804 22.1702 16.1174C22.138 15.9544 22.1549 15.7855 22.2186 15.632C22.2823 15.4786 22.39 15.3475 22.5282 15.2552C22.6664 15.163 22.8288 15.1138 22.995 15.1138C23.1056 15.1138 23.2152 15.1356 23.3174 15.178C23.4196 15.2205 23.5124 15.2827 23.5905 15.3611C23.6686 15.4394 23.7305 15.5325 23.7725 15.6348C23.8146 15.7372 23.8361 15.8468 23.8357 15.9575Z" fill="#3365EF"/>
<path d="M26.3786 15.9577C26.3786 16.124 26.3293 16.2866 26.237 16.4248C26.1446 16.5631 26.0133 16.6708 25.8597 16.7344C25.7061 16.7981 25.537 16.8147 25.3739 16.7823C25.2109 16.7498 25.0611 16.6698 24.9435 16.5522C24.8259 16.4346 24.7459 16.2848 24.7134 16.1218C24.681 15.9587 24.6976 15.7896 24.7613 15.636C24.8249 15.4824 24.9326 15.3511 25.0709 15.2587C25.2091 15.1664 25.3717 15.1171 25.5379 15.1171C25.7609 15.1171 25.9747 15.2056 26.1324 15.3633C26.2901 15.521 26.3786 15.7348 26.3786 15.9577Z" fill="#3365EF"/>
<path d="M28.0809 15.1138C28.2472 15.1138 28.4097 15.1631 28.548 15.2555C28.6862 15.3478 28.794 15.4791 28.8576 15.6327C28.9212 15.7864 28.9379 15.9554 28.9054 16.1185C28.873 16.2815 28.7929 16.4313 28.6754 16.5489C28.5578 16.6665 28.408 16.7465 28.2449 16.779C28.0819 16.8114 27.9128 16.7948 27.7592 16.7311C27.6056 16.6675 27.4743 16.5598 27.3819 16.4215C27.2895 16.2833 27.2402 16.1207 27.2402 15.9545C27.2402 15.7315 27.3288 15.5177 27.4865 15.36C27.6441 15.2023 27.858 15.1138 28.0809 15.1138Z" fill="#3365EF"/>
<path d="M67.5095 36.1689H15.1465C14.7476 36.1689 14.3651 36.0105 14.0831 35.7284C13.801 35.4464 13.6426 35.0639 13.6426 34.665V7.34656C13.6426 6.9477 13.801 6.56517 14.0831 6.28314C14.3651 6.0011 14.7476 5.84265 15.1465 5.84265H67.5095C67.9084 5.84265 68.2909 6.0011 68.5729 6.28314C68.8549 6.56517 69.0134 6.9477 69.0134 7.34656V34.665C69.0134 35.0639 68.8549 35.4464 68.5729 35.7284C68.2909 36.0105 67.9084 36.1689 67.5095 36.1689Z" fill="url(#paint1_linear_7779_65969)"/>
<path d="M60.5002 24.6668V54.7449C60.5002 55.1438 60.3417 55.5263 60.0597 55.8083C59.7777 56.0904 59.3951 56.2488 58.9963 56.2488H13.0685C12.4012 56.2488 11.7405 56.1174 11.124 55.862C10.5076 55.6066 9.94746 55.2322 9.4757 54.7603C9.00395 54.2884 8.62977 53.7282 8.37456 53.1117C8.11934 52.4952 7.98808 51.8344 7.98828 51.1671V18.0812C7.98828 19.4289 8.52367 20.7215 9.47668 21.6745C10.4297 22.6275 11.7222 23.1629 13.07 23.1629H58.9963C59.3951 23.1629 59.7777 23.3213 60.0597 23.6034C60.3417 23.8854 60.5002 24.2679 60.5002 24.6668Z" fill="#3365EF"/>
<path d="M55.7949 29.1925H53.9902C53.7908 29.1925 53.5995 29.1133 53.4585 28.9723C53.3175 28.8312 53.2383 28.64 53.2383 28.4406C53.2383 28.2411 53.3175 28.0499 53.4585 27.9088C53.5995 27.7678 53.7908 27.6886 53.9902 27.6886H55.7949C55.9944 27.6886 56.1856 27.7678 56.3266 27.9088C56.4676 28.0499 56.5469 28.2411 56.5469 28.4406C56.5469 28.64 56.4676 28.8312 56.3266 28.9723C56.1856 29.1133 55.9944 29.1925 55.7949 29.1925Z" fill="#3FA3FF"/>
<path d="M49.8066 29.1925H48.002C47.8025 29.1925 47.6113 29.1133 47.4702 28.9723C47.3292 28.8312 47.25 28.64 47.25 28.4406C47.25 28.2411 47.3292 28.0499 47.4702 27.9088C47.6113 27.7678 47.8025 27.6886 48.002 27.6886H49.8066C50.0061 27.6886 50.1973 27.7678 50.3384 27.9088C50.4794 28.0499 50.5586 28.2411 50.5586 28.4406C50.5586 28.64 50.4794 28.8312 50.3384 28.9723C50.1973 29.1133 50.0061 29.1925 49.8066 29.1925Z" fill="#3FA3FF"/>
<path d="M43.8105 29.1925H42.0059C41.8064 29.1925 41.6152 29.1133 41.4741 28.9723C41.3331 28.8312 41.2539 28.64 41.2539 28.4406C41.2539 28.2411 41.3331 28.0499 41.4741 27.9088C41.6152 27.7678 41.8064 27.6886 42.0059 27.6886H43.8105C44.01 27.6886 44.2012 27.7678 44.3423 27.9088C44.4833 28.0499 44.5625 28.2411 44.5625 28.4406C44.5625 28.64 44.4833 28.8312 44.3423 28.9723C44.2012 29.1133 44.01 29.1925 43.8105 29.1925Z" fill="#3FA3FF"/>
<path d="M37.8164 29.1925H36.0117C35.8123 29.1925 35.621 29.1133 35.48 28.9723C35.339 28.8312 35.2598 28.64 35.2598 28.4406C35.2598 28.2411 35.339 28.0499 35.48 27.9088C35.621 27.7678 35.8123 27.6886 36.0117 27.6886H37.8164C38.0158 27.6886 38.2071 27.7678 38.3481 27.9088C38.4891 28.0499 38.5684 28.2411 38.5684 28.4406C38.5684 28.64 38.4891 28.8312 38.3481 28.9723C38.2071 29.1133 38.0158 29.1925 37.8164 29.1925Z" fill="#3FA3FF"/>
<path d="M31.8203 29.1925H30.0156C29.8162 29.1925 29.6249 29.1133 29.4839 28.9723C29.3429 28.8312 29.2637 28.64 29.2637 28.4406C29.2637 28.2411 29.3429 28.0499 29.4839 27.9088C29.6249 27.7678 29.8162 27.6886 30.0156 27.6886H31.8203C32.0197 27.6886 32.211 27.7678 32.352 27.9088C32.493 28.0499 32.5723 28.2411 32.5723 28.4406C32.5723 28.64 32.493 28.8312 32.352 28.9723C32.211 29.1133 32.0197 29.1925 31.8203 29.1925Z" fill="#3FA3FF"/>
<path d="M25.8223 29.1925H24.0176C23.8181 29.1925 23.6269 29.1133 23.4859 28.9723C23.3448 28.8312 23.2656 28.64 23.2656 28.4406C23.2656 28.2411 23.3448 28.0499 23.4859 27.9088C23.6269 27.7678 23.8181 27.6886 24.0176 27.6886H25.8223C26.0217 27.6886 26.213 27.7678 26.354 27.9088C26.495 28.0499 26.5742 28.2411 26.5742 28.4406C26.5742 28.64 26.495 28.8312 26.354 28.9723C26.213 29.1133 26.0217 29.1925 25.8223 29.1925Z" fill="#3FA3FF"/>
<path d="M19.8262 29.1925H18.0215C17.8221 29.1925 17.6308 29.1133 17.4898 28.9723C17.3488 28.8312 17.2695 28.64 17.2695 28.4406C17.2695 28.2411 17.3488 28.0499 17.4898 27.9088C17.6308 27.7678 17.8221 27.6886 18.0215 27.6886H19.8262C20.0256 27.6886 20.2169 27.7678 20.3579 27.9088C20.4989 28.0499 20.5781 28.2411 20.5781 28.4406C20.5781 28.64 20.4989 28.8312 20.3579 28.9723C20.2169 29.1133 20.0256 29.1925 19.8262 29.1925Z" fill="#3FA3FF"/>
<path d="M55.9258 48.0824C55.7264 48.0824 55.5351 48.0032 55.3941 47.8622C55.2531 47.7211 55.1738 47.5299 55.1738 47.3304V45.5258C55.1738 45.3263 55.2531 45.1351 55.3941 44.994C55.5351 44.853 55.7264 44.7738 55.9258 44.7738C56.1252 44.7738 56.3165 44.853 56.4575 44.994C56.5985 45.1351 56.6777 45.3263 56.6777 45.5258V47.3304C56.6777 47.5299 56.5985 47.7211 56.4575 47.8622C56.3165 48.0032 56.1252 48.0824 55.9258 48.0824Z" fill="#3FA3FF"/>
<path d="M55.9258 42.0865C55.7264 42.0865 55.5351 42.0073 55.3941 41.8663C55.2531 41.7253 55.1738 41.534 55.1738 41.3346V39.5299C55.1738 39.3305 55.2531 39.1392 55.3941 38.9982C55.5351 38.8572 55.7264 38.778 55.9258 38.778C56.1252 38.778 56.3165 38.8572 56.4575 38.9982C56.5985 39.1392 56.6777 39.3305 56.6777 39.5299V41.3346C56.6777 41.534 56.5985 41.7253 56.4575 41.8663C56.3165 42.0073 56.1252 42.0865 55.9258 42.0865Z" fill="#3FA3FF"/>
<path d="M55.9258 36.0907C55.7264 36.0907 55.5351 36.0115 55.3941 35.8705C55.2531 35.7294 55.1738 35.5382 55.1738 35.3387V33.5341C55.1738 33.3346 55.2531 33.1434 55.3941 33.0023C55.5351 32.8613 55.7264 32.7821 55.9258 32.7821C56.1252 32.7821 56.3165 32.8613 56.4575 33.0023C56.5985 33.1434 56.6777 33.3346 56.6777 33.5341V35.3387C56.6777 35.5382 56.5985 35.7294 56.4575 35.8705C56.3165 36.0115 56.1252 36.0907 55.9258 36.0907Z" fill="#3FA3FF"/>
<path d="M55.7949 52.1521H53.9902C53.7908 52.1521 53.5995 52.0729 53.4585 51.9319C53.3175 51.7908 53.2383 51.5996 53.2383 51.4001C53.2383 51.2007 53.3175 51.0095 53.4585 50.8684C53.5995 50.7274 53.7908 50.6482 53.9902 50.6482H55.7949C55.9944 50.6482 56.1856 50.7274 56.3266 50.8684C56.4676 51.0095 56.5469 51.2007 56.5469 51.4001C56.5469 51.5996 56.4676 51.7908 56.3266 51.9319C56.1856 52.0729 55.9944 52.1521 55.7949 52.1521Z" fill="#3FA3FF"/>
<path d="M49.8066 52.1521H48.002C47.8025 52.1521 47.6113 52.0729 47.4702 51.9319C47.3292 51.7908 47.25 51.5996 47.25 51.4001C47.25 51.2007 47.3292 51.0095 47.4702 50.8684C47.6113 50.7274 47.8025 50.6482 48.002 50.6482H49.8066C50.0061 50.6482 50.1973 50.7274 50.3384 50.8684C50.4794 51.0095 50.5586 51.2007 50.5586 51.4001C50.5586 51.5996 50.4794 51.7908 50.3384 51.9319C50.1973 52.0729 50.0061 52.1521 49.8066 52.1521Z" fill="#3FA3FF"/>
<path d="M43.8105 52.1521H42.0059C41.8064 52.1521 41.6152 52.0729 41.4741 51.9319C41.3331 51.7908 41.2539 51.5996 41.2539 51.4001C41.2539 51.2007 41.3331 51.0095 41.4741 50.8684C41.6152 50.7274 41.8064 50.6482 42.0059 50.6482H43.8105C44.01 50.6482 44.2012 50.7274 44.3423 50.8684C44.4833 51.0095 44.5625 51.2007 44.5625 51.4001C44.5625 51.5996 44.4833 51.7908 44.3423 51.9319C44.2012 52.0729 44.01 52.1521 43.8105 52.1521Z" fill="#3FA3FF"/>
<path d="M37.8164 52.1521H36.0117C35.8123 52.1521 35.621 52.0729 35.48 51.9319C35.339 51.7908 35.2598 51.5996 35.2598 51.4001C35.2598 51.2007 35.339 51.0095 35.48 50.8684C35.621 50.7274 35.8123 50.6482 36.0117 50.6482H37.8164C38.0158 50.6482 38.2071 50.7274 38.3481 50.8684C38.4891 51.0095 38.5684 51.2007 38.5684 51.4001C38.5684 51.5996 38.4891 51.7908 38.3481 51.9319C38.2071 52.0729 38.0158 52.1521 37.8164 52.1521Z" fill="#3FA3FF"/>
<path d="M31.8203 52.1521H30.0156C29.8162 52.1521 29.6249 52.0729 29.4839 51.9319C29.3429 51.7908 29.2637 51.5996 29.2637 51.4001C29.2637 51.2007 29.3429 51.0095 29.4839 50.8684C29.6249 50.7274 29.8162 50.6482 30.0156 50.6482H31.8203C32.0197 50.6482 32.211 50.7274 32.352 50.8684C32.493 51.0095 32.5723 51.2007 32.5723 51.4001C32.5723 51.5996 32.493 51.7908 32.352 51.9319C32.211 52.0729 32.0197 52.1521 31.8203 52.1521Z" fill="#3FA3FF"/>
<path d="M25.8223 52.1521H24.0176C23.8181 52.1521 23.6269 52.0729 23.4859 51.9319C23.3448 51.7908 23.2656 51.5996 23.2656 51.4001C23.2656 51.2007 23.3448 51.0095 23.4859 50.8684C23.6269 50.7274 23.8181 50.6482 24.0176 50.6482H25.8223C26.0217 50.6482 26.213 50.7274 26.354 50.8684C26.495 51.0095 26.5742 51.2007 26.5742 51.4001C26.5742 51.5996 26.495 51.7908 26.354 51.9319C26.213 52.0729 26.0217 52.1521 25.8223 52.1521Z" fill="#3FA3FF"/>
<path d="M19.8262 52.1521H18.0215C17.8221 52.1521 17.6308 52.0729 17.4898 51.9319C17.3488 51.7908 17.2695 51.5996 17.2695 51.4001C17.2695 51.2007 17.3488 51.0095 17.4898 50.8684C17.6308 50.7274 17.8221 50.6482 18.0215 50.6482H19.8262C20.0256 50.6482 20.2169 50.7274 20.3579 50.8684C20.4989 51.0095 20.5781 51.2007 20.5781 51.4001C20.5781 51.5996 20.4989 51.7908 20.3579 51.9319C20.2169 52.0729 20.0256 52.1521 19.8262 52.1521Z" fill="#3FA3FF"/>
<path d="M57.6153 66.2348C63.6893 66.2348 68.6133 61.3108 68.6133 55.2367C68.6133 49.1627 63.6893 44.2386 57.6153 44.2386C51.5412 44.2386 46.6172 49.1627 46.6172 55.2367C46.6172 61.3108 51.5412 66.2348 57.6153 66.2348Z" fill="#0DC181"/>
<path d="M26.699 23.1616V18.7432C26.699 18.5437 26.6198 18.3525 26.4787 18.2115C26.3377 18.0704 26.1465 17.9912 25.947 17.9912H25.1289C24.9295 17.9912 24.7382 18.0704 24.5972 18.2115C24.4562 18.3525 24.377 18.5437 24.377 18.7432C24.377 18.9426 24.4562 19.1339 24.5972 19.2749C24.7382 19.4159 24.9295 19.4951 25.1289 19.4951H25.1951V23.1616H26.699Z" fill="#0C1C5E"/>
<path d="M58.281 23.1616V18.7432C58.281 18.5437 58.2018 18.3525 58.0608 18.2115C57.9198 18.0704 57.7285 17.9912 57.5291 17.9912H56.7109C56.5115 17.9912 56.3202 18.0704 56.1792 18.2115C56.0382 18.3525 55.959 18.5437 55.959 18.7432C55.959 18.9426 56.0382 19.1339 56.1792 19.2749C56.3202 19.4159 56.5115 19.4951 56.7109 19.4951H56.7771V23.1616H58.281Z" fill="#0C1C5E"/>
<path d="M57.6068 63.3125C62.0895 63.3125 65.7234 59.6786 65.7234 55.1959C65.7234 50.7133 62.0895 47.0793 57.6068 47.0793C53.1242 47.0793 49.4902 50.7133 49.4902 55.1959C49.4902 59.6786 53.1242 63.3125 57.6068 63.3125Z" fill="white"/>
<path d="M58.6532 59.1997H55.7958C55.5964 59.1997 55.4051 59.1204 55.2641 58.9794C55.1231 58.8384 55.0438 58.6471 55.0438 58.4477C55.0438 58.2483 55.1231 58.057 55.2641 57.916C55.4051 57.775 55.5964 57.6957 55.7958 57.6957H58.6532C58.7683 57.7006 58.8832 57.6821 58.991 57.6414C59.0987 57.6007 59.1971 57.5386 59.2803 57.4588C59.3634 57.3791 59.4296 57.2834 59.4748 57.1774C59.52 57.0715 59.5433 56.9575 59.5433 56.8423C59.5433 56.7271 59.52 56.6131 59.4748 56.5071C59.4296 56.4012 59.3634 56.3054 59.2803 56.2257C59.1971 56.146 59.0987 56.0839 58.991 56.0432C58.8832 56.0025 58.7683 55.984 58.6532 55.9888H56.5778C56.2632 55.9968 55.9502 55.9417 55.6573 55.8268C55.3643 55.7119 55.0973 55.5395 54.872 55.3198C54.6467 55.1001 54.4677 54.8376 54.3454 54.5476C54.2231 54.2576 54.1602 53.9461 54.1602 53.6314C54.1602 53.3168 54.2231 53.0053 54.3454 52.7153C54.4677 52.4253 54.6467 52.1628 54.872 51.9431C55.0973 51.7234 55.3643 51.551 55.6573 51.4361C55.9502 51.3212 56.2632 51.2661 56.5778 51.2741H59.4353C59.6347 51.2741 59.8259 51.3533 59.967 51.4943C60.108 51.6353 60.1872 51.8266 60.1872 52.026C60.1872 52.2255 60.108 52.4167 59.967 52.5577C59.8259 52.6987 59.6347 52.778 59.4353 52.778H56.5778C56.4627 52.7731 56.3479 52.7916 56.2401 52.8324C56.1323 52.8731 56.0339 52.9351 55.9508 53.0149C55.8676 53.0946 55.8015 53.1903 55.7563 53.2963C55.7111 53.4022 55.6878 53.5162 55.6878 53.6314C55.6878 53.7466 55.7111 53.8606 55.7563 53.9666C55.8015 54.0726 55.8676 54.1683 55.9508 54.248C56.0339 54.3277 56.1323 54.3898 56.2401 54.4305C56.3479 54.4712 56.4627 54.4897 56.5778 54.4849H58.6532C58.9678 54.477 59.2808 54.5321 59.5738 54.647C59.8667 54.7619 60.1337 54.9342 60.359 55.1539C60.5843 55.3736 60.7634 55.6362 60.8856 55.9261C61.0079 56.2161 61.0709 56.5276 61.0709 56.8423C61.0709 57.157 61.0079 57.4685 60.8856 57.7584C60.7634 58.0484 60.5843 58.311 60.359 58.5306C60.1337 58.7503 59.8667 58.9227 59.5738 59.0376C59.2808 59.1525 58.9678 59.2076 58.6532 59.1997Z" fill="#0DC181"/>
<path d="M57.6152 60.395C57.4158 60.395 57.2245 60.3158 57.0835 60.1748C56.9425 60.0338 56.8633 59.8425 56.8633 59.6431V50.8302C56.8633 50.6308 56.9425 50.4395 57.0835 50.2985C57.2245 50.1575 57.4158 50.0782 57.6152 50.0782C57.8147 50.0782 58.0059 50.1575 58.1469 50.2985C58.288 50.4395 58.3672 50.6308 58.3672 50.8302V59.6431C58.3672 59.8425 58.288 60.0338 58.1469 60.1748C58.0059 60.3158 57.8147 60.395 57.6152 60.395Z" fill="#0DC181"/>
<path d="M23.2654 3.00757C23.1178 3.00637 22.9739 2.96178 22.8515 2.87936C22.7291 2.79693 22.6336 2.68032 22.577 2.54404C22.5204 2.40776 22.5052 2.25784 22.5332 2.11295C22.5612 1.96807 22.6312 1.83462 22.7345 1.72924L24.2384 0.225339C24.3822 0.106822 24.5648 0.0458954 24.7509 0.0543672C24.9371 0.0628391 25.1134 0.140106 25.2458 0.271193C25.3782 0.40228 25.4572 0.577851 25.4675 0.763878C25.4779 0.949906 25.4188 1.13314 25.3017 1.27807L23.7978 2.78198C23.7283 2.85285 23.6455 2.90927 23.5541 2.94799C23.4628 2.98671 23.3646 3.00695 23.2654 3.00757Z" fill="#FF6C6C"/>
<path d="M67.1077 42.8383C66.9592 42.8379 66.8142 42.7937 66.6908 42.711C66.5675 42.6284 66.4713 42.5111 66.4146 42.3739C66.3578 42.2367 66.3429 42.0857 66.3718 41.9401C66.4007 41.7944 66.472 41.6606 66.5768 41.5554L68.0807 40.0515C68.2226 39.9146 68.4125 39.8388 68.6097 39.8405C68.8068 39.8422 68.9954 39.9213 69.1348 40.0607C69.2743 40.2001 69.3533 40.3887 69.3551 40.5859C69.3568 40.783 69.281 40.973 69.144 41.1148L67.6401 42.6187C67.5701 42.6885 67.4871 42.7438 67.3958 42.7815C67.3044 42.8192 67.2065 42.8385 67.1077 42.8383Z" fill="#FF6C6C"/>
<path d="M23.4144 64.1201C23.2659 64.1198 23.1208 64.0755 22.9975 63.9929C22.8741 63.9102 22.778 63.7929 22.7212 63.6557C22.6644 63.5185 22.6495 63.3676 22.6784 63.2219C22.7073 63.0763 22.7786 62.9425 22.8835 62.8373L24.3874 61.3334C24.5292 61.1964 24.7191 61.1206 24.9163 61.1223C25.1135 61.1241 25.3021 61.2031 25.4415 61.3426C25.5809 61.482 25.66 61.6706 25.6617 61.8677C25.6634 62.0649 25.5876 62.2548 25.4506 62.3967L23.9467 63.9006C23.8768 63.9703 23.7937 64.0257 23.7024 64.0633C23.611 64.101 23.5132 64.1203 23.4144 64.1201Z" fill="#0DC181"/>
<path d="M44.0189 63.2664C43.92 63.2666 43.8222 63.2473 43.7308 63.2096C43.6395 63.1719 43.5564 63.1166 43.4865 63.0469L42.515 62.0753L41.5419 63.0469C41.4001 63.1838 41.2102 63.2596 41.013 63.2579C40.8158 63.2562 40.6272 63.1771 40.4878 63.0377C40.3484 62.8983 40.2693 62.7097 40.2676 62.5125C40.2659 62.3154 40.3417 62.1254 40.4787 61.9836L41.9826 60.4797C42.1236 60.3387 42.3148 60.2595 42.5142 60.2595C42.7136 60.2595 42.9048 60.3387 43.0458 60.4797L44.5497 61.9836C44.6907 62.1246 44.7699 62.3158 44.7699 62.5152C44.7699 62.7146 44.6907 62.9058 44.5497 63.0469C44.4803 63.1169 44.3975 63.1723 44.3064 63.21C44.2152 63.2477 44.1175 63.2669 44.0189 63.2664Z" fill="#6C6CFF"/>
<path d="M60.326 3.00739C60.227 3.00658 60.1292 2.98624 60.0381 2.94753C59.947 2.90882 59.8644 2.8525 59.7951 2.78181L58.8221 1.80878L57.8506 2.78181C57.7845 2.86359 57.702 2.93061 57.6084 2.97854C57.5149 3.02647 57.4123 3.05425 57.3073 3.06007C57.2023 3.0659 57.0973 3.04965 56.999 3.01236C56.9007 2.97508 56.8113 2.9176 56.7366 2.84363C56.6619 2.76965 56.6035 2.68084 56.5652 2.58291C56.527 2.48498 56.5097 2.38011 56.5144 2.27508C56.5192 2.17006 56.546 2.0672 56.593 1.97315C56.64 1.8791 56.7062 1.79595 56.7873 1.72907L58.2912 0.225167C58.4322 0.0841971 58.6234 0.00500488 58.8228 0.00500488C59.0222 0.00500488 59.2135 0.0841971 59.3545 0.225167L60.8584 1.72907C60.9633 1.83432 61.0347 1.96829 61.0635 2.11408C61.0923 2.25986 61.0773 2.41092 61.0203 2.54818C60.9634 2.68544 60.867 2.80274 60.7434 2.88527C60.6199 2.96781 60.4746 3.01187 60.326 3.0119V3.00739Z" fill="#0DC181"/>
</g>
<defs>
<linearGradient id="paint0_linear_7779_65969" x1="-16.0918" y1="35.072" x2="108.884" y2="35.072" gradientUnits="userSpaceOnUse">
<stop offset="0.01" stop-color="#9494FF"/>
<stop offset="0.99" stop-color="#FFE8DC" stop-opacity="0"/>
</linearGradient>
<linearGradient id="paint1_linear_7779_65969" x1="41.328" y1="36.1644" x2="41.328" y2="5.84265" gradientUnits="userSpaceOnUse">
<stop stop-color="#0DC181" stop-opacity="0.38"/>
<stop offset="1" stop-color="#0DC181" stop-opacity="0"/>
</linearGradient>
<clipPath id="clip0_7779_65969">
<rect width="77" height="69.9301" fill="white"/>
</clipPath>
</defs>
</svg>
