<svg width="17" height="17" viewBox="0 0 17 17" fill="none" xmlns="http://www.w3.org/2000/svg">
<path fill-rule="evenodd" clip-rule="evenodd" d="M15.1273 9.6223C15.5856 9.12549 16.0528 8.61896 16.0528 8.02636C16.0528 7.4348 15.5952 6.94257 15.1417 6.45456C14.8201 6.10855 14.5004 5.76466 14.3473 5.389C14.1935 5.01188 14.1769 4.53106 14.1605 4.05198C14.1374 3.38076 14.1144 2.71294 13.7143 2.33846C13.3158 1.96553 12.6472 1.93103 11.9844 1.89683C11.5067 1.87218 11.032 1.84768 10.6637 1.6967C10.3046 1.54945 9.9704 1.23935 9.63057 0.924021C9.13856 0.467482 8.63475 0 8.02638 0C7.41999 0 6.92666 0.458317 6.4383 0.912015C6.09829 1.22789 5.76068 1.54153 5.38902 1.6967C5.00937 1.85519 4.5339 1.87306 4.05916 1.89089C3.40161 1.9156 2.74545 1.94025 2.34724 2.33846C1.947 2.7387 1.92114 3.41149 1.89556 4.07711C1.87732 4.55188 1.85921 5.02301 1.7055 5.389C1.55564 5.74581 1.24647 6.07656 0.932009 6.41297C0.471686 6.90543 0 7.41004 0 8.02636C0 8.63562 0.460931 9.12662 0.916171 9.61155C1.23605 9.95229 1.55312 10.29 1.7055 10.6637C1.85928 11.0409 1.87581 11.5217 1.89228 12.0008C1.91536 12.672 1.93832 13.3398 2.33844 13.7143C2.73692 14.0872 3.40556 14.1217 4.06832 14.1559C4.54607 14.1806 5.02076 14.2051 5.38902 14.356C5.74862 14.5035 6.08321 14.8157 6.42349 15.1331C6.91509 15.5918 7.41854 16.0615 8.02638 16.0615C8.63221 16.0615 9.12519 15.601 9.61311 15.1452C9.95358 14.8272 10.2916 14.5114 10.6637 14.356C11.0444 14.1971 11.5215 14.178 11.9975 14.159C12.6537 14.1328 13.3081 14.1066 13.7055 13.7143C14.1057 13.3191 14.1316 12.6454 14.1572 11.9781C14.1754 11.5023 14.1936 11.0297 14.3473 10.6637C14.4982 10.3044 14.8106 9.96568 15.1273 9.6223ZM6.97637 11.3117L12.2568 6.78561L10.9553 5.26709L6.90238 8.74098L5.21209 7.45314L4 9.044L6.97637 11.3117Z" fill="#3365EF"/>
</svg>
