<svg width="17" height="24" viewBox="0 0 17 24" fill="none" xmlns="http://www.w3.org/2000/svg">
<path d="M8.43726 0.366455C8.18862 0.366455 7.95016 0.465227 7.77434 0.641042C7.59853 0.816858 7.49976 1.05531 7.49976 1.30396V2.30849C4.32351 2.76505 1.87476 5.50349 1.87476 8.80396V14.5696C1.87476 14.8977 1.7257 15.2005 1.50445 15.3196C0.950735 15.6134 0.511049 16.0838 0.255198 16.656C-0.000653548 17.2283 -0.058004 17.8696 0.0922517 18.4781C0.242507 19.0867 0.591757 19.6276 1.08455 20.015C1.57734 20.4024 2.18543 20.6141 2.81226 20.6165H14.0623C14.6905 20.6159 15.3005 20.405 15.795 20.0173C16.2894 19.6297 16.6398 19.0876 16.7903 18.4776C16.9408 17.8676 16.8827 17.2248 16.6253 16.6517C16.3679 16.0785 15.926 15.6081 15.3701 15.3154C15.1483 15.1986 14.9998 14.8977 14.9998 14.5654V8.80396C14.9998 5.50349 12.551 2.76505 9.37476 2.30849V1.30396C9.37476 1.05531 9.27599 0.816858 9.10017 0.641042C8.92436 0.465227 8.6859 0.366455 8.43726 0.366455Z" fill="#3FA3FF"/>
<path fill-rule="evenodd" clip-rule="evenodd" d="M5.5 20.6575C5.75968 22.2053 7.10584 23.3847 8.72748 23.3847C10.3491 23.3847 11.6953 22.2053 11.955 20.6575H5.5Z" fill="#E6F9FE"/>
</svg>
