<svg width="20" height="24" viewBox="0 0 20 24" fill="none" xmlns="http://www.w3.org/2000/svg">
<g clip-path="url(#clip0_539_5875)">
<path d="M9.73452 1C9.5066 1 9.28801 1.09054 9.12685 1.25171C8.96569 1.41287 8.87514 1.63145 8.87514 1.85938V2.7802C5.96358 3.19871 3.71889 5.70895 3.71889 8.73438V14.0195C3.71889 14.3203 3.58225 14.5979 3.37944 14.707C2.87187 14.9764 2.46883 15.4075 2.2343 15.9321C1.99977 16.4567 1.9472 17.0445 2.08493 17.6024C2.22266 18.1602 2.54281 18.6561 2.99454 19.0112C3.44626 19.3663 4.00367 19.5604 4.57827 19.5625H14.8908C15.4667 19.562 16.0259 19.3686 16.4791 19.0133C16.9324 18.6579 17.2536 18.1611 17.3915 17.6019C17.5295 17.0427 17.4762 16.4535 17.2402 15.9281C17.0043 15.4027 16.5992 14.9715 16.0896 14.7032C15.8864 14.5962 15.7501 14.3203 15.7501 14.0157V8.73438C15.7501 5.70895 13.5055 3.19871 10.5939 2.7802V1.85938C10.5939 1.63145 10.5034 1.41287 10.3422 1.25171C10.181 1.09054 9.96244 1 9.73452 1Z" fill="#3FA3FF"/>
<path fill-rule="evenodd" clip-rule="evenodd" d="M7.04102 19.6C7.27905 21.0188 8.51304 22.1 9.99954 22.1C11.486 22.1 12.72 21.0188 12.9581 19.6H7.04102Z" fill="#3365EF"/>
</g>
<defs>
<clipPath id="clip0_539_5875">
<rect width="15.4688" height="22" fill="white" transform="translate(2 1)"/>
</clipPath>
</defs>
</svg>
