<svg width="40" height="40" viewBox="0 0 40 40" fill="none" xmlns="http://www.w3.org/2000/svg">
<g clip-path="url(#clip0_7165_61962)">
<path opacity="0.1" d="M32.5 40H7.5C5.51088 40 3.60322 39.2098 2.1967 37.8033C0.790176 36.3968 0 34.4891 0 32.5L0 7.5C0 5.51088 0.790176 3.60322 2.1967 2.1967C3.60322 0.790176 5.51088 0 7.5 0L32.5 0C34.4891 0 36.3968 0.790176 37.8033 2.1967C39.2098 3.60322 40 5.51088 40 7.5V32.5C40 34.4891 39.2098 36.3968 37.8033 37.8033C36.3968 39.2098 34.4891 40 32.5 40Z" fill="#3FA3FF"/>
<path d="M20 21.4666C20.8045 20.6219 21.2522 19.4995 21.25 18.333V22.2166C20.9104 22.1258 20.5601 22.0808 20.2086 22.083H20V21.4666Z" fill="#3FA3FF"/>
<path d="M30 11.6664V24.1664C29.9988 24.608 29.8228 25.0311 29.5106 25.3434C29.1983 25.6556 28.7752 25.8316 28.3336 25.8328H24.5312C24.4723 25.3991 24.3458 24.9773 24.1563 24.5828H27.7063C27.8432 24.5831 27.9789 24.5564 28.1055 24.5042C28.2321 24.452 28.3472 24.3754 28.4442 24.2786C28.5411 24.1819 28.618 24.067 28.6705 23.9405C28.723 23.814 28.75 23.6784 28.75 23.5414V12.2914C28.75 12.0152 28.6403 11.7503 28.445 11.555C28.2497 11.3597 27.9848 11.25 27.7086 11.25C27.6811 11.2497 27.6538 11.2549 27.6284 11.2652C27.6029 11.2756 27.5798 11.291 27.5604 11.3104C27.541 11.3298 27.5256 11.3529 27.5152 11.3784C27.5049 11.4038 27.4997 11.4311 27.5 11.4586C27.4982 11.8449 27.3439 12.2148 27.0707 12.4879C26.7976 12.7611 26.4277 12.9153 26.0414 12.9172H23.9578C23.5717 12.9149 23.2021 12.7605 22.9292 12.4874C22.6563 12.2144 22.5021 11.8447 22.5 11.4586C22.5006 11.4312 22.4957 11.4039 22.4856 11.3784C22.4754 11.3529 22.4602 11.3297 22.4409 11.3102C22.4215 11.2908 22.3985 11.2754 22.3731 11.265C22.3476 11.2547 22.3204 11.2496 22.293 11.25C22.1561 11.2498 22.0205 11.2766 21.894 11.3288C21.7674 11.3811 21.6524 11.4577 21.5556 11.5545C21.4587 11.6512 21.3819 11.7661 21.3294 11.8925C21.277 12.019 21.25 12.1545 21.25 12.2914V18.3328C21.2505 17.1643 20.8032 16.0401 20 15.1914V11.6664C20.0012 11.2248 20.1772 10.8017 20.4894 10.4894C20.8017 10.1772 21.2248 10.0012 21.6664 10H28.3328C28.7745 10.0012 29.1977 10.1772 29.51 10.4894C29.8224 10.8016 29.9986 11.2248 30 11.6664Z" fill="#3FA3FF"/>
<path d="M25 17.5C24.7528 17.5 24.5111 17.4267 24.3055 17.2893C24.1 17.152 23.9398 16.9568 23.8452 16.7284C23.7505 16.4999 23.7258 16.2486 23.774 16.0061C23.8223 15.7637 23.9413 15.5409 24.1161 15.3661C24.2909 15.1913 24.5137 15.0723 24.7561 15.024C24.9986 14.9758 25.2499 15.0005 25.4784 15.0952C25.7068 15.1898 25.902 15.35 26.0393 15.5555C26.1767 15.7611 26.25 16.0028 26.25 16.25C26.25 16.5815 26.1183 16.8995 25.8839 17.1339C25.6495 17.3683 25.3315 17.5 25 17.5Z" fill="#3FA3FF"/>
<path d="M26.875 20.8335H23.125C22.9592 20.8335 22.8003 20.7676 22.6831 20.6504C22.5658 20.5332 22.5 20.3743 22.5 20.2085C22.5 19.7112 22.6975 19.2343 23.0492 18.8827C23.4008 18.531 23.8777 18.3335 24.375 18.3335H25.625C26.1223 18.3335 26.5992 18.531 26.9508 18.8827C27.3025 19.2343 27.5 19.7112 27.5 20.2085C27.5 20.3743 27.4342 20.5332 27.3169 20.6504C27.1997 20.7676 27.0408 20.8335 26.875 20.8335Z" fill="#3FA3FF"/>
<path d="M16.6666 21.6662C16.0072 21.6662 15.3627 21.4707 14.8145 21.1043C14.2663 20.738 13.839 20.2173 13.5867 19.6081C13.3344 18.999 13.2684 18.3287 13.3971 17.682C13.5258 17.0353 13.8434 16.4413 14.3097 15.9751C14.776 15.509 15.37 15.1915 16.0167 15.063C16.6634 14.9344 17.3337 15.0006 17.9429 15.253C18.552 15.5054 19.0726 15.9328 19.4388 16.4811C19.805 17.0295 20.0004 17.674 20.0002 18.3334C19.999 19.2171 19.6473 20.0642 19.0224 20.689C18.3975 21.3137 17.5503 21.6652 16.6666 21.6662Z" fill="#3365EF"/>
<path d="M22.7086 29.9999H10.625C10.4592 29.9999 10.3003 29.9341 10.1831 29.8168C10.0658 29.6996 10 29.5407 10 29.3749V26.4585C10 25.6297 10.3292 24.8348 10.9153 24.2488C11.5013 23.6627 12.2962 23.3335 13.125 23.3335H20.2086C21.0374 23.3335 21.8323 23.6627 22.4183 24.2488C23.0044 24.8348 23.3336 25.6297 23.3336 26.4585V29.3749C23.3336 29.5407 23.2677 29.6996 23.1505 29.8168C23.0333 29.9341 22.8744 29.9999 22.7086 29.9999Z" fill="#3365EF"/>
</g>
<defs>
<clipPath id="clip0_7165_61962">
<rect width="40" height="40" fill="white"/>
</clipPath>
</defs>
</svg>

