<svg width="45" height="40" viewBox="0 0 45 40" fill="none" xmlns="http://www.w3.org/2000/svg">
<path d="M19.1802 1.91941L0.518022 34.2404C0.181143 34.8242 0.00383247 35.4863 0.00390627 36.1603C0.00398007 36.8343 0.181436 37.4963 0.518443 38.08C0.855449 38.6637 1.34014 39.1484 1.9238 39.4854C2.50747 39.8224 3.16955 39.9999 3.84353 40H41.1603C41.8344 40 42.4965 39.8227 43.0802 39.4856C43.6639 39.1486 44.1486 38.6639 44.4856 38.0801C44.8225 37.4963 44.9998 36.8342 44.9996 36.1601C44.9994 35.4861 44.8218 34.824 44.4846 34.2404L25.8287 1.91941C25.4917 1.33597 25.0071 0.851487 24.4236 0.514651C23.8401 0.177815 23.1782 0.000488281 22.5044 0.000488281C21.8307 0.000488281 21.1688 0.177815 20.5853 0.514651C20.0017 0.851487 19.5171 1.33597 19.1802 1.91941Z" fill="#8CA4BA"/>
<path d="M22.7467 11.8887H22.2597C21.0613 11.8887 20.0898 12.8601 20.0898 14.0585V24.4319C20.0898 25.6303 21.0613 26.6018 22.2597 26.6018H22.7467C23.9451 26.6018 24.9166 25.6303 24.9166 24.4319V14.0585C24.9166 12.8601 23.9451 11.8887 22.7467 11.8887Z" fill="#414157"/>
<path d="M22.5038 34.829C23.8371 34.829 24.9178 33.7482 24.9178 32.415C24.9178 31.0818 23.8371 30.001 22.5038 30.001C21.1706 30.001 20.0898 31.0818 20.0898 32.415C20.0898 33.7482 21.1706 34.829 22.5038 34.829Z" fill="#414157"/>
</svg>
