<svg width="17" height="17" viewBox="0 0 17 17" fill="none" xmlns="http://www.w3.org/2000/svg">
<g clip-path="url(#clip0_7710_63011)">
<path d="M15.5553 12.1838C15.9569 12.1838 16.2825 11.8583 16.2825 11.4567C16.2825 11.0551 15.9569 10.7295 15.5553 10.7295C15.1537 10.7295 14.8281 11.0551 14.8281 11.4567C14.8281 11.8583 15.1537 12.1838 15.5553 12.1838Z" fill="black"/>
<path d="M13.9694 14.5262C14.371 14.5262 14.6965 14.2007 14.6965 13.7991C14.6965 13.3975 14.371 13.0719 13.9694 13.0719C13.5678 13.0719 13.2422 13.3975 13.2422 13.7991C13.2422 14.2007 13.5678 14.5262 13.9694 14.5262Z" fill="black"/>
<path d="M16.1022 9.39317C16.5038 9.39317 16.8293 9.06761 16.8293 8.66601C16.8293 8.26441 16.5038 7.93884 16.1022 7.93884C15.7006 7.93884 15.375 8.26441 15.375 8.66601C15.375 9.06761 15.7006 9.39317 16.1022 9.39317Z" fill="black"/>
<path d="M12.3333 15.5055C12.3976 15.1091 12.1285 14.7356 11.732 14.6712C11.3356 14.6069 10.9621 14.8761 10.8978 15.2725C10.8334 15.6689 11.1026 16.0424 11.499 16.1067C11.8954 16.1711 12.269 15.9019 12.3333 15.5055Z" fill="black"/>
<path d="M8.83277 15.2088C5.21911 15.2132 2.28386 12.2861 2.27943 8.6711C2.275 5.05607 5.20206 2.12219 8.81709 2.11776C10.3172 2.11599 11.7723 2.62953 12.939 3.57243H11.7418C11.6463 3.57243 11.5517 3.59123 11.4635 3.62778C11.3753 3.66432 11.2951 3.71788 11.2276 3.78541C11.1601 3.85293 11.1065 3.93309 11.07 4.02132C11.0334 4.10954 11.0146 4.2041 11.0146 4.29959C11.0146 4.39508 11.0334 4.48964 11.07 4.57786C11.1065 4.66609 11.1601 4.74625 11.2276 4.81377C11.2951 4.8813 11.3753 4.93486 11.4635 4.9714C11.5517 5.00795 11.6463 5.02675 11.7418 5.02675H14.6511C14.844 5.02675 15.0289 4.95014 15.1653 4.81377C15.3017 4.6774 15.3783 4.49245 15.3783 4.29959V1.39059C15.3804 1.29375 15.3631 1.19747 15.3275 1.10739C15.2919 1.01731 15.2386 0.935248 15.1709 0.866018C15.1031 0.796789 15.0223 0.741785 14.933 0.704233C14.8437 0.666682 14.7478 0.647339 14.6509 0.647339C14.5541 0.647339 14.4582 0.666682 14.3689 0.704233C14.2796 0.741785 14.1987 0.796789 14.131 0.866018C14.0632 0.935248 14.01 1.01731 13.9744 1.10739C13.9388 1.19747 13.9215 1.29375 13.9236 1.39059V2.50401C10.5199 -0.309875 5.47956 0.168083 2.66568 3.57174C-0.148204 6.9754 0.329755 12.0158 3.73341 14.83C5.16799 16.016 6.9714 16.6644 8.83277 16.6634C9.02294 16.6593 9.20394 16.5809 9.33698 16.4449C9.47002 16.309 9.54453 16.1263 9.54453 15.9361C9.54453 15.7459 9.47002 15.5632 9.33698 15.4273C9.20394 15.2913 9.02294 15.2129 8.83277 15.2088Z" fill="black"/>
<path d="M11.5286 11.3591C11.5961 11.2916 11.6497 11.2115 11.6862 11.1233C11.7228 11.0351 11.7416 10.9405 11.7416 10.8451C11.7416 10.7496 11.7228 10.655 11.6862 10.5668C11.6497 10.4786 11.5961 10.3985 11.5286 10.331L9.5598 8.36219V4.29955C9.5598 4.1067 9.48319 3.92174 9.34682 3.78537C9.21045 3.649 9.02549 3.57239 8.83263 3.57239C8.63978 3.57239 8.45482 3.649 8.31845 3.78537C8.18208 3.92174 8.10547 4.1067 8.10547 4.29955V8.66322C8.10547 8.75871 8.12429 8.85326 8.16085 8.94147C8.19741 9.02968 8.25099 9.10982 8.31854 9.17731L10.5004 11.3591C10.5679 11.4267 10.648 11.4803 10.7362 11.5168C10.8244 11.5534 10.919 11.5722 11.0145 11.5722C11.11 11.5722 11.2045 11.5534 11.2927 11.5168C11.3809 11.4803 11.4611 11.4267 11.5286 11.3591Z" fill="black"/>
</g>
<defs>
<clipPath id="clip0_7710_63011">
<rect width="15.9986" height="16" fill="white" transform="translate(0.832031 0.663086)"/>
</clipPath>
</defs>
</svg>
