<svg width="24" height="24" viewBox="0 0 24 24" fill="none" xmlns="http://www.w3.org/2000/svg">
<path d="M12 0.857147C5.85405 0.857147 0.857178 5.85402 0.857178 12C0.857178 18.146 5.85405 23.1429 12 23.1429C18.146 23.1429 23.1429 18.146 23.1429 12C23.1429 5.85402 18.146 0.857147 12 0.857147ZM12 21.2016C6.92481 21.2016 2.79847 17.0752 2.79847 12C2.79847 6.92478 6.92481 2.79844 12 2.79844C17.0753 2.79844 21.2016 6.92478 21.2016 12C21.2016 17.0752 17.0753 21.2016 12 21.2016Z" fill="#3FA3FF"/>
<path d="M17.1878 6.81155C17.0485 6.67226 16.8308 6.62874 16.6567 6.70709L9.87525 9.61468C9.76208 9.66691 9.66632 9.75396 9.62279 9.86713L6.7152 16.6486C6.63686 16.8314 6.68038 17.0403 6.81967 17.1796C6.91543 17.2667 7.0373 17.3189 7.15918 17.3189C7.22011 17.3189 7.28976 17.3015 7.3507 17.2841L14.1322 14.3765C14.2453 14.3243 14.3411 14.2372 14.3846 14.1241L17.2922 7.34258C17.3706 7.15977 17.327 6.95084 17.1878 6.81155ZM11.9994 12.9662C11.4683 12.9662 11.0331 12.531 11.0331 11.9999C11.0331 11.4689 11.4683 11.0336 11.9994 11.0336C12.5304 11.0336 12.9657 11.4689 12.9657 11.9999C12.9657 12.531 12.5304 12.9662 11.9994 12.9662Z" fill="#E6F9FE"/>
</svg>
