<svg width="344" height="344" viewBox="0 0 344 344" fill="none" xmlns="http://www.w3.org/2000/svg">
<path d="M306.433 274.27C300.411 275.575 293.721 276.228 287.03 276.228C242.202 276.228 194.03 252.076 155.893 215.522C236.181 186.149 279.001 138.498 279.001 84.3202C279.001 36.6696 235.512 0.768555 172.619 0.768555C65.5686 0.768555 0 79.7509 0 175.052C0 276.228 77.6118 340.197 171.95 340.197C234.174 340.197 279.001 316.698 307.102 274.922L306.433 274.27ZM110.396 23.6147C139.166 23.6147 177.972 71.918 177.972 128.707C177.972 161.997 170.612 188.107 151.878 211.606C111.734 171.136 82.9644 116.305 82.9644 62.1268C82.9644 37.9752 93.0004 23.6147 110.396 23.6147Z" fill="black"/>
</svg>
