<svg width="14" height="16" viewBox="0 0 14 16" fill="none" xmlns="http://www.w3.org/2000/svg">
<path d="M13.1599 8.37603C12.9914 8.37603 12.8297 8.44378 12.7105 8.56436C12.5913 8.68495 12.5243 8.8485 12.5243 9.01903C12.5293 10.1318 12.2119 11.2216 11.6113 12.1539C11.0108 13.0862 10.1534 13.8201 9.14512 14.265C8.13683 14.7098 7.0218 14.8462 5.93776 14.6571C4.85373 14.4681 3.84819 13.9619 3.04536 13.2012C2.24253 12.4405 1.67759 11.4586 1.42032 10.3767C1.16305 9.29478 1.22472 8.16035 1.59772 7.11352C1.97072 6.06669 2.63871 5.15332 3.51916 4.48625C4.39961 3.81918 5.45396 3.42763 6.55195 3.35998L5.22939 5.71238C5.1537 5.86027 5.13757 6.03206 5.18437 6.19172C5.23118 6.35138 5.33729 6.4865 5.48044 6.56874C5.6236 6.65097 5.79267 6.67394 5.9522 6.63281C6.11173 6.59168 6.24931 6.48965 6.33609 6.34814L8.18933 3.05597V3.04874L8.26327 2.91845C8.34596 2.76991 8.36779 2.59451 8.32409 2.42987C8.27912 2.26539 8.17146 2.12569 8.02476 2.04142L4.6343 0.0895258C4.48754 0.00537957 4.31375 -0.0163471 4.15116 0.0291266C3.98857 0.0746002 3.85049 0.183547 3.76731 0.332002C3.68412 0.480458 3.66265 0.656262 3.7076 0.820736C3.75255 0.985211 3.86026 1.12488 4.00702 1.20903L5.65991 2.15482C4.36965 2.39311 3.17328 2.99851 2.21103 3.90006C1.24877 4.80161 0.560501 5.96195 0.226897 7.24507C-0.106707 8.52819 -0.0718212 9.88092 0.327461 11.1447C0.726744 12.4085 1.47388 13.5309 2.48129 14.3805C3.48871 15.2301 4.71465 15.7716 6.01543 15.9415C7.31621 16.1114 8.63792 15.9027 9.82563 15.3399C11.0133 14.7771 12.0179 13.8834 12.7214 12.7637C13.425 11.644 13.7984 10.3446 13.798 9.01782C13.7961 8.84736 13.728 8.6845 13.6084 8.56441C13.4888 8.44432 13.3273 8.37666 13.1587 8.37603H13.1599Z" fill="#3FA3FF"/>
</svg>
