<svg width="13" height="16" viewBox="0 0 13 16" fill="none" xmlns="http://www.w3.org/2000/svg">
<path d="M12.0823 3.37383C11.606 2.45384 10.9013 1.6659 10.033 1.08246C9.16461 0.499023 8.16049 0.138799 7.11291 0.0349054C6.63893 -0.0116351 6.16139 -0.0116351 5.68742 0.0349054C4.63977 0.138737 3.63557 0.498933 2.76715 1.08238C1.89873 1.66582 1.19395 2.45378 0.717621 3.37383C0.118532 4.54764 -0.112644 5.86887 0.053205 7.17114C0.219054 8.47341 0.774513 9.69849 1.64963 10.6921L5.91473 15.7753C6.02051 15.9014 6.17309 15.9811 6.33889 15.997C6.5047 16.0129 6.67014 15.9635 6.79884 15.8599C6.8304 15.8346 6.85933 15.8062 6.88521 15.7753L11.1523 10.6921C12.0272 9.69821 12.5824 8.4729 12.7479 7.17048C12.9134 5.86805 12.6818 4.54678 12.0823 3.37306V3.37383ZM6.39997 8.61511C5.90303 8.61511 5.41725 8.47074 5.00406 8.20026C4.59086 7.92977 4.26882 7.54533 4.07865 7.09553C3.88848 6.64573 3.83872 6.15078 3.93567 5.67328C4.03262 5.19578 4.27192 4.75716 4.62331 4.4129C4.9747 4.06864 5.4224 3.8342 5.90979 3.73922C6.39718 3.64423 6.90237 3.69298 7.36149 3.87929C7.8206 4.06561 8.21301 4.38112 8.4891 4.78592C8.76518 5.19073 8.91254 5.66666 8.91254 6.15351C8.91254 6.80637 8.64782 7.43249 8.17663 7.89413C7.70543 8.35577 7.06634 8.61511 6.39997 8.61511Z" fill="url(#paint0_linear_4530_49893)"/>
<defs>
<linearGradient id="paint0_linear_4530_49893" x1="6.40045" y1="0" x2="6" y2="19.4999" gradientUnits="userSpaceOnUse">
<stop stop-color="#5C6E9F"/>
<stop offset="1" stop-color="#5C6E9F" stop-opacity="0.11"/>
</linearGradient>
</defs>
</svg>
