<svg width="13" height="16" viewBox="0 0 13 16" fill="none" xmlns="http://www.w3.org/2000/svg">
<path d="M12.0823 3.37395C11.606 2.45396 10.9013 1.66602 10.033 1.08258C9.16461 0.499145 8.16049 0.138921 7.11291 0.0350275C6.63893 -0.0115131 6.16139 -0.0115131 5.68742 0.0350275C4.63977 0.138859 3.63557 0.499055 2.76715 1.0825C1.89873 1.66594 1.19395 2.45391 0.717621 3.37395C0.118532 4.54776 -0.112644 5.86899 0.053205 7.17126C0.219054 8.47353 0.774513 9.69861 1.64963 10.6922L5.91473 15.7754C6.02051 15.9015 6.17309 15.9812 6.33889 15.9971C6.5047 16.013 6.67014 15.9637 6.79884 15.86C6.8304 15.8347 6.85933 15.8063 6.88521 15.7754L11.1523 10.6922C12.0272 9.69833 12.5824 8.47302 12.7479 7.1706C12.9134 5.86818 12.6818 4.5469 12.0823 3.37319V3.37395ZM6.39997 8.61523C5.90303 8.61523 5.41725 8.47086 5.00406 8.20038C4.59086 7.9299 4.26882 7.54545 4.07865 7.09565C3.88848 6.64585 3.83872 6.15091 3.93567 5.6734C4.03262 5.1959 4.27192 4.75728 4.62331 4.41302C4.9747 4.06876 5.4224 3.83432 5.90979 3.73934C6.39718 3.64436 6.90237 3.6931 7.36149 3.87942C7.8206 4.06573 8.21301 4.38124 8.4891 4.78605C8.76518 5.19085 8.91254 5.66678 8.91254 6.15364C8.91254 6.80649 8.64782 7.43261 8.17663 7.89425C7.70543 8.35589 7.06634 8.61523 6.39997 8.61523Z" fill="url(#paint0_linear_3926_59461)"/>
<defs>
<linearGradient id="paint0_linear_3926_59461" x1="6.40045" y1="0.00012207" x2="6" y2="19.5" gradientUnits="userSpaceOnUse">
<stop stop-color="white"/>
<stop offset="1" stop-color="white" stop-opacity="0"/>
</linearGradient>
</defs>
</svg>

