<svg width="18" height="17" viewBox="0 0 18 17" fill="none" xmlns="http://www.w3.org/2000/svg">
<path d="M15.4649 2.36188C13.3578 0.255025 9.92954 0.255025 7.82236 2.36188L1.27134 8.91389C0.561101 9.64061 0.166065 10.6181 0.17194 11.6342C0.177814 12.6503 0.584125 13.6232 1.30272 14.3416C2.02131 15.0601 2.99421 15.4662 4.01035 15.4719C5.02648 15.4776 6.00388 15.0824 6.73047 14.372L12.7354 8.36712C13.1697 7.93278 13.4137 7.34369 13.4137 6.72945C13.4137 6.1152 13.1697 5.52611 12.7354 5.09177C12.301 4.65744 11.712 4.41343 11.0977 4.41343C10.4835 4.41343 9.89437 4.65744 9.46003 5.09177L5.53325 9.01856C5.45967 9.0898 5.40099 9.17498 5.36065 9.26912C5.32032 9.36327 5.29912 9.4645 5.29829 9.56692C5.29746 9.66934 5.31702 9.7709 5.35584 9.86569C5.39465 9.96047 5.45194 10.0466 5.52436 10.119C5.59679 10.1914 5.6829 10.2487 5.77768 10.2875C5.87247 10.3263 5.97403 10.3459 6.07645 10.3451C6.17887 10.3443 6.2801 10.3231 6.37425 10.2827C6.46839 10.2424 6.55357 10.1837 6.62481 10.1101L10.5519 6.18334C10.6967 6.03854 10.8931 5.9572 11.0979 5.9572C11.3026 5.9572 11.499 6.03854 11.6438 6.18334C11.7886 6.32813 11.87 6.52451 11.87 6.72928C11.87 6.93405 11.7886 7.13043 11.6438 7.27523L5.63891 13.2801C5.20439 13.7145 4.61512 13.9585 4.00072 13.9584C3.38632 13.9583 2.79712 13.7142 2.36273 13.2796C1.92835 12.8451 1.68437 12.2559 1.68447 11.6415C1.68456 11.0271 1.92872 10.4379 2.36323 10.0035L8.91425 3.45377C9.63831 2.72984 10.6203 2.3232 11.6442 2.32329C12.668 2.32339 13.65 2.73021 14.3739 3.45427C15.0978 4.17832 15.5044 5.1603 15.5044 6.18418C15.5043 7.20806 15.0974 8.18997 14.3734 8.91389L7.82236 15.4639C7.67757 15.6087 7.59622 15.8051 7.59622 16.0099C7.59622 16.2146 7.67757 16.411 7.82236 16.5558C7.96715 16.7006 8.16354 16.782 8.36831 16.782C8.57308 16.782 8.76946 16.7006 8.91425 16.5558L15.4649 10.0035C15.9668 9.50163 16.3649 8.90586 16.6365 8.25018C16.9081 7.59449 17.0479 6.89173 17.0479 6.18201C17.0479 5.4723 16.9081 4.76954 16.6365 4.11385C16.3649 3.45817 15.9668 2.8624 15.4649 2.36056V2.36188Z" fill="white"/>
</svg>


