<svg width="21" height="18" viewBox="0 0 21 18" fill="none" xmlns="http://www.w3.org/2000/svg">
<path d="M10.0357 17.4743C9.95469 17.4716 9.87537 17.4502 9.80397 17.4119C9.70593 17.3584 4.74412e-05 11.6008 4.74412e-05 5.72738C-0.00463877 4.57811 0.337952 3.45422 0.98292 2.50299C1.62789 1.55175 2.54516 0.817524 3.61454 0.396514C4.68393 -0.024496 5.85554 -0.112654 6.97588 0.143588C8.09623 0.39983 9.11305 0.988518 9.8931 1.83253L10.0179 1.96624L10.1694 1.83253C10.95 0.996743 11.9641 0.415314 13.0797 0.163933C14.1954 -0.0874478 15.3608 0.00287011 16.4244 0.423115C17.488 0.843359 18.4005 1.57407 19.043 2.52012C19.6855 3.46618 20.0283 4.58377 20.0268 5.72738C20.0268 11.583 10.3655 17.3138 10.2763 17.4119C10.2013 17.4491 10.1194 17.4703 10.0357 17.4743Z" fill="white"/>
</svg>
