<svg width="17" height="16" viewBox="0 0 17 16" fill="none" xmlns="http://www.w3.org/2000/svg">
<g clip-path="url(#clip0_6018_60088)">
<g clip-path="url(#clip1_6018_60088)">
<path fill-rule="evenodd" clip-rule="evenodd" d="M12.9844 0.625V1.25H13.7656C14.4284 1.25074 15.0639 1.51438 15.5326 1.98306C16.0013 2.45174 16.2649 3.08719 16.2656 3.75V7.3125V13.5C16.2649 14.1628 16.0012 14.7983 15.5326 15.2669C15.0639 15.7356 14.4284 15.9993 13.7656 16H7.54688H5.65104H2.76562C2.10281 15.9993 1.46736 15.7356 0.99868 15.2669C0.530001 14.7983 0.26637 14.1628 0.265625 13.5V7.3125V3.75C0.26637 3.08719 0.530001 2.45174 0.99868 1.98306C1.46736 1.51438 2.10281 1.25074 2.76562 1.25H3.54688V0.625C3.54688 0.45924 3.61272 0.300269 3.72993 0.183058C3.84714 0.065848 4.00611 0 4.17188 0L4.1875 0.000195109L4.20312 0C4.36889 0 4.52786 0.065848 4.64507 0.183058C4.76228 0.300269 4.82812 0.45924 4.82812 0.625V1.25H7.60938V0.625C7.60938 0.45924 7.67522 0.300269 7.79243 0.183058C7.90964 0.065848 8.06861 0 8.23438 0C8.24482 0 8.25524 0.000261532 8.26562 0.000780969C8.27601 0.000261532 8.28643 0 8.29688 0C8.46264 0 8.62161 0.065848 8.73882 0.183058C8.85603 0.300269 8.92188 0.45924 8.92188 0.625V1.25H11.7031V0.625C11.7031 0.45924 11.769 0.300269 11.8862 0.183058C12.0034 0.065848 12.1624 0 12.3281 0L12.3438 0.000195108L12.3594 0C12.5251 0 12.6841 0.065848 12.8013 0.183058C12.9185 0.300269 12.9844 0.45924 12.9844 0.625ZM15.0156 13.5V7.3125V3.75C15.0156 3.41848 14.8839 3.10054 14.6495 2.86612C14.4151 2.6317 14.0971 2.5 13.7656 2.5H12.9844V3.125C12.9844 3.29076 12.9185 3.44973 12.8013 3.56694C12.6841 3.68415 12.5251 3.75 12.3594 3.75L12.3438 3.7498L12.3281 3.75C12.1624 3.75 12.0034 3.68415 11.8862 3.56694C11.769 3.44973 11.7031 3.29076 11.7031 3.125V2.5H8.92188V3.125C8.92188 3.29076 8.85603 3.44973 8.73882 3.56694C8.62161 3.68415 8.46264 3.75 8.29688 3.75C8.28643 3.75 8.27601 3.74974 8.26562 3.74922C8.25524 3.74974 8.24482 3.75 8.23438 3.75C8.06861 3.75 7.90964 3.68415 7.79243 3.56694C7.67522 3.44973 7.60938 3.29076 7.60938 3.125V2.5H4.82812V3.125C4.82812 3.29076 4.76228 3.44973 4.64507 3.56694C4.52786 3.68415 4.36889 3.75 4.20312 3.75L4.1875 3.7498L4.17188 3.75C4.00611 3.75 3.84714 3.68415 3.72993 3.56694C3.61272 3.44973 3.54688 3.29076 3.54688 3.125V2.5H2.76562C2.4341 2.5 2.11616 2.6317 1.88174 2.86612C1.64732 3.10054 1.51562 3.41848 1.51562 3.75V7.3125V13.5C1.51562 13.8315 1.64732 14.1495 1.88174 14.3839C2.11616 14.6183 2.4341 14.75 2.76562 14.75H5.65104H7.54688H13.7656C14.0971 14.75 14.4151 14.6183 14.6495 14.3839C14.8839 14.1495 15.0156 13.8315 15.0156 13.5ZM12.3438 5.93769L12.3594 5.9375C12.7046 5.9375 12.9844 6.21732 12.9844 6.5625C12.9844 6.90768 12.7046 7.1875 12.3594 7.1875L12.3438 7.18731L12.3281 7.1875C11.9829 7.1875 11.7031 6.90768 11.7031 6.5625C11.7031 6.21732 11.9829 5.9375 12.3281 5.9375L12.3438 5.93769ZM9.625 7.18731C9.61981 7.18744 9.6146 7.1875 9.60938 7.1875C9.2642 7.1875 8.98438 6.90768 8.98438 6.5625C8.98438 6.21732 9.2642 5.9375 9.60938 5.9375C9.6146 5.9375 9.61981 5.93756 9.625 5.93769C9.63019 5.93756 9.6354 5.9375 9.64062 5.9375C9.9858 5.9375 10.2656 6.21732 10.2656 6.5625C10.2656 6.90768 9.9858 7.1875 9.64062 7.1875C9.6354 7.1875 9.63019 7.18744 9.625 7.18731ZM6.93229 8.65762C6.94606 8.65671 6.95996 8.65625 6.97396 8.65625C7.31914 8.65625 7.59896 8.93607 7.59896 9.28125C7.59896 9.62643 7.31914 9.90625 6.97396 9.90625C6.95996 9.90625 6.94606 9.90579 6.93229 9.90488C6.91852 9.90579 6.90463 9.90625 6.89062 9.90625C6.54545 9.90625 6.26562 9.62643 6.26562 9.28125C6.26562 8.93607 6.54545 8.65625 6.89062 8.65625C6.90463 8.65625 6.91852 8.65671 6.93229 8.65762ZM12.3594 8.65625C12.3454 8.65625 12.3315 8.65671 12.3177 8.65762C12.3039 8.65671 12.29 8.65625 12.276 8.65625C11.9309 8.65625 11.651 8.93607 11.651 9.28125C11.651 9.62643 11.9309 9.90625 12.276 9.90625C12.29 9.90625 12.3039 9.90579 12.3177 9.90488C12.3315 9.90579 12.3454 9.90625 12.3594 9.90625C12.7046 9.90625 12.9844 9.62643 12.9844 9.28125C12.9844 8.93607 12.7046 8.65625 12.3594 8.65625ZM4.1875 5.93769L4.20312 5.9375C4.5483 5.9375 4.82812 6.21732 4.82812 6.5625C4.82812 6.90768 4.5483 7.1875 4.20312 7.1875L4.1875 7.18731L4.17188 7.1875C3.8267 7.1875 3.54688 6.90768 3.54688 6.5625C3.54688 6.21732 3.8267 5.9375 4.17188 5.9375L4.1875 5.93769ZM4.21354 9.90488C4.19977 9.90579 4.18588 9.90625 4.17188 9.90625C3.8267 9.90625 3.54688 9.62643 3.54688 9.28125C3.54688 8.93607 3.8267 8.65625 4.17188 8.65625C4.18588 8.65625 4.19977 8.65671 4.21354 8.65762C4.22731 8.65671 4.24121 8.65625 4.25521 8.65625C4.60039 8.65625 4.88021 8.93607 4.88021 9.28125C4.88021 9.62643 4.60039 9.90625 4.25521 9.90625C4.24121 9.90625 4.22731 9.90579 4.21354 9.90488ZM9.55729 9.90625C9.57129 9.90625 9.58519 9.90579 9.59896 9.90488C9.61273 9.90579 9.62662 9.90625 9.64062 9.90625C9.9858 9.90625 10.2656 9.62643 10.2656 9.28125C10.2656 8.93607 9.9858 8.65625 9.64062 8.65625C9.62662 8.65625 9.61273 8.65671 9.59896 8.65762C9.58519 8.65671 9.57129 8.65625 9.55729 8.65625C9.21211 8.65625 8.93229 8.93607 8.93229 9.28125C8.93229 9.62643 9.21211 9.90625 9.55729 9.90625ZM10.1823 11.9583C10.1823 12.3035 9.90247 12.5833 9.55729 12.5833C9.21211 12.5833 8.93229 12.3035 8.93229 11.9583C8.93229 11.6132 9.21211 11.3333 9.55729 11.3333C9.90247 11.3333 10.1823 11.6132 10.1823 11.9583ZM4.17188 12.625C4.28884 12.625 4.39831 12.5929 4.49192 12.537C4.71973 12.4437 4.88021 12.2197 4.88021 11.9583C4.88021 11.6132 4.60039 11.3333 4.25521 11.3333C4.13824 11.3333 4.02878 11.3655 3.93516 11.4214C3.70735 11.5147 3.54688 11.7386 3.54688 12C3.54688 12.3452 3.8267 12.625 4.17188 12.625ZM6.97396 11.3333C6.85699 11.3333 6.74753 11.3655 6.65391 11.4214C6.4261 11.5147 6.26562 11.7386 6.26562 12C6.26562 12.3452 6.54545 12.625 6.89062 12.625C7.00759 12.625 7.11706 12.5929 7.21067 12.537C7.43848 12.4437 7.59896 12.2197 7.59896 11.9583C7.59896 11.6132 7.31914 11.3333 6.97396 11.3333ZM6.90625 5.93769L6.92188 5.9375C7.26705 5.9375 7.54688 6.21732 7.54688 6.5625C7.54688 6.90768 7.26705 7.1875 6.92188 7.1875L6.90625 7.18731L6.89062 7.1875C6.54545 7.1875 6.26562 6.90768 6.26562 6.5625C6.26562 6.21732 6.54545 5.9375 6.89062 5.9375L6.90625 5.93769Z" fill="white"/>
</g>
</g>
<defs>
<clipPath id="clip0_6018_60088">
<rect width="16" height="16" fill="white" transform="translate(0.265625)"/>
</clipPath>
<clipPath id="clip1_6018_60088">
<rect width="16" height="16" fill="white" transform="matrix(-1 0 0 1 16.2656 0)"/>
</clipPath>
</defs>
</svg>
