<svg width="78" height="72" viewBox="0 0 78 72" fill="none" xmlns="http://www.w3.org/2000/svg">
<path d="M3.46065 68.2955C2.22137 69.6205 0 68.7435 0 66.9293V3.00464C0 1.34779 1.34315 0.00463867 3 0.00463867H75C76.6569 0.00463867 78 1.34778 78 3.00464V51.1639C78 52.8207 76.6569 54.1639 75 54.1639H17.9803C17.1499 54.1639 16.3566 54.5081 15.7894 55.1145L3.46065 68.2955Z" fill="#FFD367"/>
<path d="M74.9993 0H39.0039V54.1638H74.9993C76.6562 54.1638 77.9993 52.8207 77.9993 51.1638V3C77.9993 1.34315 76.6562 0 74.9993 0Z" fill="#EBBF52"/>
<path d="M39.0012 44.3898C35.6171 44.3889 32.3093 43.3748 29.496 41.4757C26.6826 39.5767 24.4902 36.8779 23.1957 33.7207C21.9013 30.5636 21.5631 27.0897 22.2239 23.7385C22.8846 20.3872 24.5147 17.309 26.9079 14.8932C29.3012 12.4773 32.3501 10.8322 35.6692 10.1659C38.9884 9.49959 42.4286 9.84202 45.555 11.1499C48.6814 12.4577 51.3536 14.6723 53.2336 17.5135C55.1136 20.3547 56.117 23.695 56.117 27.112C56.1118 31.6935 54.3067 36.0858 51.0979 39.325C47.889 42.5642 43.5386 44.3857 39.0012 44.3898Z" fill="#0DC181"/>
<path d="M36.9953 34.5294L31.1133 28.5902L34.346 25.326L36.9953 28.0026L43.9635 20.9666L47.1947 24.2307L36.9953 34.5294Z" fill="#3EA871"/>
<path d="M39 44.3898V9.83423C41.2471 9.83423 43.4722 10.2811 45.5482 11.1494C47.6242 12.0177 49.5106 13.2904 51.0995 14.8948C52.6884 16.4992 53.9488 18.4039 54.8087 20.5001C55.6687 22.5963 56.1112 24.8431 56.1112 27.112C56.1112 29.381 55.6687 31.6277 54.8087 33.7239C53.9488 35.8202 52.6884 37.7249 51.0995 39.3293C49.5106 40.9336 47.6242 42.2063 45.5482 43.0746C43.4722 43.9429 41.2471 44.3898 39 44.3898Z" fill="#04A26A"/>
<path d="M36.9953 34.5294L31.1133 28.5902L34.346 25.326L36.9953 28.0026L43.9635 20.9666L47.1947 24.2308L36.9953 34.5294Z" fill="#E9EDF5"/>
<path d="M39.0039 32.502L47.1939 24.2307L43.9627 20.9666L39.0039 25.9751V32.502Z" fill="#CBE8F8"/>
</svg>
