<svg width="21" height="24" viewBox="0 0 21 24" fill="none" xmlns="http://www.w3.org/2000/svg">
<g clip-path="url(#clip0_7779_63959)">
<path d="M16.5241 5.12325L17.1301 4.22935C17.2009 4.12458 17.2502 4.00691 17.2755 3.88306C17.3007 3.7592 17.3013 3.63159 17.2772 3.50751C17.253 3.38343 17.2047 3.26532 17.1349 3.15993C17.0652 3.05454 16.9753 2.96393 16.8705 2.89328C16.7665 2.82257 16.6495 2.77317 16.5263 2.74794C16.4032 2.72271 16.2762 2.72216 16.1528 2.7463C16.0294 2.77045 15.912 2.81882 15.8074 2.88862C15.7028 2.95842 15.6131 3.04826 15.5434 3.15295L14.9188 4.066C13.7285 3.43488 12.425 3.04605 11.0835 2.92201V1.92221H12.0061C12.1343 1.92532 12.2618 1.90275 12.3812 1.85584C12.5005 1.80893 12.6092 1.73862 12.701 1.64906C12.7928 1.5595 12.8657 1.45248 12.9155 1.33432C12.9652 1.21616 12.9909 1.08923 12.9909 0.961004C12.9909 0.832781 12.9652 0.705852 12.9155 0.587688C12.8657 0.469524 12.7928 0.362512 12.701 0.272948C12.6092 0.183384 12.5005 0.113079 12.3812 0.0661681C12.2618 0.0192576 12.1343 -0.00330989 12.0061 -0.000206629H8.22831C8.10012 -0.00330989 7.97261 0.0192576 7.85328 0.0661681C7.73394 0.113079 7.6252 0.183384 7.53344 0.272948C7.44168 0.362512 7.36876 0.469524 7.31898 0.587688C7.26919 0.705852 7.24355 0.832781 7.24355 0.961004C7.24355 1.08923 7.26919 1.21616 7.31898 1.33432C7.36876 1.45248 7.44168 1.5595 7.53344 1.64906C7.6252 1.73862 7.73394 1.80893 7.85328 1.85584C7.97261 1.90275 8.10012 1.92532 8.22831 1.92221H9.16051V2.93158C7.81877 3.04775 6.51429 3.43359 5.32524 4.066L4.70002 3.15295C4.63042 3.04828 4.54075 2.95845 4.4362 2.88866C4.33166 2.81886 4.21431 2.7705 4.09096 2.74635C3.9676 2.7222 3.84067 2.72275 3.71753 2.74797C3.59439 2.77319 3.47747 2.82258 3.37353 2.89328C3.26872 2.96393 3.17885 3.05454 3.10907 3.15993C3.03929 3.26532 2.99096 3.38343 2.96685 3.50751C2.94273 3.63159 2.9433 3.7592 2.96853 3.88306C2.99376 4.00691 3.04314 4.12458 3.11387 4.22935L3.71994 5.12325C2.10204 6.44314 0.932388 8.23151 0.371577 10.2428C-0.189235 12.2541 -0.113704 14.3896 0.587798 16.3562C1.2893 18.3229 2.58238 20.0241 4.28948 21.2264C5.99658 22.4287 8.03401 23.0731 10.122 23.0711C15.6893 23.0711 20.2444 18.5605 20.2444 12.9487C20.2432 11.4501 19.9087 9.97052 19.2653 8.61709C18.6219 7.26367 17.6855 6.07025 16.5241 5.12325ZM10.122 20.3314C8.53734 20.3347 6.9937 19.8278 5.71951 18.8857C4.44533 17.9436 3.5083 16.6163 3.04708 15.1002C2.58587 13.5841 2.62498 11.9599 3.15863 10.4678C3.69228 8.97567 4.69212 7.695 6.01017 6.81529C8.45192 5.18183 11.8073 5.18183 14.2299 6.81529C15.2383 7.48947 16.0649 8.40184 16.6366 9.47164C17.2083 10.5415 17.5074 11.7357 17.5075 12.9487C17.5047 17.0554 14.1488 20.3314 10.122 20.3314Z" fill="white"/>
<path d="M11.8538 13.4483C11.8556 13.7887 11.7671 14.1234 11.5973 14.4184C11.4274 14.7133 11.1824 14.9579 10.8871 15.1272C10.5918 15.2964 10.2569 15.3843 9.91655 15.3818C9.57621 15.3792 9.24264 15.2864 8.9499 15.1128C8.65716 14.9392 8.41574 14.691 8.25029 14.3936C8.08485 14.0961 8.00131 13.7601 8.00821 13.4199C8.0151 13.0796 8.11219 12.7472 8.28955 12.4567C8.46691 12.1663 8.71818 11.928 9.01772 11.7664C8.99262 11.6851 8.97656 11.6012 8.96984 11.5164V9.35341C8.96674 9.22523 8.9893 9.09772 9.03621 8.97838C9.08313 8.85905 9.15343 8.7503 9.24299 8.65854C9.33256 8.56679 9.43957 8.49387 9.55774 8.44408C9.6759 8.3943 9.80283 8.36865 9.93105 8.36865C10.0593 8.36865 10.1862 8.3943 10.3044 8.44408C10.4225 8.49387 10.5295 8.56679 10.6191 8.65854C10.7087 8.7503 10.779 8.85905 10.8259 8.97838C10.8728 9.09772 10.8954 9.22523 10.8923 9.35341V11.5164C10.8864 11.6013 10.8704 11.6853 10.8444 11.7664C11.1484 11.93 11.4026 12.1726 11.5803 12.4686C11.7579 12.7647 11.8524 13.1031 11.8538 13.4483Z" fill="#ABD1F5"/>
</g>
<defs>
<clipPath id="clip0_7779_63959">
<rect width="20.2454" height="23.0713" fill="white"/>
</clipPath>
</defs>
</svg>

