<svg width="177" height="162" viewBox="0 0 177 162" fill="none" xmlns="http://www.w3.org/2000/svg">
<path d="M176.095 30.9663C176.095 38.1247 170.287 44.0001 163.129 44.0001C160.557 44.0068 158.042 43.2509 155.9 41.8279C153.759 40.405 152.087 38.379 151.097 36.0061C150.107 33.6333 149.843 31.0201 150.338 28.497C150.833 25.9739 152.065 23.6544 153.879 21.8315C155.692 20.0087 158.005 18.7646 160.525 18.2564C163.046 17.7483 165.66 17.9989 168.038 18.9767C170.416 19.9545 172.451 21.6154 173.885 23.7495C175.319 25.8837 176.088 28.3951 176.095 30.9663Z" fill="#284258"/>
<path d="M163.128 40.1733C168.188 40.1733 172.29 36.0713 172.29 31.0113C172.29 25.9513 168.188 21.8494 163.128 21.8494C158.068 21.8494 153.966 25.9513 153.966 31.0113C153.966 36.0713 158.068 40.1733 163.128 40.1733Z" fill="#4F6981"/>
<path d="M36.5377 18.2214C36.5377 28.2811 28.376 36.5377 18.3163 36.5377C14.7031 36.5471 11.1682 35.4848 8.1587 33.4852C5.1492 31.4856 2.80024 28.6385 1.40885 25.3039C0.0174622 21.9693 -0.353858 18.297 0.341846 14.7514C1.03755 11.2057 2.76903 7.94601 5.31733 5.38444C7.86564 2.82287 11.1163 1.07447 14.6583 0.36036C18.2002 -0.353753 21.8744 -0.00151539 25.2162 1.37253C28.558 2.74658 31.4173 5.08072 33.4325 8.07979C35.4477 11.0789 36.5283 14.6082 36.5377 18.2214Z" fill="#284258"/>
<path d="M18.3161 31.1599C25.4269 31.1599 31.1914 25.3954 31.1914 18.2846C31.1914 11.1739 25.4269 5.40942 18.3161 5.40942C11.2053 5.40942 5.44092 11.1739 5.44092 18.2846C5.44092 25.3954 11.2053 31.1599 18.3161 31.1599Z" fill="#4F6981"/>
<path d="M51.9407 102.361L51.034 102.783L49.2501 98.9493L50.1568 98.5274L48.3729 94.6936L47.4662 95.1154L45.6823 91.2816L46.589 90.8597L44.8051 87.0259L43.8984 87.4478L42.1145 83.6139L43.0212 83.192L41.2373 79.3582L40.3306 79.7801L38.5467 75.9462L39.4534 75.5244L37.6695 71.6905L36.7628 72.1124L34.9789 68.2786L35.8856 67.8567L34.1017 64.0229L33.195 64.4447L31.4111 60.6109L32.3178 60.189L31.4262 58.2728C31.1792 57.74 30.9991 57.1823 30.8858 56.6081L29.9047 56.8016C29.6526 55.5241 29.6935 54.1798 30.0254 52.8468L30.9958 53.0885C31.1371 52.5213 31.3377 51.9533 31.5989 51.3922C31.8807 50.7864 32.2269 50.202 32.6307 49.647L31.8221 49.0587C32.6765 47.8843 33.7601 46.8411 35.0111 45.989L35.5741 46.8155C36.1362 46.4326 36.7353 46.091 37.3648 45.7973L39.2185 44.9348L38.7966 44.0281L42.5048 42.3027L42.9267 43.2093L46.6349 41.4839L46.2131 40.5772L49.9213 38.8518L50.3432 39.7584L54.0514 38.033L53.6295 37.1263L57.3378 35.4009L57.7596 36.3075L61.4679 34.5821L61.046 33.6754L64.7542 31.95L65.1761 32.8567L68.8843 31.1312L68.4624 30.2245L72.1707 28.4991L72.5925 29.4058L76.3008 27.6803L75.8789 26.7736L79.5871 25.0482L80.009 25.9549L83.7172 24.2294L83.2954 23.3227L87.0036 21.5973L87.4255 22.504L91.1337 20.7785L90.7118 19.8718L94.42 18.1464L94.8419 19.0531L98.5501 17.3276L98.1283 16.4209L101.836 14.6955L102.258 15.6022L105.967 13.8767L105.545 12.97L109.253 11.2446L109.675 12.1513L111.528 11.2888C112.159 10.9963 112.806 10.758 113.461 10.5746L113.191 9.61164C114.649 9.20342 116.144 9.04641 117.593 9.14914L117.522 10.1466C118.207 10.1952 118.877 10.3068 119.522 10.4813C120.119 10.6429 120.683 10.8552 121.208 11.1125L121.648 10.2145C122.882 10.8191 123.936 11.6536 124.751 12.6692L123.971 13.2951C124.338 13.7517 124.648 14.2489 124.897 14.7812L125.789 16.6977L126.695 16.2759L128.48 20.1114L127.574 20.5333L129.358 24.3689L130.265 23.947L132.05 27.7826L131.143 28.2044L132.928 32.04L133.834 31.6181L135.619 35.4537L134.712 35.8756L136.497 39.7111L137.404 39.2893L139.188 43.1248L138.282 43.5467L140.066 47.3823L140.973 46.9604L142.758 50.796L141.851 51.2178L143.636 55.0534L144.542 54.6315L146.327 58.4671L145.421 58.889L146.313 60.8068C146.433 61.0651 146.538 61.3299 146.627 61.6003L147.577 61.2879C147.778 61.8997 147.908 62.5359 147.965 63.1873L146.969 63.2749C146.994 63.5582 147.003 63.8454 146.997 64.1355C146.99 64.4366 146.966 64.7394 146.926 65.0429L147.917 65.1761C147.827 65.8408 147.666 66.5047 147.434 67.1582L146.492 66.8241C146.39 67.1113 146.273 67.3971 146.14 67.6804C146.002 67.9773 145.847 68.2698 145.678 68.557L146.538 69.066C146.174 69.6822 145.747 70.2725 145.263 70.8285L144.509 70.1724C144.291 70.4226 144.061 70.6656 143.819 70.9004C143.569 71.1424 143.307 71.3745 143.035 71.5959L143.666 72.3715C143.083 72.8461 142.456 73.274 141.795 73.649L141.302 72.7791C140.998 72.9516 140.686 73.1121 140.366 73.2597L140.365 73.2606L138.511 74.1233L138.932 75.0299L135.224 76.7554L134.802 75.8487L131.094 77.5742L131.516 78.4808L127.808 80.2063L127.386 79.2996L123.678 81.0251L124.1 81.9317L120.391 83.6572L119.969 82.7505L116.261 84.476L116.683 85.3826L112.975 87.1081L112.553 86.2014L108.845 87.9269L109.267 88.8335L105.558 90.559L105.137 89.6523L101.428 91.3778L101.85 92.2844L98.1419 94.0099L97.7201 93.1032L94.0118 94.8287L94.4337 95.7353L90.7255 97.4608L90.3036 96.5541L86.5954 98.2796L87.0173 99.1862L83.309 100.912L82.8872 100.005L79.1789 101.73L79.6008 102.637L75.8926 104.363L75.4707 103.456L71.7625 105.181L72.1843 106.088L68.4761 107.813L68.0542 106.907L66.201 107.769C65.5708 108.062 64.9235 108.3 64.2684 108.484L64.5381 109.446C63.0805 109.855 61.5846 110.012 60.1359 109.909L60.2067 108.911C59.522 108.863 58.852 108.751 58.207 108.577C57.6096 108.415 57.0459 108.203 56.521 107.946L56.0809 108.844C54.8474 108.239 53.7927 107.404 52.9778 106.389L53.7577 105.763C53.3914 105.307 53.0808 104.81 52.8323 104.277L51.9407 102.361Z" stroke="#3FA3FF" stroke-width="2" stroke-dasharray="4 4"/>
<path d="M129.673 162H34.5801C30.9904 161.996 27.549 160.568 25.0108 158.03C22.4725 155.491 21.0447 152.05 21.0405 148.46V78.3901C21.0447 74.8005 22.4725 71.3591 25.0108 68.8208C27.549 66.2826 30.9904 64.8548 34.5801 64.8506H129.673C133.263 64.8548 136.704 66.2826 139.242 68.8208C141.781 71.3591 143.209 74.8005 143.213 78.3901V148.492C143.213 150.269 142.862 152.028 142.182 153.669C141.501 155.31 140.503 156.8 139.245 158.055C137.988 159.31 136.495 160.304 134.852 160.981C133.21 161.658 131.45 162.004 129.673 162Z" fill="url(#paint0_linear_2721_26851)"/>
<path d="M121.954 129.954H143.592C144.294 129.955 144.99 129.817 145.639 129.549C146.288 129.281 146.878 128.887 147.374 128.39C147.871 127.894 148.265 127.304 148.533 126.655C148.801 126.006 148.939 125.31 148.938 124.608V104.963C148.939 104.261 148.801 103.565 148.533 102.916C148.265 102.267 147.871 101.678 147.374 101.181C146.878 100.684 146.288 100.291 145.639 100.022C144.99 99.7538 144.294 99.6161 143.592 99.6169H121.954C119.904 99.5232 117.856 99.8462 115.934 100.566C114.012 101.286 112.256 102.389 110.772 103.806C109.288 105.224 108.107 106.928 107.3 108.815C106.493 110.702 106.077 112.733 106.077 114.786C106.077 116.838 106.493 118.869 107.3 120.756C108.107 122.643 109.288 124.347 110.772 125.765C112.256 127.183 114.012 128.285 115.934 129.005C117.856 129.725 119.904 130.048 121.954 129.954Z" fill="url(#paint1_linear_2721_26851)"/>
<path d="M121.543 120.844C124.898 120.844 127.617 118.124 127.617 114.77C127.617 111.415 124.898 108.696 121.543 108.696C118.189 108.696 115.469 111.415 115.469 114.77C115.469 118.124 118.189 120.844 121.543 120.844Z" fill="white"/>
<defs>
<linearGradient id="paint0_linear_2721_26851" x1="21" y1="127" x2="143" y2="127.5" gradientUnits="userSpaceOnUse">
<stop stop-color="#54738F"/>
<stop offset="1" stop-color="#324E67"/>
</linearGradient>
<linearGradient id="paint1_linear_2721_26851" x1="106" y1="112.5" x2="149" y2="112.5" gradientUnits="userSpaceOnUse">
<stop stop-color="#8CA4BA"/>
<stop offset="1" stop-color="#335371"/>
</linearGradient>
</defs>
</svg>
