<svg width="66" height="43" viewBox="0 0 66 43" fill="none" xmlns="http://www.w3.org/2000/svg">
<path d="M60.1937 36.3012C60.1937 35.8427 60.0125 35.4031 59.6899 35.0789C59.3674 34.7547 58.9299 34.5726 58.4738 34.5726H56.7539V17.2861H55.0341V27.658C55.0341 29.4918 54.3093 31.2506 53.0191 32.5473C51.729 33.8441 49.9791 34.5726 48.1546 34.5726H46.4347C45.9786 34.5726 45.5411 34.7547 45.2186 35.0789C44.896 35.4031 44.7148 35.8427 44.7148 36.3012C44.7148 36.7597 44.896 37.1994 45.2186 37.5235C45.5411 37.8477 45.9786 38.0298 46.4347 38.0298H58.4738C58.9299 38.0298 59.3674 37.8477 59.6899 37.5235C60.0125 37.1994 60.1937 36.7597 60.1937 36.3012Z" fill="#A00028"/>
<path d="M53.3153 0H30.957V19.0151C30.957 19.4735 31.1382 19.9132 31.4608 20.2374C31.7833 20.5616 32.2208 20.7437 32.6769 20.7437H56.7551V3.45729C56.7551 2.54036 56.3927 1.66098 55.7476 1.01261C55.1025 0.364246 54.2276 0 53.3153 0Z" fill="#2C2C3E"/>
<path d="M51.5978 0H6.88115C5.96887 0 5.09396 0.364246 4.44888 1.01261C3.80381 1.66098 3.44141 2.54036 3.44141 3.45729V34.5729H55.0375V3.45729C55.0375 2.54036 54.6751 1.66098 54.03 1.01261C53.385 0.364246 52.51 0 51.5978 0Z" fill="#8CA4BA"/>
<path d="M49.8756 3.45703H8.59878C8.14264 3.45703 7.70518 3.63915 7.38264 3.96334C7.06011 4.28752 6.87891 4.72721 6.87891 5.18567V29.3867C6.87891 29.8451 7.06011 30.2848 7.38264 30.609C7.70518 30.9332 8.14264 31.1153 8.59878 31.1153H49.8756C50.3318 31.1153 50.7692 30.9332 51.0918 30.609C51.4143 30.2848 51.5955 29.8451 51.5955 29.3867V5.18567C51.5955 4.72721 51.4143 4.28752 51.0918 3.96334C50.7692 3.63915 50.3318 3.45703 49.8756 3.45703Z" fill="#2C2C3E"/>
<path d="M56.7557 34.5732H1.71987C1.26373 34.5732 0.826277 34.7554 0.503739 35.0795C0.1812 35.4037 0 35.8434 0 36.3019C0 36.7603 0.1812 37.2 0.503739 37.5242C0.826277 37.8484 1.26373 38.0305 1.71987 38.0305H56.7557C57.2118 38.0305 57.6493 37.8484 57.9718 37.5242C58.2944 37.2 58.4756 36.7603 58.4756 36.3019C58.4756 35.8434 58.2944 35.4037 57.9718 35.0795C57.6493 34.7554 57.2118 34.5732 56.7557 34.5732Z" fill="#708AA2"/>
<path d="M24.0781 34.5732L25.2949 35.7963C25.6172 36.1198 26.0541 36.3017 26.5096 36.3019H31.9659C32.4214 36.3017 32.8582 36.1198 33.1805 35.7963L34.3973 34.5732H24.0781Z" fill="#2C2C3E"/>
<path d="M3.44141 32.8438H55.0375V34.5724H3.44141V32.8438Z" fill="#2C2C3E"/>
<path d="M55.0352 20.7441H56.755V24.2014H55.0352V20.7441Z" fill="#A00028"/>
<path d="M63.4202 43.0002H50.5212C49.837 43.0002 49.1808 42.727 48.697 42.2407C48.2132 41.7544 47.9414 41.0949 47.9414 40.4072V17.0705C47.9414 16.3828 48.2132 15.7233 48.697 15.237C49.1808 14.7507 49.837 14.4775 50.5212 14.4775H63.4202C64.1044 14.4775 64.7606 14.7507 65.2444 15.237C65.7282 15.7233 66 16.3828 66 17.0705V40.4072C66 41.0949 65.7282 41.7544 65.2444 42.2407C64.7606 42.727 64.1044 43.0002 63.4202 43.0002Z" fill="#A0BBD3"/>
<path d="M62.1286 40.407H51.8094C51.4673 40.407 51.1392 40.2704 50.8973 40.0273C50.6554 39.7841 50.5195 39.4544 50.5195 39.1105V18.3668C50.5195 18.0229 50.6554 17.6932 50.8973 17.45C51.1392 17.2069 51.4673 17.0703 51.8094 17.0703H54.3892L55.6791 18.3668H58.2589L59.5488 17.0703H62.1286C62.4707 17.0703 62.7988 17.2069 63.0407 17.45C63.2826 17.6932 63.4185 18.0229 63.4185 18.3668V39.1105C63.4185 39.4544 63.2826 39.7841 63.0407 40.0273C62.7988 40.2704 62.4707 40.407 62.1286 40.407Z" fill="#2C2C3E"/>
</svg>
