<svg width="23" height="23" viewBox="0 0 23 23" fill="none" xmlns="http://www.w3.org/2000/svg">
<path d="M12.3498 12.8653L21.1612 12.8649C21.2973 12.865 21.4321 12.8382 21.5579 12.7862C21.6837 12.7341 21.798 12.6578 21.8943 12.5615C21.9906 12.4652 22.0669 12.3509 22.119 12.2251C22.1711 12.0993 22.1978 11.9645 22.1977 11.8284C22.1978 11.6922 22.1711 11.5574 22.119 11.4316C22.067 11.3058 21.9906 11.1915 21.8944 11.0953C21.7981 10.999 21.6838 10.9227 21.558 10.8706C21.4322 10.8186 21.2974 10.7918 21.1613 10.7919L12.3498 10.7922L12.3502 1.98081C12.3503 1.84467 12.3235 1.70985 12.2715 1.58407C12.2194 1.45828 12.1431 1.34398 12.0468 1.24772C11.9505 1.15146 11.8362 1.07512 11.7105 1.02306C11.5847 0.971004 11.4498 0.944252 11.3137 0.944335C11.1776 0.944263 11.0427 0.971025 10.917 1.02309C10.7912 1.07516 10.6769 1.15151 10.5806 1.24778C10.4843 1.34405 10.408 1.45835 10.3559 1.58414C10.3038 1.70993 10.2771 1.84475 10.2771 1.98089L10.2768 10.7923L1.46539 10.7926C1.19442 10.7985 0.936535 10.9104 0.747001 11.1041C0.557467 11.2979 0.45137 11.5582 0.45145 11.8292C0.451529 12.1002 0.557778 12.3604 0.747426 12.5541C0.937074 12.7477 1.19503 12.8593 1.466 12.865L10.2767 12.8653L10.2771 21.6761C10.2771 21.951 10.3863 22.2146 10.5806 22.409C10.775 22.6034 11.0387 22.7126 11.3136 22.7126C11.5885 22.7125 11.8521 22.6033 12.0465 22.4089C12.2409 22.2145 12.3501 21.9509 12.3501 21.676L12.3498 12.8653Z" fill="white"/>
</svg>
