<svg width="32" height="32" viewBox="0 0 32 32" fill="none" xmlns="http://www.w3.org/2000/svg">
<g clip-path="url(#clip0_3156_28716)">
<path d="M16 0C7.32625 0 0 6.65063 0 15.0625C0 19.57 2.175 23.6931 5.6875 26.5V31.0625C5.6875 31.2231 5.72874 31.381 5.80729 31.521C5.88583 31.6611 5.99904 31.7787 6.13605 31.8624C6.27307 31.9462 6.4293 31.9933 6.58977 31.9994C6.75025 32.0054 6.90958 31.9701 7.0525 31.8969L11.7063 29.5119C13.108 29.8788 14.5511 30.0638 16 30.0625C24.8225 30.0625 32 23.3337 32 15.0625C32 6.64688 24.6688 0 16 0ZM16 28.1875C14.6002 28.1891 13.2071 27.9947 11.8612 27.61C11.6319 27.544 11.3861 27.5679 11.1737 27.6769L7.5625 29.5287V26.0406C7.5625 25.8951 7.52861 25.7515 7.46353 25.6214C7.39844 25.4912 7.30393 25.378 7.1875 25.2906C3.8125 22.7537 1.875 19.0256 1.875 15.0625C1.875 7.79063 8.21125 1.875 16 1.875C23.7887 1.875 30.125 7.79063 30.125 15.0625C30.125 22.2994 23.7887 28.1875 16 28.1875Z" fill="black"/>
<path d="M24.5153 10.0837C24.2863 9.96158 24.0285 9.9037 23.7692 9.91624C23.51 9.92879 23.259 10.0113 23.0428 10.155L20.3853 11.9263V11.0206C20.3847 10.4766 20.1683 9.95512 19.7836 9.57046C19.3989 9.1858 18.8774 8.96941 18.3334 8.96875H9.40344C8.85945 8.96941 8.33793 9.1858 7.95327 9.57046C7.56862 9.95512 7.35222 10.4766 7.35156 11.0206V19.1356C7.35222 19.6796 7.56862 20.2011 7.95327 20.5858C8.33793 20.9704 8.85945 21.1868 9.40344 21.1875H18.3334C18.8774 21.1868 19.3989 20.9704 19.7836 20.5858C20.1683 20.2011 20.3847 19.6796 20.3853 19.1356V18.23L23.0428 20C23.259 20.1429 23.5099 20.2247 23.7688 20.2367C24.0276 20.2487 24.285 20.1904 24.5135 20.0682C24.742 19.9459 24.9332 19.7642 25.0669 19.5421C25.2005 19.3201 25.2717 19.066 25.2728 18.8069V11.3481C25.2724 11.0886 25.2018 10.8341 25.0684 10.6115C24.9351 10.3889 24.7439 10.2065 24.5153 10.0837ZM18.7559 19.1356C18.7559 19.2477 18.7114 19.3551 18.6322 19.4344C18.553 19.5136 18.4455 19.5581 18.3334 19.5581H9.40344C9.29138 19.5581 9.18392 19.5136 9.10469 19.4344C9.02545 19.3551 8.98094 19.2477 8.98094 19.1356V11.0206C8.98094 10.9086 9.02545 10.8011 9.10469 10.7219C9.18392 10.6426 9.29138 10.5981 9.40344 10.5981H18.3334C18.4455 10.5981 18.553 10.6426 18.6322 10.7219C18.7114 10.8011 18.7559 10.9086 18.7559 11.0206V19.1356ZM23.6434 18.4438L20.3853 16.2712V13.885L23.6434 11.7125V18.4438Z" fill="black"/>
</g>
<defs>
<clipPath id="clip0_3156_28716">
<rect width="32" height="32" fill="white"/>
</clipPath>
</defs>
</svg>
