<?xml version="1.0" standalone="no"?>
<!DOCTYPE svg PUBLIC "-//W3C//DTD SVG 20010904//EN"
 "http://www.w3.org/TR/2001/REC-SVG-20010904/DTD/svg10.dtd">
<svg version="1.0" xmlns="http://www.w3.org/2000/svg"
 width="1024.000000pt" height="1024.000000pt" viewBox="0 0 1024.000000 1024.000000"
 preserveAspectRatio="xMidYMid meet">
<metadata>
Created by potrace 1.14, written by Peter Selinger 2001-2017
</metadata>
<g transform="translate(0.000000,1024.000000) scale(0.100000,-0.100000)"
fill="#000000" stroke="none">
<path d="M0 5120 l0 -5120 5120 0 5120 0 0 5120 0 5120 -5120 0 -5120 0 0
-5120z m5656 2689 c249 -24 513 -96 714 -194 553 -272 835 -756 771 -1325 -78
-690 -555 -1269 -1414 -1715 -135 -70 -411 -192 -524 -231 -29 -10 -53 -22
-53 -25 0 -4 51 -52 113 -107 531 -470 1138 -775 1707 -856 214 -31 373 -31
595 0 l49 7 -18 -29 c-89 -138 -314 -381 -461 -499 -429 -344 -966 -523 -1625
-542 -1413 -40 -2537 760 -2834 2018 -55 232 -70 372 -70 669 0 296 11 418 61
654 195 935 789 1656 1633 1985 259 101 590 174 875 194 119 8 380 6 481 -4z"/>
<path d="M4310 7440 c-151 -32 -278 -167 -324 -347 -55 -211 -37 -564 46 -908
144 -597 489 -1213 960 -1711 66 -70 83 -82 95 -72 32 26 165 240 217 348 90
188 142 369 178 625 17 122 17 544 0 655 -103 655 -494 1241 -929 1391 -68 23
-180 32 -243 19z"/>
</g>
</svg>
