<svg width="24" height="24" viewBox="0 0 24 24" fill="none" xmlns="http://www.w3.org/2000/svg">
<path d="M0 1.04348C0 0.467181 0.467181 0 1.04348 0H22.9565C23.5328 0 24 0.467181 24 1.04348C24 1.61978 23.5328 2.08696 22.9565 2.08696H1.04348C0.467181 2.08696 0 1.61978 0 1.04348Z" fill="#3FA3FF"/>
<path d="M0 11.4783C0 10.902 0.467181 10.4348 1.04348 10.4348H22.9565C23.5328 10.4348 24 10.902 24 11.4783C24 12.0546 23.5328 12.5217 22.9565 12.5217H1.04348C0.467181 12.5217 0 12.0546 0 11.4783Z" fill="#3FA3FF"/>
<path d="M0 22.9565C0 22.3802 0.467181 21.913 1.04348 21.913H22.9565C23.5328 21.913 24 22.3802 24 22.9565C24 23.5328 23.5328 24 22.9565 24H1.04348C0.467181 24 0 23.5328 0 22.9565Z" fill="#3FA3FF"/>
</svg>
