<svg width="21" height="18" viewBox="0 0 21 18" fill="none" xmlns="http://www.w3.org/2000/svg">
<path d="M10.0357 17.4743C9.95469 17.4716 9.87537 17.4502 9.80397 17.4119C9.70593 17.3584 4.74412e-05 11.6008 4.74412e-05 5.72738C-0.00463877 4.57811 0.337952 3.45422 0.98292 2.50299C1.62789 1.55175 2.54516 0.817524 3.61454 0.396514C4.68393 -0.024496 5.85554 -0.112654 6.97588 0.143588C8.09623 0.39983 9.11305 0.988518 9.8931 1.83253L10.0179 1.96624L10.1694 1.83253C10.95 0.996743 11.9641 0.415314 13.0797 0.163933C14.1954 -0.0874478 15.3608 0.00287011 16.4244 0.423115C17.488 0.843359 18.4005 1.57407 19.043 2.52012C19.6855 3.46618 20.0283 4.58377 20.0268 5.72738C20.0268 11.583 10.3655 17.3138 10.2763 17.4119C10.2013 17.4491 10.1194 17.4703 10.0357 17.4743Z" fill="white" fill-opacity="0.5"/>
<path d="M10.0357 17.4743C9.95469 17.4716 9.87537 17.4502 9.80397 17.4119C9.70593 17.3584 4.74412e-05 11.6008 4.74412e-05 5.72738C-0.00463877 4.57811 0.337952 3.45422 0.98292 2.50299C1.62789 1.55175 2.54516 0.817524 3.61454 0.396514C4.68393 -0.024496 5.85554 -0.112654 6.97588 0.143588C8.09623 0.39983 9.11305 0.988518 9.8931 1.83253L10.0179 1.96624L10.1694 1.83253C10.95 0.996743 11.9641 0.415314 13.0797 0.163933C14.1954 -0.0874478 15.3608 0.00287011 16.4244 0.423115C17.488 0.843359 18.4005 1.57407 19.043 2.52012C19.6855 3.46618 20.0283 4.58377 20.0268 5.72738C20.0268 11.583 10.3655 17.3138 10.2763 17.4119C10.2013 17.4491 10.1194 17.4703 10.0357 17.4743ZM5.73089 0.896708C4.45754 0.899064 3.23701 1.40594 2.33661 2.30634C1.43621 3.20674 0.929327 4.42729 0.926971 5.70064C0.926971 10.4243 8.42251 15.4422 9.92875 16.3958L10.0268 16.4582L10.1337 16.3958C11.6311 15.4333 19.1266 10.3976 19.1266 5.70064C19.1268 4.67961 18.8017 3.68505 18.1984 2.86131C17.5951 2.03757 16.745 1.42746 15.7715 1.11952C14.7981 0.811585 13.7518 0.821833 12.7845 1.14876C11.8172 1.4757 10.9793 2.10232 10.3922 2.93771C10.3662 2.98183 10.3294 3.01862 10.2853 3.04466C10.2101 3.09866 10.1194 3.12681 10.0268 3.12487C9.95546 3.12453 9.88523 3.10742 9.82174 3.07491C9.75826 3.04239 9.70333 2.99539 9.66138 2.93771C9.21699 2.3082 8.62819 1.79436 7.94433 1.43925C7.26047 1.08414 6.50146 0.89809 5.73089 0.896708Z" fill="white"/>
</svg>
