<svg width="63" height="72" viewBox="0 0 63 72" fill="none" xmlns="http://www.w3.org/2000/svg">
<path fill-rule="evenodd" clip-rule="evenodd" d="M62.6799 16.7981C62.68 16.3546 62.5378 15.9228 62.2743 15.5661C62.0108 15.2094 61.6398 14.9466 61.2159 14.8164C58.7499 14.0659 56.5567 12.6117 54.9055 10.6322C53.2543 8.6528 52.2171 6.2343 51.9212 3.67366C51.871 3.23053 51.6782 2.8157 51.3718 2.49167C51.0654 2.16764 50.662 1.95196 50.2223 1.87712C44.5293 0.889702 37.7082 0 31.6054 0C25.5027 0 18.6816 0.887988 12.9885 1.8754C12.5497 1.95268 12.1474 2.16935 11.8414 2.49327C11.5354 2.8172 11.3419 3.23112 11.2897 3.67366C10.9952 6.23404 9.9591 8.6526 8.30876 10.6322C6.65842 12.6117 4.46572 14.066 2.00011 14.8164C1.57688 14.9467 1.20646 15.209 0.943037 15.5649C0.679616 15.9209 0.537028 16.3518 0.536133 16.7946C0.536133 19.2289 0.536133 21.8791 0.536133 24.6031C0.53626 33.3599 2.77985 41.9706 7.05291 49.6141C11.326 57.2575 17.486 63.6787 24.9455 68.2654L30.5203 71.6939C30.8472 71.8941 31.223 72 31.6063 72C31.9896 72 32.3654 71.8941 32.6923 71.6939L38.2671 68.2654C45.7269 63.6793 51.8875 57.2585 56.1612 49.6154C60.4348 41.9722 62.6791 33.3616 62.6799 24.6048V16.7981Z" fill="#3FA3FF"/>
<path fill-rule="evenodd" clip-rule="evenodd" d="M43.2247 27.8347H42.4824V21.0514C42.4824 18.1671 41.3366 15.4009 39.2971 13.3614C37.2576 11.3219 34.4914 10.1761 31.6071 10.1761C28.7228 10.1761 25.9566 11.3219 23.9171 13.3614C21.8776 15.4009 20.7318 18.1671 20.7318 21.0514V27.8381H19.9878C19.29 27.8381 18.6206 28.1154 18.1272 28.6089C17.6337 29.1023 17.3564 29.7716 17.3564 30.4695V46.1705C17.3564 46.5159 17.4245 46.858 17.5568 47.1772C17.689 47.4963 17.8829 47.7863 18.1273 48.0305C18.3716 48.2747 18.6617 48.4684 18.981 48.6005C19.3002 48.7325 19.6424 48.8004 19.9878 48.8001H43.2247C43.57 48.7997 43.9119 48.7312 44.2307 48.5987C44.5496 48.4661 44.8393 48.272 45.0831 48.0275C45.327 47.783 45.5203 47.4928 45.6521 47.1736C45.7838 46.8544 45.8514 46.5124 45.8509 46.167V30.4661C45.8509 29.7691 45.5744 29.1006 45.082 28.6072C44.5897 28.1139 43.9217 27.8361 43.2247 27.8347ZM40.2316 27.8347H22.9827V21.0514C23.0146 18.7849 23.9374 16.622 25.5515 15.0305C27.1656 13.439 29.3412 12.5468 31.608 12.5468C33.8747 12.5468 36.0504 13.439 37.6644 15.0305C39.2785 16.622 40.2013 18.7849 40.2333 21.0514L40.2316 27.8347Z" fill="#293F98"/>
<path d="M31.6068 42.068C33.6783 42.068 35.3576 40.3887 35.3576 38.3172C35.3576 36.2457 33.6783 34.5664 31.6068 34.5664C29.5353 34.5664 27.856 36.2457 27.856 38.3172C27.856 40.3887 29.5353 42.068 31.6068 42.068Z" fill="white"/>
</svg>
