<svg width="321" height="148" viewBox="0 0 321 148" fill="none" xmlns="http://www.w3.org/2000/svg">
<g clip-path="url(#clip0_6986_75631)">
<path d="M205.156 80.9826L205.592 80.9491C205.346 80.6365 205.212 80.6811 205.156 80.9826Z" fill="#8CA4BA"/>
<path d="M205.592 99.9062H205.156C205.212 100.174 205.346 100.225 205.592 99.9062Z" fill="#8CA4BA"/>
<path d="M135.567 75.812C132.133 76.4654 131.804 78.7547 129.185 76.9288C127.678 75.8902 126.494 73.2211 125.762 71.1439C120.82 50.0481 103.053 34.4301 81.89 34.4301C56.8966 34.4301 36.6328 56.2071 36.6328 83.0599C36.6328 109.913 56.8966 131.695 81.89 131.695C101.953 131.695 118.961 117.657 124.886 98.2312C124.914 98.3987 124.93 98.4768 124.93 98.4378C124.93 98.3987 126.566 91.7371 129.18 89.928C131.793 88.1188 132.128 90.4193 135.562 91.0447C138.996 91.6701 198.721 91.86 198.721 91.86V75.0135C198.721 75.0135 139.007 75.1587 135.567 75.812ZM105.152 94.987C105.152 105.345 94.0962 113.743 80.4549 113.743C66.8135 113.743 55.7519 105.367 55.7519 94.987C55.7519 90.9722 57.4271 87.2533 60.219 84.2045C60.4937 83.8974 60.6456 83.4998 60.6456 83.0878C60.6456 82.6757 60.4937 82.2781 60.219 81.971C57.388 78.9222 55.7519 75.2034 55.7519 71.1886C55.7519 60.8306 66.8079 52.4325 80.4549 52.4325C94.1018 52.4325 105.152 60.8082 105.152 71.1886C105.152 75.2034 103.477 78.9222 100.657 81.971C100.383 82.2781 100.231 82.6757 100.231 83.0878C100.231 83.4998 100.383 83.8974 100.657 84.2045C103.477 87.2533 105.152 90.9722 105.152 94.987Z" fill="#8CA4BA"/>
<path d="M320.573 1.96003V145.27H294.614V27.2214H293.777L260.273 48.6354V24.8426L295.893 1.94885L320.573 1.96003Z" fill="#B8CEE3"/>
<path d="M0 118.679V98.0188L60.8082 1.94312H78.0232V31.3309H67.5256L26.5904 96.232V97.3488H111.465V118.69L0 118.679ZM68.3632 145.269V112.381L68.6424 103.145V1.95988H93.1387V145.269H68.3632Z" fill="#B8CEE3"/>
<path d="M187.165 148C175.625 148 165.747 145.072 157.532 139.217C149.316 133.361 142.988 124.894 138.547 113.816C134.135 102.737 131.93 89.3845 131.93 73.7572C131.93 58.1298 134.163 44.8216 138.63 33.8326C143.042 22.8473 149.37 14.4715 157.615 8.70528C165.861 2.93902 175.726 0.0465669 187.21 0.0279541C198.683 0.0279541 208.548 2.92041 216.804 8.70528C225.061 14.4902 231.389 22.8883 235.789 33.8996C240.201 44.911 242.406 58.2062 242.406 73.7851C242.406 89.4608 240.201 102.838 235.789 113.916C231.378 124.995 225.05 133.45 216.804 139.284C208.57 145.095 198.69 148 187.165 148ZM187.165 126.1C196.122 126.1 203.195 121.68 208.384 112.839C213.573 103.997 216.179 90.9684 216.201 73.7516C216.201 62.3642 215.012 52.801 212.633 45.0617C210.254 37.3225 206.897 31.4855 202.56 27.5508C198.382 23.6703 192.867 21.552 187.165 21.6375C178.253 21.6375 171.208 26.0562 166.03 34.8936C160.852 43.7309 158.246 56.6892 158.213 73.7683C158.161 85.1966 159.315 94.8064 161.675 102.598C164.035 110.389 167.385 116.256 171.726 120.198C175.922 124.077 181.451 126.19 187.165 126.1Z" fill="#B8CEE3"/>
<path fill-rule="evenodd" clip-rule="evenodd" d="M132.666 76.9707C133.377 76.5615 134.24 76.0646 135.567 75.812C139.007 75.1587 216.031 75.0135 216.031 75.0135V75.382H300.126C302.365 75.382 304.512 76.2715 306.096 77.8548C307.679 79.4381 308.568 81.5856 308.568 83.8247C308.568 86.0639 307.679 88.2114 306.096 89.7947C305.23 90.6599 304.197 91.3179 303.072 91.7368V115.781C303.072 118.44 300.917 120.595 298.259 120.595H294.657C291.999 120.595 289.844 118.44 289.844 115.781V92.2675H283.744V107.992C283.744 110.357 281.826 112.275 279.461 112.275H274.798C272.433 112.275 270.516 110.357 270.516 107.992V92.2675H213.414V91.8527C199.91 91.8128 138.617 91.6011 135.562 91.0447C134.225 90.8013 133.358 90.304 132.643 89.8941C131.522 89.251 130.776 88.8231 129.18 89.928C126.566 91.7371 124.93 98.3987 124.93 98.4378C124.93 98.4768 124.914 98.3987 124.886 98.2312C118.961 117.657 101.953 131.695 81.89 131.695C56.8966 131.695 36.6328 109.913 36.6328 83.0599C36.6328 56.2071 56.8966 34.4301 81.89 34.4301C103.053 34.4301 120.82 50.0481 125.762 71.1439C126.494 73.2211 127.678 75.8902 129.185 76.9288C130.792 78.049 131.537 77.6203 132.666 76.9707ZM80.4549 113.743C94.0962 113.743 105.152 105.345 105.152 94.987C105.152 90.9722 103.477 87.2533 100.657 84.2045C100.383 83.8974 100.231 83.4998 100.231 83.0878C100.231 82.6757 100.383 82.2781 100.657 81.971C103.477 78.9222 105.152 75.2034 105.152 71.1886C105.152 60.8082 94.1018 52.4325 80.4549 52.4325C66.8079 52.4325 55.7519 60.8306 55.7519 71.1886C55.7519 75.2034 57.388 78.9222 60.219 81.971C60.4937 82.2781 60.6456 82.6757 60.6456 83.0878C60.6456 83.4998 60.4937 83.8974 60.219 84.2045C57.4271 87.2533 55.7519 90.9722 55.7519 94.987C55.7519 105.367 66.8135 113.743 80.4549 113.743Z" fill="url(#paint0_linear_6986_75631)"/>
<path d="M93.1627 34.4301H68.5938V68.6089H93.1627V34.4301Z" fill="#B8CEE3"/>
<path d="M252.152 70.8423H252.146C248.445 70.8423 245.445 73.8423 245.445 77.5429V89.9056C245.445 93.6062 248.445 96.6062 252.146 96.6062H252.152C255.852 96.6062 258.852 93.6062 258.852 89.9056V77.5429C258.852 73.8423 255.852 70.8423 252.152 70.8423Z" fill="url(#paint1_linear_6986_75631)"/>
<path d="M60.8077 1.95996L13.0938 77.342H13.2947C21.3522 77.342 27.997 81.7755 31.6489 88.1969L67.5251 31.3478H68.6419V82.6857C72.6715 78.6542 78.1085 76.3441 83.8076 76.2419C87.0459 76.2283 90.2421 76.9762 93.1382 78.4252V1.95996H60.8077Z" fill="#B8CEE3"/>
<path d="M235.759 33.8715C231.355 22.8602 225.027 14.4621 216.774 8.67719C210.27 4.17898 202.754 1.36095 194.896 0.474548C195.42 2.27973 195.726 4.14126 195.806 6.01928C196.074 12.0331 193.227 17.6951 188.838 21.6541C193.957 21.9466 198.814 24.0185 202.568 27.5116C206.909 31.4538 210.268 37.2963 212.647 45.0392C215.026 52.7822 216.215 62.3455 216.215 73.7291C216.215 90.9422 213.609 103.971 208.398 112.816C203.186 121.661 196.113 126.081 187.179 126.078C185.582 126.081 183.989 125.927 182.422 125.62C183.293 126.139 184.175 126.636 185.074 127.1C185.968 127.394 186.87 127.651 187.782 127.87C189.186 127.917 190.591 127.862 191.987 127.708L191.529 127.77C195.949 127.379 200.388 128.287 204.299 130.383C208.672 132.695 211.687 136.866 213.479 141.377C214.596 140.713 215.713 139.998 216.83 139.233C225.068 133.4 231.396 124.944 235.815 113.866C240.233 102.787 242.439 89.4104 242.432 73.7347C242.394 58.1706 240.17 44.8829 235.759 33.8715Z" fill="#B8CEE3"/>
</g>
<defs>
<linearGradient id="paint0_linear_6986_75631" x1="172.592" y1="131.695" x2="172.592" y2="34.4301" gradientUnits="userSpaceOnUse">
<stop stop-color="#3365EF"/>
<stop offset="1" stop-color="#95B1FF"/>
</linearGradient>
<linearGradient id="paint1_linear_6986_75631" x1="252.148" y1="96.6061" x2="252.148" y2="70.8423" gradientUnits="userSpaceOnUse">
<stop stop-color="#3365EF"/>
<stop offset="1" stop-color="#95B1FF"/>
</linearGradient>
<clipPath id="clip0_6986_75631">
<rect width="320.591" height="148" fill="white"/>
</clipPath>
</defs>
</svg>
