<svg width="19" height="16" viewBox="0 0 19 16" fill="none" xmlns="http://www.w3.org/2000/svg">
<path d="M12.5845 14.9586C13.2489 15.4033 14.1406 14.927 14.1406 14.1275V12.5909C14.1406 12.3147 14.3645 12.0909 14.6406 12.0909H17.5065C18.0588 12.0909 18.5065 11.6432 18.5065 11.0909V1C18.5065 0.447715 18.0588 0 17.5065 0H1.15359C0.601309 0 0.153595 0.447715 0.153595 1V11.0909C0.153595 11.6432 0.60131 12.0909 1.15359 12.0909H7.99549C8.19352 12.0909 8.38708 12.1497 8.55166 12.2598L12.5845 14.9586Z" fill="#3FA3FF"/>
<circle cx="5.46849" cy="6.26171" r="1.06298" fill="#E6F9FE"/>
<circle cx="9.72039" cy="6.26171" r="1.06298" fill="#E6F9FE"/>
<circle cx="13.9723" cy="6.26171" r="1.06298" fill="#E6F9FE"/>
</svg>
