<svg width="246" height="37" viewBox="0 0 246 37" fill="none" xmlns="http://www.w3.org/2000/svg">
<path d="M17.2439 24.724C16.9199 24.796 16.5599 24.832 16.1999 24.832C13.7879 24.832 11.1959 23.5 9.14386 21.484C13.4639 19.864 15.7679 17.236 15.7679 14.248C15.7679 11.62 13.4279 9.64 10.0439 9.64C4.28386 9.64 0.755859 13.996 0.755859 19.252C0.755859 24.832 4.93186 28.36 10.0079 28.36C13.3559 28.36 15.7679 27.064 17.2799 24.76L17.2439 24.724ZM6.69586 10.9C8.24386 10.9 10.3319 13.564 10.3319 16.696C10.3319 18.532 9.93586 19.972 8.92786 21.268C6.76786 19.036 5.21986 16.012 5.21986 13.024C5.21986 11.692 5.75986 10.9 6.69586 10.9Z" fill="#E6F9FE"/>
<path d="M31.0729 18.316L36.1129 12.124L38.5249 10.36H31.4689L34.2409 12.124L30.7489 17.776L27.1849 12.124L29.2369 10.36H16.8889L19.1569 12.124L24.0889 19.972L18.9769 27.46H17.5369V28H23.3329V27.46H21.0649L24.4849 20.584L28.8049 27.46H27.0049V28H38.4529V27.46H36.8329L31.0729 18.316Z" fill="#E6F9FE"/>
<path d="M54.397 9.64C52.273 9.64 50.041 10.9 48.133 12.844V9.28L38.881 12.52L40.933 14.284V36.424H39.133V37H51.013V36.424H48.133V27.064C49.357 27.856 50.797 28.36 52.453 28.36C57.313 28.36 60.805 24.508 60.805 18.172C60.805 12.592 58.033 9.64 54.397 9.64ZM49.897 26.992C49.285 26.992 48.637 26.812 48.133 26.452V13.348C48.637 13.132 49.105 12.988 49.645 12.988C52.057 12.988 53.101 15.4 53.101 20.224C53.101 24.544 51.769 26.992 49.897 26.992Z" fill="#E6F9FE"/>
<path d="M79.822 24.724C79.498 24.796 79.138 24.832 78.778 24.832C76.366 24.832 73.774 23.5 71.722 21.484C76.042 19.864 78.346 17.236 78.346 14.248C78.346 11.62 76.006 9.64 72.622 9.64C66.862 9.64 63.334 13.996 63.334 19.252C63.334 24.832 67.51 28.36 72.586 28.36C75.934 28.36 78.346 27.064 79.858 24.76L79.822 24.724ZM69.274 10.9C70.822 10.9 72.91 13.564 72.91 16.696C72.91 18.532 72.514 19.972 71.506 21.268C69.346 19.036 67.798 16.012 67.798 13.024C67.798 11.692 68.338 10.9 69.274 10.9Z" fill="#E6F9FE"/>
<path d="M95.9466 9.604C94.2906 9.604 91.9506 11.296 89.8986 13.996V9.496L80.6466 12.592L82.6986 14.356V27.424H80.8986V28H92.5986V27.424H89.8986V14.392C91.1586 14.176 92.8506 15.112 96.5946 19.252H96.6306V9.712C96.4146 9.64 96.1986 9.604 95.9466 9.604Z" fill="#E6F9FE"/>
<path d="M113.494 24.652C112.774 24.94 112.162 25.048 111.37 25.048C108.706 25.048 107.734 23.5 107.734 19.324V10.936H112.81V10.36H107.734V3.052L97.7618 10.9V10.936H100.534V21.16C100.534 25.84 102.226 28.36 106.51 28.36C109.822 28.36 112.198 26.812 113.53 24.688L113.494 24.652Z" fill="#E6F9FE"/>
<path d="M128.695 28.36C133.123 28.36 136.903 26.056 136.903 22.312C136.903 20.08 135.607 18.28 133.123 16.948L130.423 15.508C128.299 14.392 127.723 13.492 127.723 12.232C127.723 11.224 128.515 10.324 130.099 10.324C130.279 10.324 130.531 10.36 130.711 10.432L134.887 16.372H134.923L136.327 10.684C134.563 10.036 132.691 9.64 130.351 9.64C125.563 9.64 122.611 12.016 122.611 15.652C122.611 18.388 124.051 20.08 127.039 21.664L129.415 22.924C130.927 23.716 131.575 24.328 131.575 25.408C131.575 26.884 130.495 27.712 128.911 27.712C128.479 27.712 128.227 27.676 127.723 27.532L123.259 21.556H123.223L122.107 27.424C124.627 28.18 127.003 28.36 128.695 28.36Z" fill="#E6F9FE"/>
<path d="M155.197 24.724C154.873 24.796 154.513 24.832 154.153 24.832C151.741 24.832 149.149 23.5 147.097 21.484C151.417 19.864 153.721 17.236 153.721 14.248C153.721 11.62 151.381 9.64 147.997 9.64C142.237 9.64 138.709 13.996 138.709 19.252C138.709 24.832 142.885 28.36 147.961 28.36C151.309 28.36 153.721 27.064 155.233 24.76L155.197 24.724ZM144.649 10.9C146.197 10.9 148.285 13.564 148.285 16.696C148.285 18.532 147.889 19.972 146.881 21.268C144.721 19.036 143.173 16.012 143.173 13.024C143.173 11.692 143.713 10.9 144.649 10.9Z" fill="#E6F9FE"/>
<path d="M163.078 28.36C167.506 28.36 171.286 26.056 171.286 22.312C171.286 20.08 169.99 18.28 167.506 16.948L164.806 15.508C162.682 14.392 162.106 13.492 162.106 12.232C162.106 11.224 162.898 10.324 164.482 10.324C164.662 10.324 164.914 10.36 165.094 10.432L169.27 16.372H169.306L170.71 10.684C168.946 10.036 167.074 9.64 164.734 9.64C159.946 9.64 156.994 12.016 156.994 15.652C156.994 18.388 158.434 20.08 161.422 21.664L163.798 22.924C165.31 23.716 165.958 24.328 165.958 25.408C165.958 26.884 164.878 27.712 163.294 27.712C162.862 27.712 162.61 27.676 162.106 27.532L157.642 21.556H157.606L156.49 27.424C159.01 28.18 161.386 28.36 163.078 28.36Z" fill="#E6F9FE"/>
<path d="M179.32 28.36C183.748 28.36 187.528 26.056 187.528 22.312C187.528 20.08 186.232 18.28 183.748 16.948L181.048 15.508C178.924 14.392 178.348 13.492 178.348 12.232C178.348 11.224 179.14 10.324 180.724 10.324C180.904 10.324 181.156 10.36 181.336 10.432L185.512 16.372H185.548L186.952 10.684C185.188 10.036 183.316 9.64 180.976 9.64C176.188 9.64 173.236 12.016 173.236 15.652C173.236 18.388 174.676 20.08 177.664 21.664L180.04 22.924C181.552 23.716 182.2 24.328 182.2 25.408C182.2 26.884 181.12 27.712 179.536 27.712C179.104 27.712 178.852 27.676 178.348 27.532L173.884 21.556H173.848L172.732 27.424C175.252 28.18 177.628 28.36 179.32 28.36Z" fill="#E6F9FE"/>
<path d="M194.158 8.668C196.714 8.668 198.154 7.048 198.154 4.636C198.154 2.26 196.714 0.639999 194.158 0.639999C191.602 0.639999 190.162 2.26 190.162 4.636C190.162 7.048 191.602 8.668 194.158 8.668ZM188.758 28H199.558V27.424H197.758V9.28L188.506 12.52L190.558 14.284V27.424H188.758V28Z" fill="#E6F9FE"/>
<path d="M211.399 28.36C218.239 28.36 221.587 24.148 221.587 18.892C221.587 13.24 217.303 9.64 211.363 9.64C205.495 9.64 201.463 13.744 201.463 18.892C201.463 24.688 206.215 28.36 211.399 28.36ZM215.431 27.064C212.479 27.064 206.251 16.228 206.251 12.7C206.251 11.584 206.791 10.936 207.691 10.936C210.859 10.936 216.907 22.204 216.907 25.228C216.907 26.452 216.403 27.064 215.431 27.064Z" fill="#E6F9FE"/>
<path d="M244.048 27.424V15.04C244.048 11.368 242.464 9.46 239.404 9.46C236.956 9.46 234.868 10.864 232.528 12.88V9.28L223.276 12.52L225.328 14.284V27.424H223.528V28H233.968V27.424H232.528V13.384C233.248 13.06 233.968 12.844 234.688 12.844C236.164 12.844 236.848 13.78 236.848 16.588V27.424H235.408V28H245.848V27.424H244.048Z" fill="#E6F9FE"/>
</svg>
