<svg width="68" height="64" viewBox="0 0 68 64" fill="none" xmlns="http://www.w3.org/2000/svg">
<path d="M33.9052 32.0954C26.1317 32.0954 19.3686 37.8773 18.1876 45.4173C18.0085 46.2812 17.9257 47.1622 17.9406 48.0443C17.9406 52.2761 19.6216 56.3344 22.6139 59.3267C25.6061 62.319 29.6645 64 33.8962 64C38.1279 64 42.1863 62.319 45.1786 59.3267C48.1708 56.3344 49.8519 52.2761 49.8519 48.0443C49.868 47.2056 49.7927 46.3676 49.6273 45.5452C48.4305 37.8773 41.6675 32.0954 33.894 32.0954H33.9052ZM41.2992 47.4605L33.3214 55.4339C33.1365 55.6196 32.9168 55.767 32.6748 55.8676C32.4328 55.9682 32.1734 56.02 31.9113 56.02C31.6492 56.02 31.3898 55.9682 31.1478 55.8676C30.9058 55.767 30.6861 55.6196 30.5012 55.4339L26.5112 51.4483C26.326 51.2632 26.1791 51.0433 26.0789 50.8014C25.9787 50.5594 25.9271 50.3001 25.9271 50.0382C25.9271 49.7764 25.9787 49.5171 26.0789 49.2751C26.1791 49.0332 26.326 48.8133 26.5112 48.6281C26.6964 48.443 26.9162 48.2961 27.1581 48.1959C27.4001 48.0956 27.6594 48.0441 27.9213 48.0441C28.1832 48.0441 28.4425 48.0956 28.6844 48.1959C28.9264 48.2961 29.1462 48.443 29.3314 48.6281L31.9113 51.2058L38.479 44.6404C38.853 44.2664 39.3602 44.0563 39.8891 44.0563C40.418 44.0563 40.9252 44.2664 41.2992 44.6404C41.6732 45.0143 41.8833 45.5216 41.8833 46.0505C41.8833 46.5793 41.6732 47.0866 41.2992 47.4605ZM1.26725e-06 3.18844V45.8506C-0.000294193 46.1125 0.0510781 46.372 0.151176 46.614C0.251274 46.856 0.398131 47.076 0.58334 47.2612C0.768549 47.4464 0.988473 47.5932 1.23052 47.6933C1.47256 47.7934 1.73197 47.8448 1.9939 47.8445H13.9685C13.9597 46.7353 14.0726 45.6284 14.3053 44.5438C15.7334 35.2839 24.185 28.1076 33.9052 28.1076C33.4734 28.108 33.0533 27.9677 32.7084 27.708L1.26725e-06 3.18844ZM65.4168 0H2.39357L33.9052 23.6236L65.4168 0ZM35.1042 27.7102C34.7591 27.9693 34.339 28.1088 33.9074 28.1076C43.6277 28.1076 52.095 35.3422 53.5837 44.93C53.7731 45.8911 53.8612 46.8695 53.8464 47.849H65.8188C66.0807 47.8493 66.3401 47.7979 66.5821 47.6978C66.8242 47.5977 67.0441 47.4509 67.2293 47.2657C67.4145 47.0805 67.5614 46.8605 67.6615 46.6185C67.7616 46.3764 67.813 46.117 67.8127 45.8551V3.19293L35.1042 27.7102Z" fill="url(#paint0_linear_7959_63932)"/>
<defs>
<linearGradient id="paint0_linear_7959_63932" x1="33.9042" y1="63.9999" x2="33.9042" y2="0" gradientUnits="userSpaceOnUse">
<stop stop-color="#3365EF"/>
<stop offset="1" stop-color="#95B1FF"/>
</linearGradient>
</defs>
</svg>
