<svg width="67" height="67" viewBox="0 0 67 67" fill="none" xmlns="http://www.w3.org/2000/svg">
<path d="M51.2969 31.7857L47.3711 27.9018V19.8906C48.4123 19.8906 49.4108 19.477 50.147 18.7408C50.8833 18.0046 51.2969 17.006 51.2969 15.9648V5.88867C51.2969 5.36808 51.0901 4.86881 50.722 4.5007C50.3538 4.13259 49.8546 3.92578 49.334 3.92578H1.96289C1.4423 3.92578 0.943031 4.13259 0.574917 4.5007C0.206804 4.86881 0 5.36808 0 5.88867L0 15.9648C0 18.1332 2.01916 19.8906 4.1875 19.8906V47.3711L27.7422 49.334L31.7857 51.2969C32.7672 60.1299 40.2654 67 49.334 67C59.0699 67 67 59.0699 67 49.334C67 40.2654 60.1299 32.7672 51.2969 31.7857Z" fill="url(#paint0_linear_147_2153)"/>
<path d="M49.3341 31.668C49.9902 31.6669 50.6457 31.7062 51.297 31.7857V15.9648H0.000100161V49.334C-0.00252441 49.5925 0.046455 49.8489 0.14417 50.0882C0.241885 50.3276 0.386372 50.545 0.569168 50.7278C0.751965 50.9106 0.969397 51.0551 1.20873 51.1528C1.44807 51.2505 1.70449 51.2995 1.96299 51.2969H31.7858C31.7063 50.6456 31.667 49.9901 31.6681 49.334C31.6681 39.598 39.5981 31.668 49.3341 31.668ZM41.4825 23.8164C41.8707 23.8164 42.2503 23.9315 42.573 24.1472C42.8958 24.3629 43.1474 24.6695 43.296 25.0281C43.4446 25.3868 43.4834 25.7815 43.4077 26.1622C43.332 26.543 43.145 26.8928 42.8705 27.1673C42.596 27.4418 42.2462 27.6287 41.8655 27.7045C41.4847 27.7802 41.09 27.7413 40.7314 27.5928C40.3727 27.4442 40.0661 27.1926 39.8504 26.8698C39.6348 26.547 39.5196 26.1675 39.5196 25.7793C39.517 25.5208 39.566 25.2644 39.6637 25.025C39.7614 24.7857 39.9059 24.5683 40.0887 24.3855C40.2715 24.2027 40.4889 24.0582 40.7283 23.9605C40.9676 23.8628 41.224 23.8138 41.4825 23.8164ZM10.0763 43.4453C9.68805 43.4453 9.30854 43.3302 8.98575 43.1145C8.66295 42.8988 8.41136 42.5923 8.2628 42.2336C8.11423 41.8749 8.07536 41.4802 8.1511 41.0995C8.22684 40.7187 8.41378 40.369 8.6883 40.0945C8.96281 39.8199 9.31257 39.633 9.69333 39.5573C10.0741 39.4815 10.4688 39.5204 10.8274 39.669C11.1861 39.8175 11.4927 40.0691 11.7084 40.3919C11.924 40.7147 12.0392 41.0942 12.0392 41.4824C12.0418 41.7409 11.9928 41.9974 11.8951 42.2367C11.7974 42.476 11.6529 42.6935 11.4701 42.8763C11.2873 43.059 11.0699 43.2035 10.8305 43.3012C10.5912 43.399 10.3348 43.4479 10.0763 43.4453ZM10.0763 35.5938C9.68805 35.5938 9.30854 35.4786 8.98575 35.2629C8.66295 35.0473 8.41136 34.7407 8.2628 34.382C8.11423 34.0234 8.07536 33.6287 8.1511 33.2479C8.22684 32.8672 8.41378 32.5174 8.6883 32.2429C8.96281 31.9684 9.31257 31.7814 9.69333 31.7057C10.0741 31.6299 10.4688 31.6688 10.8274 31.8174C11.1861 31.966 11.4927 32.2175 11.7084 32.5403C11.924 32.8631 12.0392 33.2426 12.0392 33.6309C12.0418 33.8894 11.9928 34.1458 11.8951 34.3851C11.7974 34.6245 11.6529 34.8419 11.4701 35.0247C11.2873 35.2075 11.0699 35.352 10.8305 35.4497C10.5912 35.5474 10.3348 35.5964 10.0763 35.5938ZM10.0763 27.7422C9.68805 27.7422 9.30854 27.6271 8.98575 27.4114C8.66295 27.1957 8.41136 26.8891 8.2628 26.5305C8.11423 26.1718 8.07536 25.7771 8.1511 25.3964C8.22684 25.0156 8.41378 24.6658 8.6883 24.3913C8.96281 24.1168 9.31257 23.9299 9.69333 23.8541C10.0741 23.7784 10.4688 23.8173 10.8274 23.9658C11.1861 24.1144 11.4927 24.366 11.7084 24.6888C11.924 25.0116 12.0392 25.3911 12.0392 25.7793C12.0418 26.0378 11.9928 26.2942 11.8951 26.5336C11.7974 26.7729 11.6529 26.9903 11.4701 27.1731C11.2873 27.3559 11.0699 27.5004 10.8305 27.5981C10.5912 27.6958 10.3348 27.7448 10.0763 27.7422ZM17.9278 43.4453C17.5396 43.4453 17.1601 43.3302 16.8373 43.1145C16.5145 42.8988 16.2629 42.5923 16.1144 42.2336C15.9658 41.8749 15.9269 41.4802 16.0027 41.0995C16.0784 40.7187 16.2653 40.369 16.5399 40.0945C16.8144 39.8199 17.1641 39.633 17.5449 39.5573C17.9257 39.4815 18.3203 39.5204 18.679 39.669C19.0377 39.8175 19.3442 40.0691 19.5599 40.3919C19.7756 40.7147 19.8907 41.0942 19.8907 41.4824C19.8933 41.7409 19.8444 41.9974 19.7467 42.2367C19.6489 42.476 19.5045 42.6935 19.3217 42.8763C19.1389 43.059 18.9214 43.2035 18.6821 43.3012C18.4428 43.399 18.1863 43.4479 17.9278 43.4453ZM17.9278 35.5938C17.5396 35.5938 17.1601 35.4786 16.8373 35.2629C16.5145 35.0473 16.2629 34.7407 16.1144 34.382C15.9658 34.0234 15.9269 33.6287 16.0027 33.2479C16.0784 32.8672 16.2653 32.5174 16.5399 32.2429C16.8144 31.9684 17.1641 31.7814 17.5449 31.7057C17.9257 31.6299 18.3203 31.6688 18.679 31.8174C19.0377 31.966 19.3442 32.2175 19.5599 32.5403C19.7756 32.8631 19.8907 33.2426 19.8907 33.6309C19.8933 33.8894 19.8444 34.1458 19.7467 34.3851C19.6489 34.6245 19.5045 34.8419 19.3217 35.0247C19.1389 35.2075 18.9214 35.352 18.6821 35.4497C18.4428 35.5474 18.1863 35.5964 17.9278 35.5938ZM17.9278 27.7422C17.5396 27.7422 17.1601 27.6271 16.8373 27.4114C16.5145 27.1957 16.2629 26.8891 16.1144 26.5305C15.9658 26.1718 15.9269 25.7771 16.0027 25.3964C16.0784 25.0156 16.2653 24.6658 16.5399 24.3913C16.8144 24.1168 17.1641 23.9299 17.5449 23.8541C17.9257 23.7784 18.3203 23.8173 18.679 23.9658C19.0377 24.1144 19.3442 24.366 19.5599 24.6888C19.7756 25.0116 19.8907 25.3911 19.8907 25.7793C19.8933 26.0378 19.8444 26.2942 19.7467 26.5336C19.6489 26.7729 19.5045 26.9903 19.3217 27.1731C19.1389 27.3559 18.9214 27.5004 18.6821 27.5981C18.4428 27.6958 18.1863 27.7448 17.9278 27.7422ZM25.7794 43.4453C25.3912 43.4453 25.0117 43.3302 24.6889 43.1145C24.3661 42.8988 24.1145 42.5923 23.9659 42.2336C23.8174 41.8749 23.7785 41.4802 23.8542 41.0995C23.93 40.7187 24.1169 40.369 24.3914 40.0945C24.6659 39.8199 25.0157 39.633 25.3965 39.5573C25.7772 39.4815 26.1719 39.5204 26.5306 39.669C26.8892 39.8175 27.1958 40.0691 27.4115 40.3919C27.6272 40.7147 27.7423 41.0942 27.7423 41.4824C27.7449 41.7409 27.6959 41.9974 27.5982 42.2367C27.5005 42.476 27.356 42.6935 27.1732 42.8763C26.9904 43.059 26.773 43.2035 26.5337 43.3012C26.2943 43.399 26.0379 43.4479 25.7794 43.4453ZM25.7794 35.5938C25.3912 35.5938 25.0117 35.4786 24.6889 35.2629C24.3661 35.0473 24.1145 34.7407 23.9659 34.382C23.8174 34.0234 23.7785 33.6287 23.8542 33.2479C23.93 32.8672 24.1169 32.5174 24.3914 32.2429C24.6659 31.9684 25.0157 31.7814 25.3965 31.7057C25.7772 31.6299 26.1719 31.6688 26.5306 31.8174C26.8892 31.966 27.1958 32.2175 27.4115 32.5403C27.6272 32.8631 27.7423 33.2426 27.7423 33.6309C27.7449 33.8894 27.6959 34.1458 27.5982 34.3851C27.5005 34.6245 27.356 34.8419 27.1732 35.0247C26.9904 35.2075 26.773 35.352 26.5337 35.4497C26.2943 35.5474 26.0379 35.5964 25.7794 35.5938ZM25.7794 27.7422C25.3912 27.7422 25.0117 27.6271 24.6889 27.4114C24.3661 27.1957 24.1145 26.8891 23.9659 26.5305C23.8174 26.1718 23.7785 25.7771 23.8542 25.3964C23.93 25.0156 24.1169 24.6658 24.3914 24.3913C24.6659 24.1168 25.0157 23.9299 25.3965 23.8541C25.7772 23.7784 26.1719 23.8173 26.5306 23.9658C26.8892 24.1144 27.1958 24.366 27.4115 24.6888C27.6272 25.0116 27.7423 25.3911 27.7423 25.7793C27.7449 26.0378 27.6959 26.2942 27.5982 26.5336C27.5005 26.7729 27.356 26.9903 27.1732 27.1731C26.9904 27.3559 26.773 27.5004 26.5337 27.5981C26.2943 27.6958 26.0379 27.7448 25.7794 27.7422ZM33.631 35.5938C33.2427 35.5938 32.8632 35.4786 32.5404 35.2629C32.2176 35.0473 31.9661 34.7407 31.8175 34.382C31.6689 34.0234 31.63 33.6287 31.7058 33.2479C31.7815 32.8672 31.9685 32.5174 32.243 32.2429C32.5175 31.9684 32.8673 31.7814 33.248 31.7057C33.6288 31.6299 34.0235 31.6688 34.3821 31.8174C34.7408 31.966 35.0474 32.2175 35.263 32.5403C35.4787 32.8631 35.5938 33.2426 35.5938 33.6309C35.5965 33.8894 35.5475 34.1458 35.4498 34.3851C35.3521 34.6245 35.2076 34.8419 35.0248 35.0247C34.842 35.2075 34.6245 35.352 34.3852 35.4497C34.1459 35.5474 33.8895 35.5964 33.631 35.5938ZM33.631 27.7422C33.2427 27.7422 32.8632 27.6271 32.5404 27.4114C32.2176 27.1957 31.9661 26.8891 31.8175 26.5305C31.6689 26.1718 31.63 25.7771 31.7058 25.3964C31.7815 25.0156 31.9685 24.6658 32.243 24.3913C32.5175 24.1168 32.8673 23.9299 33.248 23.8541C33.6288 23.7784 34.0235 23.8173 34.3821 23.9658C34.7408 24.1144 35.0474 24.366 35.263 24.6888C35.4787 25.0116 35.5938 25.3911 35.5938 25.7793C35.5965 26.0378 35.5475 26.2942 35.4498 26.5336C35.3521 26.7729 35.2076 26.9903 35.0248 27.1731C34.842 27.3559 34.6245 27.5004 34.3852 27.5981C34.1459 27.6958 33.8895 27.7448 33.631 27.7422ZM10.0763 11.7773C10.5969 11.7773 11.0961 11.5705 11.4642 11.2024C11.8324 10.8343 12.0392 10.335 12.0392 9.81445V1.96289C12.0392 1.4423 11.8324 0.943031 11.4642 0.574917C11.0961 0.206804 10.5969 0 10.0763 0C9.55568 0 9.05641 0.206804 8.6883 0.574917C8.32018 0.943031 8.11338 1.4423 8.11338 1.96289V9.81445C8.11338 10.335 8.32018 10.8343 8.6883 11.2024C9.05641 11.5705 9.55568 11.7773 10.0763 11.7773ZM41.4825 11.7773C42.0031 11.7773 42.5024 11.5705 42.8705 11.2024C43.2386 10.8343 43.4454 10.335 43.4454 9.81445V1.96289C43.4454 1.4423 43.2386 0.943031 42.8705 0.574917C42.5024 0.206804 42.0031 0 41.4825 0C40.9619 0 40.4627 0.206804 40.0945 0.574917C39.7264 0.943031 39.5196 1.4423 39.5196 1.96289V9.81445C39.5196 10.335 39.7264 10.8343 40.0945 11.2024C40.4627 11.5705 40.9619 11.7773 41.4825 11.7773Z" fill="url(#paint1_linear_147_2153)"/>
<path fill-rule="evenodd" clip-rule="evenodd" d="M54.0648 42.9392L49.9009 47.1031L45.737 42.9392C45.3689 42.5711 44.8696 42.3643 44.349 42.3643C43.8284 42.3643 43.3291 42.5711 42.961 42.9392C42.5929 43.3073 42.3861 43.8066 42.3861 44.3272C42.3861 44.8478 42.5929 45.3471 42.961 45.7152L47.0411 49.7953L43.0475 53.7888C42.6794 54.1569 42.4726 54.6562 42.4726 55.1768C42.4726 55.6974 42.6794 56.1967 43.0475 56.5648C43.4157 56.9329 43.9149 57.1397 44.4355 57.1397C44.9561 57.1397 45.4554 56.9329 45.8235 56.5648L49.9874 52.4009L54.1513 56.5648C54.5194 56.9329 55.0187 57.1397 55.5393 57.1397C56.0599 57.1397 56.5592 56.9329 56.9273 56.5648C57.2954 56.1967 57.5022 55.6974 57.5022 55.1768C57.5022 54.6562 57.2954 54.1569 56.9273 53.7888L52.8472 49.7087L56.8408 45.7152C57.2089 45.3471 57.4157 44.8478 57.4157 44.3272C57.4157 43.8066 57.2089 43.3073 56.8408 42.9392C56.4727 42.5711 55.9734 42.3643 55.4528 42.3643C54.9322 42.3643 54.4329 42.5711 54.0648 42.9392Z" fill="#3A6BF2"/>
<defs>
<linearGradient id="paint0_linear_147_2153" x1="33.5" y1="67" x2="33.5" y2="3.92578" gradientUnits="userSpaceOnUse">
<stop stop-color="#39A6F5"/>
<stop offset="1" stop-color="#EAF6FF"/>
</linearGradient>
<linearGradient id="paint1_linear_147_2153" x1="29.5743" y1="51.2969" x2="29.5743" y2="0" gradientUnits="userSpaceOnUse">
<stop stop-color="#3365EF"/>
<stop offset="1" stop-color="#95B1FF"/>
</linearGradient>
</defs>
</svg>
