<svg width="68" height="67" viewBox="0 0 68 67" fill="none" xmlns="http://www.w3.org/2000/svg">
<path d="M51.7969 31.7857L47.8711 27.9018V19.8906C48.9123 19.8906 49.9108 19.477 50.647 18.7408C51.3833 18.0046 51.7969 17.006 51.7969 15.9648V5.88867C51.7969 5.36808 51.5901 4.86881 51.222 4.5007C50.8538 4.13259 50.3546 3.92578 49.834 3.92578H2.46289C1.9423 3.92578 1.44303 4.13259 1.07492 4.5007C0.706804 4.86881 0.5 5.36808 0.5 5.88867L0.5 15.9648C0.5 18.1332 2.51916 19.8906 4.6875 19.8906V47.3711L28.2422 49.334L32.2857 51.2969C33.2672 60.1299 40.7654 67 49.834 67C59.5699 67 67.5 59.0699 67.5 49.334C67.5 40.2654 60.6299 32.7672 51.7969 31.7857Z" fill="url(#paint0_linear_147_2153)"/>
<path d="M49.8341 31.668C50.4902 31.6669 51.1457 31.7062 51.797 31.7857V15.9648H0.5001V49.334C0.497476 49.5925 0.546455 49.8489 0.64417 50.0882C0.741885 50.3276 0.886372 50.545 1.06917 50.7278C1.25196 50.9106 1.4694 51.0551 1.70873 51.1528C1.94807 51.2505 2.20449 51.2995 2.46299 51.2969H32.2858C32.2063 50.6456 32.167 49.9901 32.1681 49.334C32.1681 39.598 40.0981 31.668 49.8341 31.668ZM41.9825 23.8164C42.3707 23.8164 42.7503 23.9315 43.073 24.1472C43.3958 24.3629 43.6474 24.6695 43.796 25.0281C43.9446 25.3868 43.9834 25.7815 43.9077 26.1622C43.832 26.543 43.645 26.8928 43.3705 27.1673C43.096 27.4418 42.7462 27.6287 42.3655 27.7045C41.9847 27.7802 41.59 27.7413 41.2314 27.5928C40.8727 27.4442 40.5661 27.1926 40.3504 26.8698C40.1348 26.547 40.0196 26.1675 40.0196 25.7793C40.017 25.5208 40.066 25.2644 40.1637 25.025C40.2614 24.7857 40.4059 24.5683 40.5887 24.3855C40.7715 24.2027 40.9889 24.0582 41.2283 23.9605C41.4676 23.8628 41.724 23.8138 41.9825 23.8164ZM10.5763 43.4453C10.188 43.4453 9.80854 43.3302 9.48575 43.1145C9.16295 42.8988 8.91136 42.5923 8.7628 42.2336C8.61423 41.8749 8.57536 41.4802 8.6511 41.0995C8.72684 40.7187 8.91378 40.369 9.1883 40.0945C9.46281 39.8199 9.81257 39.633 10.1933 39.5573C10.5741 39.4815 10.9688 39.5204 11.3274 39.669C11.6861 39.8175 11.9927 40.0691 12.2084 40.3919C12.424 40.7147 12.5392 41.0942 12.5392 41.4824C12.5418 41.7409 12.4928 41.9974 12.3951 42.2367C12.2974 42.476 12.1529 42.6935 11.9701 42.8763C11.7873 43.059 11.5699 43.2035 11.3305 43.3012C11.0912 43.399 10.8348 43.4479 10.5763 43.4453ZM10.5763 35.5938C10.188 35.5938 9.80854 35.4786 9.48575 35.2629C9.16295 35.0473 8.91136 34.7407 8.7628 34.382C8.61423 34.0234 8.57536 33.6287 8.6511 33.2479C8.72684 32.8672 8.91378 32.5174 9.1883 32.2429C9.46281 31.9684 9.81257 31.7814 10.1933 31.7057C10.5741 31.6299 10.9688 31.6688 11.3274 31.8174C11.6861 31.966 11.9927 32.2175 12.2084 32.5403C12.424 32.8631 12.5392 33.2426 12.5392 33.6309C12.5418 33.8894 12.4928 34.1458 12.3951 34.3851C12.2974 34.6245 12.1529 34.8419 11.9701 35.0247C11.7873 35.2075 11.5699 35.352 11.3305 35.4497C11.0912 35.5474 10.8348 35.5964 10.5763 35.5938ZM10.5763 27.7422C10.188 27.7422 9.80854 27.6271 9.48575 27.4114C9.16295 27.1957 8.91136 26.8891 8.7628 26.5305C8.61423 26.1718 8.57536 25.7771 8.6511 25.3964C8.72684 25.0156 8.91378 24.6658 9.1883 24.3913C9.46281 24.1168 9.81257 23.9299 10.1933 23.8541C10.5741 23.7784 10.9688 23.8173 11.3274 23.9658C11.6861 24.1144 11.9927 24.366 12.2084 24.6888C12.424 25.0116 12.5392 25.3911 12.5392 25.7793C12.5418 26.0378 12.4928 26.2942 12.3951 26.5336C12.2974 26.7729 12.1529 26.9903 11.9701 27.1731C11.7873 27.3559 11.5699 27.5004 11.3305 27.5981C11.0912 27.6958 10.8348 27.7448 10.5763 27.7422ZM18.4278 43.4453C18.0396 43.4453 17.6601 43.3302 17.3373 43.1145C17.0145 42.8988 16.7629 42.5923 16.6144 42.2336C16.4658 41.8749 16.4269 41.4802 16.5027 41.0995C16.5784 40.7187 16.7653 40.369 17.0399 40.0945C17.3144 39.8199 17.6641 39.633 18.0449 39.5573C18.4257 39.4815 18.8203 39.5204 19.179 39.669C19.5377 39.8175 19.8442 40.0691 20.0599 40.3919C20.2756 40.7147 20.3907 41.0942 20.3907 41.4824C20.3933 41.7409 20.3444 41.9974 20.2467 42.2367C20.1489 42.476 20.0045 42.6935 19.8217 42.8763C19.6389 43.059 19.4214 43.2035 19.1821 43.3012C18.9428 43.399 18.6863 43.4479 18.4278 43.4453ZM18.4278 35.5938C18.0396 35.5938 17.6601 35.4786 17.3373 35.2629C17.0145 35.0473 16.7629 34.7407 16.6144 34.382C16.4658 34.0234 16.4269 33.6287 16.5027 33.2479C16.5784 32.8672 16.7653 32.5174 17.0399 32.2429C17.3144 31.9684 17.6641 31.7814 18.0449 31.7057C18.4257 31.6299 18.8203 31.6688 19.179 31.8174C19.5377 31.966 19.8442 32.2175 20.0599 32.5403C20.2756 32.8631 20.3907 33.2426 20.3907 33.6309C20.3933 33.8894 20.3444 34.1458 20.2467 34.3851C20.1489 34.6245 20.0045 34.8419 19.8217 35.0247C19.6389 35.2075 19.4214 35.352 19.1821 35.4497C18.9428 35.5474 18.6863 35.5964 18.4278 35.5938ZM18.4278 27.7422C18.0396 27.7422 17.6601 27.6271 17.3373 27.4114C17.0145 27.1957 16.7629 26.8891 16.6144 26.5305C16.4658 26.1718 16.4269 25.7771 16.5027 25.3964C16.5784 25.0156 16.7653 24.6658 17.0399 24.3913C17.3144 24.1168 17.6641 23.9299 18.0449 23.8541C18.4257 23.7784 18.8203 23.8173 19.179 23.9658C19.5377 24.1144 19.8442 24.366 20.0599 24.6888C20.2756 25.0116 20.3907 25.3911 20.3907 25.7793C20.3933 26.0378 20.3444 26.2942 20.2467 26.5336C20.1489 26.7729 20.0045 26.9903 19.8217 27.1731C19.6389 27.3559 19.4214 27.5004 19.1821 27.5981C18.9428 27.6958 18.6863 27.7448 18.4278 27.7422ZM26.2794 43.4453C25.8912 43.4453 25.5117 43.3302 25.1889 43.1145C24.8661 42.8988 24.6145 42.5923 24.4659 42.2336C24.3174 41.8749 24.2785 41.4802 24.3542 41.0995C24.43 40.7187 24.6169 40.369 24.8914 40.0945C25.1659 39.8199 25.5157 39.633 25.8965 39.5573C26.2772 39.4815 26.6719 39.5204 27.0306 39.669C27.3892 39.8175 27.6958 40.0691 27.9115 40.3919C28.1272 40.7147 28.2423 41.0942 28.2423 41.4824C28.2449 41.7409 28.1959 41.9974 28.0982 42.2367C28.0005 42.476 27.856 42.6935 27.6732 42.8763C27.4904 43.059 27.273 43.2035 27.0337 43.3012C26.7943 43.399 26.5379 43.4479 26.2794 43.4453ZM26.2794 35.5938C25.8912 35.5938 25.5117 35.4786 25.1889 35.2629C24.8661 35.0473 24.6145 34.7407 24.4659 34.382C24.3174 34.0234 24.2785 33.6287 24.3542 33.2479C24.43 32.8672 24.6169 32.5174 24.8914 32.2429C25.1659 31.9684 25.5157 31.7814 25.8965 31.7057C26.2772 31.6299 26.6719 31.6688 27.0306 31.8174C27.3892 31.966 27.6958 32.2175 27.9115 32.5403C28.1272 32.8631 28.2423 33.2426 28.2423 33.6309C28.2449 33.8894 28.1959 34.1458 28.0982 34.3851C28.0005 34.6245 27.856 34.8419 27.6732 35.0247C27.4904 35.2075 27.273 35.352 27.0337 35.4497C26.7943 35.5474 26.5379 35.5964 26.2794 35.5938ZM26.2794 27.7422C25.8912 27.7422 25.5117 27.6271 25.1889 27.4114C24.8661 27.1957 24.6145 26.8891 24.4659 26.5305C24.3174 26.1718 24.2785 25.7771 24.3542 25.3964C24.43 25.0156 24.6169 24.6658 24.8914 24.3913C25.1659 24.1168 25.5157 23.9299 25.8965 23.8541C26.2772 23.7784 26.6719 23.8173 27.0306 23.9658C27.3892 24.1144 27.6958 24.366 27.9115 24.6888C28.1272 25.0116 28.2423 25.3911 28.2423 25.7793C28.2449 26.0378 28.1959 26.2942 28.0982 26.5336C28.0005 26.7729 27.856 26.9903 27.6732 27.1731C27.4904 27.3559 27.273 27.5004 27.0337 27.5981C26.7943 27.6958 26.5379 27.7448 26.2794 27.7422ZM34.131 35.5938C33.7427 35.5938 33.3632 35.4786 33.0404 35.2629C32.7176 35.0473 32.4661 34.7407 32.3175 34.382C32.1689 34.0234 32.13 33.6287 32.2058 33.2479C32.2815 32.8672 32.4685 32.5174 32.743 32.2429C33.0175 31.9684 33.3673 31.7814 33.748 31.7057C34.1288 31.6299 34.5235 31.6688 34.8821 31.8174C35.2408 31.966 35.5474 32.2175 35.763 32.5403C35.9787 32.8631 36.0938 33.2426 36.0938 33.6309C36.0965 33.8894 36.0475 34.1458 35.9498 34.3851C35.8521 34.6245 35.7076 34.8419 35.5248 35.0247C35.342 35.2075 35.1245 35.352 34.8852 35.4497C34.6459 35.5474 34.3895 35.5964 34.131 35.5938ZM34.131 27.7422C33.7427 27.7422 33.3632 27.6271 33.0404 27.4114C32.7176 27.1957 32.4661 26.8891 32.3175 26.5305C32.1689 26.1718 32.13 25.7771 32.2058 25.3964C32.2815 25.0156 32.4685 24.6658 32.743 24.3913C33.0175 24.1168 33.3673 23.9299 33.748 23.8541C34.1288 23.7784 34.5235 23.8173 34.8821 23.9658C35.2408 24.1144 35.5474 24.366 35.763 24.6888C35.9787 25.0116 36.0938 25.3911 36.0938 25.7793C36.0965 26.0378 36.0475 26.2942 35.9498 26.5336C35.8521 26.7729 35.7076 26.9903 35.5248 27.1731C35.342 27.3559 35.1245 27.5004 34.8852 27.5981C34.6459 27.6958 34.3895 27.7448 34.131 27.7422ZM10.5763 11.7773C11.0969 11.7773 11.5961 11.5705 11.9642 11.2024C12.3324 10.8343 12.5392 10.335 12.5392 9.81445V1.96289C12.5392 1.4423 12.3324 0.943031 11.9642 0.574917C11.5961 0.206804 11.0969 0 10.5763 0C10.0557 0 9.55641 0.206804 9.1883 0.574917C8.82018 0.943031 8.61338 1.4423 8.61338 1.96289V9.81445C8.61338 10.335 8.82018 10.8343 9.1883 11.2024C9.55641 11.5705 10.0557 11.7773 10.5763 11.7773ZM41.9825 11.7773C42.5031 11.7773 43.0024 11.5705 43.3705 11.2024C43.7386 10.8343 43.9454 10.335 43.9454 9.81445V1.96289C43.9454 1.4423 43.7386 0.943031 43.3705 0.574917C43.0024 0.206804 42.5031 0 41.9825 0C41.4619 0 40.9627 0.206804 40.5945 0.574917C40.2264 0.943031 40.0196 1.4423 40.0196 1.96289V9.81445C40.0196 10.335 40.2264 10.8343 40.5945 11.2024C40.9627 11.5705 41.4619 11.7773 41.9825 11.7773Z" fill="url(#paint1_linear_147_2153)"/>
<path d="M50.9925 52.4008L46.8286 56.5647C46.4604 56.9328 45.9612 57.1396 45.4406 57.1396C44.92 57.1396 44.4207 56.9328 44.0526 56.5647C43.6845 56.1966 43.4777 55.6974 43.4777 55.1768C43.4777 54.6562 43.6845 54.1569 44.0526 53.7888L49.6045 48.2369C49.9726 47.8688 50.4719 47.662 50.9925 47.662C51.5131 47.662 52.0123 47.8688 52.3804 48.2369L57.9323 53.7888C58.3005 54.1569 58.5073 54.6562 58.5073 55.1768C58.5073 55.6973 58.3005 56.1966 57.9323 56.5647C57.5642 56.9328 57.065 57.1396 56.5444 57.1396C56.0238 57.1396 55.5245 56.9328 55.1564 56.5647L50.9925 52.4008Z" fill="url(#paint2_linear_147_2153)"/>
<path d="M50.906 47.1031L55.0699 42.9392C55.438 42.5711 55.9373 42.3643 56.4579 42.3643C56.9785 42.3643 57.4777 42.5711 57.8458 42.9392C58.2139 43.3073 58.4207 43.8066 58.4207 44.3271C58.4207 44.8477 58.2139 45.347 57.8458 45.7151L52.2939 51.267C51.9258 51.6351 51.4266 51.8419 50.906 51.8419C50.3854 51.8419 49.8861 51.6351 49.518 51.267L43.9661 45.7151C43.598 45.347 43.3912 44.8477 43.3912 44.3271C43.3912 43.8066 43.598 43.3073 43.9661 42.9392C44.3342 42.5711 44.8335 42.3643 45.3541 42.3643C45.8747 42.3643 46.3739 42.5711 46.742 42.9392L50.906 47.1031Z" fill="url(#paint3_linear_147_2153)"/>
<defs>
<linearGradient id="paint0_linear_147_2153" x1="34" y1="67" x2="34" y2="3.92578" gradientUnits="userSpaceOnUse">
<stop stop-color="#39A6F5"/>
<stop offset="1" stop-color="#B6E0FF"/>
</linearGradient>
<linearGradient id="paint1_linear_147_2153" x1="30.0743" y1="51.2969" x2="30.0743" y2="0" gradientUnits="userSpaceOnUse">
<stop stop-color="#3365EF"/>
<stop offset="1" stop-color="#95B1FF"/>
</linearGradient>
<linearGradient id="paint2_linear_147_2153" x1="63.5794" y1="34.2619" x2="99.8518" y2="70.5343" gradientUnits="userSpaceOnUse">
<stop stop-color="#3365EF"/>
<stop offset="1" stop-color="#95B1FF"/>
</linearGradient>
<linearGradient id="paint3_linear_147_2153" x1="38.319" y1="65.242" x2="2.04662" y2="28.9696" gradientUnits="userSpaceOnUse">
<stop stop-color="#3365EF"/>
<stop offset="1" stop-color="#95B1FF"/>
</linearGradient>
</defs>
</svg>

