<svg width="24" height="24" viewBox="0 0 24 24" fill="none" xmlns="http://www.w3.org/2000/svg">
<path d="M2.91939 18.6412C2.9491 18.6809 2.97065 18.7261 2.98278 18.7742C2.99492 18.8223 2.99739 18.8723 2.99007 18.9213C2.98275 18.9704 2.96578 19.0175 2.94014 19.0599C2.91449 19.1023 2.88069 19.1393 2.84068 19.1686C2.80067 19.1978 2.75525 19.2189 2.70704 19.2305C2.65884 19.2421 2.60881 19.2441 2.55985 19.2362C2.51089 19.2284 2.46398 19.2109 2.42181 19.1848C2.37965 19.1587 2.34309 19.1245 2.31423 19.0842C0.685326 16.8571 -0.126324 14.1367 0.0159777 11.3811C0.15828 8.62559 1.24584 6.00326 3.09549 3.9558C4.94514 1.90833 7.44387 0.560836 10.1709 0.14025C12.8978 -0.280337 15.6865 0.251684 18.067 1.64671L17.7136 0.76874C17.6763 0.676494 17.6772 0.573211 17.716 0.481611C17.7549 0.390011 17.8285 0.317599 17.9208 0.280302C18.013 0.243006 18.1163 0.243882 18.2079 0.282738C18.2995 0.321593 18.3719 0.395244 18.4092 0.48749L19.2103 2.47687C19.2316 2.52965 19.2406 2.58658 19.2365 2.64334C19.2325 2.70011 19.2157 2.75521 19.1872 2.80449C19.1588 2.85377 19.1195 2.89593 19.0723 2.92777C19.0251 2.95961 18.9714 2.9803 18.915 2.98827L16.7916 3.28921C16.774 3.29184 16.7563 3.29309 16.7386 3.29296C16.6438 3.29286 16.5525 3.25683 16.4832 3.19213C16.4138 3.12744 16.3716 3.03887 16.3649 2.94428C16.3583 2.84968 16.3877 2.75607 16.4473 2.6823C16.5069 2.60854 16.5922 2.56009 16.6861 2.54671L17.8388 2.38358C16.0805 1.31276 14.0606 0.748264 12.0019 0.752334C5.79845 0.752334 0.751887 5.7989 0.751887 12.0023C0.745824 14.3902 1.50551 16.717 2.91939 18.6412Z" fill="#ABD1F5"/>
<path d="M21.6884 4.92043C21.6595 4.88011 21.623 4.84591 21.5808 4.81981C21.5387 4.79372 21.4917 4.77624 21.4428 4.76839C21.3938 4.76055 21.3438 4.76249 21.2956 4.77411C21.2474 4.78573 21.202 4.80679 21.162 4.83608C21.1219 4.86536 21.0881 4.90229 21.0625 4.94473C21.0369 4.98717 21.0199 5.03427 21.0126 5.08331C21.0052 5.13235 21.0077 5.18236 21.0199 5.23044C21.032 5.27851 21.0535 5.3237 21.0832 5.3634C22.4976 7.28742 23.2575 9.61438 23.2512 12.0023C23.2512 18.2057 18.2047 23.2523 12.0012 23.2523C9.94246 23.2562 7.9226 22.6916 6.16434 21.6206L7.317 21.4575C7.41459 21.4425 7.50233 21.3896 7.56119 21.3104C7.62005 21.2311 7.64528 21.1318 7.63139 21.0341C7.61751 20.9363 7.56563 20.848 7.48703 20.7882C7.40842 20.7285 7.30943 20.7022 7.21153 20.715L5.08809 21.0159C5.03175 21.0239 4.97796 21.0446 4.9308 21.0764C4.88363 21.1082 4.84433 21.1504 4.81588 21.1997C4.78742 21.249 4.77056 21.3041 4.76655 21.3608C4.76255 21.4176 4.77152 21.4745 4.79278 21.5273L5.59387 23.5167C5.62193 23.586 5.67008 23.6454 5.73214 23.6872C5.79421 23.7289 5.86735 23.7512 5.94215 23.7511C5.99036 23.7513 6.03813 23.742 6.08278 23.7239C6.17502 23.6867 6.24872 23.6144 6.28767 23.5229C6.32661 23.4314 6.3276 23.3281 6.29043 23.2359L5.937 22.3575C8.31757 23.751 11.1055 24.2818 13.8316 23.8605C16.5577 23.4393 19.0554 22.0917 20.9043 20.0447C22.7533 17.9977 23.8405 15.3761 23.9831 12.6214C24.1256 9.86665 23.3148 7.14691 21.687 4.91996L21.6884 4.92043Z" fill="#ABD1F5"/>
<path d="M12.0011 6.00195C10.8141 6.00195 9.65376 6.35396 8.66684 7.01347C7.67992 7.67297 6.91075 8.61034 6.4566 9.70702C6.00246 10.8037 5.88374 12.0104 6.11547 13.1746C6.3472 14.3387 6.91896 15.408 7.75844 16.2472C8.59792 17.0864 9.66741 17.6578 10.8317 17.8891C11.9959 18.1204 13.2026 18.0012 14.2991 17.5467C15.3956 17.0921 16.3327 16.3226 16.9918 15.3355C17.651 14.3483 18.0026 13.1879 18.0022 12.0009C17.9999 10.4102 17.3668 8.88534 16.2418 7.76076C15.1168 6.63617 13.5918 6.00366 12.0011 6.00195V6.00195ZM12.0011 17.2109C10.9731 17.2092 9.96865 16.9029 9.11461 16.3307C8.26057 15.7585 7.59524 14.9461 7.20263 13.996C6.81002 13.0459 6.70774 12.0008 6.90871 10.9927C7.10968 9.98449 7.60488 9.05849 8.33179 8.33158C9.05869 7.60468 9.9847 7.10947 10.9929 6.9085C12.001 6.70753 13.0461 6.80981 13.9962 7.20242C14.9463 7.59503 15.7587 8.26036 16.3309 9.1144C16.9031 9.96844 17.2094 10.9729 17.2111 12.0009C17.2116 12.6852 17.0773 13.363 16.8156 13.9953C16.554 14.6277 16.1703 15.2023 15.6864 15.6862C15.2025 16.1701 14.6279 16.5538 13.9955 16.8154C13.3632 17.0771 12.6854 17.2114 12.0011 17.2109Z" fill="#ABD1F5"/>
<path d="M14.9739 11.5679H12.4024V8.16859C12.4064 8.11362 12.3991 8.05839 12.3808 8.00638C12.3625 7.95437 12.3337 7.90668 12.2962 7.8663C12.2587 7.82591 12.2132 7.7937 12.1627 7.77168C12.1122 7.74965 12.0576 7.73828 12.0025 7.73828C11.9474 7.73828 11.8928 7.74965 11.8423 7.77168C11.7918 7.7937 11.7463 7.82591 11.7088 7.8663C11.6713 7.90668 11.6425 7.95437 11.6242 8.00638C11.6059 8.05839 11.5986 8.11362 11.6026 8.16859V12.3676H14.9739C15.0749 12.3602 15.1693 12.3149 15.2383 12.2407C15.3072 12.1665 15.3455 12.069 15.3455 11.9678C15.3455 11.8665 15.3072 11.769 15.2383 11.6948C15.1693 11.6207 15.0749 11.5753 14.9739 11.5679Z" fill="#ABD1F5"/>
</svg>
