<svg width="81" height="73" viewBox="0 0 81 73" fill="none" xmlns="http://www.w3.org/2000/svg">
<path d="M67.0625 0.640625H5.96875C3.03474 0.640625 0.65625 3.01911 0.65625 5.95312V45.7969C0.65625 48.7309 3.03474 51.1094 5.96875 51.1094H67.0625C69.9965 51.1094 72.375 48.7309 72.375 45.7969V5.95312C72.375 3.01911 69.9965 0.640625 67.0625 0.640625Z" fill="#A6A1CE"/>
<path d="M0.65625 11.2656H72.375V24.5469H0.65625V11.2656Z" fill="#8A86AC"/>
<path d="M60.4219 72.3594C71.4244 72.3594 80.3438 63.44 80.3438 52.4375C80.3438 41.435 71.4244 32.5156 60.4219 32.5156C49.4193 32.5156 40.5 41.435 40.5 52.4375C40.5 63.44 49.4193 72.3594 60.4219 72.3594Z" fill="#F0725C"/>
<path d="M68.3899 61.7344C68.0377 61.7343 67.7 61.5944 67.4509 61.3453L51.5134 45.4078C51.2715 45.1573 51.1376 44.8218 51.1407 44.4736C51.1437 44.1253 51.2834 43.7922 51.5296 43.546C51.7759 43.2997 52.109 43.1601 52.4572 43.157C52.8054 43.154 53.1409 43.2879 53.3914 43.5298L69.3289 59.4673C69.5146 59.653 69.641 59.8897 69.6923 60.1473C69.7435 60.4049 69.7172 60.6719 69.6167 60.9145C69.5162 61.1572 69.346 61.3646 69.1277 61.5105C68.9093 61.6564 68.6526 61.7344 68.3899 61.7344Z" fill="#F1F2F2"/>
<path d="M52.4528 61.7344C52.1902 61.7344 51.9335 61.6564 51.7151 61.5105C51.4968 61.3646 51.3266 61.1572 51.2261 60.9145C51.1256 60.6719 51.0993 60.4049 51.1505 60.1473C51.2017 59.8897 51.3282 59.653 51.5139 59.4673L67.4514 43.5298C67.7018 43.2879 68.0373 43.154 68.3856 43.157C68.7338 43.1601 69.0669 43.2997 69.3132 43.546C69.5594 43.7922 69.6991 44.1253 69.7021 44.4736C69.7051 44.8218 69.5713 45.1573 69.3293 45.4078L53.3918 61.3453C53.1428 61.5944 52.8051 61.7343 52.4528 61.7344Z" fill="#F1F2F2"/>
<path d="M7.29688 37.8281C6.94463 37.8281 6.60682 37.6882 6.35775 37.4391C6.10868 37.1901 5.96875 36.8522 5.96875 36.5V33.8438C5.96875 33.4915 6.10868 33.1537 6.35775 32.9046C6.60682 32.6556 6.94463 32.5156 7.29688 32.5156C7.64912 32.5156 7.98693 32.6556 8.236 32.9046C8.48507 33.1537 8.625 33.4915 8.625 33.8438V36.5C8.625 36.8522 8.48507 37.1901 8.236 37.4391C7.98693 37.6882 7.64912 37.8281 7.29688 37.8281Z" fill="#F1F2F2"/>
<path d="M11.2812 37.8281C10.929 37.8281 10.5912 37.6882 10.3421 37.4391C10.0931 37.1901 9.95312 36.8522 9.95312 36.5V33.8438C9.95312 33.4915 10.0931 33.1537 10.3421 32.9046C10.5912 32.6556 10.929 32.5156 11.2812 32.5156C11.6335 32.5156 11.9713 32.6556 12.2204 32.9046C12.4694 33.1537 12.6094 33.4915 12.6094 33.8438V36.5C12.6094 36.8522 12.4694 37.1901 12.2204 37.4391C11.9713 37.6882 11.6335 37.8281 11.2812 37.8281Z" fill="#F1F2F2"/>
<path d="M15.2656 37.8281C14.9134 37.8281 14.5756 37.6882 14.3265 37.4391C14.0774 37.1901 13.9375 36.8522 13.9375 36.5V33.8438C13.9375 33.4915 14.0774 33.1537 14.3265 32.9046C14.5756 32.6556 14.9134 32.5156 15.2656 32.5156C15.6179 32.5156 15.9557 32.6556 16.2048 32.9046C16.4538 33.1537 16.5938 33.4915 16.5938 33.8438V36.5C16.5938 36.8522 16.4538 37.1901 16.2048 37.4391C15.9557 37.6882 15.6179 37.8281 15.2656 37.8281Z" fill="#F1F2F2"/>
<path d="M19.25 37.8281C18.8978 37.8281 18.5599 37.6882 18.3109 37.4391C18.0618 37.1901 17.9219 36.8522 17.9219 36.5V33.8438C17.9219 33.4915 18.0618 33.1537 18.3109 32.9046C18.5599 32.6556 18.8978 32.5156 19.25 32.5156C19.6022 32.5156 19.9401 32.6556 20.1891 32.9046C20.4382 33.1537 20.5781 33.4915 20.5781 33.8438V36.5C20.5781 36.8522 20.4382 37.1901 20.1891 37.4391C19.9401 37.6882 19.6022 37.8281 19.25 37.8281Z" fill="#F1F2F2"/>
<path d="M23.2344 37.8281C22.8821 37.8281 22.5443 37.6882 22.2952 37.4391C22.0462 37.1901 21.9062 36.8522 21.9062 36.5V33.8438C21.9062 33.4915 22.0462 33.1537 22.2952 32.9046C22.5443 32.6556 22.8821 32.5156 23.2344 32.5156C23.5866 32.5156 23.9244 32.6556 24.1735 32.9046C24.4226 33.1537 24.5625 33.4915 24.5625 33.8438V36.5C24.5625 36.8522 24.4226 37.1901 24.1735 37.4391C23.9244 37.6882 23.5866 37.8281 23.2344 37.8281Z" fill="#F1F2F2"/>
<path d="M29.875 37.8281C29.5228 37.8281 29.1849 37.6882 28.9359 37.4391C28.6868 37.1901 28.5469 36.8522 28.5469 36.5V33.8438C28.5469 33.4915 28.6868 33.1537 28.9359 32.9046C29.1849 32.6556 29.5228 32.5156 29.875 32.5156C30.2272 32.5156 30.5651 32.6556 30.8141 32.9046C31.0632 33.1537 31.2031 33.4915 31.2031 33.8438V36.5C31.2031 36.8522 31.0632 37.1901 30.8141 37.4391C30.5651 37.6882 30.2272 37.8281 29.875 37.8281Z" fill="#F1F2F2"/>
<path d="M33.8594 37.8281C33.5071 37.8281 33.1693 37.6882 32.9202 37.4391C32.6712 37.1901 32.5312 36.8522 32.5312 36.5V33.8438C32.5312 33.4915 32.6712 33.1537 32.9202 32.9046C33.1693 32.6556 33.5071 32.5156 33.8594 32.5156C34.2116 32.5156 34.5494 32.6556 34.7985 32.9046C35.0476 33.1537 35.1875 33.4915 35.1875 33.8438V36.5C35.1875 36.8522 35.0476 37.1901 34.7985 37.4391C34.5494 37.6882 34.2116 37.8281 33.8594 37.8281Z" fill="#F1F2F2"/>
<path d="M37.8438 37.8281C37.4915 37.8281 37.1537 37.6882 36.9046 37.4391C36.6556 37.1901 36.5156 36.8522 36.5156 36.5V33.8438C36.5156 33.4915 36.6556 33.1537 36.9046 32.9046C37.1537 32.6556 37.4915 32.5156 37.8438 32.5156C38.196 32.5156 38.5338 32.6556 38.7829 32.9046C39.0319 33.1537 39.1719 33.4915 39.1719 33.8438V36.5C39.1719 36.8522 39.0319 37.1901 38.7829 37.4391C38.5338 37.6882 38.196 37.8281 37.8438 37.8281Z" fill="#F1F2F2"/>
<path d="M37.8438 44.4688H7.29688C6.94463 44.4688 6.60682 44.3288 6.35775 44.0798C6.10868 43.8307 5.96875 43.4929 5.96875 43.1406C5.96875 42.7884 6.10868 42.4506 6.35775 42.2015C6.60682 41.9524 6.94463 41.8125 7.29688 41.8125H37.8438C38.196 41.8125 38.5338 41.9524 38.7829 42.2015C39.0319 42.4506 39.1719 42.7884 39.1719 43.1406C39.1719 43.4929 39.0319 43.8307 38.7829 44.0798C38.5338 44.3288 38.196 44.4688 37.8438 44.4688Z" fill="#F1F2F2"/>
</svg>


