<svg width="24" height="24" viewBox="0 0 24 24" fill="none" xmlns="http://www.w3.org/2000/svg">
<g clip-path="url(#clip0_2255_20887)">
<path d="M11.9983 0C9.62427 1.53147e-07 7.30361 0.704023 5.32977 2.02303C3.35593 3.34203 1.81758 5.21677 0.909296 7.41013C0.00100832 9.60348 -0.236423 12.0169 0.227033 14.3452C0.690488 16.6736 1.83401 18.8121 3.51297 20.4905C5.19194 22.1688 7.33092 23.3116 9.6594 23.7742C11.9879 24.2368 14.4012 23.9985 16.5943 23.0895C18.7873 22.1804 20.6615 20.6414 21.9798 18.6671C23.2981 16.6927 24.0013 14.3718 24.0004 11.9978C23.9958 8.81647 22.7297 5.76677 20.4798 3.51761C18.2298 1.26844 15.1796 0.00342124 11.9983 0V0ZM11.9983 22.4178C9.94226 22.4144 7.93338 21.8018 6.22531 20.6575C4.51723 19.5131 3.18656 17.8882 2.40134 15.9881C1.61612 14.0879 1.41157 11.9977 1.81351 9.9814C2.21545 7.96508 3.20586 6.11307 4.65967 4.65926C6.11348 3.20545 7.96549 2.21504 9.98181 1.8131C11.9981 1.41116 14.0884 1.61572 15.9885 2.40093C17.8886 3.18615 19.5135 4.51682 20.6579 6.2249C21.8022 7.93297 22.4148 9.94185 22.4182 11.9978C22.4194 13.3665 22.1506 14.722 21.6274 15.9867C21.1041 17.2515 20.3366 18.4006 19.3688 19.3684C18.401 20.3362 17.2519 21.1037 15.9872 21.627C14.7224 22.1502 13.3669 22.419 11.9983 22.4178Z" fill="#5C6E9F"/>
<path d="M17.944 11.1313H12.8008V4.33267C12.8089 4.22271 12.7942 4.11227 12.7577 4.00825C12.7211 3.90422 12.6636 3.80884 12.5885 3.72808C12.5135 3.64731 12.4225 3.58289 12.3215 3.53883C12.2204 3.49478 12.1113 3.47205 12.0011 3.47205C11.8908 3.47205 11.7818 3.49478 11.6807 3.53883C11.5796 3.58289 11.4887 3.64731 11.4137 3.72808C11.3386 3.80884 11.281 3.90422 11.2445 4.00825C11.208 4.11227 11.1933 4.22271 11.2014 4.33267V12.7307H17.944C18.1459 12.7159 18.3348 12.6252 18.4726 12.4769C18.6105 12.3285 18.6871 12.1335 18.6871 11.931C18.6871 11.7285 18.6105 11.5335 18.4726 11.3852C18.3348 11.2368 18.1459 11.1461 17.944 11.1313Z" fill="#5C6E9F"/>
</g>
<defs>
<clipPath id="clip0_2255_20887">
<rect width="24" height="24" fill="white"/>
</clipPath>
</defs>
</svg>

