<svg width="42" height="29" viewBox="0 0 42 29" fill="none" xmlns="http://www.w3.org/2000/svg">
<path d="M1 1.03571C1 1.02289 1.00108 1.0109 1.00288 1H40.9971C40.9989 1.0109 41 1.02289 41 1.03571V27.9643C41 27.9771 40.9989 27.9891 40.9971 28H1.00288C1.00108 27.9891 1 27.9771 1 27.9643V1.03571Z" stroke="#5C6E9F" stroke-width="2"/>
<path d="M17 9.8992V19.0824C17.0001 19.246 17.0431 19.4067 17.1246 19.5477C17.206 19.6887 17.3229 19.8049 17.4632 19.8844C17.6035 19.9639 17.7621 20.0037 17.9225 19.9997C18.0829 19.9958 18.2394 19.9482 18.3757 19.8618L25.581 15.2702C25.7093 15.1874 25.8151 15.0728 25.8883 14.9372C25.9616 14.8015 26 14.6491 26 14.4943C26 14.3394 25.9616 14.187 25.8883 14.0513C25.8151 13.9157 25.7093 13.8011 25.581 13.7183L18.3757 9.12666C17.7971 8.7513 17 9.27015 17 9.8992Z" fill="white"/>
</svg>

