<svg width="16" height="16" viewBox="0 0 16 16" fill="none" xmlns="http://www.w3.org/2000/svg">
<path opacity="0.3" fill-rule="evenodd" clip-rule="evenodd" d="M3.93853 0.984632C3.93853 0.440835 4.37936 0 4.92316 0C5.46695 0 5.90779 0.440835 5.90779 0.984632V1.59618H9.84632V0.984632C9.84632 0.440835 10.2872 0 10.8309 0C11.3747 0 11.8156 0.440835 11.8156 0.984632V1.59618H13.1284C14.5785 1.59618 15.7541 2.77174 15.7541 4.22186V13.3743C15.7541 14.8244 14.5785 16 13.1284 16H2.62568C1.17556 16 0 14.8244 0 13.3743V4.22187C0 2.77174 1.17556 1.59618 2.62568 1.59618H3.93853V0.984632ZM9.84632 3.89365V4.92316C9.84632 5.46695 10.2872 5.90779 10.8309 5.90779C11.3747 5.90779 11.8156 5.46695 11.8156 4.92316V3.89365H13.1284C13.3097 3.89365 13.4566 4.0406 13.4566 4.22186V13.3743C13.4566 13.5556 13.3097 13.7025 13.1284 13.7025H2.62568C2.44442 13.7025 2.29747 13.5556 2.29747 13.3743V4.22187C2.29747 4.0406 2.44442 3.89365 2.62568 3.89365H3.93853V4.92316C3.93853 5.46695 4.37936 5.90779 4.92316 5.90779C5.46695 5.90779 5.90779 5.46695 5.90779 4.92316V3.89365H9.84632Z" fill="white"/>
</svg>
