<svg width="35" height="24" viewBox="0 0 35 24" fill="none" xmlns="http://www.w3.org/2000/svg">
<rect x="0.5" y="0.5" width="34" height="23" rx="3.5" fill="white" stroke="#D9D9D9"/>
<path fill-rule="evenodd" clip-rule="evenodd" d="M9.90001 15.241H8.34439C8.23794 15.241 8.1474 15.3183 8.1308 15.4234L7.50163 19.4125C7.48913 19.4912 7.55009 19.5621 7.62993 19.5621H8.37259C8.47905 19.5621 8.56958 19.4848 8.58618 19.3795L8.75588 18.3036C8.77225 18.1982 8.863 18.121 8.96924 18.121H9.46169C10.4864 18.121 11.0778 17.6251 11.2323 16.6424C11.3019 16.2125 11.2353 15.8748 11.0339 15.6381C10.8129 15.3784 10.4206 15.241 9.90001 15.241ZM10.0795 16.6979C9.99443 17.2561 9.56792 17.2561 9.15553 17.2561H8.92078L9.08547 16.2136C9.09525 16.1507 9.14984 16.1042 9.21353 16.1042H9.32112C9.60204 16.1042 9.86706 16.1042 10.004 16.2643C10.0856 16.3599 10.1106 16.5018 10.0795 16.6979ZM14.5501 16.68H13.8052C13.7417 16.68 13.6869 16.7264 13.6771 16.7895L13.6441 16.9978L13.592 16.9223C13.4308 16.6882 13.0712 16.61 12.7122 16.61C11.889 16.61 11.1859 17.2335 11.049 18.1081C10.9778 18.5443 11.079 18.9615 11.3264 19.2524C11.5535 19.5199 11.8783 19.6314 12.2647 19.6314C12.928 19.6314 13.2959 19.2049 13.2959 19.2049L13.2626 19.4119C13.2501 19.4911 13.3111 19.562 13.3904 19.562H14.0615C14.1682 19.562 14.2582 19.4847 14.2751 19.3794L14.6777 16.8297C14.6904 16.7513 14.6297 16.68 14.5501 16.68ZM13.5117 18.1299C13.4398 18.5555 13.102 18.8412 12.6713 18.8412C12.455 18.8412 12.282 18.7718 12.1711 18.6403C12.061 18.5098 12.0191 18.3239 12.0541 18.117C12.1213 17.695 12.4647 17.4 12.889 17.4C13.1004 17.4 13.2724 17.4702 13.3857 17.6029C13.4992 17.7369 13.5442 17.9238 13.5117 18.1299ZM17.769 16.6799H18.5176C18.6224 16.6799 18.6836 16.7975 18.624 16.8835L16.1342 20.4774C16.0939 20.5356 16.0275 20.5702 15.9565 20.5702H15.2089C15.1036 20.5702 15.0421 20.4517 15.1031 20.3655L15.8783 19.2712L15.0538 16.8514C15.0253 16.7673 15.0874 16.6799 15.1769 16.6799H15.9124C16.008 16.6799 16.0923 16.7427 16.1199 16.8341L16.5575 18.2956L17.59 16.7748C17.6304 16.7154 17.6976 16.6799 17.769 16.6799Z" fill="#253B80"/>
<path fill-rule="evenodd" clip-rule="evenodd" d="M25.8871 19.4124L26.5255 15.3504C26.5353 15.2874 26.5899 15.2409 26.6534 15.2407H27.3722C27.4515 15.2407 27.5125 15.3119 27.4999 15.3906L26.8704 19.3795C26.8539 19.4847 26.7634 19.5621 26.6568 19.5621H26.0149C25.9355 19.5621 25.8746 19.4912 25.8871 19.4124ZM20.9977 15.2409H19.4418C19.3356 15.2409 19.2451 15.3183 19.2285 15.4234L18.5993 19.4124C18.5868 19.4912 18.6477 19.5621 18.7272 19.5621H19.5255C19.5997 19.5621 19.6632 19.508 19.6748 19.4343L19.8533 18.3036C19.8697 18.1982 19.9605 18.1209 20.0667 18.1209H20.5589C21.5838 18.1209 22.1751 17.625 22.3297 16.6424C22.3995 16.2125 22.3325 15.8747 22.1312 15.6381C21.9102 15.3784 21.5184 15.2409 20.9977 15.2409ZM21.1772 16.6979C21.0924 17.2561 20.6658 17.2561 20.2532 17.2561H20.0187L20.1836 16.2136C20.1934 16.1506 20.2475 16.1042 20.3114 16.1042H20.419C20.6997 16.1042 20.965 16.1042 21.1018 16.2643C21.1835 16.3599 21.2084 16.5018 21.1772 16.6979ZM25.6474 16.68H24.903C24.839 16.68 24.7847 16.7264 24.7751 16.7895L24.7422 16.9978L24.6898 16.9223C24.5286 16.6882 24.1692 16.61 23.8103 16.61C22.987 16.61 22.2841 17.2335 22.1472 18.1081C22.0762 18.5443 22.177 18.9615 22.4245 19.2524C22.6519 19.5199 22.9764 19.6314 23.3628 19.6314C24.026 19.6314 24.3938 19.2048 24.3938 19.2048L24.3607 19.4119C24.3481 19.491 24.4091 19.562 24.489 19.562H25.1597C25.2659 19.562 25.3565 19.4846 25.3731 19.3794L25.7759 16.8297C25.7883 16.7513 25.7273 16.68 25.6474 16.68ZM24.6091 18.1299C24.5376 18.5555 24.1994 18.8412 23.7686 18.8412C23.5527 18.8412 23.3794 18.7718 23.2684 18.6403C23.1583 18.5098 23.1169 18.3239 23.1515 18.1169C23.219 17.6949 23.562 17.4 23.9863 17.4C24.1978 17.4 24.3697 17.4702 24.4831 17.6028C24.597 17.7368 24.642 17.9238 24.6091 18.1299Z" fill="#179BD7"/>
<path d="M15.6557 13.8139L15.8469 12.5991L15.4209 12.5892H13.3867L14.8004 3.62541C14.8047 3.59834 14.819 3.57311 14.8399 3.55519C14.8607 3.53728 14.8875 3.5274 14.9152 3.5274H18.3453C19.484 3.5274 20.2698 3.76436 20.6801 4.23206C20.8724 4.45147 20.9949 4.68074 21.0542 4.93306C21.1163 5.19782 21.1175 5.51413 21.0567 5.89992L21.0523 5.92807V6.17526L21.2447 6.28424C21.4067 6.37017 21.5354 6.46854 21.6341 6.58117C21.7987 6.76876 21.9052 7.00718 21.9501 7.28985C21.9965 7.58056 21.9812 7.92649 21.9052 8.31813C21.8174 8.76865 21.6755 9.16102 21.4839 9.48208C21.3076 9.77791 21.0831 10.0232 20.8165 10.2134C20.562 10.3941 20.2596 10.5312 19.9177 10.619C19.5863 10.7052 19.2086 10.7488 18.7943 10.7488H18.5274C18.3365 10.7488 18.151 10.8175 18.0056 10.9408C17.8597 11.0666 17.763 11.2384 17.7335 11.4264L17.7134 11.5358L17.3755 13.6767L17.3601 13.7553C17.3561 13.7803 17.3491 13.7927 17.3389 13.8011C17.3298 13.8087 17.3166 13.8139 17.3038 13.8139H15.6557Z" fill="#253B80"/>
<path d="M21.4269 5.95673C21.4167 6.02218 21.405 6.08909 21.3919 6.15784C20.9394 8.48026 19.392 9.28255 17.4154 9.28255H16.4091C16.1674 9.28255 15.9637 9.45807 15.9261 9.69649L15.4108 12.9642L15.2649 13.8904C15.2404 14.047 15.3611 14.1881 15.519 14.1881H17.3039C17.5153 14.1881 17.6948 14.0345 17.7281 13.8261L17.7456 13.7354L18.0817 11.6027L18.1033 11.4858C18.1362 11.2766 18.3161 11.1231 18.5274 11.1231H18.7944C20.5236 11.1231 21.8774 10.4209 22.2731 8.3892C22.4384 7.54047 22.3528 6.83179 21.9154 6.33337C21.7831 6.18307 21.6189 6.05838 21.4269 5.95673Z" fill="#179BD7"/>
<path d="M20.9535 5.76819C20.8844 5.74808 20.8131 5.72979 20.7399 5.71334C20.6664 5.69726 20.5911 5.68299 20.5136 5.67056C20.2422 5.62668 19.9449 5.60583 19.6264 5.60583H16.938C16.8718 5.60583 16.8089 5.62082 16.7526 5.64789C16.6286 5.70749 16.5365 5.82488 16.5142 5.96858L15.9422 9.59098L15.9258 9.69665C15.9635 9.45823 16.1672 9.28271 16.4088 9.28271H17.4152C19.3917 9.28271 20.9393 8.48005 21.3916 6.158C21.4051 6.08926 21.4164 6.02234 21.4266 5.95689C21.3122 5.89618 21.1882 5.84426 21.0547 5.8C21.0219 5.78904 20.9879 5.77844 20.9535 5.76819Z" fill="#222D65"/>
<path d="M16.5156 5.96848C16.5379 5.82477 16.6301 5.70739 16.754 5.64814C16.8107 5.62108 16.8733 5.60609 16.9394 5.60609H19.6279C19.9464 5.60609 20.2437 5.62693 20.5149 5.67082C20.5925 5.68325 20.6679 5.69751 20.7414 5.7136C20.8145 5.73006 20.8858 5.74834 20.9549 5.76845C20.9893 5.77869 21.0233 5.78929 21.0565 5.7999C21.19 5.84414 21.314 5.89644 21.4284 5.95678C21.5631 5.09853 21.4274 4.51418 20.9634 3.98504C20.4518 3.40253 19.5284 3.15314 18.3469 3.15314H14.9168C14.6755 3.15314 14.4697 3.32865 14.4323 3.56744L13.0037 12.6234C12.9755 12.8026 13.1137 12.9643 13.2943 12.9643H15.412L15.9437 9.59087L16.5156 5.96848Z" fill="#253B80"/>
</svg>
