<svg width="16" height="16" viewBox="0 0 16 16" fill="none" xmlns="http://www.w3.org/2000/svg">
<path d="M16 12.57V14.855C15.9987 15.1583 15.8776 15.4488 15.6632 15.6632C15.4487 15.8777 15.1583 15.9987 14.855 16H1.145C0.841733 15.9987 0.551261 15.8777 0.336817 15.6632C0.122372 15.4488 0.00131571 15.1583 0 14.855V12.57C0.0133415 12.4274 0.0794235 12.2949 0.185312 12.1985C0.291201 12.102 0.429273 12.0486 0.5725 12.0486C0.715727 12.0486 0.853797 12.102 0.959686 12.1985C1.06558 12.2949 1.13166 12.4274 1.145 12.57V14.855H14.855V12.57C14.8683 12.4274 14.9344 12.2949 15.0403 12.1985C15.1462 12.102 15.2843 12.0486 15.4275 12.0486C15.5707 12.0486 15.7088 12.102 15.8147 12.1985C15.9206 12.2949 15.9867 12.4274 16 12.57Z" fill="white"/>
<path d="M3.59506 8.405C3.5028 8.29481 3.45515 8.15406 3.4615 8.01048C3.46785 7.86691 3.52773 7.73092 3.62935 7.6293C3.73097 7.52768 3.86697 7.46779 4.01054 7.46144C4.15412 7.45509 4.29486 7.50274 4.40506 7.595L7.40506 10.62V0.570007C7.40506 0.418834 7.46511 0.273842 7.57201 0.166946C7.6789 0.0600507 7.82388 0 7.97506 0C8.12623 0 8.27121 0.0600507 8.37811 0.166946C8.485 0.273842 8.54506 0.418834 8.54506 0.570007V10.62L11.5451 7.595C11.6552 7.50274 11.796 7.45509 11.9396 7.46144C12.0831 7.46779 12.2191 7.52768 12.3208 7.6293C12.4224 7.73092 12.4823 7.86691 12.4886 8.01048C12.495 8.15406 12.4473 8.29481 12.3551 8.405L8.35506 12.405C8.24735 12.5119 8.10178 12.5718 7.95006 12.5718C7.79833 12.5718 7.65276 12.5119 7.54506 12.405L3.59506 8.405Z" fill="white"/>
</svg>
