<svg width="39" height="33" viewBox="0 0 39 33" fill="none" xmlns="http://www.w3.org/2000/svg">
<g clip-path="url(#clip0_2456_21908)">
<path d="M4.34283 33C3.1928 32.9966 2.09079 32.5385 1.27721 31.7257C0.463625 30.9129 0.00450149 29.8113 0 28.6612V9.54481C0.00300468 8.39381 0.461629 7.29081 1.27559 6.477C2.08956 5.66319 3.19264 5.20477 4.34365 5.20198H10.2202L10.964 2.97326C11.2496 2.10742 11.8013 1.35384 12.5404 0.819955C13.2795 0.286069 14.1683 -0.000879914 15.08 1.14708e-05H23.1179C24.0304 -0.00208859 24.9202 0.284218 25.6603 0.818039C26.4004 1.35186 26.9529 2.10589 27.2388 2.97245L27.9817 5.20198H33.8591C35.0092 5.20541 36.1112 5.6635 36.9248 6.47632C37.7383 7.28914 38.1975 8.39072 38.202 9.54075V28.6572C38.1985 29.8072 37.7405 30.9092 36.9276 31.7228C36.1148 32.5364 35.0132 32.9955 33.8632 33H4.34283ZM4.34283 6.99016C3.66708 6.99229 3.01951 7.26124 2.54107 7.73846C2.06262 8.21568 1.79203 8.86256 1.78818 9.53831V28.6572C1.79011 29.3341 2.05988 29.9828 2.53855 30.4615C3.01722 30.9401 3.66589 31.2099 4.34283 31.2118H33.8591C34.5361 31.2099 35.1847 30.9401 35.6634 30.4615C36.1421 29.9828 36.4119 29.3341 36.4138 28.6572V9.54481C36.4119 8.86787 36.1421 8.2192 35.6634 7.74053C35.1847 7.26186 34.5361 6.99209 33.8591 6.99016H27.3372C27.1498 6.99019 26.9672 6.93135 26.815 6.82197C26.6629 6.71259 26.549 6.55818 26.4894 6.38055L25.5417 3.53573C25.3735 3.02655 25.0489 2.58346 24.6141 2.26965C24.1793 1.95584 23.6565 1.78735 23.1203 1.78819H15.0841C14.5476 1.78733 14.0245 1.95578 13.5893 2.26955C13.1541 2.58332 12.829 3.02642 12.6603 3.53573L11.7126 6.38055C11.6532 6.55848 11.5394 6.71324 11.3873 6.82294C11.2352 6.93263 11.0524 6.9917 10.8648 6.99178L4.34283 6.99016Z" fill="#5C6E9F"/>
<path d="M19.1002 27.7981C17.2515 27.7981 15.4443 27.2499 13.9071 26.2228C12.37 25.1957 11.1719 23.7359 10.4645 22.0279C9.75698 20.3199 9.57187 18.4404 9.93254 16.6272C10.2932 14.814 11.1835 13.1485 12.4907 11.8413C13.7979 10.534 15.4635 9.64379 17.2767 9.28313C19.0899 8.92246 20.9693 9.10757 22.6773 9.81504C24.3853 10.5225 25.8451 11.7206 26.8722 13.2577C27.8993 14.7949 28.4475 16.6021 28.4475 18.4508C28.4447 20.929 27.459 23.3049 25.7067 25.0573C23.9543 26.8096 21.5784 27.7953 19.1002 27.7981ZM19.1002 10.8917C17.6052 10.8917 16.1437 11.335 14.9006 12.1656C13.6575 12.9962 12.6886 14.1768 12.1165 15.5581C11.5444 16.9393 11.3947 18.4592 11.6864 19.9255C11.978 21.3918 12.698 22.7387 13.7551 23.7959C14.8123 24.8531 16.1592 25.573 17.6255 25.8647C19.0918 26.1563 20.6117 26.0067 21.993 25.4345C23.3742 24.8624 24.5548 23.8935 25.3854 22.6504C26.216 21.4073 26.6593 19.9459 26.6593 18.4508C26.657 16.4467 25.8598 14.5254 24.4427 13.1083C23.0256 11.6912 21.1043 10.8941 19.1002 10.8917Z" fill="white"/>
<path d="M32.7016 12.3417C33.5249 12.3417 34.1923 11.6743 34.1923 10.851C34.1923 10.0278 33.5249 9.36035 32.7016 9.36035C31.8783 9.36035 31.2109 10.0278 31.2109 10.851C31.2109 11.6743 31.8783 12.3417 32.7016 12.3417Z" fill="white"/>
</g>
<defs>
<clipPath id="clip0_2456_21908">
<rect width="38.202" height="33" fill="white"/>
</clipPath>
</defs>
</svg>

