<svg width="24" height="24" viewBox="0 0 24 24" fill="none" xmlns="http://www.w3.org/2000/svg">
<circle cx="12" cy="12" r="12" fill="#EA5230"/>
<path d="M13.8224 4.45455L13.5455 14.6392H10.946L10.6619 4.45455H13.8224ZM12.2457 19.1847C11.777 19.1847 11.3745 19.0189 11.0384 18.6875C10.7022 18.3513 10.5365 17.9489 10.5412 17.4801C10.5365 17.0161 10.7022 16.6184 11.0384 16.2869C11.3745 15.9555 11.777 15.7898 12.2457 15.7898C12.6955 15.7898 13.0909 15.9555 13.4318 16.2869C13.7727 16.6184 13.9455 17.0161 13.9503 17.4801C13.9455 17.7926 13.8627 18.0791 13.7017 18.3395C13.5455 18.5952 13.3395 18.8011 13.0838 18.9574C12.8281 19.1089 12.5488 19.1847 12.2457 19.1847Z" fill="white"/>
</svg>


