<svg width="32" height="32" viewBox="0 0 32 32" fill="none" xmlns="http://www.w3.org/2000/svg">
<path d="M24.125 14.375C24.8154 14.375 25.375 13.8154 25.375 13.125C25.375 12.4346 24.8154 11.875 24.125 11.875C23.4346 11.875 22.875 12.4346 22.875 13.125C22.875 13.8154 23.4346 14.375 24.125 14.375Z" fill="#B8CEE3"/>
<path d="M27 2.5H25.375V1.25C25.375 0.918479 25.2433 0.600537 25.0089 0.366117C24.7745 0.131696 24.4565 0 24.125 0C23.7935 0 23.4755 0.131696 23.2411 0.366117C23.0067 0.600537 22.875 0.918479 22.875 1.25V2.5H17.1875V1.25C17.1875 0.918479 17.0558 0.600537 16.8214 0.366117C16.587 0.131696 16.269 0 15.9375 0C15.606 0 15.288 0.131696 15.0536 0.366117C14.8192 0.600537 14.6875 0.918479 14.6875 1.25V2.5H9.0625V1.25C9.0625 0.918479 8.9308 0.600537 8.69638 0.366117C8.46196 0.131696 8.14402 0 7.8125 0C7.48098 0 7.16304 0.131696 6.92862 0.366117C6.6942 0.600537 6.5625 0.918479 6.5625 1.25V2.5H5C3.67437 2.50149 2.40347 3.02875 1.46611 3.96611C0.528751 4.90347 0.00148882 6.17437 0 7.5L0 27C0.00148882 28.3256 0.528751 29.5965 1.46611 30.5339C2.40347 31.4712 3.67437 31.9985 5 32H14.5625C14.894 32 15.212 31.8683 15.4464 31.6339C15.6808 31.3995 15.8125 31.0815 15.8125 30.75C15.8125 30.4185 15.6808 30.1005 15.4464 29.8661C15.212 29.6317 14.894 29.5 14.5625 29.5H5C4.33696 29.5 3.70107 29.2366 3.23223 28.7678C2.76339 28.2989 2.5 27.663 2.5 27V7.5C2.5 6.83696 2.76339 6.20107 3.23223 5.73223C3.70107 5.26339 4.33696 5 5 5H6.5625V6.25C6.5625 6.58152 6.6942 6.89946 6.92862 7.13388C7.16304 7.3683 7.48098 7.5 7.8125 7.5C8.14402 7.5 8.46196 7.3683 8.69638 7.13388C8.9308 6.89946 9.0625 6.58152 9.0625 6.25V5H14.6875V6.25C14.6875 6.58152 14.8192 6.89946 15.0536 7.13388C15.288 7.3683 15.606 7.5 15.9375 7.5C16.269 7.5 16.587 7.3683 16.8214 7.13388C17.0558 6.89946 17.1875 6.58152 17.1875 6.25V5H22.875V6.25C22.875 6.58152 23.0067 6.89946 23.2411 7.13388C23.4755 7.3683 23.7935 7.5 24.125 7.5C24.4565 7.5 24.7745 7.3683 25.0089 7.13388C25.2433 6.89946 25.375 6.58152 25.375 6.25V5H27C27.663 5 28.2989 5.26339 28.7678 5.73223C29.2366 6.20107 29.5 6.83696 29.5 7.5V14.625C29.5 14.9565 29.6317 15.2745 29.8661 15.5089C30.1005 15.7433 30.4185 15.875 30.75 15.875C31.0815 15.875 31.3995 15.7433 31.6339 15.5089C31.8683 15.2745 32 14.9565 32 14.625V7.5C31.9985 6.17437 31.4712 4.90347 30.5339 3.96611C29.5965 3.02875 28.3256 2.50149 27 2.5Z" fill="#B8CEE3"/>
<path d="M24.4375 16.875C22.9418 16.875 21.4797 17.3185 20.236 18.1495C18.9924 18.9805 18.0231 20.1616 17.4507 21.5435C16.8783 22.9253 16.7285 24.4459 17.0203 25.9129C17.3121 27.3799 18.0324 28.7274 19.09 29.785C20.1476 30.8426 21.4952 31.5629 22.9621 31.8547C24.4291 32.1465 25.9497 31.9967 27.3315 31.4243C28.7134 30.852 29.8945 29.8826 30.7255 28.639C31.5565 27.3954 32 25.9332 32 24.4375C31.9977 22.4325 31.2002 20.5103 29.7824 19.0926C28.3647 17.6748 26.4425 16.8773 24.4375 16.875ZM24.4375 29.5C23.4362 29.5 22.4575 29.2031 21.6249 28.6468C20.7924 28.0905 20.1435 27.2999 19.7604 26.3748C19.3772 25.4498 19.2769 24.4319 19.4723 23.4499C19.6676 22.4678 20.1498 21.5658 20.8578 20.8578C21.5658 20.1498 22.4678 19.6676 23.4499 19.4723C24.4319 19.2769 25.4498 19.3772 26.3748 19.7604C27.2999 20.1435 28.0905 20.7924 28.6468 21.6249C29.2031 22.4574 29.5 23.4362 29.5 24.4375C29.4984 25.7797 28.9644 27.0664 28.0154 28.0154C27.0664 28.9644 25.7797 29.4983 24.4375 29.5Z" fill="#B8CEE3"/>
<path d="M26.25 23.1875H25.6875V21.875C25.6875 21.5435 25.5558 21.2255 25.3214 20.9911C25.087 20.7567 24.769 20.625 24.4375 20.625C24.106 20.625 23.788 20.7567 23.5536 20.9911C23.3192 21.2255 23.1875 21.5435 23.1875 21.875V24.4375C23.1875 24.769 23.3192 25.087 23.5536 25.3214C23.788 25.5558 24.106 25.6875 24.4375 25.6875H26.25C26.5815 25.6875 26.8995 25.5558 27.1339 25.3214C27.3683 25.087 27.5 24.769 27.5 24.4375C27.5 24.106 27.3683 23.788 27.1339 23.5536C26.8995 23.3192 26.5815 23.1875 26.25 23.1875Z" fill="#B8CEE3"/>
<path d="M18.6875 14.375C19.3779 14.375 19.9375 13.8154 19.9375 13.125C19.9375 12.4346 19.3779 11.875 18.6875 11.875C17.9971 11.875 17.4375 12.4346 17.4375 13.125C17.4375 13.8154 17.9971 14.375 18.6875 14.375Z" fill="#B8CEE3"/>
<path d="M13.25 19.8125C13.9404 19.8125 14.5 19.2529 14.5 18.5625C14.5 17.8721 13.9404 17.3125 13.25 17.3125C12.5596 17.3125 12 17.8721 12 18.5625C12 19.2529 12.5596 19.8125 13.25 19.8125Z" fill="#B8CEE3"/>
<path d="M7.8125 14.375C8.50286 14.375 9.0625 13.8154 9.0625 13.125C9.0625 12.4346 8.50286 11.875 7.8125 11.875C7.12214 11.875 6.5625 12.4346 6.5625 13.125C6.5625 13.8154 7.12214 14.375 7.8125 14.375Z" fill="#B8CEE3"/>
<path d="M7.8125 19.8125C8.50286 19.8125 9.0625 19.2529 9.0625 18.5625C9.0625 17.8721 8.50286 17.3125 7.8125 17.3125C7.12214 17.3125 6.5625 17.8721 6.5625 18.5625C6.5625 19.2529 7.12214 19.8125 7.8125 19.8125Z" fill="#B8CEE3"/>
<path d="M7.8125 25.25C8.50286 25.25 9.0625 24.6904 9.0625 24C9.0625 23.3096 8.50286 22.75 7.8125 22.75C7.12214 22.75 6.5625 23.3096 6.5625 24C6.5625 24.6904 7.12214 25.25 7.8125 25.25Z" fill="#B8CEE3"/>
<path d="M13.25 25.25C13.9404 25.25 14.5 24.6904 14.5 24C14.5 23.3096 13.9404 22.75 13.25 22.75C12.5596 22.75 12 23.3096 12 24C12 24.6904 12.5596 25.25 13.25 25.25Z" fill="#B8CEE3"/>
<path d="M13.25 14.375C13.9404 14.375 14.5 13.8154 14.5 13.125C14.5 12.4346 13.9404 11.875 13.25 11.875C12.5596 11.875 12 12.4346 12 13.125C12 13.8154 12.5596 14.375 13.25 14.375Z" fill="#B8CEE3"/>
</svg>



