<svg width="18" height="24" viewBox="0 0 18 24" fill="none" xmlns="http://www.w3.org/2000/svg">
<path d="M15.75 9H15V6C15 4.4087 14.3679 2.88258 13.2426 1.75736C12.1174 0.632141 10.5913 0 9 0C7.4087 0 5.88258 0.632141 4.75736 1.75736C3.63214 2.88258 3 4.4087 3 6V9H2.25C1.65349 9.00074 1.08163 9.23804 0.659832 9.65983C0.238036 10.0816 0.000744241 10.6535 0 11.25V21.75C0.000744241 22.3465 0.238036 22.9184 0.659832 23.3402C1.08163 23.762 1.65349 23.9993 2.25 24H15.75C16.3465 23.9993 16.9184 23.762 17.3402 23.3402C17.762 22.9184 17.9993 22.3465 18 21.75V11.25C17.9993 10.6535 17.762 10.0816 17.3402 9.65983C16.9184 9.23804 16.3465 9.00074 15.75 9ZM5.00016 6C5.00016 4.93918 5.42157 3.9218 6.17168 3.17168C6.9218 2.42157 7.93918 2.00016 9 2.00016C10.0608 2.00016 11.0782 2.42157 11.8283 3.17168C12.5784 3.9218 12.9998 4.93918 12.9998 6V9H5.00016V6ZM9.99984 16.7222V18.9998C9.99984 19.265 9.8945 19.5193 9.707 19.7068C9.51949 19.8943 9.26517 19.9997 9 19.9997C8.73483 19.9997 8.48051 19.8943 8.293 19.7068C8.1055 19.5193 8.00016 19.265 8.00016 18.9998V16.7222C7.61879 16.5021 7.32072 16.1623 7.15217 15.7555C6.98363 15.3487 6.95403 14.8976 7.06796 14.4723C7.1819 14.047 7.433 13.6711 7.78233 13.4031C8.13165 13.135 8.55967 12.9897 9 12.9897C9.44033 12.9897 9.86835 13.135 10.2177 13.4031C10.567 13.6711 10.8181 14.047 10.932 14.4723C11.046 14.8976 11.0164 15.3487 10.8478 15.7555C10.6793 16.1623 10.3812 16.5021 9.99984 16.7222Z" fill="#5C6E9F"/>
</svg>
