<svg width="24" height="24" viewBox="0 0 24 24" fill="none" xmlns="http://www.w3.org/2000/svg">
<path d="M2.91939 18.6412C2.9491 18.6809 2.97065 18.7261 2.98278 18.7742C2.99492 18.8223 2.99739 18.8723 2.99007 18.9213C2.98275 18.9704 2.96578 19.0175 2.94014 19.0599C2.91449 19.1023 2.88069 19.1393 2.84068 19.1686C2.80067 19.1978 2.75525 19.2189 2.70704 19.2305C2.65884 19.2421 2.60881 19.2441 2.55985 19.2362C2.51089 19.2284 2.46398 19.2109 2.42181 19.1848C2.37965 19.1587 2.34309 19.1245 2.31423 19.0842C0.685326 16.8571 -0.126324 14.1367 0.0159777 11.3811C0.15828 8.62559 1.24584 6.00326 3.09549 3.9558C4.94514 1.90833 7.44387 0.560836 10.1709 0.14025C12.8978 -0.280337 15.6865 0.251684 18.067 1.64671L17.7136 0.76874C17.6763 0.676494 17.6772 0.573211 17.716 0.481611C17.7549 0.390011 17.8285 0.317599 17.9208 0.280302C18.013 0.243006 18.1163 0.243882 18.2079 0.282738C18.2995 0.321593 18.3719 0.395244 18.4092 0.48749L19.2103 2.47687C19.2316 2.52965 19.2406 2.58658 19.2365 2.64334C19.2325 2.70011 19.2157 2.75521 19.1872 2.80449C19.1588 2.85377 19.1195 2.89593 19.0723 2.92777C19.0251 2.95961 18.9714 2.9803 18.915 2.98827L16.7916 3.28921C16.774 3.29184 16.7563 3.29309 16.7386 3.29296C16.6438 3.29286 16.5525 3.25683 16.4832 3.19213C16.4138 3.12744 16.3716 3.03887 16.3649 2.94428C16.3583 2.84968 16.3877 2.75607 16.4473 2.6823C16.5069 2.60854 16.5922 2.56009 16.6861 2.54671L17.8388 2.38358C16.0805 1.31276 14.0606 0.748264 12.0019 0.752334C5.79845 0.752334 0.751887 5.7989 0.751887 12.0023C0.745824 14.3902 1.50551 16.717 2.91939 18.6412Z" fill="#FF6B49"/>
<path d="M21.6884 4.92043C21.6595 4.88011 21.623 4.84591 21.5808 4.81981C21.5387 4.79372 21.4917 4.77624 21.4428 4.76839C21.3938 4.76055 21.3438 4.76249 21.2956 4.77411C21.2474 4.78573 21.202 4.80679 21.162 4.83608C21.1219 4.86536 21.0881 4.90229 21.0625 4.94473C21.0369 4.98717 21.0199 5.03427 21.0126 5.08331C21.0052 5.13235 21.0077 5.18236 21.0199 5.23044C21.032 5.27851 21.0535 5.3237 21.0832 5.3634C22.4976 7.28742 23.2575 9.61438 23.2512 12.0023C23.2512 18.2057 18.2047 23.2523 12.0012 23.2523C9.94246 23.2562 7.9226 22.6916 6.16434 21.6206L7.317 21.4575C7.41459 21.4425 7.50233 21.3896 7.56119 21.3104C7.62005 21.2311 7.64528 21.1318 7.63139 21.0341C7.61751 20.9363 7.56563 20.848 7.48703 20.7882C7.40842 20.7285 7.30943 20.7022 7.21153 20.715L5.08809 21.0159C5.03175 21.0239 4.97796 21.0446 4.9308 21.0764C4.88363 21.1082 4.84433 21.1504 4.81588 21.1997C4.78742 21.249 4.77056 21.3041 4.76655 21.3608C4.76255 21.4176 4.77152 21.4745 4.79278 21.5273L5.59387 23.5167C5.62193 23.586 5.67008 23.6454 5.73214 23.6872C5.79421 23.7289 5.86735 23.7512 5.94215 23.7511C5.99036 23.7513 6.03813 23.742 6.08278 23.7239C6.17502 23.6867 6.24872 23.6144 6.28767 23.5229C6.32661 23.4314 6.3276 23.3281 6.29043 23.2359L5.937 22.3575C8.31757 23.751 11.1055 24.2818 13.8316 23.8605C16.5577 23.4393 19.0554 22.0917 20.9043 20.0447C22.7533 17.9977 23.8405 15.3761 23.9831 12.6214C24.1256 9.86665 23.3148 7.14691 21.687 4.91996L21.6884 4.92043Z" fill="#FF6B49"/>
<path d="M12.8923 11.9926L16.8255 8.05939C16.9377 7.94122 16.9994 7.78388 16.9973 7.6209C16.9952 7.45793 16.9295 7.30222 16.8143 7.18696C16.699 7.07171 16.5433 7.00604 16.3804 7.00396C16.2174 7.00187 16.06 7.06353 15.9419 7.17579L12.0087 11.109L8.07547 7.17579C7.9573 7.06353 7.79996 7.00187 7.63698 7.00396C7.47401 7.00604 7.31829 7.07171 7.20304 7.18696C7.08779 7.30222 7.02212 7.45793 7.02004 7.6209C7.01795 7.78388 7.07961 7.94122 7.19187 8.05939L11.1251 11.9926L7.19187 15.9258C7.13016 15.9821 7.08037 16.0503 7.04545 16.1262C7.01053 16.2022 6.9912 16.2843 6.98859 16.3678C6.98598 16.4514 7.00014 16.5346 7.03025 16.6125C7.06036 16.6905 7.1058 16.7616 7.16388 16.8217C7.22196 16.8818 7.2915 16.9296 7.36839 16.9624C7.44528 16.9951 7.52795 17.0121 7.61152 17.0124C7.6951 17.0126 7.77786 16.9961 7.85494 16.9637C7.93201 16.9314 8.00182 16.884 8.06023 16.8242L8.07547 16.8086L12.0087 12.8762L15.9419 16.8094C16.06 16.9217 16.2174 16.9833 16.3804 16.9812C16.5433 16.9791 16.699 16.9135 16.8143 16.7982C16.9295 16.683 16.9952 16.5273 16.9973 16.3643C16.9994 16.2013 16.9377 16.044 16.8255 15.9258L12.8923 11.9926Z" fill="#FF6B49"/>
</svg>
