<svg width="24" height="24" viewBox="0 0 24 24" fill="none" xmlns="http://www.w3.org/2000/svg">
<g clip-path="url(#clip0_1469_11842)">
<path d="M12 0.000104457C15.1826 0.000104457 18.2349 1.26438 20.4853 3.51481C22.7357 5.76525 24 8.81751 24 12.0001C24.0006 14.0054 23.4986 15.9788 22.54 17.7401L23.25 22.3101C23.2474 22.4313 23.1981 22.5468 23.1124 22.6326C23.0267 22.7183 22.9112 22.7676 22.79 22.7701L18.95 21.7701C16.9145 23.2461 14.4644 24.0406 11.95 24.0401C8.76741 24.0401 5.71516 22.7758 3.46472 20.5254C1.21428 18.275 -0.0499878 15.2227 -0.0499878 12.0401C-0.0552807 10.4567 0.252871 8.88783 0.856689 7.42402C1.46051 5.96022 2.34807 4.63039 3.4682 3.51118C4.58833 2.39198 5.91887 1.50554 7.38318 0.902937C8.84748 0.300333 10.4166 -0.00650209 12 0.000104457Z" fill="#3365EF"/>
<path d="M17.06 13.9001C16.0107 13.9001 15.16 13.0494 15.16 12.0001C15.16 10.9508 16.0107 10.1001 17.06 10.1001C18.1093 10.1001 18.96 10.9508 18.96 12.0001C18.96 13.0494 18.1093 13.9001 17.06 13.9001Z" fill="#ffffff"/>
<path d="M12.26 13.9001C11.2107 13.9001 10.36 13.0494 10.36 12.0001C10.36 10.9508 11.2107 10.1001 12.26 10.1001C13.3093 10.1001 14.16 10.9508 14.16 12.0001C14.16 13.0494 13.3093 13.9001 12.26 13.9001Z" fill="#ffffff"/>
<path d="M7.38 13.9001C6.33066 13.9001 5.48 13.0494 5.48 12.0001C5.48 10.9508 6.33066 10.1001 7.38 10.1001C8.42934 10.1001 9.28 10.9508 9.28 12.0001C9.28 13.0494 8.42934 13.9001 7.38 13.9001Z" fill="#ffffff"/>
</g>
<defs>
<clipPath id="clip0_1469_11842">
<rect width="24" height="24" fill="white" transform="matrix(-1 0 0 1 24 0)"/>
</clipPath>
</defs>
</svg>
