<svg width="24" height="20" viewBox="0 0 24 20" fill="none" xmlns="http://www.w3.org/2000/svg">
<path d="M24 6.75594C24 8.65667 23.2439 10.3976 21.6202 12.2324C20.167 13.8746 18.0797 15.543 15.6614 17.471C14.8355 18.1296 13.8994 18.876 12.9277 19.6738C12.6731 19.8825 12.3468 19.9984 12.0084 20H12C11.6587 20.0002 11.329 19.8841 11.0723 19.6733C10.1025 18.8799 9.16781 18.1335 8.34375 17.4749L8.33953 17.4718C5.92125 15.543 3.83297 13.8746 2.38031 12.2324C0.756094 10.3976 0 8.65667 0 6.75594C0 4.90878 0.676406 3.2052 1.90406 1.95693C3.14625 0.694606 4.85109 0 6.70312 0C8.08875 0 9.35719 0.41009 10.4742 1.21885C11.0562 1.6454 11.5695 2.14816 11.9986 2.71169L12.007 2.70115C12.4344 2.14221 12.9451 1.64349 13.5234 1.22017C14.6414 0.41009 15.9103 0 17.2969 0C19.1508 0 20.8552 0.694606 22.0973 1.95693C23.3236 3.2052 24 4.90834 24 6.75594Z" fill="#293F98"/>
<path d="M24 6.75594C24 8.65667 23.2439 10.3976 21.6201 12.2324C20.167 13.8746 18.0797 15.543 15.6614 17.471C14.8355 18.1296 13.8994 18.876 12.9276 19.6738C12.6731 19.8825 12.3467 19.9984 12.0084 20V2.70071C12.4358 2.14177 12.9465 1.64305 13.5248 1.21973C14.6414 0.41009 15.9103 0 17.2969 0C19.1508 0 20.8551 0.694606 22.0973 1.95693C23.3236 3.2052 24 4.90834 24 6.75594Z" fill="#3FA3FF"/>
</svg>
