<svg width="24" height="24" viewBox="0 0 24 24" fill="none" xmlns="http://www.w3.org/2000/svg">
<path fill-rule="evenodd" clip-rule="evenodd" d="M12 22C17.5228 22 22 17.5228 22 12C22 6.47715 17.5228 2 12 2C6.47715 2 2 6.47715 2 12C2 17.5228 6.47715 22 12 22ZM12 24C18.6274 24 24 18.6274 24 12C24 5.37258 18.6274 0 12 0C5.37258 0 0 5.37258 0 12C0 18.6274 5.37258 24 12 24Z" fill="#3FA3FF"/>
<path d="M15.1261 11.6622L11.0809 8.86583C10.8085 8.67751 10.4367 8.8725 10.4367 9.20368L10.4367 14.7963C10.4367 15.1275 10.8085 15.3225 11.0809 15.1342L15.1261 12.3378C15.3623 12.1746 15.3623 11.8254 15.1261 11.6622Z" fill="#E6F9FE"/>
</svg>
