<svg width="20" height="24" viewBox="0 0 20 24" fill="none" xmlns="http://www.w3.org/2000/svg">
<g clip-path="url(#clip0_7779_63945)">
<path fill-rule="evenodd" clip-rule="evenodd" d="M14.1819 0C12.9246 -5.04604e-06 11.7058 0.434227 10.7318 1.22926C9.75774 2.0243 9.08816 3.13134 8.83628 4.36317H1.09111C0.801731 4.36317 0.524203 4.47813 0.319579 4.68275C0.114956 4.88737 0 5.1649 0 5.45428C0 5.74367 0.114956 6.02119 0.319579 6.22582C0.524203 6.43044 0.801731 6.5454 1.09111 6.5454H8.83628C9.04262 7.5567 9.53163 8.48872 10.2465 9.23319C10.9614 9.97766 11.8729 10.504 12.875 10.7512C13.8771 10.9983 14.9288 10.9561 15.9078 10.6293C16.8869 10.3026 17.7532 9.70485 18.406 8.90543C19.0589 8.10602 19.4716 7.13778 19.5962 6.11319C19.7207 5.08859 19.552 4.04968 19.1097 3.11713C18.6673 2.18458 17.9695 1.39667 17.0972 0.844897C16.225 0.293128 15.214 0.000152217 14.1819 0ZM10.9092 5.45428C10.9092 4.80701 11.1011 4.17426 11.4608 3.63607C11.8204 3.09788 12.3315 2.67841 12.9295 2.43071C13.5275 2.183 14.1855 2.11819 14.8204 2.24447C15.4552 2.37075 16.0384 2.68244 16.4961 3.14014C16.9537 3.59783 17.2654 4.18097 17.3917 4.81581C17.518 5.45065 17.4532 6.10868 17.2055 6.70669C16.9578 7.3047 16.5383 7.81582 16.0001 8.17543C15.4619 8.53504 14.8292 8.72698 14.1819 8.72698C13.3139 8.72698 12.4815 8.38218 11.8678 7.76843C11.254 7.15468 10.9092 6.32226 10.9092 5.45428Z" fill="#ABD1F5"/>
<path fill-rule="evenodd" clip-rule="evenodd" d="M5.45465 13.0908C4.4227 13.0911 3.41201 13.3842 2.53995 13.9359C1.66789 14.4877 0.970259 15.2755 0.528067 16.2079C0.0858758 17.1404 -0.0827276 18.1791 0.0418385 19.2035C0.166405 20.2279 0.579028 21.1959 1.23179 21.9952C1.88455 22.7945 2.75066 23.3922 3.72954 23.7189C4.70841 24.0455 5.75988 24.0878 6.76184 23.8408C7.76379 23.5938 8.6751 23.0676 9.38995 22.3233C10.1048 21.5791 10.5938 20.6473 10.8003 19.6362H18.5454C18.8348 19.6362 19.1124 19.5213 19.317 19.3166C19.5216 19.112 19.6366 18.8345 19.6366 18.5451C19.6366 18.2557 19.5216 17.9782 19.317 17.7736C19.1124 17.5689 18.8348 17.454 18.5454 17.454H10.8003C10.5484 16.2222 9.87881 15.1151 8.90476 14.3201C7.93071 13.525 6.71197 13.0908 5.45465 13.0908ZM2.18195 18.5451C2.18195 17.8978 2.37389 17.2651 2.7335 16.7269C3.09311 16.1887 3.60424 15.7692 4.20225 15.5215C4.80025 15.2738 5.45828 15.209 6.09312 15.3353C6.72797 15.4616 7.31111 15.7733 7.7688 16.231C8.22649 16.6887 8.53819 17.2718 8.66447 17.9066C8.79074 18.5415 8.72593 19.1995 8.47823 19.7975C8.23053 20.3955 7.81106 20.9066 7.27287 21.2663C6.73467 21.6259 6.10193 21.8178 5.45465 21.8178C4.58668 21.8178 3.75426 21.473 3.14051 20.8593C2.52676 20.2455 2.18195 19.4131 2.18195 18.5451Z" fill="white"/>
</g>
<defs>
<clipPath id="clip0_7779_63945">
<rect width="19.6362" height="24" fill="white"/>
</clipPath>
</defs>
</svg>

