<svg width="21" height="26" viewBox="0 0 21 26" fill="none" xmlns="http://www.w3.org/2000/svg">
<path d="M16.0513 6.44645C16.0513 3.43846 13.5843 1 10.5412 1C7.49816 1 5.03125 3.43846 5.03125 6.44645V11.4679C5.03125 14.4759 7.49816 16.9143 10.5412 16.9143C13.5843 16.9143 16.0513 14.4759 16.0513 11.4679V6.44645Z" fill="#3365EF"/>
<path fill-rule="evenodd" clip-rule="evenodd" d="M3 11.1219C3 10.576 2.55228 10.1334 2 10.1334C1.44772 10.1334 1 10.576 1 11.1219C1 13.6229 2.00511 16.0214 3.79421 17.7899C5.34579 19.3236 7.37681 20.2744 9.53906 20.4998V24.0265C9.53906 24.5642 9.98678 25 10.5391 25C11.0913 25 11.5391 24.5642 11.5391 24.0265V20.5C13.702 20.275 15.7337 19.324 17.2858 17.7899C19.0749 16.0214 20.08 13.6229 20.08 11.1219C20.08 10.576 19.6323 10.1334 19.08 10.1334C18.5277 10.1334 18.08 10.576 18.08 11.1219C18.08 13.0986 17.2856 14.9943 15.8716 16.392C14.4575 17.7897 12.5397 18.5749 10.54 18.5749C8.54028 18.5749 6.62244 17.7897 5.20842 16.392C3.79439 14.9943 3 13.0986 3 11.1219Z" fill="#3365EF"/>
<path d="M3.85417 1.71727C3.3825 1.04391 2.45782 0.972409 1.81596 1.42201C1.17411 1.8716 0.925349 2.76507 1.39702 3.43843L16.2853 24.6933C16.757 25.3666 17.6817 25.4381 18.3236 24.9885C18.9654 24.5389 19.2142 23.6455 18.7425 22.9721L3.85417 1.71727Z" fill="#3365EF" stroke="white" stroke-linecap="round"/>
</svg>
