<svg width="37" height="14" viewBox="0 0 37 14" fill="none" xmlns="http://www.w3.org/2000/svg">
<path d="M8.33829 13.9917C9.90278 13.9822 10.8857 13.0422 10.8914 11.5502C10.8964 10.4135 10.9013 9.27682 10.8864 8.14014C10.8815 7.82817 10.9815 7.6654 11.2871 7.58402C11.8843 7.41582 12.4658 7.18591 13.0679 7.05162C15.8856 6.43785 18.7344 6.38969 21.5925 6.66776C23.0109 6.8034 24.4158 7.06586 25.7547 7.58876C26.0256 7.69388 26.1363 7.82817 26.1363 8.1259C26.1157 9.24833 26.1264 10.3701 26.1313 11.4973C26.1363 13.0653 27.0987 13.9863 28.749 13.991C29.6865 13.9958 30.6141 13.991 31.5517 13.9958C32.5148 13.9958 33.4779 14.0053 34.4403 13.9958C35.9948 13.9768 36.9778 13.0368 36.9884 11.5502C36.9983 10.4087 36.9678 9.27682 36.9983 8.1354C37.0281 7.08011 36.6572 6.17877 35.9501 5.3873C34.7991 4.10278 33.3098 3.26859 31.7318 2.58292C28.4695 1.15394 25.0172 0.420118 21.4485 0.127133C16.626 -0.270974 11.9304 0.262774 7.36244 1.77246C5.30577 2.45067 3.35548 3.33234 1.71085 4.74097C0.576136 5.70945 -0.0848354 6.86037 0.00877853 8.37616C0.0690602 9.41178 0.0144522 10.4623 0.0194166 11.5027C0.0293453 13.047 1.00733 13.9917 2.60656 13.9965C4.51643 14.0012 6.42701 13.9965 8.33829 13.9917Z" fill="#3FA3FF"/>
</svg>
