<svg width="16" height="16" viewBox="0 0 16 16" fill="none" xmlns="http://www.w3.org/2000/svg">
<circle cx="8" cy="8" r="7.75" fill="white" stroke="#5C6E9F" stroke-width="0.5"/>
<path d="M8.54967 8.00023L10.8861 5.66366C10.9222 5.62758 10.9508 5.58473 10.9704 5.53757C10.9899 5.49041 11 5.43985 11 5.3888C11 5.33775 10.9899 5.28719 10.9704 5.24003C10.9508 5.19287 10.9222 5.15002 10.8861 5.11394C10.85 5.07782 10.8071 5.04917 10.76 5.02961C10.7128 5.01006 10.6623 5 10.6112 5C10.5602 5 10.5096 5.01006 10.4625 5.02961C10.4153 5.04917 10.3725 5.07782 10.3364 5.11394L8 7.45051L5.66361 5.11394C5.62753 5.07782 5.58469 5.04917 5.53753 5.02961C5.49037 5.01006 5.43982 5 5.38877 5C5.33772 5 5.28717 5.01006 5.24001 5.02961C5.19285 5.04917 5.15001 5.07782 5.11393 5.11394C5.07781 5.15002 5.04916 5.19287 5.02961 5.24003C5.01006 5.28719 5 5.33775 5 5.3888C5 5.43985 5.01006 5.49041 5.02961 5.53757C5.04916 5.58473 5.07781 5.62758 5.11393 5.66366L7.45033 8.00023L5.11393 10.3368C5.04364 10.4102 5.00491 10.5082 5.00603 10.6099C5.00715 10.7115 5.04804 10.8087 5.11993 10.8805C5.19182 10.9524 5.28899 10.9932 5.39062 10.9942C5.49225 10.9953 5.59025 10.9565 5.66361 10.8862L8 8.54995L9.1682 9.71805L10.3364 10.8862C10.4093 10.959 10.5081 11 10.6112 11C10.7143 11 10.8132 10.959 10.8861 10.8862C10.959 10.8133 10.9999 10.7144 10.9999 10.6113C10.9999 10.5082 10.959 10.4093 10.8861 10.3364L8.54967 8.00023Z" fill="#5C6E9F"/>
<rect x="0.5" y="0.5" width="15" height="15" rx="10.5" stroke="#5C6E9F"/>
</svg>
