<svg width="70" height="48" viewBox="0 0 70 48" fill="none" xmlns="http://www.w3.org/2000/svg">
<rect x="0.5" y="0.5" width="69" height="47" rx="5.5" fill="white" stroke="#D9D9D9"/>
<path d="M44.6364 24.5746C45.6637 24.5969 46.6969 24.5292 47.7201 24.6098C48.7564 24.8031 49.0062 26.3719 48.0855 26.8856C47.4574 27.2241 46.7111 27.0117 46.0302 27.0714H44.6364V24.5746ZM48.3142 21.7486C48.5424 22.5542 47.7658 23.2776 46.9898 23.1666H44.6364C44.6529 22.4069 44.6041 21.5822 44.6603 20.8625C45.6031 20.889 46.5546 20.8083 47.4919 20.9047C47.8947 21.0059 48.2317 21.337 48.3142 21.7486ZM53.9781 9.8009C54.0219 11.3395 53.9844 12.9594 53.997 14.5292C53.9941 20.9115 54.0032 27.2936 53.992 33.6763C53.9507 36.0682 51.8309 38.1466 49.4555 38.1943C47.0778 38.204 44.6998 38.1958 42.3218 38.1985V28.5498C44.9128 28.5364 47.505 28.5769 50.0949 28.5296C51.2963 28.4541 52.6123 27.6614 52.6683 26.3392C52.8097 25.0114 51.5578 24.0929 50.3692 23.9479C49.9123 23.936 49.9257 23.8147 50.3692 23.7617C51.5029 23.5167 52.3931 22.3434 52.0595 21.1683C51.7753 19.9324 50.4093 19.4541 49.2731 19.4564C46.9563 19.4407 44.6392 19.4542 42.3224 19.4497C42.3373 17.6484 42.2911 15.8452 42.3472 14.0452C42.5308 11.6964 44.704 9.75949 47.0459 9.80151C49.3569 9.80116 51.6676 9.80116 53.9781 9.80107V9.8009Z" fill="url(#paint0_linear_0_1)"/>
<path d="M16.1412 14.2885C16.2004 11.9004 18.3292 9.83904 20.7015 9.80413C23.0704 9.79684 25.4396 9.80308 27.8085 9.80097C27.802 17.7911 27.8214 25.7822 27.7988 33.7719C27.7075 36.131 25.6019 38.1531 23.2554 38.1948C20.882 38.2035 18.5084 38.1961 16.135 38.1985V28.2245C18.4404 28.7691 20.8579 29.0009 23.2099 28.6397C24.6157 28.4135 26.1539 27.7231 26.6298 26.2646C26.9801 25.017 26.7829 23.704 26.835 22.4235V19.4497H22.7648C22.7465 21.4165 22.8023 23.3867 22.7354 25.3511C22.6257 26.5585 21.4299 27.3256 20.2912 27.2847C18.8789 27.2996 16.0803 26.2612 16.0803 26.2612C16.0733 22.5763 16.1213 17.9615 16.1412 14.2889V14.2885Z" fill="url(#paint1_linear_0_1)"/>
<path d="M29.3264 20.6492C29.1121 20.6947 29.2833 19.9194 29.2285 19.6254C29.2431 17.766 29.198 15.9045 29.2534 14.0464C29.4365 11.6878 31.6263 9.74599 33.9778 9.8012H40.9026C40.8961 17.7914 40.9154 25.7824 40.8929 33.7721C40.8015 36.1313 38.6957 38.1532 36.3492 38.1951C33.9757 38.204 31.6021 38.1965 29.2284 38.1988V27.2709C30.8495 28.601 33.0527 28.808 35.0723 28.8116C36.5948 28.8111 38.1084 28.5764 39.587 28.2252V26.2232C37.9207 27.0537 35.962 27.5812 34.1149 27.104C32.8264 26.7833 31.8911 25.5381 31.912 24.2084C31.7627 22.8256 32.5732 21.3656 33.9321 20.9546C35.6193 20.4264 37.4581 20.8303 39.0396 21.517C39.3784 21.6945 39.7224 21.9145 39.5869 21.3482V19.7746C36.9419 19.1453 34.127 18.9137 31.4697 19.5983C30.7006 19.8153 29.9512 20.1443 29.3264 20.6494V20.6492Z" fill="url(#paint2_linear_0_1)"/>
<defs>
<linearGradient id="paint0_linear_0_1" x1="42.2421" y1="23.3925" x2="53.9234" y2="23.3925" gradientUnits="userSpaceOnUse">
<stop stop-color="#58B03A"/>
<stop offset="1" stop-color="#55B330"/>
</linearGradient>
<linearGradient id="paint1_linear_0_1" x1="15.8866" y1="24.2717" x2="27.6171" y2="24.2717" gradientUnits="userSpaceOnUse">
<stop stop-color="#0F6EB6"/>
<stop offset="1" stop-color="#006DBA"/>
</linearGradient>
<linearGradient id="paint2_linear_0_1" x1="29.2113" y1="23.6679" x2="40.9004" y2="23.6679" gradientUnits="userSpaceOnUse">
<stop stop-color="#DE0D3D"/>
<stop offset="1" stop-color="#E30138"/>
</linearGradient>
</defs>
</svg>

