<svg width="35" height="24" viewBox="0 0 35 24" fill="none" xmlns="http://www.w3.org/2000/svg">
<rect x="0.5" y="0.5" width="34" height="23" rx="3.5" fill="white" stroke="#D9D9D9"/>
<path d="M22.3182 12.2874C22.8319 12.2986 23.3485 12.2647 23.8601 12.305C24.3782 12.4016 24.5031 13.186 24.0428 13.4429C23.7287 13.6121 23.3556 13.5059 23.0151 13.5358H22.3182V12.2874ZM24.1571 10.8744C24.2712 11.2772 23.8829 11.6389 23.4949 11.5834H22.3182C22.3265 11.2035 22.3021 10.7912 22.3302 10.4313C22.8016 10.4446 23.2773 10.4043 23.746 10.4524C23.9474 10.503 24.1159 10.6686 24.1571 10.8744ZM26.9891 4.90054C27.011 5.66984 26.9922 6.4798 26.9985 7.26471C26.9971 10.4559 27.0016 13.6469 26.996 16.8382C26.9754 18.0342 25.9155 19.0734 24.7278 19.0973C23.539 19.1021 22.3499 19.098 21.1609 19.0993V14.275C22.4564 14.2683 23.7525 14.2886 25.0475 14.2649C25.6482 14.2272 26.3062 13.8308 26.3342 13.1697C26.4049 12.5058 25.7789 12.0465 25.1846 11.974C24.9562 11.9681 24.9629 11.9074 25.1846 11.881C25.7515 11.7585 26.1966 11.1718 26.0298 10.5843C25.8877 9.9663 25.2047 9.72713 24.6366 9.72831C23.4782 9.72045 22.3196 9.72722 21.1612 9.72493C21.1687 8.82428 21.1456 7.92267 21.1736 7.02268C21.2654 5.84831 22.352 4.87984 23.523 4.90085C24.6785 4.90067 25.8338 4.90067 26.9891 4.90063V4.90054Z" fill="url(#paint0_linear_0_1)"/>
<path d="M8.07061 7.14441C8.10019 5.95034 9.16462 4.91967 10.3508 4.90222C11.5352 4.89857 12.7198 4.90169 13.9043 4.90064C13.901 8.89572 13.9107 12.8912 13.8994 16.8861C13.8538 18.0657 12.8009 19.0767 11.6277 19.0976C10.441 19.1019 9.25421 19.0982 8.06749 19.0994V14.1124C9.22019 14.3847 10.429 14.5006 11.6049 14.32C12.3079 14.2069 13.0769 13.8617 13.3149 13.1324C13.49 12.5086 13.3915 11.8521 13.4175 11.2119V9.72503H11.3824C11.3733 10.7084 11.4011 11.6935 11.3677 12.6757C11.3128 13.2794 10.715 13.663 10.1456 13.6425C9.43945 13.65 8.04014 13.1307 8.04014 13.1307C8.03663 11.2883 8.06063 8.98091 8.07061 7.14458V7.14441Z" fill="url(#paint1_linear_0_1)"/>
<path d="M14.6632 10.3246C14.5561 10.3473 14.6417 9.95972 14.6143 9.81268C14.6216 8.88298 14.599 7.95227 14.6267 7.02322C14.7182 5.84388 15.8132 4.87299 16.9889 4.9006H20.4513C20.4481 8.89568 20.4577 12.8912 20.4464 16.8861C20.4008 18.0656 19.3479 19.0766 18.1746 19.0975C16.9879 19.102 15.801 19.0982 14.6142 19.0994V13.6355C15.4248 14.3005 16.5264 14.404 17.5362 14.4058C18.2974 14.4055 19.0542 14.2882 19.7935 14.1126V13.1116C18.9604 13.5268 17.981 13.7906 17.0575 13.552C16.4132 13.3917 15.9456 12.7691 15.956 12.1042C15.8813 11.4128 16.2866 10.6828 16.9661 10.4773C17.8097 10.2132 18.7291 10.4152 19.5198 10.7585C19.6892 10.8472 19.8612 10.9573 19.7934 10.6741V9.88728C18.4709 9.57263 17.0635 9.45685 15.7349 9.79914C15.3503 9.90763 14.9756 10.0722 14.6632 10.3247V10.3246Z" fill="url(#paint2_linear_0_1)"/>
<defs>
<linearGradient id="paint0_linear_0_1" x1="21.1211" y1="11.6963" x2="26.9617" y2="11.6963" gradientUnits="userSpaceOnUse">
<stop stop-color="#58B03A"/>
<stop offset="1" stop-color="#55B330"/>
</linearGradient>
<linearGradient id="paint1_linear_0_1" x1="7.9433" y1="12.136" x2="13.8086" y2="12.136" gradientUnits="userSpaceOnUse">
<stop stop-color="#0F6EB6"/>
<stop offset="1" stop-color="#006DBA"/>
</linearGradient>
<linearGradient id="paint2_linear_0_1" x1="14.6057" y1="11.834" x2="20.4502" y2="11.834" gradientUnits="userSpaceOnUse">
<stop stop-color="#DE0D3D"/>
<stop offset="1" stop-color="#E30138"/>
</linearGradient>
</defs>
</svg>


