<svg width="24" height="21" viewBox="0 0 24 21" fill="none" xmlns="http://www.w3.org/2000/svg">
<g clip-path="url(#clip0_2428_20679)">
<path d="M21.84 2.19758e-05H2.15997C1.87632 2.19758e-05 1.59544 0.05587 1.33337 0.16442C1.07131 0.27297 0.833204 0.432077 0.632629 0.632651C0.432055 0.833226 0.272918 1.07136 0.164368 1.33343C0.0558175 1.59549 0 1.87637 0 2.16003V15.09C0 15.6629 0.227551 16.2123 0.632629 16.6174C1.03771 17.0224 1.58711 17.25 2.15997 17.25H10.95V19.07H9.42999C9.30859 19.057 9.18578 19.0696 9.06958 19.1071C8.95338 19.1446 8.84634 19.2062 8.75549 19.2877C8.66465 19.3693 8.59203 19.4691 8.5423 19.5807C8.49256 19.6922 8.46686 19.8129 8.46686 19.935C8.46686 20.0571 8.49256 20.1779 8.5423 20.2894C8.59203 20.4009 8.66465 20.5007 8.75549 20.5823C8.84634 20.6639 8.95338 20.7254 9.06958 20.7629C9.18578 20.8004 9.30859 20.8131 9.42999 20.8H14.58C14.7933 20.777 14.9907 20.676 15.1341 20.5163C15.2775 20.3567 15.3568 20.1496 15.3568 19.935C15.3568 19.7204 15.2775 19.5134 15.1341 19.3537C14.9907 19.194 14.7933 19.093 14.58 19.07H13.1V17.25H21.89C22.4628 17.25 23.0122 17.0224 23.4173 16.6174C23.8224 16.2123 24.05 15.6629 24.05 15.09V2.16003C24.0514 1.87172 23.9949 1.58607 23.8837 1.32006C23.7725 1.05405 23.609 0.813112 23.4028 0.611594C23.1966 0.410076 22.952 0.252092 22.6835 0.147025C22.4151 0.0419586 22.1282 -0.00802745 21.84 2.19758e-05ZM17.1 9.35003C16.939 9.50941 16.7216 9.59881 16.495 9.59881C16.2684 9.59881 16.051 9.50941 15.89 9.35003L12.83 6.28002V13.52C12.843 13.6401 12.8306 13.7615 12.7935 13.8764C12.7565 13.9914 12.6956 14.0972 12.615 14.1871C12.5343 14.2769 12.4356 14.3488 12.3254 14.398C12.2151 14.4472 12.0957 14.4726 11.975 14.4726C11.8542 14.4726 11.7348 14.4472 11.6246 14.398C11.5143 14.3488 11.4156 14.2769 11.335 14.1871C11.2543 14.0972 11.1935 13.9914 11.1564 13.8764C11.1194 13.7615 11.107 13.6401 11.12 13.52V6.38003L8.12 9.38003C7.95954 9.53916 7.7424 9.628 7.51642 9.62707C7.29044 9.62613 7.07411 9.53548 6.91498 9.37502C6.75585 9.21457 6.66697 8.99746 6.66791 8.77148C6.66885 8.54549 6.75953 8.32913 6.91998 8.17L11.49 3.60003C11.623 3.46812 11.8027 3.3941 11.99 3.3941C12.1773 3.3941 12.357 3.46812 12.49 3.60003L17.06 8.17C17.1394 8.24839 17.2024 8.34183 17.2454 8.44485C17.2883 8.54786 17.3103 8.65841 17.31 8.77001C17.3123 8.98235 17.2377 9.18836 17.1 9.35003Z" fill="#1A1A1A"/>
</g>
<defs>
<clipPath id="clip0_2428_20679">
<rect width="24" height="20.8" fill="white"/>
</clipPath>
</defs>
</svg>
