<svg width="64" height="65" viewBox="0 0 64 65" fill="none" xmlns="http://www.w3.org/2000/svg">
<g clip-path="url(#clip0_1769_31838)">
<path d="M63.625 19.625C63.4503 19.3921 63.2239 19.2031 62.9635 19.0729C62.7032 18.9428 62.4161 18.875 62.125 18.875H48.7175C48.2742 16.2538 46.917 13.8742 44.8865 12.1583C42.856 10.4423 40.2834 9.50089 37.625 9.50089C34.9666 9.50089 32.394 10.4423 30.3635 12.1583C28.333 13.8742 26.9758 16.2538 26.5325 18.875H14.875L12.4275 1.61125C12.364 1.16417 12.1412 0.755035 11.8002 0.459027C11.4592 0.163019 11.0228 2.57454e-05 10.5712 0L1.875 0C1.37772 0 0.900806 0.197544 0.549175 0.549175C0.197544 0.900806 0 1.37772 0 1.875C0 2.37228 0.197544 2.84919 0.549175 3.20083C0.900806 3.55246 1.37772 3.75 1.875 3.75H8.94375L11.3938 21.0125L14.2238 40.95C14.5315 43.0968 15.574 45.0706 17.1737 46.535C16.3788 47.191 15.7793 48.0529 15.4408 49.0264C15.1024 50 15.0379 51.0478 15.2545 52.0555C15.4711 53.0632 15.9604 53.9921 16.6689 54.7406C17.3775 55.4891 18.2782 56.0286 19.2725 56.3C18.9368 57.1449 18.8109 58.0585 18.9055 58.9627C19.0001 59.8668 19.3125 60.7346 19.8159 61.4916C20.3193 62.2487 20.9986 62.8724 21.7958 63.3095C22.593 63.7465 23.4842 63.9838 24.3931 64.0011C25.3021 64.0184 26.2017 63.8151 27.0149 63.4086C27.828 63.0021 28.5306 62.4046 29.0624 61.6673C29.5941 60.9299 29.9392 60.0746 30.0681 59.1747C30.197 58.2748 30.1059 57.357 29.8025 56.5H45.4475C45.0495 57.6258 45.02 58.849 45.3634 59.9927C45.7068 61.1363 46.4053 62.141 47.3576 62.8613C48.31 63.5816 49.4669 63.9802 50.6608 63.9993C51.8548 64.0184 53.0238 63.657 53.9987 62.9676C54.9736 62.2781 55.7039 61.2962 56.0837 60.1642C56.4635 59.0321 56.4732 57.8085 56.1114 56.6706C55.7495 55.5326 55.035 54.5393 54.0711 53.8345C53.1073 53.1297 51.9441 52.7498 50.75 52.75H20.75C20.2527 52.75 19.7758 52.5525 19.4242 52.2008C19.0725 51.8492 18.875 51.3723 18.875 50.875C18.875 50.3777 19.0725 49.9008 19.4242 49.5492C19.7758 49.1975 20.2527 49 20.75 49H48.8425C50.8771 48.9939 52.8549 48.3288 54.4796 47.1043C56.1044 45.8797 57.2887 44.1617 57.855 42.2075L63.9263 21.2725C64.0072 20.9933 64.0221 20.6992 63.9698 20.4132C63.9175 20.1273 63.7995 19.8575 63.625 19.625V19.625Z" fill="url(#paint0_linear_1769_31838)"/>
<path d="M37.625 7.625C35.0291 7.625 32.4915 8.39477 30.3331 9.83696C28.1748 11.2792 26.4925 13.329 25.4991 15.7273C24.5057 18.1256 24.2458 20.7646 24.7522 23.3106C25.2586 25.8566 26.5087 28.1952 28.3442 30.0308C30.1798 31.8663 32.5184 33.1164 35.0644 33.6228C37.6104 34.1292 40.2494 33.8693 42.6477 32.8759C45.046 31.8825 47.0959 30.2003 48.538 28.0419C49.9802 25.8835 50.75 23.3459 50.75 20.75C50.746 17.2703 49.362 13.9342 46.9014 11.4736C44.4408 9.01305 41.1048 7.62897 37.625 7.625V7.625ZM42.7013 20.2013L37.0763 25.8263C36.9021 26.0005 36.6954 26.1387 36.4678 26.233C36.2402 26.3273 35.9963 26.3758 35.75 26.3758C35.5037 26.3758 35.2598 26.3273 35.0322 26.233C34.8046 26.1387 34.5979 26.0005 34.4238 25.8263L32.5488 23.9513C32.197 23.5995 31.9994 23.1224 31.9994 22.625C31.9994 22.1276 32.197 21.6505 32.5488 21.2987C32.9005 20.947 33.3776 20.7494 33.875 20.7494C34.3724 20.7494 34.8495 20.947 35.2013 21.2987L35.75 21.8487L40.05 17.5487C40.4017 17.1972 40.8788 16.9997 41.3761 16.9998C41.8734 17 42.3503 17.1976 42.7019 17.5494C43.0535 17.9011 43.2509 18.3781 43.2508 18.8754C43.2507 19.3728 43.053 19.8497 42.7013 20.2013V20.2013Z" fill="url(#paint1_linear_1769_31838)"/>
</g>
<defs>
<linearGradient id="paint0_linear_1769_31838" x1="31.9982" y1="64.002" x2="31.9982" y2="0" gradientUnits="userSpaceOnUse">
<stop stop-color="#3365EF"/>
<stop offset="1" stop-color="#95B1FF"/>
</linearGradient>
<linearGradient id="paint1_linear_1769_31838" x1="37.625" y1="33.875" x2="37.625" y2="7.625" gradientUnits="userSpaceOnUse">
<stop stop-color="#ACDAFB"/>
<stop offset="1" stop-color="#EAF6FF"/>
</linearGradient>
<clipPath id="clip0_1769_31838">
<rect width="64.0004" height="65" fill="white"/>
</clipPath>
</defs>
</svg>
