<svg width="24" height="5" viewBox="0 0 24 5" fill="none" xmlns="http://www.w3.org/2000/svg">
<path fill-rule="evenodd" clip-rule="evenodd" d="M20.502 0C19.119 0 18 1.119 18 2.5C18 3.857 19.083 4.963 20.435 4.999H20.569C21.919 4.963 23.002 3.857 23.002 2.5C23.002 1.119 21.882 0 20.502 0Z" fill="#3FA3FF"/>
<path fill-rule="evenodd" clip-rule="evenodd" d="M11.5 0C10.118 0 9 1.119 9 2.5C9 3.857 10.082 4.963 11.433 4.999H11.567C12.918 4.963 14 3.857 14 2.5C14 1.119 12.882 0 11.5 0Z" fill="#3FA3FF"/>
<path fill-rule="evenodd" clip-rule="evenodd" d="M2.5 0C1.119 0 0 1.119 0 2.5C0 3.857 1.083 4.963 2.433 4.999H2.567C3.919 4.963 5.003 3.857 5.003 2.5C5.003 1.119 3.882 0 2.5 0Z" fill="#3FA3FF"/>
</svg>