<svg width="13" height="16" viewBox="0 0 13 16" fill="none" xmlns="http://www.w3.org/2000/svg">
<path d="M8.40625 4.6875C8.11617 4.6875 7.83797 4.57227 7.63285 4.36715C7.42773 4.16203 7.3125 3.88383 7.3125 3.59375V0H1.71875C1.26306 0.000496303 0.826179 0.181738 0.503958 0.503958C0.181738 0.826179 0.000496303 1.26306 0 1.71875V14.2812C0.000496303 14.7369 0.181738 15.1738 0.503958 15.496C0.826179 15.8183 1.26306 15.9995 1.71875 16H10.4687C10.9244 15.9995 11.3613 15.8183 11.6835 15.496C12.0058 15.1738 12.187 14.7369 12.1875 14.2812V4.6875H8.40625ZM2.5625 11.25H4.835C4.95932 11.25 5.07855 11.2994 5.16646 11.3873C5.25436 11.4752 5.30375 11.5944 5.30375 11.7188C5.30375 11.8431 5.25436 11.9623 5.16646 12.0502C5.07855 12.1381 4.95932 12.1875 4.835 12.1875H2.5625C2.43818 12.1875 2.31895 12.1381 2.23104 12.0502C2.14314 11.9623 2.09375 11.8431 2.09375 11.7188C2.09375 11.5944 2.14314 11.4752 2.23104 11.3873C2.31895 11.2994 2.43818 11.25 2.5625 11.25ZM2.09375 9.21875C2.09375 9.09443 2.14314 8.9752 2.23104 8.88729C2.31895 8.79939 2.43818 8.75 2.5625 8.75H9.4375C9.56182 8.75 9.68105 8.79939 9.76896 8.88729C9.85686 8.9752 9.90625 9.09443 9.90625 9.21875C9.90625 9.34307 9.85686 9.4623 9.76896 9.55021C9.68105 9.63811 9.56182 9.6875 9.4375 9.6875H2.5625C2.43818 9.6875 2.31895 9.63811 2.23104 9.55021C2.14314 9.4623 2.09375 9.34307 2.09375 9.21875ZM9.4375 6.25C9.56182 6.25 9.68105 6.29939 9.76896 6.38729C9.85686 6.4752 9.90625 6.59443 9.90625 6.71875C9.90625 6.84307 9.85686 6.9623 9.76896 7.05021C9.68105 7.13811 9.56182 7.1875 9.4375 7.1875H2.5625C2.43818 7.1875 2.31895 7.13811 2.23104 7.05021C2.14314 6.9623 2.09375 6.84307 2.09375 6.71875C2.09375 6.59443 2.14314 6.4752 2.23104 6.38729C2.31895 6.29939 2.43818 6.25 2.5625 6.25H9.4375Z" fill="#5C6E9F"/>
</svg>
