<svg width="40" height="40" viewBox="0 0 40 40" fill="none" xmlns="http://www.w3.org/2000/svg">
<g clip-path="url(#clip0_7165_60997)">
<path d="M32.5 40H7.5C5.51088 40 3.60322 39.2098 2.1967 37.8033C0.790176 36.3968 0 34.4891 0 32.5L0 7.5C0 5.51088 0.790176 3.60322 2.1967 2.1967C3.60322 0.790176 5.51088 0 7.5 0L32.5 0C34.4891 0 36.3968 0.790176 37.8033 2.1967C39.2098 3.60322 40 5.51088 40 7.5V32.5C40 34.4891 39.2098 36.3968 37.8033 37.8033C36.3968 39.2098 34.4891 40 32.5 40Z" fill="#414157"/>
<g clip-path="url(#clip1_7165_60997)">
<path d="M26.5241 13.1232L27.1301 12.2293C27.2009 12.1246 27.2502 12.0069 27.2755 11.8831C27.3007 11.7592 27.3013 11.6316 27.2772 11.5075C27.253 11.3834 27.2047 11.2653 27.1349 11.1599C27.0652 11.0545 26.9753 10.9639 26.8705 10.8933C26.7665 10.8226 26.6495 10.7732 26.5263 10.7479C26.4032 10.7227 26.2762 10.7222 26.1528 10.7463C26.0294 10.7704 25.912 10.8188 25.8074 10.8886C25.7028 10.9584 25.6131 11.0483 25.5434 11.1529L24.9188 12.066C23.7285 11.4349 22.425 11.046 21.0835 10.922V9.92221H22.0061C22.1343 9.92532 22.2618 9.90275 22.3812 9.85584C22.5005 9.80893 22.6092 9.73862 22.701 9.64906C22.7928 9.5595 22.8657 9.45248 22.9155 9.33432C22.9652 9.21616 22.9909 9.08923 22.9909 8.961C22.9909 8.83278 22.9652 8.70585 22.9155 8.58769C22.8657 8.46952 22.7928 8.36251 22.701 8.27295C22.6092 8.18338 22.5005 8.11308 22.3812 8.06617C22.2618 8.01926 22.1343 7.99669 22.0061 7.99979H18.2283C18.1001 7.99669 17.9726 8.01926 17.8533 8.06617C17.7339 8.11308 17.6252 8.18338 17.5334 8.27295C17.4417 8.36251 17.3688 8.46952 17.319 8.58769C17.2692 8.70585 17.2435 8.83278 17.2435 8.961C17.2435 9.08923 17.2692 9.21616 17.319 9.33432C17.3688 9.45248 17.4417 9.5595 17.5334 9.64906C17.6252 9.73862 17.7339 9.80893 17.8533 9.85584C17.9726 9.90275 18.1001 9.92532 18.2283 9.92221H19.1605V10.9316C17.8188 11.0477 16.5143 11.4336 15.3252 12.066L14.7 11.1529C14.6304 11.0483 14.5407 10.9584 14.4362 10.8887C14.3317 10.8189 14.2143 10.7705 14.091 10.7463C13.9676 10.7222 13.8407 10.7228 13.7175 10.748C13.5944 10.7732 13.4775 10.8226 13.3735 10.8933C13.2687 10.9639 13.1789 11.0545 13.1091 11.1599C13.0393 11.2653 12.991 11.3834 12.9668 11.5075C12.9427 11.6316 12.9433 11.7592 12.9685 11.8831C12.9938 12.0069 13.0431 12.1246 13.1139 12.2293L13.7199 13.1232C12.102 14.4431 10.9324 16.2315 10.3716 18.2428C9.81077 20.2541 9.8863 22.3896 10.5878 24.3562C11.2893 26.3229 12.5824 28.0241 14.2895 29.2264C15.9966 30.4287 18.034 31.0731 20.122 31.0711C25.6893 31.0711 30.2444 26.5605 30.2444 20.9487C30.2432 19.4501 29.9087 17.9705 29.2653 16.6171C28.6219 15.2637 27.6855 14.0703 26.5241 13.1232ZM20.122 28.3314C18.5373 28.3347 16.9937 27.8278 15.7195 26.8857C14.4453 25.9436 13.5083 24.6163 13.0471 23.1002C12.5859 21.5841 12.625 19.9599 13.1586 18.4678C13.6923 16.9757 14.6921 15.695 16.0102 14.8153C18.4519 13.1818 21.8073 13.1818 24.2299 14.8153C25.2383 15.4895 26.0649 16.4018 26.6366 17.4716C27.2083 18.5415 27.5074 19.7357 27.5075 20.9487C27.5047 25.0554 24.1488 28.3314 20.122 28.3314Z" fill="#3FA3FF"/>
<path d="M21.8528 21.4483C21.8546 21.7887 21.7661 22.1234 21.5963 22.4184C21.4265 22.7133 21.1814 22.9579 20.8861 23.1272C20.5908 23.2964 20.2559 23.3843 19.9156 23.3818C19.5752 23.3792 19.2417 23.2864 18.9489 23.1128C18.6562 22.9392 18.4148 22.691 18.2493 22.3936C18.0839 22.0961 18.0003 21.7601 18.0072 21.4199C18.0141 21.0796 18.1112 20.7472 18.2886 20.4567C18.4659 20.1663 18.7172 19.928 19.0167 19.7664C18.9916 19.6851 18.9756 19.6012 18.9689 19.5164V17.3534C18.9658 17.2252 18.9883 17.0977 19.0352 16.9784C19.0821 16.859 19.1525 16.7503 19.242 16.6585C19.3316 16.5668 19.4386 16.4939 19.5568 16.4441C19.6749 16.3943 19.8019 16.3687 19.9301 16.3687C20.0583 16.3687 20.1852 16.3943 20.3034 16.4441C20.4216 16.4939 20.5286 16.5668 20.6181 16.6585C20.7077 16.7503 20.778 16.859 20.8249 16.9784C20.8718 17.0977 20.8944 17.2252 20.8913 17.3534V19.5164C20.8855 19.6013 20.8694 19.6853 20.8434 19.7664C21.1474 19.93 21.4016 20.1726 21.5793 20.4686C21.7569 20.7647 21.8514 21.1031 21.8528 21.4483Z" fill="#82FFD2"/>
</g>
</g>
<defs>
<clipPath id="clip0_7165_60997">
<rect width="40" height="40" fill="white"/>
</clipPath>
<clipPath id="clip1_7165_60997">
<rect width="20.2454" height="23.0713" fill="white" transform="translate(10 8)"/>
</clipPath>
</defs>
</svg>
