<svg width="55" height="54" viewBox="0 0 55 54" fill="none" xmlns="http://www.w3.org/2000/svg">
<g clip-path="url(#clip0_5901_76145)">
<path fill-rule="evenodd" clip-rule="evenodd" d="M50.5207 53.9986C50.0639 54.0005 49.6112 53.9118 49.1889 53.7376C48.7666 53.5635 48.3829 53.3073 48.0602 52.9841L33.1039 38.0236C32.9877 37.9053 32.9225 37.746 32.9225 37.5801C32.9225 37.4142 32.9877 37.255 33.1039 37.1366L34.3084 35.9333L29.3673 30.9921C26.1436 33.8299 21.9942 35.3921 17.6995 35.3848C1.97545 35.3848 -5.91451 16.3038 5.1943 5.19393C16.3031 -5.91593 35.3852 1.96981 35.3852 17.6991C35.3921 21.9941 33.83 26.1437 30.9925 29.368L35.9326 34.308L37.138 33.1036C37.2555 32.9861 37.4149 32.9201 37.581 32.9201C37.7471 32.9201 37.9065 32.9861 38.024 33.1036L52.9844 48.064C55.1518 50.2314 53.6383 53.9986 50.5207 53.9986ZM17.6763 16.752C16.7639 16.7518 15.8721 16.4811 15.1135 15.974C14.355 15.4669 13.7639 14.7463 13.415 13.9033C13.066 13.0603 12.9749 12.1327 13.1531 11.2379C13.3313 10.3431 13.7708 9.52121 14.4161 8.8762C15.0614 8.23119 15.8835 7.79203 16.7784 7.61423C17.6733 7.43644 18.6008 7.52801 19.4437 7.87735C20.2865 8.2267 21.0069 8.81814 21.5136 9.57688C22.0203 10.3356 22.2907 11.2276 22.2904 12.14C22.289 13.3631 21.8024 14.5357 20.9373 15.4004C20.0722 16.2651 18.8994 16.7512 17.6763 16.752ZM27.0206 27.8714H8.37834C8.21218 27.8714 8.05284 27.8054 7.93535 27.6879C7.81787 27.5704 7.75186 27.4111 7.75186 27.2449V25.0301C7.75103 23.2178 8.38884 21.4632 9.55325 20.0744C10.7177 18.6857 12.3342 17.7517 14.1189 17.4365C14.2466 17.4148 14.3778 17.4328 14.4949 17.4881C14.6121 17.5433 14.7094 17.6332 14.7738 17.7455C16.0605 20.0183 19.3416 20.0152 20.6262 17.7455C20.6906 17.6332 20.788 17.5433 20.9051 17.4881C21.0222 17.4328 21.1535 17.4148 21.2811 17.4365C23.0658 17.7517 24.6824 18.6857 25.8468 20.0744C27.0112 21.4632 27.649 23.2178 27.6482 25.0301V27.2449C27.6465 27.4107 27.5798 27.5693 27.4625 27.6864C27.3451 27.8036 27.1865 27.87 27.0206 27.8714ZM17.6995 2.31152C4.04155 2.31152 -2.8391 18.9215 6.81848 28.5812C16.4761 38.2409 33.0871 31.356 33.0871 17.6981C33.0878 15.6772 32.6902 13.676 31.9172 11.8088C31.1441 9.94166 30.0107 8.24514 28.5816 6.81622C27.1526 5.38729 25.456 4.25398 23.5888 3.48104C21.7216 2.7081 19.7204 2.31069 17.6995 2.31152Z" fill="url(#paint0_linear_5901_76145)"/>
</g>
<defs>
<linearGradient id="paint0_linear_5901_76145" x1="0.000378672" y1="26.9993" x2="54.0023" y2="26.9993" gradientUnits="userSpaceOnUse">
<stop stop-color="#39A6F5"/>
<stop offset="1" stop-color="#33CCCC"/>
</linearGradient>
<clipPath id="clip0_5901_76145">
<rect width="54.0021" height="54" fill="white"/>
</clipPath>
</defs>
</svg>
