<svg width="55" height="54" viewBox="0 0 55 54" fill="none" xmlns="http://www.w3.org/2000/svg">
<g clip-path="url(#clip0_5901_74916)">
<path fill-rule="evenodd" clip-rule="evenodd" d="M50.5207 53.9989C50.0639 54.0007 49.6112 53.912 49.1889 53.7379C48.7666 53.5637 48.3829 53.3076 48.0602 52.9843L33.1039 38.0238C32.9877 37.9055 32.9225 37.7463 32.9225 37.5804C32.9225 37.4145 32.9877 37.2552 33.1039 37.1369L34.3084 35.9335L29.3673 30.9924C26.1436 33.8302 21.9942 35.3923 17.6995 35.3851C1.97545 35.3851 -5.91451 16.304 5.1943 5.19417C16.3031 -5.91569 35.3852 1.97006 35.3852 17.6994C35.3921 21.9944 33.83 26.144 30.9925 29.3682L35.9326 34.3083L37.138 33.1038C37.2555 32.9864 37.4149 32.9204 37.581 32.9204C37.7471 32.9204 37.9065 32.9864 38.024 33.1038L52.9844 48.0643C55.1518 50.2316 53.6383 53.9989 50.5207 53.9989ZM17.6763 16.7523C16.7639 16.7521 15.8721 16.4813 15.1135 15.9742C14.355 15.4672 13.7639 14.7466 13.415 13.9035C13.066 13.0605 12.9749 12.133 13.1531 11.2381C13.3313 10.3433 13.7708 9.52145 14.4161 8.87645C15.0614 8.23144 15.8835 7.79227 16.7784 7.61448C17.6733 7.43668 18.6008 7.52825 19.4437 7.8776C20.2865 8.22695 21.0069 8.81839 21.5136 9.57712C22.0203 10.3359 22.2907 11.2278 22.2904 12.1402C22.289 13.3633 21.8024 14.5359 20.9373 15.4006C20.0722 16.2653 18.8994 16.7514 17.6763 16.7523ZM27.0206 27.8716H8.37834C8.21218 27.8716 8.05284 27.8056 7.93535 27.6881C7.81787 27.5706 7.75186 27.4113 7.75186 27.2451V25.0303C7.75103 23.218 8.38884 21.4634 9.55325 20.0747C10.7177 18.6859 12.3342 17.7519 14.1189 17.4367C14.2466 17.415 14.3778 17.433 14.4949 17.4883C14.6121 17.5436 14.7094 17.6334 14.7738 17.7458C16.0605 20.0186 19.3416 20.0154 20.6262 17.7458C20.6906 17.6334 20.788 17.5436 20.9051 17.4883C21.0222 17.433 21.1535 17.415 21.2811 17.4367C23.0658 17.7519 24.6824 18.6859 25.8468 20.0747C27.0112 21.4634 27.649 23.218 27.6482 25.0303V27.2451C27.6465 27.411 27.5798 27.5695 27.4625 27.6867C27.3451 27.8038 27.1865 27.8702 27.0206 27.8716ZM17.6995 2.31177C4.04155 2.31177 -2.8391 18.9217 6.81848 28.5814C16.4761 38.2411 33.0871 31.3562 33.0871 17.6983C33.0878 15.6774 32.6902 13.6762 31.9172 11.8091C31.1441 9.94191 30.0107 8.24539 28.5816 6.81646C27.1526 5.38754 25.456 4.25422 23.5888 3.48128C21.7216 2.70835 19.7204 2.31094 17.6995 2.31177Z" fill="url(#paint0_linear_5901_74916)"/>
</g>
<defs>
<linearGradient id="paint0_linear_5901_74916" x1="0.000378672" y1="26.9995" x2="54.0023" y2="26.9995" gradientUnits="userSpaceOnUse">
<stop stop-color="#39A6F5"/>
<stop offset="1" stop-color="#33CCCC"/>
</linearGradient>
<clipPath id="clip0_5901_74916">
<rect width="54.0021" height="54" fill="white"/>
</clipPath>
</defs>
</svg>
