<svg width="40" height="40" viewBox="0 0 40 40" fill="none" xmlns="http://www.w3.org/2000/svg">
<g clip-path="url(#clip0_7165_61998)">
<path opacity="0.1" d="M32.5 40H7.5C5.51088 40 3.60322 39.2098 2.1967 37.8033C0.790176 36.3968 0 34.4891 0 32.5L0 7.5C0 5.51088 0.790176 3.60322 2.1967 2.1967C3.60322 0.790176 5.51088 0 7.5 0L32.5 0C34.4891 0 36.3968 0.790176 37.8033 2.1967C39.2098 3.60322 40 5.51088 40 7.5V32.5C40 34.4891 39.2098 36.3968 37.8033 37.8033C36.3968 39.2098 34.4891 40 32.5 40Z" fill="#3FA3FF"/>
<g clip-path="url(#clip1_7165_61998)">
<path d="M19.3875 20.5972C16.3963 20.468 13.4249 21.141 10.7813 22.5464C10.5453 22.672 10.3479 22.8593 10.2103 23.0885C10.0727 23.3176 9.99999 23.5799 10 23.8472V27.1097C9.9999 27.314 10.0401 27.5163 10.1182 27.705C10.1963 27.8938 10.3109 28.0653 10.4554 28.2098C10.5998 28.3542 10.7713 28.4688 10.9601 28.547C11.1489 28.6251 11.3512 28.6652 11.5555 28.6651H23.5328C22.597 28.6608 21.6803 28.3997 20.8828 27.9102C20.0852 27.4207 19.4373 26.7216 19.0096 25.8892C18.582 25.0568 18.3911 24.123 18.4578 23.1895C18.5244 22.2561 18.846 21.3588 19.3875 20.5956V20.5972Z" fill="#3365EF"/>
<path fill-rule="evenodd" clip-rule="evenodd" d="M14 14.6667C14 13.7436 14.2737 12.8412 14.7866 12.0737C15.2995 11.3061 16.0284 10.7079 16.8813 10.3547C17.7342 10.0015 18.6726 9.9091 19.578 10.0892C20.4834 10.2694 21.315 10.714 21.9677 11.3668C22.6203 12.0196 23.0648 12.8513 23.2448 13.7567C23.4248 14.6621 23.3323 15.6005 22.9789 16.4533C22.6255 17.3061 22.0272 18.035 21.2596 18.5477C20.492 19.0604 19.5895 19.334 18.6664 19.3339C18.0535 19.3339 17.4467 19.2132 16.8805 18.9786C16.3143 18.744 15.7998 18.4003 15.3665 17.9669C14.9332 17.5335 14.5894 17.0189 14.355 16.4527C14.1205 15.8865 13.9999 15.2796 14 14.6667Z" fill="#3365EF"/>
<path fill-rule="evenodd" clip-rule="evenodd" d="M23.5554 20.6665C22.9837 20.6665 22.4248 20.836 21.9494 21.1537C21.4741 21.4713 21.1036 21.9227 20.8848 22.4509C20.666 22.9791 20.6088 23.5603 20.7203 24.1211C20.8318 24.6818 21.1071 25.1969 21.5114 25.6011C21.9157 26.0054 22.4307 26.2807 22.9914 26.3922C23.5522 26.5037 24.1334 26.4465 24.6616 26.2277C25.1898 26.0089 25.6412 25.6384 25.9588 25.1631C26.2765 24.6877 26.446 24.1288 26.446 23.5571C26.446 22.7905 26.1414 22.0552 25.5994 21.5131C25.0573 20.9711 24.322 20.6665 23.5554 20.6665ZM19.3366 23.5571C19.3366 22.7227 19.584 21.9071 20.0476 21.2133C20.5112 20.5195 21.17 19.9788 21.9409 19.6595C22.7118 19.3402 23.5601 19.2567 24.3784 19.4194C25.1968 19.5822 25.9485 19.984 26.5385 20.574C27.1285 21.164 27.5303 21.9157 27.6931 22.7341C27.8558 23.5525 27.7723 24.4007 27.453 25.1716C27.1337 25.9425 26.593 26.6013 25.8992 27.0649C25.2054 27.5285 24.3898 27.7759 23.5554 27.7759C23.001 27.7763 22.4519 27.6674 21.9396 27.4555C21.4273 27.2436 20.9618 26.9327 20.5697 26.5408C20.1776 26.1488 19.8666 25.6834 19.6545 25.1712C19.4424 24.659 19.3333 24.11 19.3335 23.5556L19.3366 23.5571Z" fill="#3FA3FF"/>
<path fill-rule="evenodd" clip-rule="evenodd" d="M25.7503 25.7503C25.8754 25.6254 26.045 25.5552 26.2218 25.5552C26.3986 25.5552 26.5682 25.6254 26.6933 25.7503L29.8042 28.8612C29.9293 28.9863 29.9995 29.1559 29.9995 29.3327C29.9995 29.5096 29.9293 29.6792 29.8042 29.8042C29.6792 29.9293 29.5096 29.9995 29.3327 29.9995C29.1559 29.9995 28.9863 29.9293 28.8612 29.8042L25.7503 26.6933C25.6254 26.5682 25.5552 26.3986 25.5552 26.2218C25.5552 26.045 25.6254 25.8754 25.7503 25.7503Z" fill="#3FA3FF"/>
</g>
</g>
<defs>
<clipPath id="clip0_7165_61998">
<rect width="40" height="40" fill="white"/>
</clipPath>
<clipPath id="clip1_7165_61998">
<rect width="20" height="20" fill="white" transform="translate(10 10)"/>
</clipPath>
</defs>
</svg>

