<svg width="32" height="32" viewBox="0 0 32 32" fill="none" xmlns="http://www.w3.org/2000/svg">
<circle opacity="0.5" cx="16" cy="16" r="15.5" stroke="white"/>
<path d="M16.6868 17.1874L22.528 17.1872C22.6183 17.1872 22.7076 17.1695 22.791 17.1349C22.8744 17.1004 22.9502 17.0498 23.014 16.986C23.0778 16.9222 23.1284 16.8464 23.1629 16.763C23.1975 16.6796 23.2152 16.5903 23.2152 16.5C23.2152 16.4098 23.1975 16.3204 23.163 16.237C23.1285 16.1536 23.0778 16.0778 23.014 16.014C22.9502 15.9502 22.8745 15.8996 22.7911 15.8651C22.7077 15.8306 22.6183 15.8129 22.5281 15.8129L16.6869 15.8131L16.6871 9.97194C16.6871 9.88169 16.6694 9.79232 16.6349 9.70893C16.6004 9.62554 16.5498 9.54978 16.486 9.48596C16.4222 9.42215 16.3464 9.37154 16.263 9.33703C16.1796 9.30252 16.0902 9.28479 16 9.28484C15.9097 9.2848 15.8204 9.30254 15.737 9.33705C15.6536 9.37157 15.5778 9.42218 15.514 9.486C15.4502 9.54982 15.3996 9.62559 15.3651 9.70898C15.3305 9.79237 15.3128 9.88174 15.3128 9.97199L15.3126 15.8132L9.47142 15.8134C9.29179 15.8173 9.12083 15.8914 8.99519 16.0199C8.86955 16.1483 8.79921 16.3209 8.79926 16.5006C8.79932 16.6802 8.86975 16.8527 8.99547 16.9811C9.12119 17.1094 9.29219 17.1834 9.47183 17.1872L15.3126 17.1874L15.3128 23.0282C15.3128 23.2104 15.3852 23.3852 15.514 23.514C15.6429 23.6429 15.8177 23.7153 15.9999 23.7153C16.1821 23.7153 16.3569 23.6429 16.4858 23.514C16.6146 23.3851 16.687 23.2104 16.687 23.0281L16.6868 17.1874Z" fill="white"/>
</svg>
