<svg width="14" height="17" viewBox="0 0 14 17" fill="none" xmlns="http://www.w3.org/2000/svg">
<g clip-path="url(#clip0_7332_63404)">
<path fill-rule="evenodd" clip-rule="evenodd" d="M9.71461 0C8.85334 -3.45654e-06 8.01851 0.297446 7.35128 0.842044C6.68406 1.38664 6.22539 2.14497 6.05286 2.98877H0.747412C0.549186 2.98877 0.359079 3.06752 0.218912 3.20768C0.078745 3.34785 0 3.53796 0 3.73619C0 3.93441 0.078745 4.12452 0.218912 4.26469C0.359079 4.40485 0.549186 4.4836 0.747412 4.4836H6.05286C6.19419 5.17634 6.52917 5.81477 7.01887 6.32474C7.50857 6.8347 8.13291 7.19526 8.81936 7.36455C9.50581 7.53384 10.2262 7.5049 10.8969 7.2811C11.5675 7.0573 12.1609 6.64782 12.6081 6.10022C13.0554 5.55263 13.3381 4.88938 13.4234 4.18753C13.5087 3.48569 13.3931 2.77403 13.0901 2.13524C12.7871 1.49644 12.3091 0.956716 11.7116 0.578755C11.1141 0.200793 10.4216 0.000104269 9.71461 0V0ZM7.47281 3.73619C7.47281 3.2928 7.60429 2.85937 7.85062 2.49071C8.09695 2.12205 8.44707 1.83471 8.85671 1.66503C9.26634 1.49536 9.71709 1.45096 10.152 1.53746C10.5868 1.62396 10.9863 1.83747 11.2998 2.15099C11.6133 2.46452 11.8268 2.86397 11.9133 3.29883C11.9998 3.7337 11.9554 4.18445 11.7858 4.59408C11.6161 5.00372 11.3287 5.35384 10.9601 5.60017C10.5914 5.8465 10.158 5.97798 9.71461 5.97798C9.12004 5.97798 8.54983 5.74179 8.12942 5.32138C7.709 4.90096 7.47281 4.33075 7.47281 3.73619V3.73619Z" fill="white"/>
<path fill-rule="evenodd" clip-rule="evenodd" d="M3.73608 8.96716C3.02919 8.96737 2.33686 9.16811 1.7395 9.54606C1.14215 9.92402 0.664266 10.4637 0.361365 11.1024C0.0584636 11.7411 -0.0570297 12.4526 0.028298 13.1543C0.113626 13.8561 0.396273 14.5192 0.843415 15.0667C1.29056 15.6142 1.88384 16.0236 2.55437 16.2474C3.2249 16.4712 3.94516 16.5001 4.6315 16.3309C5.31783 16.1617 5.94209 15.8013 6.43175 15.2914C6.92142 14.7816 7.25642 14.1434 7.39783 13.4508H12.7033C12.9015 13.4508 13.0916 13.372 13.2318 13.2318C13.3719 13.0917 13.4507 12.9016 13.4507 12.7033C13.4507 12.5051 13.3719 12.315 13.2318 12.1748C13.0916 12.0347 12.9015 11.9559 12.7033 11.9559H7.39783C7.22529 11.1121 6.76663 10.3538 6.0994 9.80921C5.43218 9.26461 4.59734 8.96716 3.73608 8.96716ZM1.49428 12.7033C1.49428 12.26 1.62576 11.8265 1.87209 11.4579C2.11842 11.0892 2.46854 10.8019 2.87818 10.6322C3.28781 10.4625 3.73856 10.4181 4.17343 10.5046C4.6083 10.5911 5.00775 10.8046 5.32127 11.1182C5.63479 11.4317 5.8483 11.8311 5.9348 12.266C6.0213 12.7009 5.97691 13.1516 5.80723 13.5612C5.63755 13.9709 5.35022 14.321 4.98155 14.5673C4.61289 14.8137 4.17946 14.9451 3.73608 14.9451C3.14151 14.9451 2.5713 14.709 2.15089 14.2885C1.73047 13.8681 1.49428 13.2979 1.49428 12.7033V12.7033Z" fill="white"/>
</g>
<defs>
<clipPath id="clip0_7332_63404">
<rect width="13.4508" height="16.44" fill="white"/>
</clipPath>
</defs>
</svg>
