<svg width="24" height="24" viewBox="0 0 24 24" fill="none" xmlns="http://www.w3.org/2000/svg">
<path d="M23.6194 10.8486L12.5194 0.208937C12.3797 0.0748668 12.1936 0 12 0C11.8064 0 11.6203 0.0748668 11.4806 0.208937L0.369375 10.8608C0.134132 11.0973 0.00144147 11.4169 0 11.7505C0.000248304 12.0819 0.131992 12.3996 0.3663 12.6339C0.600608 12.8682 0.918326 12.9999 1.24969 13.0002H3V22.0002C2.99988 22.2629 3.05151 22.523 3.15195 22.7657C3.25239 23.0085 3.39966 23.229 3.58536 23.4148C3.77106 23.6006 3.99155 23.748 4.23422 23.8485C4.4769 23.9491 4.73701 24.0008 4.99969 24.0008H18.9994C19.2621 24.0009 19.5222 23.9493 19.7649 23.8489C20.0076 23.7484 20.2282 23.6012 20.414 23.4155C20.5998 23.2298 20.7471 23.0093 20.8477 22.7666C20.9482 22.5239 21 22.2638 21 22.0011V13.0011H22.7503C23.0817 13.0009 23.3994 12.8691 23.6337 12.6348C23.868 12.4005 23.9998 12.0828 24 11.7514C23.9975 11.412 23.8606 11.0874 23.6194 10.8486V10.8486Z" fill="#3FA3FF"/>
<path d="M9 15C9 14.4477 9.44772 14 10 14H14C14.5523 14 15 14.4477 15 15V24H9V15Z" fill="#E6F9FE"/>
</svg>
