<svg width="38" height="48" viewBox="0 0 38 48" fill="none" xmlns="http://www.w3.org/2000/svg">
<path d="M22.7146 36.9581C31.43 37.4631 37.9977 39.7221 37.9977 42.4256C37.9977 45.5021 29.4937 47.999 18.9998 47.999C8.50591 47.999 0.00195312 45.5031 0.00195312 42.4256C0.00195312 39.7502 6.42044 37.5172 14.9823 36.9743L22.7146 36.9581Z" fill="#5C6E9F"/>
<path d="M18.8312 3.89804e-08C20.7867 0.000142042 22.7229 0.388318 24.5294 1.14237C26.3359 1.89641 27.9773 3.00156 29.3599 4.39472C30.7425 5.78787 31.8392 7.44175 32.5874 9.26192C33.3355 11.0821 33.7206 13.0329 33.7204 15.003C33.7204 19.6799 27.4468 29.449 22.7145 36.9549C21.6026 38.7197 20.5755 40.3597 19.7351 41.7794C19.3336 42.4576 18.3286 42.458 17.9277 41.7795C17.1039 40.3851 16.0867 38.748 14.9802 36.9754C10.2726 29.4285 3.93994 19.3923 3.93994 15.003C3.9398 13.0327 4.32488 11.0817 5.07319 9.26142C5.8215 7.44111 6.91838 5.78714 8.30119 4.39395C9.684 3.00077 11.3257 1.89566 13.1324 1.14174C14.9392 0.387825 16.8757 -0.000141987 18.8312 3.89804e-08ZM25.4859 14.4374C25.4859 13.1114 25.0956 11.8151 24.3644 10.7126C23.6331 9.61004 22.5938 8.7507 21.3779 8.24325C20.1619 7.7358 18.8239 7.60303 17.533 7.86173C16.2421 8.12042 15.0564 8.75896 14.1257 9.69661C13.1951 10.6343 12.5613 11.8289 12.3045 13.1294C12.0477 14.43 12.1795 15.778 12.6832 17.0031C13.1869 18.2282 14.0398 19.2753 15.1341 20.012C16.2285 20.7487 17.5151 21.1419 18.8312 21.1419C20.5948 21.1382 22.2851 20.4306 23.5319 19.174C24.7788 17.9174 25.4806 16.2142 25.4837 14.4374H25.4859Z" fill="#3FA3FF"/>
</svg>
