<svg width="40" height="40" viewBox="0 0 40 40" fill="none" xmlns="http://www.w3.org/2000/svg">
<rect width="40" height="40" rx="20" fill="#293F98"/>
<mask id="mask0_4960_55778" style="mask-type:alpha" maskUnits="userSpaceOnUse" x="0" y="0" width="40" height="40">
<rect width="40" height="40" rx="20" fill="white"/>
</mask>
<g mask="url(#mask0_4960_55778)">
<path d="M29.083 26.5841C28.7081 26.6654 28.2914 26.706 27.8747 26.706C25.0831 26.706 22.0832 25.202 19.7082 22.9256C24.7081 21.0964 27.3747 18.129 27.3747 14.755C27.3747 11.7876 24.6664 9.55188 20.7498 9.55188C14.0833 9.55188 10 14.4705 10 20.4053C10 26.706 14.8333 30.6897 20.7082 30.6897C24.5831 30.6897 27.3747 29.2263 29.1247 26.6247L29.083 26.5841ZM16.8749 10.9746C18.6665 10.9746 21.0832 13.9827 21.0832 17.5192C21.0832 19.5924 20.6248 21.2183 19.4582 22.6817C16.9582 20.1614 15.1666 16.7469 15.1666 13.373C15.1666 11.8689 15.7916 10.9746 16.8749 10.9746Z" fill="white"/>
</g>
</svg>
