<svg width="24" height="24" viewBox="0 0 24 24" fill="none" xmlns="http://www.w3.org/2000/svg">
<g clip-path="url(#clip0_7779_63927)">
<path d="M11.265 12.7164C7.67553 12.5614 4.1099 13.369 0.9375 15.0555C0.654348 15.2061 0.417518 15.431 0.252373 15.706C0.0872274 15.9809 -1.12555e-05 16.2956 2.35694e-07 16.6164V20.5314C-0.000122989 20.7765 0.0480727 21.0193 0.141833 21.2458C0.235593 21.4724 0.373078 21.6782 0.546428 21.8515C0.719779 22.0249 0.925597 22.1624 1.15211 22.2561C1.37863 22.3499 1.62141 22.3981 1.86656 22.398H16.2394C15.1164 22.3927 14.0164 22.0794 13.0593 21.492C12.1022 20.9046 11.3247 20.0657 10.8116 19.0668C10.2984 18.0679 10.0694 16.9473 10.1493 15.8272C10.2293 14.7071 10.6152 13.6304 11.265 12.7145V12.7164Z" fill="white"/>
<path fill-rule="evenodd" clip-rule="evenodd" d="M4.80078 5.59989C4.80078 4.49216 5.12928 3.4093 5.74472 2.48826C6.36017 1.56722 7.23492 0.849373 8.25836 0.425502C9.28179 0.0016319 10.4079 -0.109224 11.4944 0.106953C12.5808 0.323131 13.5788 0.856631 14.362 1.63999C15.1452 2.42334 15.6785 3.42136 15.8945 4.50784C16.1105 5.59432 15.9995 6.72045 15.5754 7.74381C15.1514 8.76717 14.4334 9.64181 13.5123 10.2571C12.5911 10.8724 11.5082 11.2007 10.4005 11.2005C9.66503 11.2005 8.93679 11.0556 8.25734 10.7742C7.5779 10.4927 6.96055 10.0802 6.44056 9.56008C5.92057 9.04 5.50812 8.42258 5.22676 7.74309C4.94541 7.0636 4.80066 6.33533 4.80078 5.59989Z" fill="white"/>
<path fill-rule="evenodd" clip-rule="evenodd" d="M16.2655 12.8001C15.5794 12.8001 14.9088 13.0035 14.3383 13.3846C13.7679 13.7658 13.3233 14.3075 13.0608 14.9414C12.7982 15.5752 12.7295 16.2726 12.8634 16.9455C12.9972 17.6184 13.3276 18.2365 13.8127 18.7216C14.2978 19.2067 14.9159 19.5371 15.5887 19.6709C16.2616 19.8047 16.9591 19.736 17.5929 19.4735C18.2267 19.211 18.7685 18.7664 19.1496 18.1959C19.5308 17.6255 19.7342 16.9549 19.7342 16.2688C19.7342 15.3488 19.3688 14.4665 18.7182 13.816C18.0677 13.1655 17.1854 12.8001 16.2655 12.8001ZM11.203 16.2688C11.203 15.2675 11.4999 14.2888 12.0562 13.4562C12.6124 12.6237 13.4031 11.9748 14.3281 11.5917C15.2532 11.2085 16.2711 11.1082 17.2531 11.3036C18.2351 11.4989 19.1372 11.9811 19.8452 12.6891C20.5532 13.3971 21.0354 14.2991 21.2307 15.2812C21.426 16.2632 21.3258 17.2811 20.9426 18.2061C20.5594 19.1312 19.9106 19.9218 19.078 20.4781C18.2455 21.0344 17.2667 21.3313 16.2655 21.3313C15.6002 21.3318 14.9413 21.2012 14.3265 20.9468C13.7118 20.6925 13.1532 20.3195 12.6827 19.8492C12.2121 19.3788 11.8389 18.8204 11.5844 18.2057C11.3299 17.591 11.199 16.9322 11.1992 16.2669L11.203 16.2688Z" fill="#ABD1F5"/>
<path fill-rule="evenodd" clip-rule="evenodd" d="M18.9002 18.9005C19.0503 18.7506 19.2538 18.6664 19.4659 18.6664C19.6781 18.6664 19.8816 18.7506 20.0317 18.9005L23.7649 22.6337C23.9149 22.7837 23.9992 22.9872 23.9992 23.1994C23.9992 23.4116 23.9149 23.6152 23.7649 23.7652C23.6148 23.9153 23.4113 23.9996 23.1991 23.9996C22.9869 23.9996 22.7833 23.9153 22.6333 23.7652L18.9002 20.0321C18.7502 19.882 18.666 19.6785 18.666 19.4663C18.666 19.2541 18.7502 19.0506 18.9002 18.9005Z" fill="#ABD1F5"/>
</g>
<defs>
<clipPath id="clip0_7779_63927">
<rect width="24" height="24" fill="white"/>
</clipPath>
</defs>
</svg>
