<svg width="20" height="24" viewBox="0 0 20 24" fill="none" xmlns="http://www.w3.org/2000/svg">
<path d="M15.0513 5.44645C15.0513 2.43846 12.5843 0 9.54125 0C6.49816 0 4.03125 2.43846 4.03125 5.44645V10.4679C4.03125 13.4759 6.49816 15.9143 9.54125 15.9143C12.5843 15.9143 15.0513 13.4759 15.0513 10.4679V5.44645Z" fill="white"/>
<path fill-rule="evenodd" clip-rule="evenodd" d="M2 10.1219C2 9.57597 1.55228 9.13342 1 9.13342C0.447715 9.13342 0 9.57597 0 10.1219C0 12.6229 1.00511 15.0214 2.79421 16.7899C4.34579 18.3236 6.37681 19.2744 8.53906 19.4998V23.0265C8.53906 23.5642 8.98678 24 9.53906 24C10.0913 24 10.5391 23.5642 10.5391 23.0265V19.5C12.702 19.275 14.7337 18.324 16.2858 16.7899C18.0749 15.0214 19.08 12.6229 19.08 10.1219C19.08 9.57597 18.6323 9.13342 18.08 9.13342C17.5277 9.13342 17.08 9.57597 17.08 10.1219C17.08 12.0986 16.2856 13.9943 14.8716 15.392C13.4575 16.7897 11.5397 17.5749 9.54001 17.5749C7.54028 17.5749 5.62244 16.7897 4.20842 15.392C2.79439 13.9943 2 12.0986 2 10.1219Z" fill="white"/>
</svg>
