<svg width="26" height="30" viewBox="0 0 26 30" fill="none" xmlns="http://www.w3.org/2000/svg">
<g filter="url(#filter0_d_241_775)">
<rect x="4" y="4" width="18" height="18" rx="1" fill="#3FA3FF"/>
<path d="M6 2.5C6 2.22386 6.22386 2 6.5 2H19.5C19.7761 2 20 2.22386 20 2.5V2.5C20 2.77614 19.7761 3 19.5 3H6.5C6.22386 3 6 2.77614 6 2.5V2.5Z" fill="#3FA3FF"/>
<circle cx="13" cy="10" r="3" fill="#E6F9FE"/>
<path d="M8 18C8 15.7909 9.79086 14 12 14H14C16.2091 14 18 15.7909 18 18V22H8V18Z" fill="#E6F9FE"/>
<path d="M8 0.5C8 0.223858 8.22386 0 8.5 0H17.5C17.7761 0 18 0.223858 18 0.5V0.5C18 0.776142 17.7761 1 17.5 1H8.5C8.22386 1 8 0.776142 8 0.5V0.5Z" fill="#3FA3FF"/>
</g>
<defs>
<filter id="filter0_d_241_775" x="0" y="0" width="26" height="30" filterUnits="userSpaceOnUse" color-interpolation-filters="sRGB">
<feFlood flood-opacity="0" result="BackgroundImageFix"/>
<feColorMatrix in="SourceAlpha" type="matrix" values="0 0 0 0 0 0 0 0 0 0 0 0 0 0 0 0 0 0 127 0" result="hardAlpha"/>
<feOffset dy="4"/>
<feGaussianBlur stdDeviation="2"/>
<feComposite in2="hardAlpha" operator="out"/>
<feColorMatrix type="matrix" values="0 0 0 0 0 0 0 0 0 0 0 0 0 0 0 0 0 0 0.25 0"/>
<feBlend mode="normal" in2="BackgroundImageFix" result="effect1_dropShadow_241_775"/>
<feBlend mode="normal" in="SourceGraphic" in2="effect1_dropShadow_241_775" result="shape"/>
</filter>
</defs>
</svg>
