<svg width="18" height="22" viewBox="0 0 18 22" fill="none" xmlns="http://www.w3.org/2000/svg">
<rect y="4" width="18" height="18" rx="1" fill="#3FA3FF"/>
<path d="M2 2.5C2 2.22386 2.22386 2 2.5 2H15.5C15.7761 2 16 2.22386 16 2.5C16 2.77614 15.7761 3 15.5 3H2.5C2.22386 3 2 2.77614 2 2.5Z" fill="#3FA3FF"/>
<circle cx="9" cy="10" r="3" fill="#293F98"/>
<path d="M4 18C4 15.7909 5.79086 14 8 14H10C12.2091 14 14 15.7909 14 18V22H4V18Z" fill="#293F98"/>
<path d="M4 0.5C4 0.223858 4.22386 0 4.5 0H13.5C13.7761 0 14 0.223858 14 0.5C14 0.776142 13.7761 1 13.5 1H4.5C4.22386 1 4 0.776142 4 0.5Z" fill="#3FA3FF"/>
</svg>
