<svg width="24" height="24" viewBox="0 0 24 24" fill="none" xmlns="http://www.w3.org/2000/svg">
<g clip-path="url(#clip0_1646_15485)">
<path d="M12 4.34223e-05C15.1826 4.34223e-05 18.2349 1.26432 20.4853 3.51475C22.7357 5.76519 24 8.81745 24 12C24.0006 14.0053 23.4986 15.9787 22.54 17.74L23.25 22.31C23.2474 22.4312 23.1981 22.5468 23.1124 22.6325C23.0267 22.7182 22.9112 22.7675 22.79 22.77L18.95 21.77C16.9145 23.246 14.4644 24.0406 11.95 24.04C8.76741 24.04 5.71516 22.7758 3.46472 20.5253C1.21428 18.2749 -0.0499878 15.2226 -0.0499878 12.04C-0.0552807 10.4566 0.252871 8.88777 0.856689 7.42396C1.46051 5.96016 2.34807 4.63032 3.4682 3.51112C4.58833 2.39192 5.91887 1.50548 7.38318 0.902875C8.84748 0.300272 10.4166 -0.00656313 12 4.34223e-05Z" fill="#39A6F5"/>
<path d="M17.06 13.89C17.5613 13.89 18.042 13.6909 18.3964 13.3365C18.7509 12.982 18.95 12.5013 18.95 12C18.95 11.4978 18.7512 11.0161 18.397 10.66C18.0429 10.304 17.5622 10.1027 17.06 10.1C16.5561 10.1 16.0728 10.3002 15.7165 10.6565C15.3602 11.0128 15.16 11.4961 15.16 12C15.1626 12.5022 15.364 12.9829 15.72 13.3371C16.0761 13.6912 16.5578 13.89 17.06 13.89Z" fill="#F9F9F9"/>
<path d="M12.25 13.89C12.7522 13.89 13.2339 13.6912 13.59 13.3371C13.946 12.9829 14.1474 12.5022 14.15 12C14.15 11.4961 13.9498 11.0128 13.5935 10.6565C13.2372 10.3002 12.7539 10.1 12.25 10.1C11.7461 10.1 11.2628 10.3002 10.9065 10.6565C10.5502 11.0128 10.35 11.4961 10.35 12C10.3526 12.5022 10.554 12.9829 10.91 13.3371C11.2661 13.6912 11.7478 13.89 12.25 13.89Z" fill="#F9F9F9"/>
<path d="M7.38 13.89C7.88219 13.89 8.36394 13.6912 8.71997 13.3371C9.076 12.9829 9.27739 12.5022 9.28003 12C9.28003 11.4961 9.07983 11.0128 8.72351 10.6565C8.36719 10.3002 7.88392 10.1 7.38 10.1C6.87609 10.1 6.39282 10.3002 6.0365 10.6565C5.68018 11.0128 5.47998 11.4961 5.47998 12C5.48262 12.5022 5.68401 12.9829 6.04004 13.3371C6.39607 13.6912 6.87782 13.89 7.38 13.89Z" fill="#F9F9F9"/>
</g>
<defs>
<clipPath id="clip0_1646_15485">
<rect width="24" height="24" fill="white" transform="matrix(-1 0 0 1 24 0)"/>
</clipPath>
</defs>
</svg>
