<svg width="48" height="41" viewBox="0 0 48 41" fill="none" xmlns="http://www.w3.org/2000/svg">
<g clip-path="url(#clip0_2813_24483)">
<path d="M44.9008 28.052L11.8886 33.8729C11.4036 33.9584 10.9065 33.9476 10.4257 33.841C9.94486 33.7344 9.48975 33.5341 9.08633 33.2516C8.68291 32.9691 8.33909 32.6099 8.0745 32.1945C7.80991 31.7792 7.62973 31.3157 7.54426 30.8307L3.9105 10.2235C3.82497 9.73849 3.83581 9.24138 3.94241 8.76056C4.04901 8.27973 4.24927 7.82462 4.53177 7.4212C4.81427 7.01778 5.17347 6.67396 5.58885 6.40936C6.00423 6.14477 6.46767 5.9646 6.95269 5.87912L39.9649 0.058181C40.4501 -0.0271787 40.9474 -0.0160929 41.4283 0.0908046C41.9092 0.197702 42.3644 0.398317 42.7677 0.681184C43.1711 0.964051 43.5148 1.32363 43.7791 1.73937C44.0434 2.1551 44.2233 2.61886 44.3083 3.10412L47.943 23.7123C48.0285 24.1973 48.0177 24.6944 47.9111 25.1752C47.8045 25.656 47.6042 26.1111 47.3217 26.5146C47.0392 26.918 46.68 27.2618 46.2647 27.5264C45.8493 27.791 45.3858 27.9712 44.9008 28.0566V28.052Z" fill="#5C6E9F"/>
<path d="M36.5625 40.7081H3.75C2.75544 40.7081 1.80161 40.313 1.09835 39.6098C0.395088 38.9065 0 37.9527 0 36.9581L0 16.5469C0 15.5523 0.395088 14.5985 1.09835 13.8952C1.80161 13.192 2.75544 12.7969 3.75 12.7969H36.5625C37.5571 12.7969 38.5109 13.192 39.2141 13.8952C39.9174 14.5985 40.3125 15.5523 40.3125 16.5469V36.9581C40.3125 37.9527 39.9174 38.9065 39.2141 39.6098C38.5109 40.313 37.5571 40.7081 36.5625 40.7081Z" fill="#3FA3FF"/>
<path d="M0 19.1765H40.3125V25.5562H0V19.1765Z" fill="#3365EF"/>
<path d="M11.1647 34.5168H4.78125C4.40829 34.5168 4.0506 34.665 3.78688 34.9287C3.52316 35.1925 3.375 35.5501 3.375 35.9231C3.375 36.2961 3.52316 36.6537 3.78688 36.9175C4.0506 37.1812 4.40829 37.3293 4.78125 37.3293H11.1609C11.5339 37.3293 11.8916 37.1812 12.1553 36.9175C12.419 36.6537 12.5672 36.2961 12.5672 35.9231C12.5672 35.5501 12.419 35.1925 12.1553 34.9287C11.8916 34.665 11.5339 34.5168 11.1609 34.5168H11.1647Z" fill="#3365EF"/>
</g>
<defs>
<clipPath id="clip0_2813_24483">
<rect width="48" height="40.7081" fill="white"/>
</clipPath>
</defs>
</svg>


