<svg width="1008" height="184" viewBox="0 0 1008 184" fill="none" xmlns="http://www.w3.org/2000/svg">
<path d="M286.904 69.36H287.016V41.36H217.24L227.208 47.408V120.208H218.248V122H287.016V94H286.904C276.376 113.488 265.064 119.984 251.848 120.208V80.56C259.128 80.896 266.632 86.72 270.888 95.456H271V64.208H270.888C266.744 72.72 258.904 78.656 251.848 78.992V43.152C265.064 43.264 276.376 50.096 286.904 69.36Z" fill="#293F98"/>
<path d="M335.581 91.872L351.261 72.608L358.765 67.12H336.813L345.437 72.608L334.573 90.192L323.485 72.608L329.869 67.12H291.453L298.509 72.608L313.853 97.024L297.949 120.32H293.469V122H311.501V120.32H304.445L315.085 98.928L328.525 120.32H322.925V122H358.541V120.32H353.501L335.581 91.872Z" fill="#293F98"/>
<path d="M407.079 64.88C400.471 64.88 393.527 68.8 387.591 74.848V63.76L358.807 73.84L365.191 79.328V148.208H359.591V150H396.551V148.208H387.591V119.088C391.399 121.552 395.879 123.12 401.031 123.12C416.151 123.12 427.015 111.136 427.015 91.424C427.015 74.064 418.391 64.88 407.079 64.88ZM393.079 118.864C391.175 118.864 389.159 118.304 387.591 117.184V76.416C389.159 75.744 390.615 75.296 392.295 75.296C399.799 75.296 403.047 82.8 403.047 97.808C403.047 111.248 398.903 118.864 393.079 118.864Z" fill="#293F98"/>
<path d="M485.114 111.808C484.106 112.032 482.986 112.144 481.866 112.144C474.362 112.144 466.298 108 459.914 101.728C473.354 96.688 480.522 88.512 480.522 79.216C480.522 71.04 473.242 64.88 462.714 64.88C444.794 64.88 433.818 78.432 433.818 94.784C433.818 112.144 446.81 123.12 462.602 123.12C473.018 123.12 480.522 119.088 485.226 111.92L485.114 111.808ZM452.298 68.8C457.114 68.8 463.61 77.088 463.61 86.832C463.61 92.544 462.378 97.024 459.242 101.056C452.522 94.112 447.706 84.704 447.706 75.408C447.706 71.264 449.386 68.8 452.298 68.8Z" fill="#293F98"/>
<path d="M534.214 64.768C529.062 64.768 521.782 70.032 515.398 78.432V64.432L486.614 74.064L492.998 79.552V120.208H487.398V122H523.798V120.208H515.398V79.664C519.318 78.992 524.582 81.904 536.23 94.784H536.342V65.104C535.67 64.88 534.998 64.768 534.214 64.768Z" fill="#293F98"/>
<path d="M587.74 111.584C585.5 112.48 583.596 112.816 581.132 112.816C572.844 112.816 569.82 108 569.82 95.008V68.912H585.612V67.12H569.82V44.384L538.796 68.8V68.912H547.42V100.72C547.42 115.28 552.684 123.12 566.012 123.12C576.316 123.12 583.708 118.304 587.852 111.696L587.74 111.584Z" fill="#293F98"/>
<path d="M641.862 124.24C660.566 124.24 673.558 113.04 673.558 97.584C673.558 87.392 668.182 80.56 658.774 74.96L644.102 66.112C635.814 61.184 633.014 56.816 633.014 51.888C633.014 45.728 637.942 41.584 643.654 41.584C645.894 41.584 646.902 41.696 649.142 42.256L663.926 68.8H664.038L670.646 44.048C661.91 40.352 653.958 39.12 645.222 39.12C626.966 39.12 616.662 50.096 616.662 64.096C616.662 75.408 622.822 83.024 633.238 88.736L646.006 95.68C652.502 99.152 655.414 103.744 655.414 109.12C655.414 116.288 649.59 121.552 641.638 121.552C639.622 121.552 638.278 121.44 635.814 120.432L620.246 91.088H620.134L613.526 119.76C622.598 122.784 632.342 124.24 641.862 124.24Z" fill="#293F98"/>
<path d="M730.475 111.808C729.467 112.032 728.347 112.144 727.227 112.144C719.723 112.144 711.659 108 705.275 101.728C718.715 96.688 725.883 88.512 725.883 79.216C725.883 71.04 718.603 64.88 708.075 64.88C690.155 64.88 679.179 78.432 679.179 94.784C679.179 112.144 692.171 123.12 707.963 123.12C718.379 123.12 725.883 119.088 730.587 111.92L730.475 111.808ZM697.659 68.8C702.475 68.8 708.971 77.088 708.971 86.832C708.971 92.544 707.739 97.024 704.603 101.056C697.883 94.112 693.067 84.704 693.067 75.408C693.067 71.264 694.747 68.8 697.659 68.8Z" fill="#293F98"/>
<path d="M753.928 123.12C767.704 123.12 779.464 115.952 779.464 104.304C779.464 97.36 775.432 91.76 767.704 87.616L759.304 83.136C752.696 79.664 750.904 76.864 750.904 72.944C750.904 69.808 753.368 67.008 758.296 67.008C758.856 67.008 759.64 67.12 760.2 67.344L773.192 85.824H773.304L777.672 68.128C772.184 66.112 766.36 64.88 759.08 64.88C744.184 64.88 735 72.272 735 83.584C735 92.096 739.48 97.36 748.776 102.288L756.168 106.208C760.872 108.672 762.888 110.576 762.888 113.936C762.888 118.528 759.528 121.104 754.6 121.104C753.256 121.104 752.472 120.992 750.904 120.544L737.016 101.952H736.904L733.432 120.208C741.272 122.56 748.664 123.12 753.928 123.12Z" fill="#293F98"/>
<path d="M803.394 123.12C817.17 123.12 828.93 115.952 828.93 104.304C828.93 97.36 824.898 91.76 817.17 87.616L808.77 83.136C802.162 79.664 800.37 76.864 800.37 72.944C800.37 69.808 802.834 67.008 807.762 67.008C808.322 67.008 809.106 67.12 809.666 67.344L822.658 85.824H822.77L827.138 68.128C821.65 66.112 815.826 64.88 808.546 64.88C793.65 64.88 784.466 72.272 784.466 83.584C784.466 92.096 788.946 97.36 798.242 102.288L805.634 106.208C810.338 108.672 812.354 110.576 812.354 113.936C812.354 118.528 808.994 121.104 804.066 121.104C802.722 121.104 801.938 120.992 800.37 120.544L786.482 101.952H786.37L782.898 120.208C790.738 122.56 798.13 123.12 803.394 123.12Z" fill="#293F98"/>
<path d="M848.492 61.856C856.444 61.856 860.924 56.816 860.924 49.312C860.924 41.92 856.444 36.88 848.492 36.88C840.54 36.88 836.06 41.92 836.06 49.312C836.06 56.816 840.54 61.856 848.492 61.856ZM831.692 122H865.292V120.208H859.692V63.76L830.908 73.84L837.292 79.328V120.208H831.692V122Z" fill="#293F98"/>
<path d="M901.065 123.12C922.345 123.12 932.761 110.016 932.761 93.664C932.761 76.08 919.433 64.88 900.953 64.88C882.697 64.88 870.153 77.648 870.153 93.664C870.153 111.696 884.937 123.12 901.065 123.12ZM913.609 119.088C904.425 119.088 885.049 85.376 885.049 74.4C885.049 70.928 886.729 68.912 889.529 68.912C899.385 68.912 918.201 103.968 918.201 113.376C918.201 117.184 916.633 119.088 913.609 119.088Z" fill="#293F98"/>
<path d="M1001.57 120.208V81.68C1001.57 70.256 996.645 64.32 987.125 64.32C979.509 64.32 973.013 68.688 965.733 74.96V63.76L936.949 73.84L943.333 79.328V120.208H937.733V122H970.213V120.208H965.733V76.528C967.973 75.52 970.213 74.848 972.453 74.848C977.045 74.848 979.173 77.76 979.173 86.496V120.208H974.693V122H1007.17V120.208H1001.57Z" fill="#293F98"/>
<path d="M164.273 146.619C161.045 147.319 157.458 147.669 153.871 147.669C129.84 147.669 104.016 134.721 83.5711 115.125C126.612 99.3788 149.567 73.8342 149.567 44.7904C149.567 19.2459 126.253 0 92.538 0C35.1501 0 0 42.341 0 93.4301C0 147.669 41.6062 181.961 92.1793 181.961C125.536 181.961 149.567 169.364 164.632 146.969L164.273 146.619ZM59.1813 12.2474C74.6043 12.2474 95.4074 38.1419 95.4074 68.5854C95.4074 86.4316 91.462 100.429 81.4191 113.026C59.8986 91.3305 44.4756 61.9368 44.4756 32.893C44.4756 19.9458 49.8557 12.2474 59.1813 12.2474Z" fill="#293F98"/>
</svg>
