<svg width="21" height="19" viewBox="0 0 21 19" fill="none" xmlns="http://www.w3.org/2000/svg">
<path d="M10.1296 17.9086C10.0928 17.9323 10.0609 17.953 10.0368 17.969C10.0051 17.9501 9.86098 17.8642 9.62208 17.7129C9.35235 17.5421 8.97088 17.2936 8.51522 16.9784C7.60299 16.3472 6.39808 15.4518 5.19849 14.3793C3.99689 13.3051 2.81372 12.0648 1.93409 10.746C1.05221 9.42377 0.500047 8.05967 0.500052 6.72738L0.500043 6.72534C0.495768 5.67682 0.808328 4.65144 1.39676 3.78359C1.9852 2.91573 2.82206 2.24586 3.79771 1.86176C4.77335 1.47765 5.84227 1.39722 6.86441 1.631C7.88655 1.86478 8.81423 2.40187 9.52591 3.1719L9.52755 3.17366L9.65232 3.30737L9.9841 3.66291L10.3487 3.34113L10.5002 3.20742L10.5183 3.19145L10.5348 3.17381C11.2469 2.4114 12.1719 1.88102 13.1896 1.6517C14.2073 1.42239 15.2705 1.50478 16.2407 1.88813C17.2109 2.27148 18.0432 2.93804 18.6293 3.80104C19.2155 4.66403 19.5282 5.68351 19.5268 6.72672V6.72738C19.5268 8.0554 18.9773 9.41458 18.0996 10.7325C17.2242 12.0471 16.0468 13.2838 14.8511 14.3565C13.6574 15.4275 12.4585 16.3234 11.5508 16.9586C11.0974 17.2758 10.7175 17.5274 10.4481 17.7028C10.3444 17.7703 10.2576 17.8262 10.1881 17.8709C10.167 17.8845 10.1475 17.8971 10.1296 17.9086Z" fill="#5C6E9F" fill-opacity="0.5" stroke="#5C6E9F"/>
</svg>
