<svg width="21" height="16" viewBox="0 0 21 16" fill="none" xmlns="http://www.w3.org/2000/svg">
<path d="M10.0357 16C9.95469 15.9976 9.87537 15.978 9.80397 15.9429C9.70593 15.8939 4.74412e-05 10.6221 4.74412e-05 5.24418C-0.00463877 4.19187 0.337952 3.1628 0.98292 2.29182C1.62789 1.42084 2.54516 0.748552 3.61454 0.363061C4.68393 -0.0224293 5.85554 -0.10315 6.97588 0.131474C8.09623 0.366098 9.11305 0.90512 9.8931 1.67792L10.0179 1.80035L10.1694 1.67792C10.95 0.912651 11.9641 0.380275 13.0797 0.150102C14.1954 -0.0800701 15.3608 0.00262796 16.4244 0.387418C17.488 0.772208 18.4005 1.44127 19.043 2.30751C19.6855 3.17375 20.0283 4.19705 20.0268 5.24418C20.0268 10.6058 10.3655 15.8531 10.2763 15.9429C10.2013 15.9769 10.1194 15.9964 10.0357 16ZM5.73089 0.821056C4.45754 0.823213 3.23701 1.28732 2.33661 2.11176C1.43621 2.93619 0.929327 4.05377 0.926971 5.2197C0.926971 9.54488 8.42251 14.1394 9.92875 15.0126L10.0268 15.0697L10.1337 15.0126C11.6311 14.1312 19.1266 9.5204 19.1266 5.2197C19.1268 4.2848 18.8017 3.37416 18.1984 2.61991C17.5951 1.86567 16.745 1.30703 15.7715 1.02507C14.7981 0.743113 13.7518 0.752497 12.7845 1.05185C11.8172 1.35119 10.9793 1.92496 10.3922 2.68987C10.3662 2.73026 10.3294 2.76395 10.2853 2.78779C10.2101 2.83724 10.1194 2.86301 10.0268 2.86124C9.95546 2.86092 9.88523 2.84526 9.82174 2.81549C9.75826 2.78571 9.70333 2.74268 9.66138 2.68987C9.21699 2.11346 8.62819 1.64298 7.94433 1.31783C7.26047 0.992675 6.50146 0.822321 5.73089 0.821056Z" fill="#5C6E9F"/>
</svg>
