<svg width="19" height="14" viewBox="0 0 19 14" fill="none" xmlns="http://www.w3.org/2000/svg">
<g clip-path="url(#clip0_8142_73387)">
<path d="M12.5947 6.62828L19.0002 10.6777V2.4082L12.5947 6.62828Z" fill="#3365EF"/>
<path d="M0 2.4082V10.6777L6.40545 6.62828L0 2.4082Z" fill="#3365EF"/>
<path d="M17.8125 0H1.1875C0.59375 0 0.124687 0.441602 0.0371094 1.01049L9.5 7.24486L18.9629 1.01049C18.8753 0.441602 18.4062 0 17.8125 0Z" fill="#3365EF"/>
<path d="M11.5069 7.34769L9.82656 8.45281C9.72946 8.51625 9.61599 8.55003 9.5 8.55003C9.38401 8.55003 9.27054 8.51625 9.17344 8.45281L7.49312 7.34473L0.0371094 12.0606C0.12877 12.6246 0.596719 13.0625 1.1875 13.0625H17.8125C18.4025 13.0625 18.8705 12.6243 18.9629 12.0606L11.5069 7.34769Z" fill="#3365EF"/>
</g>
<defs>
<clipPath id="clip0_8142_73387">
<rect width="19" height="13.0625" fill="white"/>
</clipPath>
</defs>
</svg>

