<svg width="136" height="45" viewBox="0 0 136 45" fill="none" xmlns="http://www.w3.org/2000/svg">
<path d="M38.0004 34.4617C37.2573 34.6236 36.4317 34.7046 35.606 34.7046C30.074 34.7046 24.1291 31.7084 19.4228 27.1735C29.3309 23.5294 34.6152 17.6179 34.6152 10.8966C34.6152 4.98513 29.2483 0.53125 21.487 0.53125C8.27618 0.53125 0.18457 10.3298 0.18457 22.1528C0.18457 34.7046 9.76239 42.6406 21.4044 42.6406C29.0832 42.6406 34.6152 39.7254 38.083 34.5427L38.0004 34.4617ZM13.8082 3.36553C17.3586 3.36553 22.1475 9.35802 22.1475 16.4032C22.1475 20.5332 21.2393 23.7724 18.9274 26.6877C13.9733 21.6669 10.4229 14.8646 10.4229 8.14333C10.4229 5.14709 11.6614 3.36553 13.8082 3.36553Z" fill="white"/>
<path d="M65.5705 8.84484H65.5942V2.91125H50.8077L52.9201 4.19291V19.6203H51.0213V20H65.5942V14.0664H65.5705C63.3394 18.1962 60.9423 19.5728 58.1416 19.6203V11.2183C59.6844 11.2895 61.2746 12.5237 62.1765 14.375H62.2002V7.75306H62.1765C61.2983 9.55688 59.6369 10.8148 58.1416 10.886V3.291C60.9423 3.31474 63.3394 4.76253 65.5705 8.84484ZM76.1115 13.6155L79.4343 9.53314L81.0245 8.37016H76.3726L78.2001 9.53314L75.8979 13.2594L73.5482 9.53314L74.9011 8.37016H66.7602L68.2554 9.53314L71.507 14.7072L68.1368 19.644H67.1874V20H71.0086V19.644H69.5133L71.7681 15.1107L74.6162 19.644H73.4295V20H80.977V19.644H79.909L76.1115 13.6155ZM91.4888 7.89547C90.0885 7.89547 88.6169 8.72617 87.359 10.0078V7.65813L81.2593 9.79422L82.6121 10.9572V25.5538H81.4254V25.9336H89.2577V25.5538H87.359V19.3829C88.166 19.9051 89.1153 20.2373 90.2071 20.2373C93.4113 20.2373 95.7135 17.6978 95.7135 13.5205C95.7135 9.84169 93.886 7.89547 91.4888 7.89547ZM88.522 19.3354C88.1185 19.3354 87.6913 19.2168 87.359 18.9794V10.3401C87.6913 10.1977 87.9998 10.1028 88.3558 10.1028C89.946 10.1028 90.6343 11.693 90.6343 14.8734C90.6343 17.7215 89.7562 19.3354 88.522 19.3354ZM108.251 17.8402C108.038 17.8876 107.8 17.9114 107.563 17.9114C105.973 17.9114 104.264 17.0332 102.911 15.7041C105.759 14.636 107.278 12.9034 107.278 10.9335C107.278 9.20086 105.735 7.89547 103.504 7.89547C99.7068 7.89547 97.3808 10.7673 97.3808 14.2325C97.3808 17.9114 100.134 20.2373 103.481 20.2373C105.688 20.2373 107.278 19.3829 108.275 17.8639L108.251 17.8402ZM101.297 8.72617C102.318 8.72617 103.694 10.4825 103.694 12.5474C103.694 13.7579 103.433 14.7072 102.769 15.5617C101.344 14.0901 100.324 12.0965 100.324 10.1265C100.324 9.24833 100.68 8.72617 101.297 8.72617ZM118.882 7.87173C117.79 7.87173 116.247 8.98725 114.895 10.7673V7.80053L108.795 9.84169L110.148 11.0047V19.6203H108.961V20H116.675V19.6203H114.895V11.0284C115.725 10.886 116.841 11.5031 119.309 14.2325H119.333V7.94294C119.191 7.89547 119.048 7.87173 118.882 7.87173ZM130.451 17.7927C129.976 17.9826 129.572 18.0538 129.05 18.0538C127.294 18.0538 126.653 17.0332 126.653 14.28V8.74991H130V8.37016H126.653V3.55208L120.079 8.72617V8.74991H121.906V15.4905C121.906 18.5759 123.022 20.2373 125.846 20.2373C128.03 20.2373 129.596 19.2168 130.474 17.8164L130.451 17.7927ZM57.1685 44.4747C61.1321 44.4747 63.8853 42.1013 63.8853 38.8259C63.8853 36.6661 62.7461 35.2183 60.7524 34.0316L57.6432 32.1565C55.8869 31.1122 55.2935 30.1866 55.2935 29.1423C55.2935 27.8369 56.3378 26.9587 57.5483 26.9587C58.0229 26.9587 58.2366 26.9825 58.7112 27.1011L61.8442 32.7262H61.8679L63.2682 27.4809C61.417 26.6976 59.7318 26.4366 57.8805 26.4366C54.0118 26.4366 51.8283 28.7625 51.8283 31.7293C51.8283 34.1265 53.1337 35.7404 55.341 36.9509L58.0467 38.4224C59.4233 39.1582 60.0404 40.1313 60.0404 41.2705C60.0404 42.7895 58.8062 43.9051 57.121 43.9051C56.6938 43.9051 56.409 43.8813 55.8869 43.6677L52.5878 37.4493H52.564L51.1637 43.5253C53.0862 44.1661 55.1511 44.4747 57.1685 44.4747ZM76.1727 41.8402C75.9591 41.8876 75.7217 41.9114 75.4844 41.9114C73.8942 41.9114 72.1853 41.0332 70.8325 39.7041C73.6806 38.636 75.1996 36.9034 75.1996 34.9335C75.1996 33.2009 73.6569 31.8955 71.4258 31.8955C67.6283 31.8955 65.3024 34.7673 65.3024 38.2325C65.3024 41.9114 68.0555 44.2373 71.4021 44.2373C73.6094 44.2373 75.1996 43.3829 76.1964 41.8639L76.1727 41.8402ZM69.2185 32.7262C70.2391 32.7262 71.6157 34.4825 71.6157 36.5474C71.6157 37.7579 71.3546 38.7072 70.6901 39.5617C69.266 38.0901 68.2454 36.0965 68.2454 34.1265C68.2454 33.2483 68.6014 32.7262 69.2185 32.7262ZM81.3683 44.2373C84.2876 44.2373 86.7797 42.7183 86.7797 40.25C86.7797 38.7784 85.9253 37.5917 84.2876 36.7135L82.5075 35.7642C81.1072 35.0284 80.7275 34.435 80.7275 33.6043C80.7275 32.9398 81.2496 32.3464 82.2939 32.3464C82.4126 32.3464 82.5787 32.3702 82.6974 32.4176L85.4506 36.3338H85.4743L86.4 32.5838C85.237 32.1565 84.0028 31.8955 82.4601 31.8955C79.3034 31.8955 77.3572 33.4619 77.3572 35.8591C77.3572 37.6629 78.3066 38.7784 80.2765 39.8228L81.843 40.6535C82.8398 41.1756 83.267 41.5791 83.267 42.2911C83.267 43.2642 82.555 43.8101 81.5107 43.8101C81.2259 43.8101 81.0598 43.7864 80.7275 43.6915L77.7844 39.7515H77.7607L77.0249 43.6203C78.6863 44.1187 80.2528 44.2373 81.3683 44.2373ZM92.0766 44.2373C94.9959 44.2373 97.488 42.7183 97.488 40.25C97.488 38.7784 96.6336 37.5917 94.9959 36.7135L93.2158 35.7642C91.8155 35.0284 91.4357 34.435 91.4357 33.6043C91.4357 32.9398 91.9579 32.3464 93.0022 32.3464C93.1209 32.3464 93.287 32.3702 93.4057 32.4176L96.1589 36.3338H96.1826L97.1083 32.5838C95.9453 32.1565 94.7111 31.8955 93.1684 31.8955C90.0117 31.8955 88.0655 33.4619 88.0655 35.8591C88.0655 37.6629 89.0148 38.7784 90.9848 39.8228L92.5513 40.6535C93.5481 41.1756 93.9753 41.5791 93.9753 42.2911C93.9753 43.2642 93.2633 43.8101 92.219 43.8101C91.9342 43.8101 91.768 43.7864 91.4357 43.6915L88.4927 39.7515H88.469L87.7332 43.6203C89.3946 44.1187 90.9611 44.2373 92.0766 44.2373ZM101.859 31.2546C103.544 31.2546 104.494 30.1866 104.494 28.5964C104.494 27.0299 103.544 25.9619 101.859 25.9619C100.174 25.9619 99.2247 27.0299 99.2247 28.5964C99.2247 30.1866 100.174 31.2546 101.859 31.2546ZM98.2991 44H105.419V43.6203H104.233V31.6581L98.1329 33.7942L99.4858 34.9572V43.6203H98.2991V44ZM113.226 44.2373C117.735 44.2373 119.943 41.4604 119.943 37.9952C119.943 34.2689 117.118 31.8955 113.202 31.8955C109.334 31.8955 106.675 34.6012 106.675 37.9952C106.675 41.8164 109.808 44.2373 113.226 44.2373ZM115.884 43.3829C113.938 43.3829 109.832 36.2389 109.832 33.9129C109.832 33.1771 110.188 32.7499 110.781 32.7499C112.87 32.7499 116.857 40.1788 116.857 42.1725C116.857 42.9794 116.525 43.3829 115.884 43.3829ZM134.751 43.6203V35.4556C134.751 33.0347 133.706 31.7768 131.689 31.7768C130.075 31.7768 128.699 32.7024 127.156 34.0316V31.6581L121.056 33.7942L122.409 34.9572V43.6203H121.222V44H128.105V43.6203H127.156V34.3638C127.63 34.1502 128.105 34.0078 128.58 34.0078C129.553 34.0078 130.004 34.6249 130.004 36.4762V43.6203H129.055V44H135.938V43.6203H134.751Z" fill="white"/>
</svg>

