<svg width="186" height="35" viewBox="0 0 186 35" fill="none" xmlns="http://www.w3.org/2000/svg">
<path d="M52.8414 15.3999H52.862V10.2428H40.0107L41.8466 11.3568V24.765H40.1964V25.095H52.862V19.938H52.8414C50.9023 23.5273 48.8189 24.7237 46.3848 24.765V17.4627C47.7256 17.5245 49.1077 18.5972 49.8916 20.2062H49.9122V14.451H49.8916C49.1283 16.0187 47.6844 17.112 46.3848 17.1739V10.5729C48.8189 10.5935 50.9023 11.8518 52.8414 15.3999Z" fill="white"/>
<path d="M61.8066 19.5461L64.6945 15.9981L66.0766 14.9873H62.0335L63.6219 15.9981L61.621 19.2367L59.5788 15.9981L60.7546 14.9873H53.6792L54.9787 15.9981L57.8048 20.495L54.8756 24.7856H54.0505V25.095H57.3716V24.7856H56.072L58.0317 20.8457L60.507 24.7856H59.4756V25.095H66.0354V24.7856H65.1071L61.8066 19.5461Z" fill="white"/>
<path d="M74.9751 14.5747C73.7581 14.5747 72.4791 15.2967 71.3858 16.4106V14.3685L66.0844 16.225L67.2602 17.2358V29.922H66.2288V30.252H73.0361V29.922H71.3858V24.5587C72.0872 25.0125 72.9123 25.3013 73.8612 25.3013C76.646 25.3013 78.6469 23.0941 78.6469 19.4636C78.6469 16.2662 77.0586 14.5747 74.9751 14.5747ZM72.3966 24.5175C72.0459 24.5175 71.6746 24.4143 71.3858 24.208V16.6994C71.6746 16.5757 71.9428 16.4931 72.2522 16.4931C73.6343 16.4931 74.2325 17.8752 74.2325 20.6394C74.2325 23.1147 73.4693 24.5175 72.3966 24.5175Z" fill="white"/>
<path d="M89.3475 23.2179C89.1618 23.2591 88.9555 23.2798 88.7493 23.2798C87.3672 23.2798 85.882 22.5165 84.7062 21.3614C87.1815 20.4331 88.5017 18.9273 88.5017 17.2151C88.5017 15.7093 87.1609 14.5747 85.2219 14.5747C81.9214 14.5747 79.8998 17.0707 79.8998 20.0824C79.8998 23.2798 82.2927 25.3013 85.2012 25.3013C87.1196 25.3013 88.5017 24.5587 89.3681 23.2385L89.3475 23.2179ZM83.3035 15.2967C84.1905 15.2967 85.3869 16.8232 85.3869 18.6178C85.3869 19.6699 85.16 20.495 84.5824 21.2376C83.3447 19.9587 82.4577 18.2259 82.4577 16.5138C82.4577 15.7505 82.7671 15.2967 83.3035 15.2967Z" fill="white"/>
<path d="M98.3907 14.5541C97.4418 14.5541 96.101 15.5236 94.9252 17.0707V14.4922L89.6238 16.2662L90.7996 17.277V24.765H89.7682V25.095H96.4723V24.765H94.9252V17.2976C95.6472 17.1739 96.6167 17.7102 98.762 20.0824H98.7826V14.616C98.6589 14.5747 98.5351 14.5541 98.3907 14.5541Z" fill="white"/>
<path d="M108.249 23.1766C107.837 23.3417 107.486 23.4035 107.032 23.4035C105.506 23.4035 104.949 22.5165 104.949 20.1237V15.3173H107.857V14.9873H104.949V10.7998L99.2346 15.2967V15.3173H100.823V21.1757C100.823 23.8574 101.792 25.3013 104.247 25.3013C106.145 25.3013 107.506 24.4143 108.27 23.1973L108.249 23.1766Z" fill="white"/>
<path d="M118.217 25.5076C121.662 25.5076 124.055 23.4448 124.055 20.5981C124.055 18.721 123.065 17.4627 121.332 16.4313L118.63 14.8016C117.103 13.894 116.587 13.0895 116.587 12.1819C116.587 11.0473 117.495 10.2841 118.547 10.2841C118.96 10.2841 119.145 10.3047 119.558 10.4079L122.281 15.2967H122.301L123.519 10.7379C121.91 10.0572 120.445 9.83029 118.836 9.83029C115.474 9.83029 113.576 11.8518 113.576 14.4303C113.576 16.5138 114.71 17.9165 116.629 18.9685L118.98 20.2474C120.177 20.8869 120.713 21.7327 120.713 22.7228C120.713 24.043 119.64 25.0125 118.176 25.0125C117.805 25.0125 117.557 24.9919 117.103 24.8062L114.236 19.4017H114.215L112.998 24.6825C114.669 25.2394 116.464 25.5076 118.217 25.5076Z" fill="white"/>
<path d="M134.538 23.2179C134.352 23.2591 134.146 23.2798 133.94 23.2798C132.558 23.2798 131.072 22.5165 129.897 21.3614C132.372 20.4331 133.692 18.9273 133.692 17.2151C133.692 15.7093 132.351 14.5747 130.412 14.5747C127.112 14.5747 125.09 17.0707 125.09 20.0824C125.09 23.2798 127.483 25.3013 130.392 25.3013C132.31 25.3013 133.692 24.5587 134.558 23.2385L134.538 23.2179ZM128.494 15.2967C129.381 15.2967 130.577 16.8232 130.577 18.6178C130.577 19.6699 130.35 20.495 129.773 21.2376C128.535 19.9587 127.648 18.2259 127.648 16.5138C127.648 15.7505 127.957 15.2967 128.494 15.2967Z" fill="white"/>
<path d="M138.857 25.3013C141.394 25.3013 143.56 23.9811 143.56 21.8358C143.56 20.5569 142.818 19.5255 141.394 18.7622L139.847 17.9371C138.63 17.2976 138.3 16.7819 138.3 16.06C138.3 15.4824 138.754 14.9667 139.662 14.9667C139.765 14.9667 139.909 14.9873 140.012 15.0286L142.405 18.4322H142.426L143.23 15.1729C142.22 14.8016 141.147 14.5747 139.806 14.5747C137.063 14.5747 135.371 15.9362 135.371 18.0196C135.371 19.5873 136.196 20.5569 137.908 21.4645L139.27 22.1865C140.136 22.6403 140.507 22.991 140.507 23.6098C140.507 24.4556 139.889 24.93 138.981 24.93C138.733 24.93 138.589 24.9094 138.3 24.8269L135.742 21.4026H135.722L135.082 24.765C136.526 25.1982 137.888 25.3013 138.857 25.3013Z" fill="white"/>
<path d="M147.968 25.3013C150.505 25.3013 152.671 23.9811 152.671 21.8358C152.671 20.5569 151.928 19.5255 150.505 18.7622L148.958 17.9371C147.741 17.2976 147.411 16.7819 147.411 16.06C147.411 15.4824 147.865 14.9667 148.772 14.9667C148.875 14.9667 149.02 14.9873 149.123 15.0286L151.516 18.4322H151.536L152.341 15.1729C151.33 14.8016 150.258 14.5747 148.917 14.5747C146.173 14.5747 144.482 15.9362 144.482 18.0196C144.482 19.5873 145.307 20.5569 147.019 21.4645L148.38 22.1865C149.247 22.6403 149.618 22.991 149.618 23.6098C149.618 24.4556 148.999 24.93 148.092 24.93C147.844 24.93 147.7 24.9094 147.411 24.8269L144.853 21.4026H144.832L144.193 24.765C145.637 25.1982 146.998 25.3013 147.968 25.3013Z" fill="white"/>
<path d="M156.274 14.0178C157.739 14.0178 158.564 13.0895 158.564 11.7074C158.564 10.346 157.739 9.41772 156.274 9.41772C154.809 9.41772 153.984 10.346 153.984 11.7074C153.984 13.0895 154.809 14.0178 156.274 14.0178ZM153.18 25.095H159.368V24.765H158.337V14.3685L153.035 16.225L154.211 17.2358V24.765H153.18V25.095Z" fill="white"/>
<path d="M165.957 25.3013C169.876 25.3013 171.795 22.8878 171.795 19.8761C171.795 16.6375 169.34 14.5747 165.936 14.5747C162.574 14.5747 160.263 16.9263 160.263 19.8761C160.263 23.1973 162.986 25.3013 165.957 25.3013ZM168.267 24.5587C166.576 24.5587 163.007 18.3497 163.007 16.3281C163.007 15.6886 163.316 15.3173 163.832 15.3173C165.647 15.3173 169.113 21.7739 169.113 23.5067C169.113 24.208 168.824 24.5587 168.267 24.5587Z" fill="white"/>
<path d="M184.468 24.765V17.6689C184.468 15.5649 183.561 14.4716 181.807 14.4716C180.405 14.4716 179.208 15.2761 177.867 16.4313V14.3685L172.566 16.225L173.742 17.2358V24.765H172.71V25.095H178.692V24.765H177.867V16.7201C178.28 16.5344 178.692 16.4106 179.105 16.4106C179.951 16.4106 180.343 16.947 180.343 18.5559V24.765H179.518V25.095H185.5V24.765H184.468Z" fill="white"/>
<path d="M30.2556 27.8788C29.6611 28.0077 29.0005 28.0722 28.3398 28.0722C23.9138 28.0722 19.1575 25.6876 15.392 22.0784C23.3193 19.1782 27.5471 14.4735 27.5471 9.12421C27.5471 4.41944 23.2532 0.874756 17.0435 0.874756C6.47391 0.874756 0 8.67307 0 18.0826C0 28.0722 7.66299 34.3882 16.9775 34.3882C23.1211 34.3882 27.5471 32.068 30.3217 27.9433L30.2556 27.8788ZM10.8999 3.13047C13.7405 3.13047 17.572 7.89968 17.572 13.5067C17.572 16.7936 16.8454 19.3716 14.9957 21.6917C11.0321 17.6959 8.19147 12.2822 8.19147 6.93295C8.19147 4.54834 9.18237 3.13047 10.8999 3.13047Z" fill="white"/>
</svg>
