<svg width="228" height="42" viewBox="0 0 228 42" fill="none" xmlns="http://www.w3.org/2000/svg">
<path d="M64.9157 17.9198H64.941V11.584H49.1523L51.4079 12.9526V29.4255H49.3804V29.831H64.941V23.4953H64.9157C62.5335 27.9049 59.9738 29.3748 56.9833 29.4255V20.4541C58.6306 20.5301 60.3286 21.848 61.2916 23.8247H61.317V16.754H61.2916C60.354 18.6801 58.5799 20.0233 56.9833 20.0993V11.9895C59.9738 12.0149 62.5335 13.5608 64.9157 17.9198Z" fill="white"/>
<path d="M75.9301 23.0137L79.4781 18.6547L81.1761 17.4129H76.2089L78.1603 18.6547L75.702 22.6336L73.1931 18.6547L74.6376 17.4129H65.945L67.5416 18.6547L71.0136 24.1795L67.4149 29.4509H66.4011V29.831H70.4814V29.4509H68.8848L71.2924 24.6103L74.3335 29.4509H73.0664V29.831H81.1254V29.4509H79.985L75.9301 23.0137Z" fill="white"/>
<path d="M92.1086 16.9061C90.6133 16.9061 89.0421 17.7931 87.6989 19.1616V16.6526L81.1857 18.9335L82.6303 20.1753V35.7613H81.3631V36.1668H89.7263V35.7613H87.6989V29.1721C88.5606 29.7296 89.5743 30.0844 90.7401 30.0844C94.1614 30.0844 96.6196 27.3727 96.6196 22.9124C96.6196 18.9842 94.6682 16.9061 92.1086 16.9061ZM88.9407 29.1214C88.5099 29.1214 88.0537 28.9947 87.6989 28.7413V19.5164C88.0537 19.3643 88.3832 19.263 88.7633 19.263C90.4613 19.263 91.1962 20.961 91.1962 24.3569C91.1962 27.3981 90.2585 29.1214 88.9407 29.1214Z" fill="white"/>
<path d="M109.766 27.5248C109.538 27.5755 109.285 27.6008 109.031 27.6008C107.333 27.6008 105.508 26.6631 104.064 25.2439C107.105 24.1035 108.727 22.2534 108.727 20.15C108.727 18.2999 107.08 16.9061 104.697 16.9061C100.643 16.9061 98.1589 19.9726 98.1589 23.6727C98.1589 27.6008 101.099 30.0844 104.672 30.0844C107.029 30.0844 108.727 29.1721 109.791 27.5501L109.766 27.5248ZM102.341 17.7931C103.43 17.7931 104.9 19.6685 104.9 21.8733C104.9 23.1658 104.621 24.1795 103.912 25.0919C102.391 23.5206 101.301 21.3918 101.301 19.2883C101.301 18.3506 101.682 17.7931 102.341 17.7931Z" fill="white"/>
<path d="M120.876 16.8807C119.711 16.8807 118.063 18.0718 116.619 19.9726V16.8047L110.106 18.9842L111.55 20.226V29.4255H110.283V29.831H118.519V29.4255H116.619V20.2513C117.506 20.0993 118.697 20.7582 121.332 23.6727H121.358V16.9568C121.206 16.9061 121.054 16.8807 120.876 16.8807Z" fill="white"/>
<path d="M132.988 27.4741C132.481 27.6769 132.05 27.7529 131.493 27.7529C129.617 27.7529 128.933 26.6631 128.933 23.7233V17.8184H132.506V17.4129H128.933V12.2683L121.913 17.7931V17.8184H123.865V25.0158C123.865 28.3104 125.056 30.0844 128.071 30.0844C130.403 30.0844 132.076 28.9947 133.013 27.4995L132.988 27.4741Z" fill="white"/>
<path d="M145.234 30.3379C149.467 30.3379 152.407 27.8036 152.407 24.3062C152.407 22 151.19 20.4541 149.061 19.1869L145.741 17.1848C143.866 16.0697 143.232 15.0814 143.232 13.9663C143.232 12.5724 144.347 11.6347 145.64 11.6347C146.147 11.6347 146.375 11.6601 146.882 11.7868L150.227 17.7931H150.252L151.748 12.1923C149.771 11.3559 147.971 11.0772 145.995 11.0772C141.864 11.0772 139.532 13.5608 139.532 16.7287C139.532 19.2883 140.926 21.0116 143.283 22.3041L146.172 23.8754C147.642 24.661 148.301 25.7001 148.301 26.9166C148.301 28.5385 146.983 29.7296 145.184 29.7296C144.728 29.7296 144.423 29.7043 143.866 29.4762L140.343 22.8363H140.318L138.823 29.3241C140.875 30.0084 143.08 30.3379 145.234 30.3379Z" fill="white"/>
<path d="M165.286 27.5248C165.058 27.5755 164.804 27.6008 164.551 27.6008C162.853 27.6008 161.028 26.6631 159.583 25.2439C162.625 24.1035 164.247 22.2534 164.247 20.15C164.247 18.2999 162.599 16.9061 160.217 16.9061C156.162 16.9061 153.679 19.9726 153.679 23.6727C153.679 27.6008 156.618 30.0844 160.192 30.0844C162.549 30.0844 164.247 29.1721 165.311 27.5501L165.286 27.5248ZM157.86 17.7931C158.95 17.7931 160.42 19.6685 160.42 21.8733C160.42 23.1658 160.141 24.1795 159.431 25.0919C157.911 23.5206 156.821 21.3918 156.821 19.2883C156.821 18.3506 157.201 17.7931 157.86 17.7931Z" fill="white"/>
<path d="M170.592 30.0844C173.71 30.0844 176.371 28.4625 176.371 25.8268C176.371 24.2555 175.458 22.9884 173.71 22.0507L171.809 21.037C170.314 20.2513 169.908 19.6178 169.908 18.7308C169.908 18.0212 170.466 17.3876 171.581 17.3876C171.707 17.3876 171.885 17.4129 172.012 17.4636L174.951 21.6452H174.977L175.965 17.641C174.723 17.1848 173.405 16.9061 171.758 16.9061C168.387 16.9061 166.309 18.5787 166.309 21.1384C166.309 23.0644 167.323 24.2555 169.427 25.3706L171.099 26.2576C172.164 26.8152 172.62 27.246 172.62 28.0063C172.62 29.0454 171.859 29.6283 170.744 29.6283C170.44 29.6283 170.263 29.6029 169.908 29.5015L166.766 25.2946H166.74L165.955 29.4255C167.729 29.9577 169.401 30.0844 170.592 30.0844Z" fill="white"/>
<path d="M181.785 30.0844C184.903 30.0844 187.564 28.4625 187.564 25.8268C187.564 24.2555 186.651 22.9884 184.903 22.0507L183.002 21.037C181.507 20.2513 181.101 19.6178 181.101 18.7308C181.101 18.0212 181.659 17.3876 182.774 17.3876C182.9 17.3876 183.078 17.4129 183.205 17.4636L186.144 21.6452H186.17L187.158 17.641C185.916 17.1848 184.598 16.9061 182.951 16.9061C179.58 16.9061 177.502 18.5787 177.502 21.1384C177.502 23.0644 178.516 24.2555 180.62 25.3706L182.292 26.2576C183.357 26.8152 183.813 27.246 183.813 28.0063C183.813 29.0454 183.052 29.6283 181.937 29.6283C181.633 29.6283 181.456 29.6029 181.101 29.5015L177.959 25.2946H177.933L177.148 29.4255C178.922 29.9577 180.594 30.0844 181.785 30.0844Z" fill="white"/>
<path d="M191.99 16.2218C193.789 16.2218 194.803 15.0814 194.803 13.3834C194.803 11.7107 193.789 10.5703 191.99 10.5703C190.191 10.5703 189.177 11.7107 189.177 13.3834C189.177 15.0814 190.191 16.2218 191.99 16.2218ZM188.189 29.831H195.791V29.4255H194.524V16.6526L188.011 18.9335L189.456 20.1753V29.4255H188.189V29.831Z" fill="white"/>
<path d="M203.886 30.0844C208.701 30.0844 211.058 27.1193 211.058 23.4192C211.058 19.4404 208.042 16.9061 203.861 16.9061C199.73 16.9061 196.891 19.7952 196.891 23.4192C196.891 27.4995 200.237 30.0844 203.886 30.0844ZM206.724 29.1721C204.646 29.1721 200.262 21.5438 200.262 19.0602C200.262 18.2746 200.642 17.8184 201.276 17.8184C203.506 17.8184 207.764 25.7508 207.764 27.8796C207.764 28.7413 207.409 29.1721 206.724 29.1721Z" fill="white"/>
<path d="M226.629 29.4255V20.7075C226.629 18.1225 225.514 16.7794 223.359 16.7794C221.636 16.7794 220.166 17.7677 218.519 19.1869V16.6526L212.006 18.9335L213.45 20.1753V29.4255H212.183V29.831H219.533V29.4255H218.519V19.5417C219.026 19.3137 219.533 19.1616 220.04 19.1616C221.079 19.1616 221.56 19.8205 221.56 21.7973V29.4255H220.546V29.831H227.896V29.4255H226.629Z" fill="white"/>
<path d="M37.1712 33.2511C36.4407 33.4095 35.6291 33.4887 34.8175 33.4887C29.3798 33.4887 23.5363 30.559 18.9102 26.1249C28.6494 22.5618 33.8436 16.7817 33.8436 10.2098C33.8436 4.42961 28.5682 0.074707 20.9392 0.074707C7.95366 0.074707 0 9.65549 0 21.2158C0 33.4887 9.41453 41.2483 20.8581 41.2483C28.4059 41.2483 33.8436 38.3978 37.2523 33.3303L37.1712 33.2511ZM13.3914 2.84601C16.8812 2.84601 21.5885 8.70533 21.5885 15.594C21.5885 19.6322 20.6957 22.7994 18.4233 25.6499C13.5537 20.7407 10.0638 14.0896 10.0638 7.51763C10.0638 4.58797 11.2812 2.84601 13.3914 2.84601Z" fill="white"/>
</svg>
