<svg width="186" height="35" viewBox="0 0 186 35" fill="none" xmlns="http://www.w3.org/2000/svg">
<path d="M52.8414 15.3996H52.862V10.2426H40.0107L41.8466 11.3565V24.7647H40.1964V25.0948H52.862V19.9378H52.8414C50.9023 23.5271 48.8189 24.7235 46.3848 24.7647V17.4624C47.7256 17.5243 49.1077 18.597 49.8916 20.2059H49.9122V14.4507H49.8916C49.1283 16.0185 47.6844 17.1117 46.3848 17.1736V10.5727C48.8189 10.5933 50.9023 11.8516 52.8414 15.3996Z" fill="#293F98"/>
<path d="M61.8066 19.5458L64.6945 15.9978L66.0766 14.9871H62.0335L63.6219 15.9978L61.621 19.2364L59.5788 15.9978L60.7546 14.9871H53.6792L54.9787 15.9978L57.8048 20.4947L54.8756 24.7854H54.0505V25.0948H57.3716V24.7854H56.072L58.0317 20.8454L60.507 24.7854H59.4756V25.0948H66.0354V24.7854H65.1071L61.8066 19.5458Z" fill="#293F98"/>
<path d="M74.9751 14.5745C73.7581 14.5745 72.4791 15.2965 71.3858 16.4104V14.3682L66.0844 16.2247L67.2602 17.2355V29.9218H66.2288V30.2518H73.0361V29.9218H71.3858V24.5585C72.0872 25.0123 72.9123 25.3011 73.8612 25.3011C76.646 25.3011 78.6469 23.0939 78.6469 19.4633C78.6469 16.266 77.0586 14.5745 74.9751 14.5745ZM72.3966 24.5172C72.0459 24.5172 71.6746 24.4141 71.3858 24.2078V16.6992C71.6746 16.5754 71.9428 16.4929 72.2522 16.4929C73.6343 16.4929 74.2325 17.875 74.2325 20.6391C74.2325 23.1145 73.4693 24.5172 72.3966 24.5172Z" fill="#293F98"/>
<path d="M89.3475 23.2176C89.1618 23.2589 88.9555 23.2795 88.7493 23.2795C87.3672 23.2795 85.882 22.5163 84.7062 21.3611C87.1815 20.4329 88.5017 18.927 88.5017 17.2149C88.5017 15.709 87.1609 14.5745 85.2219 14.5745C81.9214 14.5745 79.8998 17.0705 79.8998 20.0822C79.8998 23.2795 82.2927 25.3011 85.2012 25.3011C87.1196 25.3011 88.5017 24.5585 89.3681 23.2383L89.3475 23.2176ZM83.3035 15.2965C84.1905 15.2965 85.3869 16.8229 85.3869 18.6176C85.3869 19.6696 85.16 20.4947 84.5824 21.2373C83.3447 19.9584 82.4577 18.2257 82.4577 16.5135C82.4577 15.7503 82.7671 15.2965 83.3035 15.2965Z" fill="#293F98"/>
<path d="M98.3907 14.5539C97.4418 14.5539 96.101 15.5234 94.9252 17.0705V14.492L89.6238 16.266L90.7996 17.2768V24.7647H89.7682V25.0948H96.4723V24.7647H94.9252V17.2974C95.6472 17.1736 96.6167 17.71 98.762 20.0822H98.7826V14.6157C98.6589 14.5745 98.5351 14.5539 98.3907 14.5539Z" fill="#293F98"/>
<path d="M108.249 23.1764C107.837 23.3414 107.486 23.4033 107.032 23.4033C105.506 23.4033 104.949 22.5163 104.949 20.1234V15.3171H107.857V14.9871H104.949V10.7996L99.2346 15.2965V15.3171H100.823V21.1755C100.823 23.8571 101.792 25.3011 104.247 25.3011C106.145 25.3011 107.506 24.4141 108.27 23.197L108.249 23.1764Z" fill="#293F98"/>
<path d="M118.217 25.5074C121.662 25.5074 124.055 23.4445 124.055 20.5979C124.055 18.7207 123.065 17.4624 121.332 16.431L118.63 14.8014C117.103 13.8938 116.587 13.0893 116.587 12.1816C116.587 11.0471 117.495 10.2839 118.547 10.2839C118.96 10.2839 119.145 10.3045 119.558 10.4076L122.281 15.2965H122.301L123.519 10.7377C121.91 10.057 120.445 9.83004 118.836 9.83004C115.474 9.83004 113.576 11.8516 113.576 14.4301C113.576 16.5135 114.71 17.9162 116.629 18.9683L118.98 20.2472C120.177 20.8867 120.713 21.7324 120.713 22.7226C120.713 24.0428 119.64 25.0123 118.176 25.0123C117.805 25.0123 117.557 24.9917 117.103 24.806L114.236 19.4015H114.215L112.998 24.6822C114.669 25.2392 116.464 25.5074 118.217 25.5074Z" fill="#293F98"/>
<path d="M134.538 23.2176C134.352 23.2589 134.146 23.2795 133.94 23.2795C132.558 23.2795 131.072 22.5163 129.897 21.3611C132.372 20.4329 133.692 18.927 133.692 17.2149C133.692 15.709 132.351 14.5745 130.412 14.5745C127.112 14.5745 125.09 17.0705 125.09 20.0822C125.09 23.2795 127.483 25.3011 130.392 25.3011C132.31 25.3011 133.692 24.5585 134.558 23.2383L134.538 23.2176ZM128.494 15.2965C129.381 15.2965 130.577 16.8229 130.577 18.6176C130.577 19.6696 130.35 20.4947 129.773 21.2373C128.535 19.9584 127.648 18.2257 127.648 16.5135C127.648 15.7503 127.957 15.2965 128.494 15.2965Z" fill="#293F98"/>
<path d="M138.857 25.3011C141.394 25.3011 143.56 23.9809 143.56 21.8356C143.56 20.5566 142.818 19.5252 141.394 18.762L139.847 17.9369C138.63 17.2974 138.3 16.7817 138.3 16.0597C138.3 15.4821 138.754 14.9664 139.662 14.9664C139.765 14.9664 139.909 14.9871 140.012 15.0283L142.405 18.4319H142.426L143.23 15.1727C142.22 14.8014 141.147 14.5745 139.806 14.5745C137.063 14.5745 135.371 15.9359 135.371 18.0194C135.371 19.5871 136.196 20.5566 137.908 21.4643L139.27 22.1862C140.136 22.6401 140.507 22.9907 140.507 23.6096C140.507 24.4553 139.889 24.9298 138.981 24.9298C138.733 24.9298 138.589 24.9091 138.3 24.8266L135.742 21.4024H135.722L135.082 24.7647C136.526 25.1979 137.888 25.3011 138.857 25.3011Z" fill="#293F98"/>
<path d="M147.968 25.3011C150.505 25.3011 152.671 23.9809 152.671 21.8356C152.671 20.5566 151.928 19.5252 150.505 18.762L148.958 17.9369C147.741 17.2974 147.411 16.7817 147.411 16.0597C147.411 15.4821 147.865 14.9664 148.772 14.9664C148.875 14.9664 149.02 14.9871 149.123 15.0283L151.516 18.4319H151.536L152.341 15.1727C151.33 14.8014 150.258 14.5745 148.917 14.5745C146.173 14.5745 144.482 15.9359 144.482 18.0194C144.482 19.5871 145.307 20.5566 147.019 21.4643L148.38 22.1862C149.247 22.6401 149.618 22.9907 149.618 23.6096C149.618 24.4553 148.999 24.9298 148.092 24.9298C147.844 24.9298 147.7 24.9091 147.411 24.8266L144.853 21.4024H144.832L144.193 24.7647C145.637 25.1979 146.998 25.3011 147.968 25.3011Z" fill="#293F98"/>
<path d="M156.274 14.0175C157.739 14.0175 158.564 13.0893 158.564 11.7072C158.564 10.3457 157.739 9.41748 156.274 9.41748C154.809 9.41748 153.984 10.3457 153.984 11.7072C153.984 13.0893 154.809 14.0175 156.274 14.0175ZM153.18 25.0948H159.368V24.7647H158.337V14.3682L153.035 16.2247L154.211 17.2355V24.7647H153.18V25.0948Z" fill="#293F98"/>
<path d="M165.957 25.3011C169.876 25.3011 171.795 22.8876 171.795 19.8759C171.795 16.6373 169.34 14.5745 165.936 14.5745C162.574 14.5745 160.263 16.9261 160.263 19.8759C160.263 23.197 162.986 25.3011 165.957 25.3011ZM168.267 24.5585C166.576 24.5585 163.007 18.3494 163.007 16.3279C163.007 15.6884 163.316 15.3171 163.832 15.3171C165.647 15.3171 169.113 21.7737 169.113 23.5064C169.113 24.2078 168.824 24.5585 168.267 24.5585Z" fill="#293F98"/>
<path d="M184.468 24.7647V17.6687C184.468 15.5646 183.561 14.4714 181.807 14.4714C180.405 14.4714 179.208 15.2758 177.867 16.431V14.3682L172.566 16.2247L173.742 17.2355V24.7647H172.71V25.0948H178.692V24.7647H177.867V16.7198C178.28 16.5342 178.692 16.4104 179.105 16.4104C179.951 16.4104 180.343 16.9467 180.343 18.5557V24.7647H179.518V25.0948H185.5V24.7647H184.468Z" fill="#293F98"/>
<path d="M30.2556 27.8786C29.6611 28.0075 29.0005 28.0719 28.3398 28.0719C23.9138 28.0719 19.1575 25.6873 15.392 22.0782C23.3193 19.178 27.5471 14.4732 27.5471 9.12397C27.5471 4.4192 23.2532 0.874512 17.0435 0.874512C6.47391 0.874512 0 8.67283 0 18.0824C0 28.0719 7.66299 34.3879 16.9775 34.3879C23.1211 34.3879 27.5471 32.0678 30.3217 27.943L30.2556 27.8786ZM10.8999 3.13022C13.7405 3.13022 17.572 7.89944 17.572 13.5065C17.572 16.7934 16.8454 19.3713 14.9957 21.6915C11.0321 17.6957 8.19147 12.282 8.19147 6.93271C8.19147 4.5481 9.18237 3.13022 10.8999 3.13022Z" fill="#293F98"/>
</svg>

