<svg width="344" height="344" viewBox="0 0 344 344" fill="none" xmlns="http://www.w3.org/2000/svg">
<path d="M306.433 273.501C300.411 274.806 293.721 275.459 287.03 275.459C242.202 275.459 194.03 251.308 155.893 214.754C236.181 185.38 279.001 137.73 279.001 83.5516C279.001 35.9011 235.512 0 172.619 0C65.5686 0 0 78.9824 0 174.283C0 275.459 77.6118 339.428 171.95 339.428C234.174 339.428 279.001 315.93 307.102 274.154L306.433 273.501ZM110.396 22.8461C139.166 22.8461 177.972 71.1494 177.972 127.938C177.972 161.229 170.612 187.338 151.878 210.837C111.734 170.367 82.9644 115.536 82.9644 61.3582C82.9644 37.2066 93.0004 22.8461 110.396 22.8461Z" fill="white"/>
</svg>
