<svg width="117" height="22" viewBox="0 0 117 22" fill="none" xmlns="http://www.w3.org/2000/svg">
<path d="M33.3285 9.71304H33.3415V6.46037H25.2358L26.3938 7.16295V15.6199H25.3529V15.8281H33.3415V12.5754H33.3285C32.1055 14.8392 30.7914 15.5939 29.2561 15.6199V11.0141C30.1018 11.0531 30.9735 11.7297 31.468 12.7445H31.481V9.11455H31.468C30.9866 10.1034 30.0758 10.7929 29.2561 10.832V6.66854C30.7914 6.68155 32.1055 7.4752 33.3285 9.71304Z" fill="#293F98"/>
<path d="M38.9831 12.3282L40.8046 10.0903L41.6763 9.45283H39.1262L40.128 10.0903L38.866 12.133L37.5779 10.0903L38.3196 9.45283H33.8569L34.6766 10.0903L36.459 12.9267L34.6115 15.6329H34.0911V15.8281H36.1858V15.6329H35.3661L36.6021 13.1479L38.1634 15.6329H37.5129V15.8281H41.6503V15.6329H41.0648L38.9831 12.3282Z" fill="#293F98"/>
<path d="M47.2888 9.19261C46.5212 9.19261 45.7146 9.64798 45.025 10.3506V9.0625L41.6812 10.2335L42.4229 10.871V18.8726H41.7723V19.0807H46.0658V18.8726H45.025V15.4898C45.4674 15.776 45.9878 15.9582 46.5863 15.9582C48.3427 15.9582 49.6047 14.566 49.6047 12.2761C49.6047 10.2595 48.6029 9.19261 47.2888 9.19261ZM45.6625 15.4638C45.4413 15.4638 45.2071 15.3987 45.025 15.2686V10.5327C45.2071 10.4546 45.3763 10.4026 45.5714 10.4026C46.4432 10.4026 46.8205 11.2743 46.8205 13.0178C46.8205 14.579 46.3391 15.4638 45.6625 15.4638Z" fill="#293F98"/>
<path d="M56.3539 14.6441C56.2368 14.6701 56.1067 14.6831 55.9766 14.6831C55.1049 14.6831 54.1681 14.2017 53.4265 13.4731C54.9878 12.8876 55.8205 11.9379 55.8205 10.858C55.8205 9.9082 54.9748 9.19261 53.7518 9.19261C51.67 9.19261 50.395 10.7669 50.395 12.6665C50.395 14.6831 51.9042 15.9582 53.7387 15.9582C54.9487 15.9582 55.8204 15.4898 56.3669 14.6571L56.3539 14.6441ZM52.5418 9.64798C53.1012 9.64798 53.8558 10.6108 53.8558 11.7427C53.8558 12.4062 53.7127 12.9267 53.3484 13.3951C52.5678 12.5884 52.0083 11.4955 52.0083 10.4156C52.0083 9.93422 52.2035 9.64798 52.5418 9.64798Z" fill="#293F98"/>
<path d="M62.0577 9.1796C61.4592 9.1796 60.6135 9.7911 59.8719 10.7669V9.14057L56.5282 10.2595L57.2698 10.897V15.6199H56.6192V15.8281H60.8477V15.6199H59.8719V10.91C60.3273 10.832 60.9388 11.1702 62.2919 12.6665H62.3049V9.21863C62.2268 9.19261 62.1488 9.1796 62.0577 9.1796Z" fill="#293F98"/>
<path d="M68.2756 14.6181C68.0154 14.7221 67.7942 14.7612 67.508 14.7612C66.5452 14.7612 66.1939 14.2017 66.1939 12.6925V9.661H68.0284V9.45283H66.1939V6.81166L62.59 9.64798V9.661H63.5918V13.356C63.5918 15.0474 64.2033 15.9582 65.7516 15.9582C66.9486 15.9582 67.8073 15.3987 68.2887 14.6311L68.2756 14.6181Z" fill="#293F98"/>
<path d="M74.5628 16.0883C76.7355 16.0883 78.2448 14.7872 78.2448 12.9917C78.2448 11.8078 77.6203 11.0141 76.5274 10.3636L74.823 9.33573C73.8602 8.76326 73.5349 8.25584 73.5349 7.68337C73.5349 6.96778 74.1074 6.48639 74.7709 6.48639C75.0311 6.48639 75.1482 6.4994 75.4085 6.56445L77.1259 9.64798H77.1389L77.9065 6.77262C76.8917 6.34327 75.9679 6.20016 74.9531 6.20016C72.8323 6.20016 71.6354 7.4752 71.6354 9.10154C71.6354 10.4156 72.3509 11.3003 73.5609 11.9639L75.0442 12.7705C75.7988 13.1739 76.1371 13.7073 76.1371 14.3318C76.1371 15.1645 75.4605 15.776 74.5367 15.776C74.3025 15.776 74.1464 15.763 73.8602 15.6459L72.0517 12.2371H72.0387L71.2711 15.5678C72.3249 15.9191 73.4569 16.0883 74.5628 16.0883Z" fill="#293F98"/>
<path d="M84.8567 14.6441C84.7396 14.6701 84.6095 14.6831 84.4794 14.6831C83.6077 14.6831 82.6709 14.2017 81.9293 13.4731C83.4906 12.8876 84.3233 11.9379 84.3233 10.858C84.3233 9.9082 83.4776 9.19261 82.2546 9.19261C80.1729 9.19261 78.8978 10.7669 78.8978 12.6665C78.8978 14.6831 80.4071 15.9582 82.2416 15.9582C83.4515 15.9582 84.3233 15.4898 84.8697 14.6571L84.8567 14.6441ZM81.0446 9.64798C81.604 9.64798 82.3587 10.6108 82.3587 11.7427C82.3587 12.4062 82.2155 12.9267 81.8512 13.3951C81.0706 12.5884 80.5111 11.4955 80.5111 10.4156C80.5111 9.93422 80.7063 9.64798 81.0446 9.64798Z" fill="#293F98"/>
<path d="M87.5811 15.9582C89.1814 15.9582 90.5475 15.1255 90.5475 13.7724C90.5475 12.9657 90.0791 12.3152 89.1814 11.8338L88.2056 11.3134C87.438 10.91 87.2298 10.5848 87.2298 10.1294C87.2298 9.76508 87.516 9.43981 88.0885 9.43981C88.1535 9.43981 88.2446 9.45282 88.3097 9.47885L89.8189 11.6256H89.8319L90.3393 9.56992C89.7018 9.33573 89.0253 9.19261 88.1796 9.19261C86.4491 9.19261 85.3823 10.0513 85.3823 11.3654C85.3823 12.3542 85.9027 12.9657 86.9826 13.5382L87.8413 13.9936C88.3877 14.2798 88.6219 14.501 88.6219 14.8913C88.6219 15.4247 88.2316 15.724 87.6591 15.724C87.503 15.724 87.4119 15.711 87.2298 15.6589L85.6165 13.4991H85.6034L85.2001 15.6199C86.1109 15.8931 86.9696 15.9582 87.5811 15.9582Z" fill="#293F98"/>
<path d="M93.3274 15.9582C94.9277 15.9582 96.2938 15.1255 96.2938 13.7724C96.2938 12.9657 95.8254 12.3152 94.9277 11.8338L93.9519 11.3134C93.1842 10.91 92.9761 10.5848 92.9761 10.1294C92.9761 9.76508 93.2623 9.43981 93.8348 9.43981C93.8998 9.43981 93.9909 9.45282 94.056 9.47885L95.5652 11.6256H95.5782L96.0856 9.56992C95.4481 9.33573 94.7716 9.19261 93.9259 9.19261C92.1954 9.19261 91.1286 10.0513 91.1286 11.3654C91.1286 12.3542 91.649 12.9657 92.7289 13.5382L93.5876 13.9936C94.134 14.2798 94.3682 14.501 94.3682 14.8913C94.3682 15.4247 93.9779 15.724 93.4054 15.724C93.2493 15.724 93.1582 15.711 92.9761 15.6589L91.3628 13.4991H91.3497L90.9464 15.6199C91.8572 15.8931 92.7159 15.9582 93.3274 15.9582Z" fill="#293F98"/>
<path d="M98.5663 8.84132C99.49 8.84132 100.01 8.25584 100.01 7.38413C100.01 6.52542 99.49 5.93994 98.5663 5.93994C97.6425 5.93994 97.1221 6.52542 97.1221 7.38413C97.1221 8.25584 97.6425 8.84132 98.5663 8.84132ZM96.6147 15.8281H100.518V15.6199H99.8673V9.0625L96.5236 10.2335L97.2652 10.871V15.6199H96.6147V15.8281Z" fill="#293F98"/>
<path d="M104.674 15.9582C107.146 15.9582 108.356 14.4359 108.356 12.5364C108.356 10.4937 106.807 9.19261 104.66 9.19261C102.54 9.19261 101.083 10.6758 101.083 12.5364C101.083 14.6311 102.8 15.9582 104.674 15.9582ZM106.131 15.4898C105.064 15.4898 102.813 11.5736 102.813 10.2985C102.813 9.89519 103.008 9.661 103.333 9.661C104.478 9.661 106.664 13.7333 106.664 14.8262C106.664 15.2686 106.482 15.4898 106.131 15.4898Z" fill="#293F98"/>
<path d="M116.349 15.6199V11.1442C116.349 9.81712 115.777 9.12756 114.671 9.12756C113.786 9.12756 113.031 9.63497 112.186 10.3636V9.0625L108.842 10.2335L109.584 10.871V15.6199H108.933V15.8281H112.706V15.6199H112.186V10.5457C112.446 10.4286 112.706 10.3506 112.966 10.3506C113.5 10.3506 113.747 10.6888 113.747 11.7037V15.6199H113.227V15.8281H117V15.6199H116.349Z" fill="#293F98"/>
<path d="M19.083 17.584C18.7081 17.6653 18.2914 17.7059 17.8747 17.7059C15.0831 17.7059 12.0832 16.2019 9.70819 13.9255C14.7081 12.0963 17.3747 9.12884 17.3747 5.75492C17.3747 2.78749 14.6664 0.551758 10.7498 0.551758C4.08327 0.551758 0 5.47037 0 11.4052C0 17.7059 4.83326 21.6896 10.7082 21.6896C14.5831 21.6896 17.3747 20.2262 19.1247 17.6246L19.083 17.584ZM6.8749 1.9745C8.66654 1.9745 11.0832 4.98257 11.0832 8.5191C11.0832 10.5922 10.6248 12.2182 9.45819 13.6816C6.95823 11.1613 5.16659 7.74675 5.16659 4.37283C5.16659 2.86879 5.79158 1.9745 6.8749 1.9745Z" fill="#293F98"/>
</svg>
