<svg width="167" height="25" viewBox="0 0 167 25" fill="none" xmlns="http://www.w3.org/2000/svg">
<path d="M15.3906 7.5996H15.4142V1.70587H0.727051L2.82522 2.97892V18.3026H0.939225V18.6798H15.4142V12.7861H15.3906C13.1746 16.8881 10.7935 18.2555 8.0117 18.3026V9.95709C9.54406 10.0278 11.1236 11.2537 12.0194 13.0926H12.043V6.51515H12.0194C11.1472 8.30685 9.49691 9.55632 8.0117 9.62704V2.08307C10.7935 2.10665 13.1746 3.54472 15.3906 7.5996Z" fill="white"/>
<path d="M25.6366 12.3382L28.9371 8.28327L30.5166 7.1281H25.8959L27.7112 8.28327L25.4244 11.9845L23.0905 8.28327L24.4343 7.1281H16.3481L17.8333 8.28327L21.0631 13.4226L17.7154 18.3262H16.7725V18.6798H20.568V18.3262H19.0828L21.3224 13.8234L24.1514 18.3262H22.9727V18.6798H30.4695V18.3262H29.4086L25.6366 12.3382Z" fill="white"/>
<path d="M40.6863 6.6566C39.2954 6.6566 37.8338 7.48173 36.5843 8.75477V6.42085L30.5256 8.5426L31.8693 9.69777V24.1963H30.6906V24.5735H38.4703V24.1963H36.5843V18.0669C37.3859 18.5855 38.3289 18.9156 39.4133 18.9156C42.5959 18.9156 44.8827 16.393 44.8827 12.2439C44.8827 8.58975 43.0674 6.6566 40.6863 6.6566ZM37.7395 18.0197C37.3387 18.0197 36.9144 17.9018 36.5843 17.6661V9.08482C36.9144 8.94337 37.2208 8.84907 37.5745 8.84907C39.154 8.84907 39.8376 10.4286 39.8376 13.5876C39.8376 16.4166 38.9654 18.0197 37.7395 18.0197Z" fill="white"/>
<path d="M57.1119 16.5345C56.8997 16.5816 56.664 16.6052 56.4282 16.6052C54.8487 16.6052 53.1513 15.7329 51.8075 14.4127C54.6365 13.3519 56.1453 11.6309 56.1453 9.67419C56.1453 7.95322 54.6129 6.6566 52.3969 6.6566C48.6249 6.6566 46.3146 9.50917 46.3146 12.9511C46.3146 16.6052 49.0493 18.9156 52.3733 18.9156C54.5658 18.9156 56.1453 18.0669 57.1355 16.5581L57.1119 16.5345ZM50.2044 7.48173C51.2182 7.48173 52.5855 9.22627 52.5855 11.2773C52.5855 12.4796 52.3262 13.4226 51.6661 14.2713C50.2516 12.8097 49.2379 10.8294 49.2379 8.87265C49.2379 8.00037 49.5915 7.48173 50.2044 7.48173Z" fill="white"/>
<path d="M67.447 6.63303C66.3626 6.63303 64.8302 7.74105 63.4864 9.50917V6.5623L57.4277 8.58975L58.7714 9.74492V18.3026H57.5927V18.6798H65.2545V18.3026H63.4864V9.76849C64.3115 9.62704 65.4196 10.24 67.8714 12.9511H67.8949V6.70375C67.7535 6.6566 67.612 6.63303 67.447 6.63303Z" fill="white"/>
<path d="M78.7137 16.4873C78.2422 16.6759 77.8414 16.7467 77.3228 16.7467C75.5782 16.7467 74.9417 15.7329 74.9417 12.9983V7.5053H78.2658V7.1281H74.9417V2.3424L68.4115 7.48173V7.5053H70.2267V14.2006C70.2267 17.2653 71.3348 18.9156 74.1402 18.9156C76.3091 18.9156 77.865 17.9018 78.7373 16.5109L78.7137 16.4873Z" fill="white"/>
<path d="M90.1057 19.1513C94.0428 19.1513 96.7774 16.7938 96.7774 13.5405C96.7774 11.3952 95.6458 9.95709 93.6656 8.77835L90.5772 6.91593C88.8327 5.87863 88.2433 4.95921 88.2433 3.92192C88.2433 2.6253 89.2806 1.75302 90.4829 1.75302C90.9544 1.75302 91.1666 1.7766 91.6381 1.89447L94.75 7.48173H94.7736L96.1645 2.27167C94.3257 1.4937 92.6518 1.23438 90.813 1.23438C86.9703 1.23438 84.8014 3.54472 84.8014 6.49158C84.8014 8.87265 86.098 10.4757 88.2905 11.6781L90.978 13.1397C92.3454 13.8705 92.9583 14.8371 92.9583 15.9687C92.9583 17.4775 91.7324 18.5855 90.0586 18.5855C89.6342 18.5855 89.3513 18.5619 88.8327 18.3498L85.5558 12.1731H85.5322L84.1413 18.2083C86.0509 18.8448 88.1019 19.1513 90.1057 19.1513Z" fill="white"/>
<path d="M108.758 16.5345C108.546 16.5816 108.31 16.6052 108.074 16.6052C106.495 16.6052 104.797 15.7329 103.454 14.4127C106.283 13.3519 107.791 11.6309 107.791 9.67419C107.791 7.95322 106.259 6.6566 104.043 6.6566C100.271 6.6566 97.9607 9.50917 97.9607 12.9511C97.9607 16.6052 100.695 18.9156 104.019 18.9156C106.212 18.9156 107.791 18.0669 108.782 16.5581L108.758 16.5345ZM101.851 7.48173C102.864 7.48173 104.232 9.22627 104.232 11.2773C104.232 12.4796 103.972 13.4226 103.312 14.2713C101.898 12.8097 100.884 10.8294 100.884 8.87265C100.884 8.00037 101.238 7.48173 101.851 7.48173Z" fill="white"/>
<path d="M113.694 18.9156C116.594 18.9156 119.07 17.4068 119.07 14.955C119.07 13.4933 118.221 12.3146 116.594 11.4423L114.826 10.4993C113.435 9.76849 113.058 9.17912 113.058 8.354C113.058 7.6939 113.577 7.10453 114.614 7.10453C114.732 7.10453 114.897 7.1281 115.015 7.17525L117.749 11.0651H117.773L118.692 7.34028C117.537 6.91593 116.311 6.6566 114.779 6.6566C111.643 6.6566 109.71 8.21255 109.71 10.5936C109.71 12.3853 110.653 13.4933 112.61 14.5306L114.166 15.3557C115.156 15.8744 115.58 16.2752 115.58 16.9824C115.58 17.949 114.873 18.4912 113.836 18.4912C113.553 18.4912 113.388 18.4676 113.058 18.3733L110.135 14.4599H110.111L109.38 18.3026C111.031 18.7977 112.586 18.9156 113.694 18.9156Z" fill="white"/>
<path d="M124.107 18.9156C127.006 18.9156 129.482 17.4068 129.482 14.955C129.482 13.4933 128.633 12.3146 127.006 11.4423L125.238 10.4993C123.847 9.76849 123.47 9.17912 123.47 8.354C123.47 7.6939 123.989 7.10453 125.026 7.10453C125.144 7.10453 125.309 7.1281 125.427 7.17525L128.161 11.0651H128.185L129.104 7.34028C127.949 6.91593 126.723 6.6566 125.191 6.6566C122.056 6.6566 120.122 8.21255 120.122 10.5936C120.122 12.3853 121.065 13.4933 123.022 14.5306L124.578 15.3557C125.568 15.8744 125.993 16.2752 125.993 16.9824C125.993 17.949 125.285 18.4912 124.248 18.4912C123.965 18.4912 123.8 18.4676 123.47 18.3733L120.547 14.4599H120.523L119.792 18.3026C121.443 18.7977 122.999 18.9156 124.107 18.9156Z" fill="white"/>
<path d="M133.599 6.02008C135.273 6.02008 136.216 4.95921 136.216 3.37969C136.216 1.82375 135.273 0.762878 133.599 0.762878C131.925 0.762878 130.982 1.82375 130.982 3.37969C130.982 4.95921 131.925 6.02008 133.599 6.02008ZM130.063 18.6798H137.136V18.3026H135.957V6.42085L129.898 8.5426L131.242 9.69777V18.3026H130.063V18.6798Z" fill="white"/>
<path d="M144.665 18.9156C149.145 18.9156 151.337 16.1573 151.337 12.7154C151.337 9.01409 148.532 6.6566 144.642 6.6566C140.799 6.6566 138.159 9.34414 138.159 12.7154C138.159 16.5109 141.271 18.9156 144.665 18.9156ZM147.306 18.0669C145.373 18.0669 141.294 10.9708 141.294 8.66047C141.294 7.92965 141.648 7.5053 142.237 7.5053C144.312 7.5053 148.272 14.8842 148.272 16.8645C148.272 17.6661 147.942 18.0669 147.306 18.0669Z" fill="white"/>
<path d="M165.821 18.3026V10.1928C165.821 7.7882 164.784 6.53873 162.78 6.53873C161.177 6.53873 159.81 7.45815 158.277 8.77835V6.42085L152.219 8.5426L153.562 9.69777V18.3026H152.384V18.6798H159.22V18.3026H158.277V9.10839C158.749 8.89622 159.22 8.75477 159.692 8.75477C160.658 8.75477 161.106 9.36772 161.106 11.2066V18.3026H160.163V18.6798H167V18.3026H165.821Z" fill="white"/>
</svg>
