<svg width="24" height="24" viewBox="0 0 24 24" fill="none" xmlns="http://www.w3.org/2000/svg">
<path d="M21 3H3C2.20435 3 1.44129 3.31607 0.87868 3.87868C0.316071 4.44129 0 5.20435 0 6V21C0 21.7956 0.316071 22.5587 0.87868 23.1213C1.44129 23.6839 2.20435 24 3 24H21C21.7956 24 22.5587 23.6839 23.1213 23.1213C23.6839 22.5587 24 21.7956 24 21V6C24 5.20435 23.6839 4.44129 23.1213 3.87868C22.5587 3.31607 21.7956 3 21 3ZM22.0003 21C22.0003 21.2653 21.8949 21.5197 21.7073 21.7073C21.5197 21.8949 21.2653 22.0003 21 22.0003H3C2.7347 22.0003 2.48027 21.8949 2.29267 21.7073C2.10508 21.5197 1.99969 21.2653 1.99969 21V10.0397H21.9994V21H22.0003Z" fill="#3FA3FF"/>
<path d="M6.00001 0H4.9997C4.7344 0 4.47997 0.10539 4.29237 0.292984C4.10478 0.480579 3.99939 0.735013 3.99939 1.00031V5.00062C3.99989 5.26569 4.10546 5.51973 4.29298 5.70707C4.48049 5.89441 4.73464 5.99975 4.9997 6H6.00001C6.13146 6 6.26161 5.9741 6.38303 5.92377C6.50446 5.87344 6.61477 5.79967 6.70767 5.70668C6.80057 5.6137 6.87424 5.50331 6.92445 5.38184C6.97467 5.26037 7.00045 5.13019 7.00033 4.99875V1.00031C7.00033 0.735013 6.89494 0.480579 6.70734 0.292984C6.51975 0.10539 6.26531 0 6.00001 0Z" fill="#293F98"/>
<path d="M19.0004 0H18.0001C17.7348 0 17.4803 0.10539 17.2927 0.292984C17.1051 0.480579 16.9998 0.735013 16.9998 1.00031V5.00062C17 5.26576 17.1055 5.51996 17.2931 5.70735C17.4806 5.89474 17.7349 6 18.0001 6H19.0004C19.2657 6 19.5201 5.89461 19.7077 5.70702C19.8953 5.51942 20.0007 5.26499 20.0007 4.99969V1.00031C20.0007 0.735013 19.8953 0.480579 19.7077 0.292984C19.5201 0.10539 19.2657 0 19.0004 0Z" fill="#293F98"/>
</svg>
