<svg width="21" height="19" viewBox="0 0 21 19" fill="none" xmlns="http://www.w3.org/2000/svg">
<path d="M10.0357 18.423C9.95469 18.4203 9.87537 18.399 9.80397 18.3606C9.70593 18.3071 4.74412e-05 12.5495 4.74412e-05 6.67611C-0.00463877 5.52684 0.337952 4.40295 0.98292 3.45172C1.62789 2.50048 2.54516 1.76625 3.61454 1.34524C4.68393 0.924235 5.85554 0.836076 6.97588 1.09232C8.09623 1.34856 9.11305 1.93725 9.8931 2.78126L10.0179 2.91497L10.1694 2.78126C10.95 1.94547 11.9641 1.36404 13.0797 1.11266C14.1954 0.861283 15.3608 0.951601 16.4244 1.37185C17.488 1.79209 18.4005 2.5228 19.043 3.46885C19.6855 4.41491 20.0283 5.5325 20.0268 6.67611C20.0268 12.5317 10.3655 18.2625 10.2763 18.3606C10.2013 18.3978 10.1194 18.419 10.0357 18.423Z" fill="white"/>
</svg>