<svg width="35" height="24" viewBox="0 0 35 24" fill="none" xmlns="http://www.w3.org/2000/svg">
<path d="M34.1423 0.734673C33.8759 0.498099 33.5557 0.310866 33.2015 0.184546C32.8474 0.0582261 32.4668 -0.00449787 32.0832 0.000250828H2.9168C2.53317 -0.00437831 2.1525 0.0583978 1.79826 0.184709C1.44402 0.31102 1.12372 0.498188 0.857109 0.734673C0.581211 0.963198 0.362849 1.23774 0.215487 1.54138C0.0681252 1.84501 -0.00511335 2.1713 0.000287293 2.50013V21.4993C-0.00520091 21.8283 0.0679951 22.1546 0.21536 22.4584C0.362724 22.7621 0.581132 23.0368 0.857109 23.2653C1.12372 23.5018 1.44402 23.689 1.79826 23.8153C2.1525 23.9416 2.53317 24.0044 2.9168 23.9998H32.0832C32.856 23.9975 33.5964 23.7333 34.1428 23.2648C34.6891 22.7964 34.9972 22.1617 34.9997 21.4993V2.50013C35.0051 2.17126 34.9317 1.84495 34.7842 1.54131C34.6368 1.23767 34.4183 0.963151 34.1423 0.734673ZM32.6661 21.4999C32.6643 21.6319 32.6023 21.7581 32.4934 21.8515C32.3845 21.9448 32.2373 21.998 32.0832 21.9995H2.9168C2.76276 21.9977 2.61564 21.9444 2.50677 21.851C2.39789 21.7575 2.33586 21.6314 2.33388 21.4993V12H32.6661V21.4999ZM32.6661 5.99986H2.33324V2.50013C2.33539 2.36804 2.39756 2.24188 2.50654 2.14847C2.61551 2.05507 2.7627 2.00178 2.9168 1.99994H32.0826C32.2368 2.0015 32.3842 2.0547 32.4932 2.14817C32.6022 2.24164 32.6643 2.36796 32.6661 2.50013V5.99986Z" fill="#5C6E9F"/>
<path d="M8.29618 17.4067H4.14807V19.3411H8.29618V17.4067Z" fill="#5C6E9F"/>
<path d="M16.5925 17.4067H10.3706V19.3411H16.5925V17.4067Z" fill="#5C6E9F"/>
</svg>


