<svg width="70" height="48" viewBox="0 0 70 48" fill="none" xmlns="http://www.w3.org/2000/svg">
<rect x="0.5" y="0.5" width="69" height="47" rx="5.5" fill="white" stroke="#D9D9D9"/>
<path d="M52.1423 12.7347C51.8759 12.4981 51.5557 12.3109 51.2015 12.1845C50.8474 12.0582 50.4668 11.9955 50.0832 12.0003H20.9168C20.5332 11.9956 20.1525 12.0584 19.7983 12.1847C19.444 12.311 19.1237 12.4982 18.8571 12.7347C18.5812 12.9632 18.3628 13.2377 18.2155 13.5414C18.0681 13.845 17.9949 14.1713 18.0003 14.5001V33.4993C17.9948 33.8283 18.068 34.1546 18.2154 34.4584C18.3627 34.7621 18.5811 35.0368 18.8571 35.2653C19.1237 35.5018 19.444 35.689 19.7983 35.8153C20.1525 35.9416 20.5332 36.0044 20.9168 35.9998H50.0832C50.856 35.9975 51.5964 35.7333 52.1428 35.2648C52.6891 34.7964 52.9972 34.1617 52.9997 33.4993V14.5001C53.0051 14.1713 52.9317 13.8449 52.7842 13.5413C52.6368 13.2377 52.4183 12.9632 52.1423 12.7347ZM50.6661 33.4999C50.6643 33.6319 50.6023 33.7581 50.4934 33.8515C50.3845 33.9448 50.2373 33.998 50.0832 33.9995H20.9168C20.7628 33.9977 20.6156 33.9444 20.5068 33.851C20.3979 33.7575 20.3359 33.6314 20.3339 33.4993V24H50.6661V33.4999ZM50.6661 17.9999H20.3332V14.5001C20.3354 14.368 20.3976 14.2419 20.5065 14.1485C20.6155 14.0551 20.7627 14.0018 20.9168 13.9999H50.0826C50.2368 14.0015 50.3842 14.0547 50.4932 14.1482C50.6022 14.2416 50.6643 14.368 50.6661 14.5001V17.9999Z" fill="#5C6E9F"/>
<path d="M26.2962 29.4067H22.1481V31.3411H26.2962V29.4067Z" fill="#5C6E9F"/>
<path d="M34.5925 29.4067H28.3706V31.3411H34.5925V29.4067Z" fill="#5C6E9F"/>
</svg>
