<svg width="24" height="24" viewBox="0 0 24 24" fill="none" xmlns="http://www.w3.org/2000/svg">
<g clip-path="url(#clip0_2255_21587)">
<path d="M11.9944 0C9.62036 1.53147e-07 7.2997 0.704023 5.32586 2.02303C3.35202 3.34203 1.81368 5.21677 0.90539 7.41013C-0.00289793 9.60348 -0.240329 12.0169 0.223127 14.3452C0.686582 16.6736 1.8301 18.8121 3.50907 20.4905C5.18803 22.1688 7.32701 23.3116 9.65549 23.7742C11.984 24.2368 14.3973 23.9985 16.5904 23.0895C18.7834 22.1804 20.6576 20.6414 21.9759 18.6671C23.2942 16.6927 23.9974 14.3718 23.9965 11.9978C23.9919 8.81647 22.7258 5.76677 20.4759 3.51761C18.2259 1.26844 15.1757 0.00342124 11.9944 0V0ZM11.9944 22.4178C9.93836 22.4144 7.92948 21.8018 6.2214 20.6575C4.51333 19.5131 3.18266 17.8882 2.39744 15.9881C1.61222 14.0879 1.40766 11.9977 1.8096 9.9814C2.21155 7.96508 3.20196 6.11307 4.65577 4.65926C6.10958 3.20545 7.96158 2.21504 9.97791 1.8131C11.9942 1.41116 14.0844 1.61572 15.9846 2.40093C17.8847 3.18615 19.5096 4.51682 20.654 6.2249C21.7983 7.93297 22.4109 9.94185 22.4143 11.9978C22.4155 13.3665 22.1467 14.722 21.6235 15.9867C21.1002 17.2515 20.3327 18.4006 19.3649 19.3684C18.3971 20.3362 17.248 21.1037 15.9832 21.627C14.7185 22.1502 13.363 22.419 11.9944 22.4178Z" fill="#A8AECD"/>
<path d="M17.9401 11.1313H12.7969V4.33267C12.805 4.22271 12.7903 4.11227 12.7538 4.00825C12.7172 3.90422 12.6596 3.80884 12.5846 3.72808C12.5095 3.64731 12.4186 3.58289 12.3176 3.53883C12.2165 3.49478 12.1074 3.47205 11.9972 3.47205C11.8869 3.47205 11.7779 3.49478 11.6768 3.53883C11.5757 3.58289 11.4848 3.64731 11.4098 3.72808C11.3347 3.80884 11.2771 3.90422 11.2406 4.00825C11.2041 4.11227 11.1894 4.22271 11.1975 4.33267V12.7307H17.9401C18.142 12.7159 18.3309 12.6252 18.4687 12.4769C18.6066 12.3285 18.6832 12.1335 18.6832 11.931C18.6832 11.7285 18.6066 11.5335 18.4687 11.3852C18.3309 11.2368 18.142 11.1461 17.9401 11.1313Z" fill="#A8AECD"/>
</g>
<defs>
<clipPath id="clip0_2255_21587">
<rect width="24" height="24" fill="white"/>
</clipPath>
</defs>
</svg>
