<svg width="380" height="449" viewBox="0 0 380 449" fill="none" xmlns="http://www.w3.org/2000/svg">
<path d="M444.031 404.496C435.305 406.427 425.61 407.392 415.915 407.392C350.959 407.392 281.155 371.673 225.893 317.612C342.233 274.169 404.281 203.696 404.281 123.569C404.281 53.0962 341.264 0 250.131 0C95.0109 0 0 116.812 0 257.758C0 407.392 112.462 502 249.161 502C339.325 502 404.281 467.246 445 405.462L444.031 404.496ZM159.967 33.7885C201.656 33.7885 257.887 105.227 257.887 189.215C257.887 238.45 247.222 277.065 220.076 311.819C161.906 251.965 120.218 170.873 120.218 90.7462C120.218 55.027 134.76 33.7885 159.967 33.7885Z" fill="#E6F9FE" fill-opacity="0.1"/>
</svg>
