<svg width="16" height="16" viewBox="0 0 16 16" fill="none" xmlns="http://www.w3.org/2000/svg">
<path d="M9.11223 7.64707L8.75869 8.00064L9.11226 8.35418L15.3426 14.584C15.3426 14.584 15.3426 14.584 15.3426 14.584C15.4432 14.6847 15.4998 14.8211 15.4998 14.9634C15.4998 15.1058 15.4432 15.2422 15.3426 15.3429C15.242 15.4435 15.1055 15.5 14.9633 15.5C14.821 15.5 14.6846 15.4435 14.5839 15.3429L14.5839 15.3428L8.35354 9.11295L8 8.75944L7.64646 9.11295L1.4204 15.3385C1.3195 15.4337 1.18561 15.4861 1.04683 15.4847C0.906583 15.4832 0.772476 15.4269 0.673254 15.3277C0.574034 15.2286 0.517595 15.0945 0.516049 14.9542C0.514519 14.8154 0.566827 14.6815 0.661869 14.5805L6.88777 8.35415L7.24128 8.00061L6.88777 7.64707L0.65739 1.41622L0.657187 1.41601C0.607359 1.36624 0.567828 1.30713 0.540856 1.24206C0.513883 1.17699 0.5 1.10724 0.5 1.0368C0.5 0.966361 0.513883 0.896612 0.540856 0.831543C0.567828 0.766475 0.607359 0.707363 0.657187 0.657589L0.657592 0.657183C0.707363 0.607352 0.766466 0.567822 0.83152 0.540851C0.896573 0.513881 0.966303 0.5 1.03672 0.5C1.10714 0.5 1.17687 0.513881 1.24193 0.540851C1.30698 0.567822 1.36608 0.607352 1.41585 0.657183L1.41606 0.657386L7.64643 6.88824L8 7.24183L8.35357 6.88824L14.5839 0.657386L14.5841 0.657183C14.6339 0.607352 14.693 0.567822 14.7581 0.540851C14.8231 0.513881 14.8929 0.5 14.9633 0.5C15.0337 0.5 15.1034 0.513882 15.1685 0.540851C15.2335 0.567821 15.2926 0.607352 15.3424 0.657185L15.3428 0.657588C15.3926 0.707364 15.4322 0.766476 15.4591 0.831542C15.4861 0.89661 15.5 0.966359 15.5 1.0368C15.5 1.10724 15.4861 1.17699 15.4591 1.24206C15.4322 1.30713 15.3926 1.36624 15.3428 1.41602L15.3426 1.41622L9.11223 7.64707Z" fill="white" stroke="white"/>
</svg>

