<svg width="22" height="22" viewBox="0 0 22 22" fill="none" xmlns="http://www.w3.org/2000/svg">
<path d="M11.7329 11.0003L14.8481 7.88488C14.8962 7.83677 14.9345 7.77964 14.9605 7.71676C14.9866 7.65388 15 7.58647 15 7.5184C15 7.45033 14.9866 7.38292 14.9605 7.32004C14.9345 7.25716 14.8962 7.20003 14.8481 7.15192C14.8 7.10376 14.7429 7.06555 14.68 7.03949C14.6171 7.01342 14.5497 7 14.4816 7C14.4136 7 14.3462 7.01342 14.2833 7.03949C14.2204 7.06555 14.1633 7.10376 14.1152 7.15192L11 10.2673L7.88481 7.15192C7.83671 7.10376 7.77958 7.06555 7.71671 7.03949C7.65383 7.01342 7.58643 7 7.51836 7C7.45029 7 7.38289 7.01342 7.32002 7.03949C7.25714 7.06555 7.20001 7.10376 7.15191 7.15192C7.10375 7.20003 7.06555 7.25716 7.03948 7.32004C7.01342 7.38292 7 7.45033 7 7.5184C7 7.58647 7.01342 7.65388 7.03948 7.71676C7.06555 7.77964 7.10375 7.83677 7.15191 7.88488L10.2671 11.0003L7.15191 14.1157C7.05819 14.2136 7.00655 14.3443 7.00804 14.4798C7.00953 14.6154 7.06405 14.7449 7.1599 14.8407C7.25576 14.9365 7.38532 14.9909 7.52083 14.9923C7.65633 14.9937 7.78699 14.942 7.88481 14.8482L11 11.7333L14.1152 14.8482C14.2124 14.9454 14.3442 15 14.4816 15C14.6191 15 14.7509 14.9454 14.8481 14.8482C14.9453 14.751 14.9999 14.6192 14.9999 14.4817C14.9999 14.3443 14.9453 14.2124 14.8481 14.1152L11.7329 11.0003Z" fill="#5C6E9F"/>
<rect x="0.5" y="0.5" width="21" height="21" rx="10.5" stroke="#5C6E9F"/>
</svg>
