<svg width="24" height="24" viewBox="0 0 24 24" fill="none" xmlns="http://www.w3.org/2000/svg">
<path d="M21 3H3C2.20435 3 1.44129 3.31607 0.87868 3.87868C0.316071 4.44129 0 5.20435 0 6V21C0 21.7956 0.316071 22.5587 0.87868 23.1213C1.44129 23.6839 2.20435 24 3 24H21C21.7956 24 22.5587 23.6839 23.1213 23.1213C23.6839 22.5587 24 21.7956 24 21V6C24 5.20435 23.6839 4.44129 23.1213 3.87868C22.5587 3.31607 21.7956 3 21 3ZM22.0003 21C22.0003 21.2653 21.8949 21.5197 21.7073 21.7073C21.5197 21.8949 21.2653 22.0003 21 22.0003H3C2.7347 22.0003 2.48027 21.8949 2.29267 21.7073C2.10508 21.5197 1.99969 21.2653 1.99969 21V10.0397H21.9994L22.0003 21Z" fill="#5C6E9F"/>
<path d="M6.00005 0H4.99973C4.73443 0 4.48 0.10539 4.29241 0.292984C4.10481 0.480579 3.99942 0.735013 3.99942 1.00031V5.00062C3.99992 5.26569 4.1055 5.51973 4.29301 5.70707C4.48053 5.89441 4.73467 5.99975 4.99973 6H6.00005C6.13149 6 6.26164 5.9741 6.38307 5.92377C6.50449 5.87344 6.61481 5.79967 6.70771 5.70668C6.80061 5.6137 6.87427 5.50331 6.92448 5.38184C6.9747 5.26037 7.00048 5.13019 7.00036 4.99875V1.00031C7.00036 0.735013 6.89497 0.480579 6.70737 0.292984C6.51978 0.10539 6.26535 0 6.00005 0Z" fill="#5C6E9F"/>
<path d="M19.0003 0H18C17.7347 0 17.4803 0.10539 17.2927 0.292984C17.1051 0.480579 16.9997 0.735013 16.9997 1.00031V5.00062C17 5.26576 17.1055 5.51996 17.293 5.70735C17.4806 5.89474 17.7349 6 18 6H19.0003C19.2656 6 19.5201 5.89461 19.7077 5.70702C19.8953 5.51942 20.0006 5.26499 20.0006 4.99969V1.00031C20.0006 0.735013 19.8953 0.480579 19.7077 0.292984C19.5201 0.10539 19.2656 0 19.0003 0Z" fill="#5C6E9F"/>
</svg>
