<svg width="25" height="26" viewBox="0 0 25 26" fill="none" xmlns="http://www.w3.org/2000/svg">
<path d="M14.13 5H3.33C1.49089 5 0 6.49089 0 8.33V19.13C0 20.9691 1.49089 22.46 3.33 22.46H14.13C15.9691 22.46 17.46 20.9691 17.46 19.13V8.33C17.46 6.49089 15.9691 5 14.13 5Z" fill="white"/>
<path d="M22.4484 20.69L19.1484 20.01C18.8637 19.9443 18.6097 19.7839 18.428 19.555C18.2463 19.3261 18.1478 19.0422 18.1484 18.75V8.75C18.1491 8.45696 18.2479 8.17261 18.4292 7.94238C18.6105 7.71215 18.8637 7.54935 19.1484 7.48001L22.4484 6.80002C22.6377 6.75983 22.8336 6.76238 23.0217 6.80752C23.2099 6.85267 23.3856 6.93925 23.536 7.06094C23.6865 7.18263 23.8078 7.33638 23.8913 7.51095C23.9748 7.68552 24.0182 7.87651 24.0184 8.07001V19.4C24.0251 19.5964 23.9865 19.7916 23.9056 19.9707C23.8247 20.1497 23.7036 20.3077 23.5518 20.4324C23.4 20.5572 23.2215 20.6453 23.0302 20.69C22.8388 20.7346 22.6398 20.7346 22.4484 20.69Z" fill="white"/>
<path d="M4.9323 1.45946C4.46063 0.786096 3.53594 0.714597 2.89409 1.16419C2.25224 1.61379 2.00347 2.50725 2.47514 3.18062L17.3635 24.4355C17.8351 25.1088 18.7598 25.1803 19.4017 24.7307C20.0435 24.2811 20.2923 23.3877 19.8206 22.7143L4.9323 1.45946Z" fill="#EA5230" stroke="#3A3C49" stroke-linecap="round"/>
</svg>
