<svg width="25" height="26" viewBox="0 0 25 26" fill="none" xmlns="http://www.w3.org/2000/svg">
<path d="M14.13 5H3.33C1.49089 5 0 6.49089 0 8.33V19.13C0 20.9691 1.49089 22.46 3.33 22.46H14.13C15.9691 22.46 17.46 20.9691 17.46 19.13V8.33C17.46 6.49089 15.9691 5 14.13 5Z" fill="#3365EF"/>
<path d="M22.45 20.6899L19.15 20.01C18.8653 19.9443 18.6112 19.7838 18.4296 19.5549C18.2479 19.326 18.1493 19.0422 18.15 18.7499V8.74994C18.1507 8.45691 18.2495 8.17256 18.4308 7.94233C18.6121 7.7121 18.8653 7.5493 19.15 7.47996L22.45 6.79996C22.6393 6.75978 22.8352 6.76233 23.0233 6.80747C23.2115 6.85261 23.3872 6.9392 23.5376 7.06089C23.688 7.18258 23.8094 7.33633 23.8929 7.5109C23.9763 7.68547 24.0198 7.87646 24.02 8.06995V19.4C24.0267 19.5963 23.9881 19.7916 23.9072 19.9706C23.8262 20.1497 23.7052 20.3077 23.5533 20.4324C23.4015 20.5571 23.2231 20.6452 23.0317 20.6899C22.8404 20.7346 22.6414 20.7346 22.45 20.6899Z" fill="#3365EF"/>
<path d="M6.9323 1.71727C6.46063 1.04391 5.53594 0.972409 4.89409 1.42201C4.25224 1.8716 4.00347 2.76507 4.47514 3.43843L19.3635 24.6933C19.8351 25.3666 20.7598 25.4381 21.4017 24.9885C22.0435 24.5389 22.2923 23.6455 21.8206 22.9721L6.9323 1.71727Z" fill="#3365EF" stroke="white" stroke-linecap="round"/>
</svg>
