<svg width="24" height="24" viewBox="0 0 24 24" fill="none" xmlns="http://www.w3.org/2000/svg">
<circle opacity="0.5" cx="12" cy="12" r="12" fill="#96B3CE"/>
<path d="M12.8199 12.7002L17.6001 12.7C17.6739 12.7001 17.7471 12.6855 17.8153 12.6573C17.8835 12.6291 17.9456 12.5876 17.9978 12.5354C18.05 12.4832 18.0914 12.4212 18.1197 12.3529C18.1479 12.2847 18.1624 12.2116 18.1624 12.1377C18.1624 12.0638 18.1479 11.9907 18.1197 11.9225C18.0914 11.8542 18.05 11.7922 17.9978 11.74C17.9456 11.6878 17.8836 11.6464 17.8153 11.6181C17.7471 11.5899 17.674 11.5754 17.6001 11.5754L12.8199 11.5756L12.8201 6.79539C12.8201 6.72154 12.8056 6.6484 12.7774 6.58016C12.7491 6.51192 12.7077 6.44991 12.6555 6.39769C12.6033 6.34547 12.5413 6.30406 12.473 6.27581C12.4048 6.24757 12.3317 6.23306 12.2578 6.23311C12.1839 6.23307 12.1108 6.24758 12.0426 6.27583C11.9743 6.30408 11.9123 6.3455 11.8601 6.39772C11.8079 6.44995 11.7664 6.51196 11.7382 6.5802C11.71 6.64844 11.6954 6.72158 11.6955 6.79544L11.6953 11.5756L6.91509 11.5758C6.76809 11.579 6.62819 11.6397 6.52537 11.7448C6.42254 11.8499 6.36499 11.9911 6.36503 12.1381C6.36507 12.2852 6.42271 12.4263 6.5256 12.5314C6.62848 12.6364 6.76842 12.697 6.91542 12.7001L11.6952 12.7003L11.6954 17.4801C11.6954 17.6292 11.7547 17.7722 11.8601 17.8777C11.9656 17.9831 12.1086 18.0424 12.2577 18.0424C12.4069 18.0424 12.5499 17.9831 12.6553 17.8777C12.7608 17.7722 12.8201 17.6292 12.8201 17.48L12.8199 12.7002Z" fill="#293F98"/>
</svg>
