<svg width="16" height="21" viewBox="0 0 16 21" fill="none" xmlns="http://www.w3.org/2000/svg">
<path d="M1.85002 20.5C1.60623 20.5 1.36484 20.4518 1.13974 20.3582C0.91463 20.2646 0.710246 20.1275 0.538327 19.9546C0.366407 19.7818 0.230348 19.5767 0.137966 19.351C0.0455854 19.1254 -0.00129075 18.8838 2.70311e-05 18.64V8.07999C2.70311e-05 7.58934 0.19494 7.11879 0.541882 6.77185C0.888824 6.42491 1.35937 6.22998 1.85002 6.22998H5.19003V7.22998H1.85002C1.62714 7.23515 1.41498 7.32669 1.25827 7.48526C1.10156 7.64383 1.01255 7.85706 1.01002 8.07999V18.64C1.01255 18.8629 1.10156 19.0762 1.25827 19.2347C1.41498 19.3933 1.62714 19.4848 1.85002 19.49H13.61C13.8329 19.4848 14.0451 19.3933 14.2018 19.2347C14.3585 19.0762 14.4475 18.8629 14.45 18.64V8.07999C14.4475 7.85706 14.3585 7.64383 14.2018 7.48526C14.0451 7.32669 13.8329 7.23515 13.61 7.22998H10V6.22998H13.61C14.1008 6.22992 14.572 6.42283 14.9218 6.76706C15.2717 7.11129 15.4721 7.57927 15.48 8.07001V18.64C15.4813 18.8838 15.4345 19.1254 15.3421 19.351C15.2497 19.5767 15.1136 19.7818 14.9417 19.9546C14.7698 20.1275 14.5654 20.2646 14.3403 20.3582C14.1152 20.4518 13.8738 20.5 13.63 20.5H1.85002ZM7.23002 13.5V2.16998L4.58003 4.79001L3.88002 4.07999L7.73002 0.25L11.33 3.85001L10.62 4.56L8.23002 2.16998V13.46L7.23002 13.5Z" fill="white"/>
<path d="M1 6.71H14.5V19.71H1V6.71Z" fill="white" fill-opacity="0.5"/>
</svg>