<svg width="16" height="21" viewBox="0 0 16 21" fill="none" xmlns="http://www.w3.org/2000/svg">
<path d="M1.85002 20.25C1.60623 20.25 1.36484 20.2018 1.13974 20.1082C0.91463 20.0146 0.710246 19.8775 0.538327 19.7046C0.366407 19.5318 0.230348 19.3267 0.137966 19.101C0.0455854 18.8754 -0.00129075 18.6338 2.70311e-05 18.39V7.82999C2.70311e-05 7.33934 0.19494 6.86879 0.541882 6.52185C0.888824 6.17491 1.35937 5.97998 1.85002 5.97998H5.19003V6.97998H1.85002C1.62714 6.98515 1.41498 7.07669 1.25827 7.23526C1.10156 7.39383 1.01255 7.60706 1.01002 7.82999V18.39C1.01255 18.6129 1.10156 18.8262 1.25827 18.9847C1.41498 19.1433 1.62714 19.2348 1.85002 19.24H13.61C13.8329 19.2348 14.0451 19.1433 14.2018 18.9847C14.3585 18.8262 14.4475 18.6129 14.45 18.39V7.82999C14.4475 7.60706 14.3585 7.39383 14.2018 7.23526C14.0451 7.07669 13.8329 6.98515 13.61 6.97998H10V5.97998H13.61C14.1008 5.97992 14.572 6.17283 14.9218 6.51706C15.2717 6.86129 15.4721 7.32927 15.48 7.82001V18.39C15.4813 18.6338 15.4345 18.8754 15.3421 19.101C15.2497 19.3267 15.1136 19.5318 14.9417 19.7046C14.7698 19.8775 14.5654 20.0146 14.3403 20.1082C14.1152 20.2018 13.8738 20.25 13.63 20.25H1.85002ZM7.23002 13.25V1.91998L4.58003 4.54001L3.88002 3.82999L7.73002 0L11.33 3.60001L10.62 4.31L8.23002 1.91998V13.21L7.23002 13.25Z" fill="white"/>
</svg>